<?xml version="1.0" encoding="UTF-8" standalone="no"?>
<!DOCTYPE svg PUBLIC "-//W3C//DTD SVG 1.1//EN"
 "http://www.w3.org/Graphics/SVG/1.1/DTD/svg11.dtd">
<!-- Generated by graphviz version 2.47.0 (20210316.0004)
 -->
<!-- Title: dependencies Pages: 1 -->
<svg width="1076pt" height="211pt"
 viewBox="0.00 0.00 1076.00 211.00" xmlns="http://www.w3.org/2000/svg" xmlns:xlink="http://www.w3.org/1999/xlink">
<g id="graph0" class="graph" transform="scale(1 1) rotate(0) translate(4 207)">
<title>dependencies</title>
<polygon fill="white" stroke="transparent" points="-4,4 -4,-207 1072,-207 1072,4 -4,4"/>
<text text-anchor="start" x="513.01" y="-42.4" font-family="Times-12" font-weight="bold" font-size="14.00">Legend</text>
<polygon fill="#ffffb3" stroke="transparent" points="300,-10 300,-30 320,-30 320,-10 300,-10"/>
<text text-anchor="start" x="323.63" y="-15.4" font-family="Times-12" font-size="14.00"> &#160;Declarations</text>
<polygon fill="#8dd3c7" stroke="transparent" points="413,-10 413,-30 433,-30 433,-10 413,-10"/>
<text text-anchor="start" x="436.73" y="-15.4" font-family="Times-12" font-size="14.00"> &#160;Module</text>
<polygon fill="#80b1d3" stroke="transparent" points="499,-10 499,-30 519,-30 519,-10 499,-10"/>
<text text-anchor="start" x="522.78" y="-15.4" font-family="Times-12" font-size="14.00"> &#160;Bootstrap</text>
<polygon fill="#fdb462" stroke="transparent" points="596,-10 596,-30 616,-30 616,-10 596,-10"/>
<text text-anchor="start" x="619.67" y="-15.4" font-family="Times-12" font-size="14.00"> &#160;Providers</text>
<polygon fill="#fb8072" stroke="transparent" points="692,-10 692,-30 712,-30 712,-10 692,-10"/>
<text text-anchor="start" x="715.73" y="-15.4" font-family="Times-12" font-size="14.00"> &#160;Exports</text>
<g id="clust1" class="cluster">
<title>cluster_BankTransfersModule</title>
<polygon fill="none" stroke="black" stroke-dasharray="1,5" points="8,-70 8,-195 1060,-195 1060,-70 8,-70"/>
</g>
<g id="clust3" class="cluster">
<title>cluster_BankTransfersModule_imports</title>
<polygon fill="none" stroke="black" points="762,-78 762,-130 1052,-130 1052,-78 762,-78"/>
</g>
<g id="clust6" class="cluster">
<title>cluster_BankTransfersModule_providers</title>
<polygon fill="none" stroke="black" points="16,-78 16,-130 754,-130 754,-78 16,-78"/>
</g>
<!-- ProductVariantsModule -->
<g id="node1" class="node">
<title>ProductVariantsModule</title>
<polygon fill="#8dd3c7" stroke="black" points="1044.02,-122 1041.02,-126 1020.02,-126 1017.02,-122 893.98,-122 893.98,-86 1044.02,-86 1044.02,-122"/>
<text text-anchor="middle" x="969" y="-99.8" font-family="Times,serif" font-size="14.00">ProductVariantsModule</text>
</g>
<!-- BankTransfersModule -->
<g id="node3" class="node">
<title>BankTransfersModule</title>
<polygon fill="#8dd3c7" stroke="black" points="719.95,-187 716.95,-191 695.95,-191 692.95,-187 578.05,-187 578.05,-151 719.95,-151 719.95,-187"/>
<text text-anchor="middle" x="649" y="-164.8" font-family="Times,serif" font-size="14.00">BankTransfersModule</text>
</g>
<!-- ProductVariantsModule&#45;&gt;BankTransfersModule -->
<g id="edge1" class="edge">
<title>ProductVariantsModule&#45;&gt;BankTransfersModule</title>
<path fill="none" stroke="black" d="M969,-122.28C969,-143.32 969,-175 969,-175 969,-175 730.02,-175 730.02,-175"/>
<polygon fill="black" stroke="black" points="730.02,-171.5 720.02,-175 730.02,-178.5 730.02,-171.5"/>
</g>
<!-- UploadsModule -->
<g id="node2" class="node">
<title>UploadsModule</title>
<polygon fill="#8dd3c7" stroke="black" points="876.21,-122 873.21,-126 852.21,-126 849.21,-122 769.79,-122 769.79,-86 876.21,-86 876.21,-122"/>
<text text-anchor="middle" x="823" y="-99.8" font-family="Times,serif" font-size="14.00">UploadsModule</text>
</g>
<!-- UploadsModule&#45;&gt;BankTransfersModule -->
<g id="edge2" class="edge">
<title>UploadsModule&#45;&gt;BankTransfersModule</title>
<path fill="none" stroke="black" d="M823,-122.02C823,-139.37 823,-163 823,-163 823,-163 730.02,-163 730.02,-163"/>
<polygon fill="black" stroke="black" points="730.02,-159.5 720.02,-163 730.02,-166.5 730.02,-159.5"/>
</g>
<!-- BankTransfersService -->
<g id="node4" class="node">
<title>BankTransfersService</title>
<ellipse fill="#fdb462" stroke="black" cx="649" cy="-104" rx="96.67" ry="18"/>
<text text-anchor="middle" x="649" y="-99.8" font-family="Times,serif" font-size="14.00">BankTransfersService</text>
</g>
<!-- BankTransfersService&#45;&gt;BankTransfersModule -->
<g id="edge3" class="edge">
<title>BankTransfersService&#45;&gt;BankTransfersModule</title>
<path fill="none" stroke="black" d="M649,-122.11C649,-122.11 649,-140.99 649,-140.99"/>
<polygon fill="black" stroke="black" points="645.5,-140.99 649,-150.99 652.5,-140.99 645.5,-140.99"/>
</g>
<!-- ConfirmBankTransferProvider -->
<g id="node5" class="node">
<title>ConfirmBankTransferProvider</title>
<ellipse fill="#fdb462" stroke="black" cx="404" cy="-104" rx="130.2" ry="18"/>
<text text-anchor="middle" x="404" y="-99.8" font-family="Times,serif" font-size="14.00">ConfirmBankTransferProvider</text>
</g>
<!-- ConfirmBankTransferProvider&#45;&gt;BankTransfersModule -->
<g id="edge4" class="edge">
<title>ConfirmBankTransferProvider&#45;&gt;BankTransfersModule</title>
<path fill="none" stroke="black" d="M404,-122.02C404,-139.37 404,-163 404,-163 404,-163 567.81,-163 567.81,-163"/>
<polygon fill="black" stroke="black" points="567.81,-166.5 577.81,-163 567.81,-159.5 567.81,-166.5"/>
</g>
<!-- SaveBankTransferProvider -->
<g id="node6" class="node">
<title>SaveBankTransferProvider</title>
<ellipse fill="#fdb462" stroke="black" cx="140" cy="-104" rx="116.29" ry="18"/>
<text text-anchor="middle" x="140" y="-99.8" font-family="Times,serif" font-size="14.00">SaveBankTransferProvider</text>
</g>
<!-- SaveBankTransferProvider&#45;&gt;BankTransfersModule -->
<g id="edge5" class="edge">
<title>SaveBankTransferProvider&#45;&gt;BankTransfersModule</title>
<path fill="none" stroke="black" d="M140,-122.28C140,-143.32 140,-175 140,-175 140,-175 567.96,-175 567.96,-175"/>
<polygon fill="black" stroke="black" points="567.96,-178.5 577.96,-175 567.96,-171.5 567.96,-178.5"/>
</g>
</g>
</svg>
