<?xml version="1.0" encoding="UTF-8" standalone="no"?>
<!DOCTYPE svg PUBLIC "-//W3C//DTD SVG 1.1//EN"
 "http://www.w3.org/Graphics/SVG/1.1/DTD/svg11.dtd">
<!-- Generated by graphviz version 2.47.0 (20210316.0004)
 -->
<!-- Title: dependencies Pages: 1 -->
<svg width="1939pt" height="284pt"
 viewBox="0.00 0.00 1939.00 284.00" xmlns="http://www.w3.org/2000/svg" xmlns:xlink="http://www.w3.org/1999/xlink">
<g id="graph0" class="graph" transform="scale(1 1) rotate(0) translate(4 280)">
<title>dependencies</title>
<polygon fill="white" stroke="transparent" points="-4,4 -4,-280 1935,-280 1935,4 -4,4"/>
<text text-anchor="start" x="944.51" y="-42.4" font-family="Times-12" font-weight="bold" font-size="14.00">Legend</text>
<polygon fill="#ffffb3" stroke="transparent" points="731.5,-10 731.5,-30 751.5,-30 751.5,-10 731.5,-10"/>
<text text-anchor="start" x="755.13" y="-15.4" font-family="Times-12" font-size="14.00"> &#160;Declarations</text>
<polygon fill="#8dd3c7" stroke="transparent" points="844.5,-10 844.5,-30 864.5,-30 864.5,-10 844.5,-10"/>
<text text-anchor="start" x="868.23" y="-15.4" font-family="Times-12" font-size="14.00"> &#160;Module</text>
<polygon fill="#80b1d3" stroke="transparent" points="930.5,-10 930.5,-30 950.5,-30 950.5,-10 930.5,-10"/>
<text text-anchor="start" x="954.28" y="-15.4" font-family="Times-12" font-size="14.00"> &#160;Bootstrap</text>
<polygon fill="#fdb462" stroke="transparent" points="1027.5,-10 1027.5,-30 1047.5,-30 1047.5,-10 1027.5,-10"/>
<text text-anchor="start" x="1051.17" y="-15.4" font-family="Times-12" font-size="14.00"> &#160;Providers</text>
<polygon fill="#fb8072" stroke="transparent" points="1123.5,-10 1123.5,-30 1143.5,-30 1143.5,-10 1123.5,-10"/>
<text text-anchor="start" x="1147.23" y="-15.4" font-family="Times-12" font-size="14.00"> &#160;Exports</text>
<g id="clust1" class="cluster">
<title>cluster_UsersModule</title>
<polygon fill="none" stroke="black" stroke-dasharray="1,5" points="8,-70 8,-268 1923,-268 1923,-70 8,-70"/>
</g>
<g id="clust6" class="cluster">
<title>cluster_UsersModule_providers</title>
<polygon fill="none" stroke="black" points="160,-78 160,-130 1915,-130 1915,-78 160,-78"/>
</g>
<g id="clust4" class="cluster">
<title>cluster_UsersModule_exports</title>
<polygon fill="none" stroke="black" points="845,-208 845,-260 955,-260 955,-208 845,-208"/>
</g>
<g id="clust3" class="cluster">
<title>cluster_UsersModule_imports</title>
<polygon fill="none" stroke="black" points="16,-78 16,-130 152,-130 152,-78 16,-78"/>
</g>
<!-- PaginationModule -->
<g id="node1" class="node">
<title>PaginationModule</title>
<polygon fill="#8dd3c7" stroke="black" points="143.93,-122 140.93,-126 119.93,-126 116.93,-122 24.07,-122 24.07,-86 143.93,-86 143.93,-122"/>
<text text-anchor="middle" x="84" y="-99.8" font-family="Times,serif" font-size="14.00">PaginationModule</text>
</g>
<!-- UsersModule -->
<g id="node2" class="node">
<title>UsersModule</title>
<polygon fill="#8dd3c7" stroke="black" points="945.92,-187 942.92,-191 921.92,-191 918.92,-187 854.08,-187 854.08,-151 945.92,-151 945.92,-187"/>
<text text-anchor="middle" x="900" y="-164.8" font-family="Times,serif" font-size="14.00">UsersModule</text>
</g>
<!-- PaginationModule&#45;&gt;UsersModule -->
<g id="edge1" class="edge">
<title>PaginationModule&#45;&gt;UsersModule</title>
<path fill="none" stroke="black" d="M84,-122.29C84,-144.21 84,-178 84,-178 84,-178 844.09,-178 844.09,-178"/>
<polygon fill="black" stroke="black" points="844.09,-181.5 854.09,-178 844.09,-174.5 844.09,-181.5"/>
</g>
<!-- UsersService  -->
<g id="node3" class="node">
<title>UsersService </title>
<polygon fill="#fb8072" stroke="black" points="946.85,-252 853.15,-252 853.15,-216 946.85,-216 946.85,-252"/>
<text text-anchor="middle" x="900" y="-229.8" font-family="Times,serif" font-size="14.00">UsersService </text>
</g>
<!-- UsersModule&#45;&gt;UsersService  -->
<g id="edge2" class="edge">
<title>UsersModule&#45;&gt;UsersService </title>
<path fill="none" stroke="black" stroke-dasharray="5,2" d="M900,-187.11C900,-187.11 900,-205.99 900,-205.99"/>
<polygon fill="black" stroke="black" points="896.5,-205.99 900,-215.99 903.5,-205.99 896.5,-205.99"/>
</g>
<!-- ClearOtpAndExpiryTimeProvider -->
<g id="node4" class="node">
<title>ClearOtpAndExpiryTimeProvider</title>
<ellipse fill="#fdb462" stroke="black" cx="1764" cy="-104" rx="142.96" ry="18"/>
<text text-anchor="middle" x="1764" y="-99.8" font-family="Times,serif" font-size="14.00">ClearOtpAndExpiryTimeProvider</text>
</g>
<!-- ClearOtpAndExpiryTimeProvider&#45;&gt;UsersModule -->
<g id="edge3" class="edge">
<title>ClearOtpAndExpiryTimeProvider&#45;&gt;UsersModule</title>
<path fill="none" stroke="black" d="M1764,-122.29C1764,-144.21 1764,-178 1764,-178 1764,-178 955.84,-178 955.84,-178"/>
<polygon fill="black" stroke="black" points="955.84,-174.5 945.84,-178 955.84,-181.5 955.84,-174.5"/>
</g>
<!-- CreateUsersProvider -->
<g id="node5" class="node">
<title>CreateUsersProvider</title>
<ellipse fill="#fdb462" stroke="black" cx="1512" cy="-104" rx="91.45" ry="18"/>
<text text-anchor="middle" x="1512" y="-99.8" font-family="Times,serif" font-size="14.00">CreateUsersProvider</text>
</g>
<!-- CreateUsersProvider&#45;&gt;UsersModule -->
<g id="edge4" class="edge">
<title>CreateUsersProvider&#45;&gt;UsersModule</title>
<path fill="none" stroke="black" d="M1512,-122.11C1512,-141.34 1512,-169 1512,-169 1512,-169 956,-169 956,-169"/>
<polygon fill="black" stroke="black" points="956,-165.5 946,-169 956,-172.5 956,-165.5"/>
</g>
<!-- FindOneByIdProvider -->
<g id="node6" class="node">
<title>FindOneByIdProvider</title>
<ellipse fill="#fdb462" stroke="black" cx="1305" cy="-104" rx="97.3" ry="18"/>
<text text-anchor="middle" x="1305" y="-99.8" font-family="Times,serif" font-size="14.00">FindOneByIdProvider</text>
</g>
<!-- FindOneByIdProvider&#45;&gt;UsersModule -->
<g id="edge5" class="edge">
<title>FindOneByIdProvider&#45;&gt;UsersModule</title>
<path fill="none" stroke="black" d="M1305,-122.03C1305,-138.4 1305,-160 1305,-160 1305,-160 956.06,-160 956.06,-160"/>
<polygon fill="black" stroke="black" points="956.06,-156.5 946.06,-160 956.06,-163.5 956.06,-156.5"/>
</g>
<!-- FindOneUserByEmailProvider -->
<g id="node7" class="node">
<title>FindOneUserByEmailProvider</title>
<ellipse fill="#fdb462" stroke="black" cx="1059" cy="-104" rx="130.8" ry="18"/>
<text text-anchor="middle" x="1059" y="-99.8" font-family="Times,serif" font-size="14.00">FindOneUserByEmailProvider</text>
</g>
<!-- FindOneUserByEmailProvider&#45;&gt;UsersModule -->
<g id="edge6" class="edge">
<title>FindOneUserByEmailProvider&#45;&gt;UsersModule</title>
<path fill="none" stroke="black" d="M937.03,-110.47C937.03,-110.47 937.03,-140.78 937.03,-140.78"/>
<polygon fill="black" stroke="black" points="933.53,-140.78 937.03,-150.78 940.53,-140.78 933.53,-140.78"/>
</g>
<!-- FindUserByOtpAndExpiryTimeProvider -->
<g id="node8" class="node">
<title>FindUserByOtpAndExpiryTimeProvider</title>
<ellipse fill="#fdb462" stroke="black" cx="741" cy="-104" rx="169.05" ry="18"/>
<text text-anchor="middle" x="741" y="-99.8" font-family="Times,serif" font-size="14.00">FindUserByOtpAndExpiryTimeProvider</text>
</g>
<!-- FindUserByOtpAndExpiryTimeProvider&#45;&gt;UsersModule -->
<g id="edge7" class="edge">
<title>FindUserByOtpAndExpiryTimeProvider&#45;&gt;UsersModule</title>
<path fill="none" stroke="black" d="M882.28,-114.16C882.28,-114.16 882.28,-140.81 882.28,-140.81"/>
<polygon fill="black" stroke="black" points="878.78,-140.81 882.28,-150.81 885.78,-140.81 878.78,-140.81"/>
</g>
<!-- StoreOtpAndExpireProvider -->
<g id="node9" class="node">
<title>StoreOtpAndExpireProvider</title>
<ellipse fill="#fdb462" stroke="black" cx="432" cy="-104" rx="121.55" ry="18"/>
<text text-anchor="middle" x="432" y="-99.8" font-family="Times,serif" font-size="14.00">StoreOtpAndExpireProvider</text>
</g>
<!-- StoreOtpAndExpireProvider&#45;&gt;UsersModule -->
<g id="edge8" class="edge">
<title>StoreOtpAndExpireProvider&#45;&gt;UsersModule</title>
<path fill="none" stroke="black" d="M432,-122.03C432,-138.4 432,-160 432,-160 432,-160 844.27,-160 844.27,-160"/>
<polygon fill="black" stroke="black" points="844.27,-163.5 854.27,-160 844.27,-156.5 844.27,-163.5"/>
</g>
<!-- UsersService -->
<g id="node10" class="node">
<title>UsersService</title>
<ellipse fill="#fdb462" stroke="black" cx="230" cy="-104" rx="61.95" ry="18"/>
<text text-anchor="middle" x="230" y="-99.8" font-family="Times,serif" font-size="14.00">UsersService</text>
</g>
<!-- UsersService&#45;&gt;UsersModule -->
<g id="edge9" class="edge">
<title>UsersService&#45;&gt;UsersModule</title>
<path fill="none" stroke="black" d="M230,-122.11C230,-141.34 230,-169 230,-169 230,-169 844.21,-169 844.21,-169"/>
<polygon fill="black" stroke="black" points="844.21,-172.5 854.21,-169 844.21,-165.5 844.21,-172.5"/>
</g>
</g>
</svg>
