<?xml version="1.0" encoding="UTF-8" standalone="no"?>
<!DOCTYPE svg PUBLIC "-//W3C//DTD SVG 1.1//EN"
 "http://www.w3.org/Graphics/SVG/1.1/DTD/svg11.dtd">
<!-- Generated by graphviz version 2.47.0 (20210316.0004)
 -->
<!-- Title: dependencies Pages: 1 -->
<svg width="1939pt" height="284pt"
 viewBox="0.00 0.00 1939.00 284.00" xmlns="http://www.w3.org/2000/svg" xmlns:xlink="http://www.w3.org/1999/xlink">
<g id="graph0" class="graph" transform="scale(1 1) rotate(0) translate(4 280)">
<title>dependencies</title>
<polygon fill="white" stroke="transparent" points="-4,4 -4,-280 1935,-280 1935,4 -4,4"/>
<text text-anchor="start" x="944.51" y="-42.4" font-family="Times-12" font-weight="bold" font-size="14.00">Legend</text>
<polygon fill="#ffffb3" stroke="transparent" points="731.5,-10 731.5,-30 751.5,-30 751.5,-10 731.5,-10"/>
<text text-anchor="start" x="755.13" y="-15.4" font-family="Times-12" font-size="14.00"> &#160;Declarations</text>
<polygon fill="#8dd3c7" stroke="transparent" points="844.5,-10 844.5,-30 864.5,-30 864.5,-10 844.5,-10"/>
<text text-anchor="start" x="868.23" y="-15.4" font-family="Times-12" font-size="14.00"> &#160;Module</text>
<polygon fill="#80b1d3" stroke="transparent" points="930.5,-10 930.5,-30 950.5,-30 950.5,-10 930.5,-10"/>
<text text-anchor="start" x="954.28" y="-15.4" font-family="Times-12" font-size="14.00"> &#160;Bootstrap</text>
<polygon fill="#fdb462" stroke="transparent" points="1027.5,-10 1027.5,-30 1047.5,-30 1047.5,-10 1027.5,-10"/>
<text text-anchor="start" x="1051.17" y="-15.4" font-family="Times-12" font-size="14.00"> &#160;Providers</text>
<polygon fill="#fb8072" stroke="transparent" points="1123.5,-10 1123.5,-30 1143.5,-30 1143.5,-10 1123.5,-10"/>
<text text-anchor="start" x="1147.23" y="-15.4" font-family="Times-12" font-size="14.00"> &#160;Exports</text>
<g id="clust1" class="cluster">
<title>cluster_UsersModule</title>
<polygon fill="none" stroke="black" stroke-dasharray="1,5" points="8,-70 8,-268 1923,-268 1923,-70 8,-70"/>
</g>
<g id="clust4" class="cluster">
<title>cluster_UsersModule_exports</title>
<polygon fill="none" stroke="black" points="983,-208 983,-260 1093,-260 1093,-208 983,-208"/>
</g>
<g id="clust3" class="cluster">
<title>cluster_UsersModule_imports</title>
<polygon fill="none" stroke="black" points="1779,-78 1779,-130 1915,-130 1915,-78 1779,-78"/>
</g>
<g id="clust6" class="cluster">
<title>cluster_UsersModule_providers</title>
<polygon fill="none" stroke="black" points="16,-78 16,-130 1771,-130 1771,-78 16,-78"/>
</g>
<!-- PaginationModule -->
<g id="node1" class="node">
<title>PaginationModule</title>
<polygon fill="#8dd3c7" stroke="black" points="1906.93,-122 1903.93,-126 1882.93,-126 1879.93,-122 1787.07,-122 1787.07,-86 1906.93,-86 1906.93,-122"/>
<text text-anchor="middle" x="1847" y="-99.8" font-family="Times,serif" font-size="14.00">PaginationModule</text>
</g>
<!-- UsersModule -->
<g id="node2" class="node">
<title>UsersModule</title>
<polygon fill="#8dd3c7" stroke="black" points="1083.92,-187 1080.92,-191 1059.92,-191 1056.92,-187 992.08,-187 992.08,-151 1083.92,-151 1083.92,-187"/>
<text text-anchor="middle" x="1038" y="-164.8" font-family="Times,serif" font-size="14.00">UsersModule</text>
</g>
<!-- PaginationModule&#45;&gt;UsersModule -->
<g id="edge1" class="edge">
<title>PaginationModule&#45;&gt;UsersModule</title>
<path fill="none" stroke="black" d="M1847,-122.29C1847,-144.21 1847,-178 1847,-178 1847,-178 1093.81,-178 1093.81,-178"/>
<polygon fill="black" stroke="black" points="1093.81,-174.5 1083.81,-178 1093.81,-181.5 1093.81,-174.5"/>
</g>
<!-- UsersService  -->
<g id="node3" class="node">
<title>UsersService </title>
<polygon fill="#fb8072" stroke="black" points="1084.85,-252 991.15,-252 991.15,-216 1084.85,-216 1084.85,-252"/>
<text text-anchor="middle" x="1038" y="-229.8" font-family="Times,serif" font-size="14.00">UsersService </text>
</g>
<!-- UsersModule&#45;&gt;UsersService  -->
<g id="edge2" class="edge">
<title>UsersModule&#45;&gt;UsersService </title>
<path fill="none" stroke="black" stroke-dasharray="5,2" d="M1038,-187.11C1038,-187.11 1038,-205.99 1038,-205.99"/>
<polygon fill="black" stroke="black" points="1034.5,-205.99 1038,-215.99 1041.5,-205.99 1034.5,-205.99"/>
</g>
<!-- ClearOtpAndExpiryTimeProvider -->
<g id="node4" class="node">
<title>ClearOtpAndExpiryTimeProvider</title>
<ellipse fill="#fdb462" stroke="black" cx="1620" cy="-104" rx="142.96" ry="18"/>
<text text-anchor="middle" x="1620" y="-99.8" font-family="Times,serif" font-size="14.00">ClearOtpAndExpiryTimeProvider</text>
</g>
<!-- ClearOtpAndExpiryTimeProvider&#45;&gt;UsersModule -->
<g id="edge3" class="edge">
<title>ClearOtpAndExpiryTimeProvider&#45;&gt;UsersModule</title>
<path fill="none" stroke="black" d="M1620,-122.11C1620,-141.34 1620,-169 1620,-169 1620,-169 1094.16,-169 1094.16,-169"/>
<polygon fill="black" stroke="black" points="1094.16,-165.5 1084.16,-169 1094.16,-172.5 1094.16,-165.5"/>
</g>
<!-- CreateUsersProvider -->
<g id="node5" class="node">
<title>CreateUsersProvider</title>
<ellipse fill="#fdb462" stroke="black" cx="1368" cy="-104" rx="91.45" ry="18"/>
<text text-anchor="middle" x="1368" y="-99.8" font-family="Times,serif" font-size="14.00">CreateUsersProvider</text>
</g>
<!-- CreateUsersProvider&#45;&gt;UsersModule -->
<g id="edge4" class="edge">
<title>CreateUsersProvider&#45;&gt;UsersModule</title>
<path fill="none" stroke="black" d="M1368,-122.03C1368,-138.4 1368,-160 1368,-160 1368,-160 1093.89,-160 1093.89,-160"/>
<polygon fill="black" stroke="black" points="1093.89,-156.5 1083.89,-160 1093.89,-163.5 1093.89,-156.5"/>
</g>
<!-- FindOneByIdProvider -->
<g id="node6" class="node">
<title>FindOneByIdProvider</title>
<ellipse fill="#fdb462" stroke="black" cx="1161" cy="-104" rx="97.3" ry="18"/>
<text text-anchor="middle" x="1161" y="-99.8" font-family="Times,serif" font-size="14.00">FindOneByIdProvider</text>
</g>
<!-- FindOneByIdProvider&#45;&gt;UsersModule -->
<g id="edge5" class="edge">
<title>FindOneByIdProvider&#45;&gt;UsersModule</title>
<path fill="none" stroke="black" d="M1073.66,-111.97C1073.66,-111.97 1073.66,-140.87 1073.66,-140.87"/>
<polygon fill="black" stroke="black" points="1070.16,-140.87 1073.66,-150.87 1077.16,-140.87 1070.16,-140.87"/>
</g>
<!-- FindOneUserByEmailProvider -->
<g id="node7" class="node">
<title>FindOneUserByEmailProvider</title>
<ellipse fill="#fdb462" stroke="black" cx="915" cy="-104" rx="130.8" ry="18"/>
<text text-anchor="middle" x="915" y="-99.8" font-family="Times,serif" font-size="14.00">FindOneUserByEmailProvider</text>
</g>
<!-- FindOneUserByEmailProvider&#45;&gt;UsersModule -->
<g id="edge6" class="edge">
<title>FindOneUserByEmailProvider&#45;&gt;UsersModule</title>
<path fill="none" stroke="black" d="M1018.97,-115.03C1018.97,-115.03 1018.97,-140.78 1018.97,-140.78"/>
<polygon fill="black" stroke="black" points="1015.47,-140.78 1018.97,-150.78 1022.47,-140.78 1015.47,-140.78"/>
</g>
<!-- FindUserByOtpAndExpiryTimeProvider -->
<g id="node8" class="node">
<title>FindUserByOtpAndExpiryTimeProvider</title>
<ellipse fill="#fdb462" stroke="black" cx="597" cy="-104" rx="169.05" ry="18"/>
<text text-anchor="middle" x="597" y="-99.8" font-family="Times,serif" font-size="14.00">FindUserByOtpAndExpiryTimeProvider</text>
</g>
<!-- FindUserByOtpAndExpiryTimeProvider&#45;&gt;UsersModule -->
<g id="edge7" class="edge">
<title>FindUserByOtpAndExpiryTimeProvider&#45;&gt;UsersModule</title>
<path fill="none" stroke="black" d="M597,-122.03C597,-138.4 597,-160 597,-160 597,-160 982.05,-160 982.05,-160"/>
<polygon fill="black" stroke="black" points="982.05,-163.5 992.05,-160 982.05,-156.5 982.05,-163.5"/>
</g>
<!-- StoreOtpAndExpireProvider -->
<g id="node9" class="node">
<title>StoreOtpAndExpireProvider</title>
<ellipse fill="#fdb462" stroke="black" cx="288" cy="-104" rx="121.55" ry="18"/>
<text text-anchor="middle" x="288" y="-99.8" font-family="Times,serif" font-size="14.00">StoreOtpAndExpireProvider</text>
</g>
<!-- StoreOtpAndExpireProvider&#45;&gt;UsersModule -->
<g id="edge8" class="edge">
<title>StoreOtpAndExpireProvider&#45;&gt;UsersModule</title>
<path fill="none" stroke="black" d="M288,-122.11C288,-141.34 288,-169 288,-169 288,-169 982.21,-169 982.21,-169"/>
<polygon fill="black" stroke="black" points="982.21,-172.5 992.21,-169 982.21,-165.5 982.21,-172.5"/>
</g>
<!-- UsersService -->
<g id="node10" class="node">
<title>UsersService</title>
<ellipse fill="#fdb462" stroke="black" cx="86" cy="-104" rx="61.95" ry="18"/>
<text text-anchor="middle" x="86" y="-99.8" font-family="Times,serif" font-size="14.00">UsersService</text>
</g>
<!-- UsersService&#45;&gt;UsersModule -->
<g id="edge9" class="edge">
<title>UsersService&#45;&gt;UsersModule</title>
<path fill="none" stroke="black" d="M86,-122.29C86,-144.21 86,-178 86,-178 86,-178 982.08,-178 982.08,-178"/>
<polygon fill="black" stroke="black" points="982.08,-181.5 992.08,-178 982.08,-174.5 982.08,-181.5"/>
</g>
</g>
</svg>
