<?xml version="1.0" encoding="UTF-8" standalone="no"?>
<!DOCTYPE svg PUBLIC "-//W3C//DTD SVG 1.1//EN"
 "http://www.w3.org/Graphics/SVG/1.1/DTD/svg11.dtd">
<!-- Generated by graphviz version 2.47.0 (20210316.0004)
 -->
<!-- Title: dependencies Pages: 1 -->
<svg width="968pt" height="211pt"
 viewBox="0.00 0.00 968.00 211.00" xmlns="http://www.w3.org/2000/svg" xmlns:xlink="http://www.w3.org/1999/xlink">
<g id="graph0" class="graph" transform="scale(1 1) rotate(0) translate(4 207)">
<title>dependencies</title>
<polygon fill="white" stroke="transparent" points="-4,4 -4,-207 964,-207 964,4 -4,4"/>
<text text-anchor="start" x="459.01" y="-42.4" font-family="Times-12" font-weight="bold" font-size="14.00">Legend</text>
<polygon fill="#ffffb3" stroke="transparent" points="246,-10 246,-30 266,-30 266,-10 246,-10"/>
<text text-anchor="start" x="269.63" y="-15.4" font-family="Times-12" font-size="14.00"> &#160;Declarations</text>
<polygon fill="#8dd3c7" stroke="transparent" points="359,-10 359,-30 379,-30 379,-10 359,-10"/>
<text text-anchor="start" x="382.73" y="-15.4" font-family="Times-12" font-size="14.00"> &#160;Module</text>
<polygon fill="#80b1d3" stroke="transparent" points="445,-10 445,-30 465,-30 465,-10 445,-10"/>
<text text-anchor="start" x="468.78" y="-15.4" font-family="Times-12" font-size="14.00"> &#160;Bootstrap</text>
<polygon fill="#fdb462" stroke="transparent" points="542,-10 542,-30 562,-30 562,-10 542,-10"/>
<text text-anchor="start" x="565.67" y="-15.4" font-family="Times-12" font-size="14.00"> &#160;Providers</text>
<polygon fill="#fb8072" stroke="transparent" points="638,-10 638,-30 658,-30 658,-10 638,-10"/>
<text text-anchor="start" x="661.73" y="-15.4" font-family="Times-12" font-size="14.00"> &#160;Exports</text>
<g id="clust1" class="cluster">
<title>cluster_AuthModule</title>
<polygon fill="none" stroke="black" stroke-dasharray="1,5" points="8,-70 8,-195 952,-195 952,-70 8,-70"/>
</g>
<g id="clust6" class="cluster">
<title>cluster_AuthModule_providers</title>
<polygon fill="none" stroke="black" points="16,-78 16,-130 944,-130 944,-78 16,-78"/>
</g>
<!-- AuthService -->
<g id="node1" class="node">
<title>AuthService</title>
<ellipse fill="#fdb462" stroke="black" cx="877" cy="-104" rx="59.11" ry="18"/>
<text text-anchor="middle" x="877" y="-99.8" font-family="Times,serif" font-size="14.00">AuthService</text>
</g>
<!-- AuthModule -->
<g id="node6" class="node">
<title>AuthModule</title>
<polygon fill="#8dd3c7" stroke="black" points="525.55,-187 522.55,-191 501.55,-191 498.55,-187 438.45,-187 438.45,-151 525.55,-151 525.55,-187"/>
<text text-anchor="middle" x="482" y="-164.8" font-family="Times,serif" font-size="14.00">AuthModule</text>
</g>
<!-- AuthService&#45;&gt;AuthModule -->
<g id="edge1" class="edge">
<title>AuthService&#45;&gt;AuthModule</title>
<path fill="none" stroke="black" d="M877,-122.28C877,-143.32 877,-175 877,-175 877,-175 535.78,-175 535.78,-175"/>
<polygon fill="black" stroke="black" points="535.78,-171.5 525.78,-175 535.78,-178.5 535.78,-171.5"/>
</g>
<!-- GenerateTokensProvider -->
<g id="node2" class="node">
<title>GenerateTokensProvider</title>
<ellipse fill="#fdb462" stroke="black" cx="692" cy="-104" rx="107.63" ry="18"/>
<text text-anchor="middle" x="692" y="-99.8" font-family="Times,serif" font-size="14.00">GenerateTokensProvider</text>
</g>
<!-- GenerateTokensProvider&#45;&gt;AuthModule -->
<g id="edge2" class="edge">
<title>GenerateTokensProvider&#45;&gt;AuthModule</title>
<path fill="none" stroke="black" d="M692,-122.02C692,-139.37 692,-163 692,-163 692,-163 535.77,-163 535.77,-163"/>
<polygon fill="black" stroke="black" points="535.77,-159.5 525.77,-163 535.77,-166.5 535.77,-159.5"/>
</g>
<!-- OtpSigninProvider -->
<g id="node3" class="node">
<title>OtpSigninProvider</title>
<ellipse fill="#fdb462" stroke="black" cx="482" cy="-104" rx="83.99" ry="18"/>
<text text-anchor="middle" x="482" y="-99.8" font-family="Times,serif" font-size="14.00">OtpSigninProvider</text>
</g>
<!-- OtpSigninProvider&#45;&gt;AuthModule -->
<g id="edge3" class="edge">
<title>OtpSigninProvider&#45;&gt;AuthModule</title>
<path fill="none" stroke="black" d="M482,-122.11C482,-122.11 482,-140.99 482,-140.99"/>
<polygon fill="black" stroke="black" points="478.5,-140.99 482,-150.99 485.5,-140.99 478.5,-140.99"/>
</g>
<!-- RefreshTokenProvider -->
<g id="node4" class="node">
<title>RefreshTokenProvider</title>
<ellipse fill="#fdb462" stroke="black" cx="281" cy="-104" rx="98.98" ry="18"/>
<text text-anchor="middle" x="281" y="-99.8" font-family="Times,serif" font-size="14.00">RefreshTokenProvider</text>
</g>
<!-- RefreshTokenProvider&#45;&gt;AuthModule -->
<g id="edge4" class="edge">
<title>RefreshTokenProvider&#45;&gt;AuthModule</title>
<path fill="none" stroke="black" d="M281,-122.02C281,-139.37 281,-163 281,-163 281,-163 428.39,-163 428.39,-163"/>
<polygon fill="black" stroke="black" points="428.39,-166.5 438.39,-163 428.39,-159.5 428.39,-166.5"/>
</g>
<!-- SignInProvider -->
<g id="node5" class="node">
<title>SignInProvider</title>
<ellipse fill="#fdb462" stroke="black" cx="94" cy="-104" rx="70.08" ry="18"/>
<text text-anchor="middle" x="94" y="-99.8" font-family="Times,serif" font-size="14.00">SignInProvider</text>
</g>
<!-- SignInProvider&#45;&gt;AuthModule -->
<g id="edge5" class="edge">
<title>SignInProvider&#45;&gt;AuthModule</title>
<path fill="none" stroke="black" d="M94,-122.28C94,-143.32 94,-175 94,-175 94,-175 428.25,-175 428.25,-175"/>
<polygon fill="black" stroke="black" points="428.25,-178.5 438.25,-175 428.25,-171.5 428.25,-178.5"/>
</g>
</g>
</svg>
