<?xml version="1.0" encoding="UTF-8" standalone="no"?>
<!DOCTYPE svg PUBLIC "-//W3C//DTD SVG 1.1//EN"
 "http://www.w3.org/Graphics/SVG/1.1/DTD/svg11.dtd">
<!-- Generated by graphviz version 2.47.0 (20210316.0004)
 -->
<!-- Title: dependencies Pages: 1 -->
<svg width="1069pt" height="211pt"
 viewBox="0.00 0.00 1069.00 211.00" xmlns="http://www.w3.org/2000/svg" xmlns:xlink="http://www.w3.org/1999/xlink">
<g id="graph0" class="graph" transform="scale(1 1) rotate(0) translate(4 207)">
<title>dependencies</title>
<polygon fill="white" stroke="transparent" points="-4,4 -4,-207 1065,-207 1065,4 -4,4"/>
<text text-anchor="start" x="509.51" y="-42.4" font-family="Times-12" font-weight="bold" font-size="14.00">Legend</text>
<polygon fill="#ffffb3" stroke="transparent" points="296.5,-10 296.5,-30 316.5,-30 316.5,-10 296.5,-10"/>
<text text-anchor="start" x="320.13" y="-15.4" font-family="Times-12" font-size="14.00"> &#160;Declarations</text>
<polygon fill="#8dd3c7" stroke="transparent" points="409.5,-10 409.5,-30 429.5,-30 429.5,-10 409.5,-10"/>
<text text-anchor="start" x="433.23" y="-15.4" font-family="Times-12" font-size="14.00"> &#160;Module</text>
<polygon fill="#80b1d3" stroke="transparent" points="495.5,-10 495.5,-30 515.5,-30 515.5,-10 495.5,-10"/>
<text text-anchor="start" x="519.28" y="-15.4" font-family="Times-12" font-size="14.00"> &#160;Bootstrap</text>
<polygon fill="#fdb462" stroke="transparent" points="592.5,-10 592.5,-30 612.5,-30 612.5,-10 592.5,-10"/>
<text text-anchor="start" x="616.17" y="-15.4" font-family="Times-12" font-size="14.00"> &#160;Providers</text>
<polygon fill="#fb8072" stroke="transparent" points="688.5,-10 688.5,-30 708.5,-30 708.5,-10 688.5,-10"/>
<text text-anchor="start" x="712.23" y="-15.4" font-family="Times-12" font-size="14.00"> &#160;Exports</text>
<g id="clust1" class="cluster">
<title>cluster_PaystackModule</title>
<polygon fill="none" stroke="black" stroke-dasharray="1,5" points="8,-70 8,-195 1053,-195 1053,-70 8,-70"/>
</g>
<g id="clust3" class="cluster">
<title>cluster_PaystackModule_imports</title>
<polygon fill="none" stroke="black" points="642,-78 642,-130 1045,-130 1045,-78 642,-78"/>
</g>
<g id="clust6" class="cluster">
<title>cluster_PaystackModule_providers</title>
<polygon fill="none" stroke="black" points="16,-78 16,-130 634,-130 634,-78 16,-78"/>
</g>
<!-- ProductVariantsModule -->
<g id="node1" class="node">
<title>ProductVariantsModule</title>
<polygon fill="#8dd3c7" stroke="black" points="1037.02,-122 1034.02,-126 1013.02,-126 1010.02,-122 886.98,-122 886.98,-86 1037.02,-86 1037.02,-122"/>
<text text-anchor="middle" x="962" y="-99.8" font-family="Times,serif" font-size="14.00">ProductVariantsModule</text>
</g>
<!-- PaystackModule -->
<g id="node4" class="node">
<title>PaystackModule</title>
<polygon fill="#8dd3c7" stroke="black" points="662.81,-187 659.81,-191 638.81,-191 635.81,-187 553.19,-187 553.19,-151 662.81,-151 662.81,-187"/>
<text text-anchor="middle" x="608" y="-164.8" font-family="Times,serif" font-size="14.00">PaystackModule</text>
</g>
<!-- ProductVariantsModule&#45;&gt;PaystackModule -->
<g id="edge1" class="edge">
<title>ProductVariantsModule&#45;&gt;PaystackModule</title>
<path fill="none" stroke="black" d="M962,-122.28C962,-143.32 962,-175 962,-175 962,-175 672.92,-175 672.92,-175"/>
<polygon fill="black" stroke="black" points="672.92,-171.5 662.92,-175 672.92,-178.5 672.92,-171.5"/>
</g>
<!-- ProductsModule -->
<g id="node2" class="node">
<title>ProductsModule</title>
<polygon fill="#8dd3c7" stroke="black" points="868.04,-122 865.04,-126 844.04,-126 841.04,-122 759.96,-122 759.96,-86 868.04,-86 868.04,-122"/>
<text text-anchor="middle" x="814" y="-99.8" font-family="Times,serif" font-size="14.00">ProductsModule</text>
</g>
<!-- ProductsModule&#45;&gt;PaystackModule -->
<g id="edge2" class="edge">
<title>ProductsModule&#45;&gt;PaystackModule</title>
<path fill="none" stroke="black" d="M814,-122.02C814,-139.37 814,-163 814,-163 814,-163 672.66,-163 672.66,-163"/>
<polygon fill="black" stroke="black" points="672.66,-159.5 662.66,-163 672.66,-166.5 672.66,-159.5"/>
</g>
<!-- UsersModule -->
<g id="node3" class="node">
<title>UsersModule</title>
<polygon fill="#8dd3c7" stroke="black" points="741.92,-122 738.92,-126 717.92,-126 714.92,-122 650.08,-122 650.08,-86 741.92,-86 741.92,-122"/>
<text text-anchor="middle" x="696" y="-99.8" font-family="Times,serif" font-size="14.00">UsersModule</text>
</g>
<!-- UsersModule&#45;&gt;PaystackModule -->
<g id="edge3" class="edge">
<title>UsersModule&#45;&gt;PaystackModule</title>
<path fill="none" stroke="black" d="M656.47,-122.11C656.47,-122.11 656.47,-140.99 656.47,-140.99"/>
<polygon fill="black" stroke="black" points="652.97,-140.99 656.47,-150.99 659.97,-140.99 652.97,-140.99"/>
</g>
<!-- InitiatePaymentProvider -->
<g id="node5" class="node">
<title>InitiatePaymentProvider</title>
<ellipse fill="#fdb462" stroke="black" cx="521" cy="-104" rx="105.37" ry="18"/>
<text text-anchor="middle" x="521" y="-99.8" font-family="Times,serif" font-size="14.00">InitiatePaymentProvider</text>
</g>
<!-- InitiatePaymentProvider&#45;&gt;PaystackModule -->
<g id="edge4" class="edge">
<title>InitiatePaymentProvider&#45;&gt;PaystackModule</title>
<path fill="none" stroke="black" d="M589.89,-117.78C589.89,-117.78 589.89,-140.55 589.89,-140.55"/>
<polygon fill="black" stroke="black" points="586.39,-140.55 589.89,-150.55 593.39,-140.55 586.39,-140.55"/>
</g>
<!-- PaystackService -->
<g id="node6" class="node">
<title>PaystackService</title>
<ellipse fill="#fdb462" stroke="black" cx="323" cy="-104" rx="74.13" ry="18"/>
<text text-anchor="middle" x="323" y="-99.8" font-family="Times,serif" font-size="14.00">PaystackService</text>
</g>
<!-- PaystackService&#45;&gt;PaystackModule -->
<g id="edge5" class="edge">
<title>PaystackService&#45;&gt;PaystackModule</title>
<path fill="none" stroke="black" d="M323,-122.02C323,-139.37 323,-163 323,-163 323,-163 543.05,-163 543.05,-163"/>
<polygon fill="black" stroke="black" points="543.05,-166.5 553.05,-163 543.05,-159.5 543.05,-166.5"/>
</g>
<!-- VerifyPaymentProvider -->
<g id="node7" class="node">
<title>VerifyPaymentProvider</title>
<ellipse fill="#fdb462" stroke="black" cx="127" cy="-104" rx="103.07" ry="18"/>
<text text-anchor="middle" x="127" y="-99.8" font-family="Times,serif" font-size="14.00">VerifyPaymentProvider</text>
</g>
<!-- VerifyPaymentProvider&#45;&gt;PaystackModule -->
<g id="edge6" class="edge">
<title>VerifyPaymentProvider&#45;&gt;PaystackModule</title>
<path fill="none" stroke="black" d="M127,-122.28C127,-143.32 127,-175 127,-175 127,-175 543.29,-175 543.29,-175"/>
<polygon fill="black" stroke="black" points="543.29,-178.5 553.29,-175 543.29,-171.5 543.29,-178.5"/>
</g>
</g>
</svg>
