<?xml version="1.0" encoding="UTF-8" standalone="no"?>
<!DOCTYPE svg PUBLIC "-//W3C//DTD SVG 1.1//EN"
 "http://www.w3.org/Graphics/SVG/1.1/DTD/svg11.dtd">
<!-- Generated by graphviz version 2.47.0 (20210316.0004)
 -->
<!-- Title: dependencies Pages: 1 -->
<svg width="1069pt" height="211pt"
 viewBox="0.00 0.00 1069.00 211.00" xmlns="http://www.w3.org/2000/svg" xmlns:xlink="http://www.w3.org/1999/xlink">
<g id="graph0" class="graph" transform="scale(1 1) rotate(0) translate(4 207)">
<title>dependencies</title>
<polygon fill="white" stroke="transparent" points="-4,4 -4,-207 1065,-207 1065,4 -4,4"/>
<text text-anchor="start" x="509.51" y="-42.4" font-family="Times-12" font-weight="bold" font-size="14.00">Legend</text>
<polygon fill="#ffffb3" stroke="transparent" points="296.5,-10 296.5,-30 316.5,-30 316.5,-10 296.5,-10"/>
<text text-anchor="start" x="320.13" y="-15.4" font-family="Times-12" font-size="14.00"> &#160;Declarations</text>
<polygon fill="#8dd3c7" stroke="transparent" points="409.5,-10 409.5,-30 429.5,-30 429.5,-10 409.5,-10"/>
<text text-anchor="start" x="433.23" y="-15.4" font-family="Times-12" font-size="14.00"> &#160;Module</text>
<polygon fill="#80b1d3" stroke="transparent" points="495.5,-10 495.5,-30 515.5,-30 515.5,-10 495.5,-10"/>
<text text-anchor="start" x="519.28" y="-15.4" font-family="Times-12" font-size="14.00"> &#160;Bootstrap</text>
<polygon fill="#fdb462" stroke="transparent" points="592.5,-10 592.5,-30 612.5,-30 612.5,-10 592.5,-10"/>
<text text-anchor="start" x="616.17" y="-15.4" font-family="Times-12" font-size="14.00"> &#160;Providers</text>
<polygon fill="#fb8072" stroke="transparent" points="688.5,-10 688.5,-30 708.5,-30 708.5,-10 688.5,-10"/>
<text text-anchor="start" x="712.23" y="-15.4" font-family="Times-12" font-size="14.00"> &#160;Exports</text>
<g id="clust1" class="cluster">
<title>cluster_PaystackModule</title>
<polygon fill="none" stroke="black" stroke-dasharray="1,5" points="8,-70 8,-195 1053,-195 1053,-70 8,-70"/>
</g>
<g id="clust6" class="cluster">
<title>cluster_PaystackModule_providers</title>
<polygon fill="none" stroke="black" points="427,-78 427,-130 1045,-130 1045,-78 427,-78"/>
</g>
<g id="clust3" class="cluster">
<title>cluster_PaystackModule_imports</title>
<polygon fill="none" stroke="black" points="16,-78 16,-130 419,-130 419,-78 16,-78"/>
</g>
<!-- ProductVariantsModule -->
<g id="node1" class="node">
<title>ProductVariantsModule</title>
<polygon fill="#8dd3c7" stroke="black" points="411.02,-122 408.02,-126 387.02,-126 384.02,-122 260.98,-122 260.98,-86 411.02,-86 411.02,-122"/>
<text text-anchor="middle" x="336" y="-99.8" font-family="Times,serif" font-size="14.00">ProductVariantsModule</text>
</g>
<!-- PaystackModule -->
<g id="node4" class="node">
<title>PaystackModule</title>
<polygon fill="#8dd3c7" stroke="black" points="491.81,-187 488.81,-191 467.81,-191 464.81,-187 382.19,-187 382.19,-151 491.81,-151 491.81,-187"/>
<text text-anchor="middle" x="437" y="-164.8" font-family="Times,serif" font-size="14.00">PaystackModule</text>
</g>
<!-- ProductVariantsModule&#45;&gt;PaystackModule -->
<g id="edge1" class="edge">
<title>ProductVariantsModule&#45;&gt;PaystackModule</title>
<path fill="none" stroke="black" d="M396.8,-122.11C396.8,-122.11 396.8,-140.99 396.8,-140.99"/>
<polygon fill="black" stroke="black" points="393.3,-140.99 396.8,-150.99 400.3,-140.99 393.3,-140.99"/>
</g>
<!-- ProductsModule -->
<g id="node2" class="node">
<title>ProductsModule</title>
<polygon fill="#8dd3c7" stroke="black" points="242.04,-122 239.04,-126 218.04,-126 215.04,-122 133.96,-122 133.96,-86 242.04,-86 242.04,-122"/>
<text text-anchor="middle" x="188" y="-99.8" font-family="Times,serif" font-size="14.00">ProductsModule</text>
</g>
<!-- ProductsModule&#45;&gt;PaystackModule -->
<g id="edge2" class="edge">
<title>ProductsModule&#45;&gt;PaystackModule</title>
<path fill="none" stroke="black" d="M188,-122.02C188,-139.37 188,-163 188,-163 188,-163 372.05,-163 372.05,-163"/>
<polygon fill="black" stroke="black" points="372.05,-166.5 382.05,-163 372.05,-159.5 372.05,-166.5"/>
</g>
<!-- UsersModule -->
<g id="node3" class="node">
<title>UsersModule</title>
<polygon fill="#8dd3c7" stroke="black" points="115.92,-122 112.92,-126 91.92,-126 88.92,-122 24.08,-122 24.08,-86 115.92,-86 115.92,-122"/>
<text text-anchor="middle" x="70" y="-99.8" font-family="Times,serif" font-size="14.00">UsersModule</text>
</g>
<!-- UsersModule&#45;&gt;PaystackModule -->
<g id="edge3" class="edge">
<title>UsersModule&#45;&gt;PaystackModule</title>
<path fill="none" stroke="black" d="M70,-122.28C70,-143.32 70,-175 70,-175 70,-175 372.06,-175 372.06,-175"/>
<polygon fill="black" stroke="black" points="372.06,-178.5 382.06,-175 372.06,-171.5 372.06,-178.5"/>
</g>
<!-- InitiatePaymentProvider -->
<g id="node5" class="node">
<title>InitiatePaymentProvider</title>
<ellipse fill="#fdb462" stroke="black" cx="932" cy="-104" rx="105.37" ry="18"/>
<text text-anchor="middle" x="932" y="-99.8" font-family="Times,serif" font-size="14.00">InitiatePaymentProvider</text>
</g>
<!-- InitiatePaymentProvider&#45;&gt;PaystackModule -->
<g id="edge4" class="edge">
<title>InitiatePaymentProvider&#45;&gt;PaystackModule</title>
<path fill="none" stroke="black" d="M932,-122.28C932,-143.32 932,-175 932,-175 932,-175 501.86,-175 501.86,-175"/>
<polygon fill="black" stroke="black" points="501.86,-171.5 491.86,-175 501.86,-178.5 501.86,-171.5"/>
</g>
<!-- PaystackService -->
<g id="node6" class="node">
<title>PaystackService</title>
<ellipse fill="#fdb462" stroke="black" cx="734" cy="-104" rx="74.13" ry="18"/>
<text text-anchor="middle" x="734" y="-99.8" font-family="Times,serif" font-size="14.00">PaystackService</text>
</g>
<!-- PaystackService&#45;&gt;PaystackModule -->
<g id="edge5" class="edge">
<title>PaystackService&#45;&gt;PaystackModule</title>
<path fill="none" stroke="black" d="M734,-122.02C734,-139.37 734,-163 734,-163 734,-163 501.82,-163 501.82,-163"/>
<polygon fill="black" stroke="black" points="501.82,-159.5 491.82,-163 501.82,-166.5 501.82,-159.5"/>
</g>
<!-- VerifyPaymentProvider -->
<g id="node7" class="node">
<title>VerifyPaymentProvider</title>
<ellipse fill="#fdb462" stroke="black" cx="538" cy="-104" rx="103.07" ry="18"/>
<text text-anchor="middle" x="538" y="-99.8" font-family="Times,serif" font-size="14.00">VerifyPaymentProvider</text>
</g>
<!-- VerifyPaymentProvider&#45;&gt;PaystackModule -->
<g id="edge6" class="edge">
<title>VerifyPaymentProvider&#45;&gt;PaystackModule</title>
<path fill="none" stroke="black" d="M463.19,-116.53C463.19,-116.53 463.19,-140.85 463.19,-140.85"/>
<polygon fill="black" stroke="black" points="459.69,-140.85 463.19,-150.85 466.69,-140.85 459.69,-140.85"/>
</g>
</g>
</svg>
