<?xml version="1.0" encoding="UTF-8" standalone="no"?>
<!DOCTYPE svg PUBLIC "-//W3C//DTD SVG 1.1//EN"
 "http://www.w3.org/Graphics/SVG/1.1/DTD/svg11.dtd">
<!-- Generated by graphviz version 2.47.0 (20210316.0004)
 -->
<!-- Title: dependencies Pages: 1 -->
<svg width="844pt" height="211pt"
 viewBox="0.00 0.00 844.00 211.00" xmlns="http://www.w3.org/2000/svg" xmlns:xlink="http://www.w3.org/1999/xlink">
<g id="graph0" class="graph" transform="scale(1 1) rotate(0) translate(4 207)">
<title>dependencies</title>
<polygon fill="white" stroke="transparent" points="-4,4 -4,-207 840,-207 840,4 -4,4"/>
<text text-anchor="start" x="397.01" y="-42.4" font-family="Times-12" font-weight="bold" font-size="14.00">Legend</text>
<polygon fill="#ffffb3" stroke="transparent" points="184,-10 184,-30 204,-30 204,-10 184,-10"/>
<text text-anchor="start" x="207.63" y="-15.4" font-family="Times-12" font-size="14.00"> &#160;Declarations</text>
<polygon fill="#8dd3c7" stroke="transparent" points="297,-10 297,-30 317,-30 317,-10 297,-10"/>
<text text-anchor="start" x="320.73" y="-15.4" font-family="Times-12" font-size="14.00"> &#160;Module</text>
<polygon fill="#80b1d3" stroke="transparent" points="383,-10 383,-30 403,-30 403,-10 383,-10"/>
<text text-anchor="start" x="406.78" y="-15.4" font-family="Times-12" font-size="14.00"> &#160;Bootstrap</text>
<polygon fill="#fdb462" stroke="transparent" points="480,-10 480,-30 500,-30 500,-10 480,-10"/>
<text text-anchor="start" x="503.67" y="-15.4" font-family="Times-12" font-size="14.00"> &#160;Providers</text>
<polygon fill="#fb8072" stroke="transparent" points="576,-10 576,-30 596,-30 596,-10 576,-10"/>
<text text-anchor="start" x="599.73" y="-15.4" font-family="Times-12" font-size="14.00"> &#160;Exports</text>
<g id="clust1" class="cluster">
<title>cluster_PaystackModule</title>
<polygon fill="none" stroke="black" stroke-dasharray="1,5" points="8,-70 8,-195 828,-195 828,-70 8,-70"/>
</g>
<g id="clust3" class="cluster">
<title>cluster_PaystackModule_imports</title>
<polygon fill="none" stroke="black" points="417,-78 417,-130 820,-130 820,-78 417,-78"/>
</g>
<g id="clust6" class="cluster">
<title>cluster_PaystackModule_providers</title>
<polygon fill="none" stroke="black" points="16,-78 16,-130 409,-130 409,-78 16,-78"/>
</g>
<!-- ProductVariantsModule -->
<g id="node1" class="node">
<title>ProductVariantsModule</title>
<polygon fill="#8dd3c7" stroke="black" points="812.02,-122 809.02,-126 788.02,-126 785.02,-122 661.98,-122 661.98,-86 812.02,-86 812.02,-122"/>
<text text-anchor="middle" x="737" y="-99.8" font-family="Times,serif" font-size="14.00">ProductVariantsModule</text>
</g>
<!-- PaystackModule -->
<g id="node4" class="node">
<title>PaystackModule</title>
<polygon fill="#8dd3c7" stroke="black" points="525.81,-187 522.81,-191 501.81,-191 498.81,-187 416.19,-187 416.19,-151 525.81,-151 525.81,-187"/>
<text text-anchor="middle" x="471" y="-164.8" font-family="Times,serif" font-size="14.00">PaystackModule</text>
</g>
<!-- ProductVariantsModule&#45;&gt;PaystackModule -->
<g id="edge1" class="edge">
<title>ProductVariantsModule&#45;&gt;PaystackModule</title>
<path fill="none" stroke="black" d="M737,-122.11C737,-141.34 737,-169 737,-169 737,-169 535.79,-169 535.79,-169"/>
<polygon fill="black" stroke="black" points="535.79,-165.5 525.79,-169 535.79,-172.5 535.79,-165.5"/>
</g>
<!-- ProductsModule -->
<g id="node2" class="node">
<title>ProductsModule</title>
<polygon fill="#8dd3c7" stroke="black" points="643.04,-122 640.04,-126 619.04,-126 616.04,-122 534.96,-122 534.96,-86 643.04,-86 643.04,-122"/>
<text text-anchor="middle" x="589" y="-99.8" font-family="Times,serif" font-size="14.00">ProductsModule</text>
</g>
<!-- ProductsModule&#45;&gt;PaystackModule -->
<g id="edge2" class="edge">
<title>ProductsModule&#45;&gt;PaystackModule</title>
<path fill="none" stroke="black" d="M534.91,-104C526.85,-104 521.18,-104 521.18,-104 521.18,-104 521.18,-140.89 521.18,-140.89"/>
<polygon fill="black" stroke="black" points="517.68,-140.89 521.18,-150.89 524.68,-140.89 517.68,-140.89"/>
</g>
<!-- UsersModule -->
<g id="node3" class="node">
<title>UsersModule</title>
<polygon fill="#8dd3c7" stroke="black" points="516.92,-122 513.92,-126 492.92,-126 489.92,-122 425.08,-122 425.08,-86 516.92,-86 516.92,-122"/>
<text text-anchor="middle" x="471" y="-99.8" font-family="Times,serif" font-size="14.00">UsersModule</text>
</g>
<!-- UsersModule&#45;&gt;PaystackModule -->
<g id="edge3" class="edge">
<title>UsersModule&#45;&gt;PaystackModule</title>
<path fill="none" stroke="black" d="M471,-122.11C471,-122.11 471,-140.99 471,-140.99"/>
<polygon fill="black" stroke="black" points="467.5,-140.99 471,-150.99 474.5,-140.99 467.5,-140.99"/>
</g>
<!-- InitiatePaymentProvider -->
<g id="node5" class="node">
<title>InitiatePaymentProvider</title>
<ellipse fill="#fdb462" stroke="black" cx="296" cy="-104" rx="105.37" ry="18"/>
<text text-anchor="middle" x="296" y="-99.8" font-family="Times,serif" font-size="14.00">InitiatePaymentProvider</text>
</g>
<!-- InitiatePaymentProvider&#45;&gt;PaystackModule -->
<g id="edge4" class="edge">
<title>InitiatePaymentProvider&#45;&gt;PaystackModule</title>
<path fill="none" stroke="black" d="M401.59,-104C413.14,-104 420.82,-104 420.82,-104 420.82,-104 420.82,-140.89 420.82,-140.89"/>
<polygon fill="black" stroke="black" points="417.32,-140.89 420.82,-150.89 424.32,-140.89 417.32,-140.89"/>
</g>
<!-- PaystackService -->
<g id="node6" class="node">
<title>PaystackService</title>
<ellipse fill="#fdb462" stroke="black" cx="98" cy="-104" rx="74.13" ry="18"/>
<text text-anchor="middle" x="98" y="-99.8" font-family="Times,serif" font-size="14.00">PaystackService</text>
</g>
<!-- PaystackService&#45;&gt;PaystackModule -->
<g id="edge5" class="edge">
<title>PaystackService&#45;&gt;PaystackModule</title>
<path fill="none" stroke="black" d="M98,-122.11C98,-141.34 98,-169 98,-169 98,-169 405.96,-169 405.96,-169"/>
<polygon fill="black" stroke="black" points="405.96,-172.5 415.96,-169 405.96,-165.5 405.96,-172.5"/>
</g>
</g>
</svg>
