<?xml version="1.0" encoding="UTF-8" standalone="no"?>
<!DOCTYPE svg PUBLIC "-//W3C//DTD SVG 1.1//EN"
 "http://www.w3.org/Graphics/SVG/1.1/DTD/svg11.dtd">
<!-- Generated by graphviz version 2.47.0 (20210316.0004)
 -->
<!-- Title: dependencies Pages: 1 -->
<svg width="675pt" height="211pt"
 viewBox="0.00 0.00 675.00 211.00" xmlns="http://www.w3.org/2000/svg" xmlns:xlink="http://www.w3.org/1999/xlink">
<g id="graph0" class="graph" transform="scale(1 1) rotate(0) translate(4 207)">
<title>dependencies</title>
<polygon fill="white" stroke="transparent" points="-4,4 -4,-207 671,-207 671,4 -4,4"/>
<text text-anchor="start" x="312.51" y="-42.4" font-family="Times-12" font-weight="bold" font-size="14.00">Legend</text>
<polygon fill="#ffffb3" stroke="transparent" points="99.5,-10 99.5,-30 119.5,-30 119.5,-10 99.5,-10"/>
<text text-anchor="start" x="123.13" y="-15.4" font-family="Times-12" font-size="14.00"> &#160;Declarations</text>
<polygon fill="#8dd3c7" stroke="transparent" points="212.5,-10 212.5,-30 232.5,-30 232.5,-10 212.5,-10"/>
<text text-anchor="start" x="236.23" y="-15.4" font-family="Times-12" font-size="14.00"> &#160;Module</text>
<polygon fill="#80b1d3" stroke="transparent" points="298.5,-10 298.5,-30 318.5,-30 318.5,-10 298.5,-10"/>
<text text-anchor="start" x="322.28" y="-15.4" font-family="Times-12" font-size="14.00"> &#160;Bootstrap</text>
<polygon fill="#fdb462" stroke="transparent" points="395.5,-10 395.5,-30 415.5,-30 415.5,-10 395.5,-10"/>
<text text-anchor="start" x="419.17" y="-15.4" font-family="Times-12" font-size="14.00"> &#160;Providers</text>
<polygon fill="#fb8072" stroke="transparent" points="491.5,-10 491.5,-30 511.5,-30 511.5,-10 491.5,-10"/>
<text text-anchor="start" x="515.23" y="-15.4" font-family="Times-12" font-size="14.00"> &#160;Exports</text>
<g id="clust1" class="cluster">
<title>cluster_PaystackModule</title>
<polygon fill="none" stroke="black" stroke-dasharray="1,5" points="8,-70 8,-195 659,-195 659,-70 8,-70"/>
</g>
<g id="clust6" class="cluster">
<title>cluster_PaystackModule_providers</title>
<polygon fill="none" stroke="black" points="258,-78 258,-130 651,-130 651,-78 258,-78"/>
</g>
<g id="clust3" class="cluster">
<title>cluster_PaystackModule_imports</title>
<polygon fill="none" stroke="black" points="16,-78 16,-130 250,-130 250,-78 16,-78"/>
</g>
<!-- ProductsModule -->
<g id="node1" class="node">
<title>ProductsModule</title>
<polygon fill="#8dd3c7" stroke="black" points="242.04,-122 239.04,-126 218.04,-126 215.04,-122 133.96,-122 133.96,-86 242.04,-86 242.04,-122"/>
<text text-anchor="middle" x="188" y="-99.8" font-family="Times,serif" font-size="14.00">ProductsModule</text>
</g>
<!-- PaystackModule -->
<g id="node3" class="node">
<title>PaystackModule</title>
<polygon fill="#8dd3c7" stroke="black" points="318.81,-187 315.81,-191 294.81,-191 291.81,-187 209.19,-187 209.19,-151 318.81,-151 318.81,-187"/>
<text text-anchor="middle" x="264" y="-164.8" font-family="Times,serif" font-size="14.00">PaystackModule</text>
</g>
<!-- ProductsModule&#45;&gt;PaystackModule -->
<g id="edge1" class="edge">
<title>ProductsModule&#45;&gt;PaystackModule</title>
<path fill="none" stroke="black" d="M225.81,-122.11C225.81,-122.11 225.81,-140.99 225.81,-140.99"/>
<polygon fill="black" stroke="black" points="222.31,-140.99 225.81,-150.99 229.31,-140.99 222.31,-140.99"/>
</g>
<!-- UsersModule -->
<g id="node2" class="node">
<title>UsersModule</title>
<polygon fill="#8dd3c7" stroke="black" points="115.92,-122 112.92,-126 91.92,-126 88.92,-122 24.08,-122 24.08,-86 115.92,-86 115.92,-122"/>
<text text-anchor="middle" x="70" y="-99.8" font-family="Times,serif" font-size="14.00">UsersModule</text>
</g>
<!-- UsersModule&#45;&gt;PaystackModule -->
<g id="edge2" class="edge">
<title>UsersModule&#45;&gt;PaystackModule</title>
<path fill="none" stroke="black" d="M70,-122.11C70,-141.34 70,-169 70,-169 70,-169 199.19,-169 199.19,-169"/>
<polygon fill="black" stroke="black" points="199.19,-172.5 209.19,-169 199.19,-165.5 199.19,-172.5"/>
</g>
<!-- InitiatePaymentProvider -->
<g id="node4" class="node">
<title>InitiatePaymentProvider</title>
<ellipse fill="#fdb462" stroke="black" cx="538" cy="-104" rx="105.37" ry="18"/>
<text text-anchor="middle" x="538" y="-99.8" font-family="Times,serif" font-size="14.00">InitiatePaymentProvider</text>
</g>
<!-- InitiatePaymentProvider&#45;&gt;PaystackModule -->
<g id="edge3" class="edge">
<title>InitiatePaymentProvider&#45;&gt;PaystackModule</title>
<path fill="none" stroke="black" d="M538,-122.11C538,-141.34 538,-169 538,-169 538,-169 328.79,-169 328.79,-169"/>
<polygon fill="black" stroke="black" points="328.79,-165.5 318.79,-169 328.79,-172.5 328.79,-165.5"/>
</g>
<!-- PaystackService -->
<g id="node5" class="node">
<title>PaystackService</title>
<ellipse fill="#fdb462" stroke="black" cx="340" cy="-104" rx="74.13" ry="18"/>
<text text-anchor="middle" x="340" y="-99.8" font-family="Times,serif" font-size="14.00">PaystackService</text>
</g>
<!-- PaystackService&#45;&gt;PaystackModule -->
<g id="edge4" class="edge">
<title>PaystackService&#45;&gt;PaystackModule</title>
<path fill="none" stroke="black" d="M292.17,-117.78C292.17,-117.78 292.17,-140.55 292.17,-140.55"/>
<polygon fill="black" stroke="black" points="288.67,-140.55 292.17,-150.55 295.67,-140.55 288.67,-140.55"/>
</g>
</g>
</svg>
