<?xml version="1.0" encoding="UTF-8" standalone="no"?>
<!DOCTYPE svg PUBLIC "-//W3C//DTD SVG 1.1//EN"
 "http://www.w3.org/Graphics/SVG/1.1/DTD/svg11.dtd">
<!-- Generated by graphviz version 2.47.0 (20210316.0004)
 -->
<!-- Title: dependencies Pages: 1 -->
<svg width="844pt" height="211pt"
 viewBox="0.00 0.00 844.00 211.00" xmlns="http://www.w3.org/2000/svg" xmlns:xlink="http://www.w3.org/1999/xlink">
<g id="graph0" class="graph" transform="scale(1 1) rotate(0) translate(4 207)">
<title>dependencies</title>
<polygon fill="white" stroke="transparent" points="-4,4 -4,-207 840,-207 840,4 -4,4"/>
<text text-anchor="start" x="397.01" y="-42.4" font-family="Times-12" font-weight="bold" font-size="14.00">Legend</text>
<polygon fill="#ffffb3" stroke="transparent" points="184,-10 184,-30 204,-30 204,-10 184,-10"/>
<text text-anchor="start" x="207.63" y="-15.4" font-family="Times-12" font-size="14.00"> &#160;Declarations</text>
<polygon fill="#8dd3c7" stroke="transparent" points="297,-10 297,-30 317,-30 317,-10 297,-10"/>
<text text-anchor="start" x="320.73" y="-15.4" font-family="Times-12" font-size="14.00"> &#160;Module</text>
<polygon fill="#80b1d3" stroke="transparent" points="383,-10 383,-30 403,-30 403,-10 383,-10"/>
<text text-anchor="start" x="406.78" y="-15.4" font-family="Times-12" font-size="14.00"> &#160;Bootstrap</text>
<polygon fill="#fdb462" stroke="transparent" points="480,-10 480,-30 500,-30 500,-10 480,-10"/>
<text text-anchor="start" x="503.67" y="-15.4" font-family="Times-12" font-size="14.00"> &#160;Providers</text>
<polygon fill="#fb8072" stroke="transparent" points="576,-10 576,-30 596,-30 596,-10 576,-10"/>
<text text-anchor="start" x="599.73" y="-15.4" font-family="Times-12" font-size="14.00"> &#160;Exports</text>
<g id="clust1" class="cluster">
<title>cluster_PaystackModule</title>
<polygon fill="none" stroke="black" stroke-dasharray="1,5" points="8,-70 8,-195 828,-195 828,-70 8,-70"/>
</g>
<g id="clust6" class="cluster">
<title>cluster_PaystackModule_providers</title>
<polygon fill="none" stroke="black" points="427,-78 427,-130 820,-130 820,-78 427,-78"/>
</g>
<g id="clust3" class="cluster">
<title>cluster_PaystackModule_imports</title>
<polygon fill="none" stroke="black" points="16,-78 16,-130 419,-130 419,-78 16,-78"/>
</g>
<!-- ProductVariantsModule -->
<g id="node1" class="node">
<title>ProductVariantsModule</title>
<polygon fill="#8dd3c7" stroke="black" points="411.02,-122 408.02,-126 387.02,-126 384.02,-122 260.98,-122 260.98,-86 411.02,-86 411.02,-122"/>
<text text-anchor="middle" x="336" y="-99.8" font-family="Times,serif" font-size="14.00">ProductVariantsModule</text>
</g>
<!-- PaystackModule -->
<g id="node4" class="node">
<title>PaystackModule</title>
<polygon fill="#8dd3c7" stroke="black" points="390.81,-187 387.81,-191 366.81,-191 363.81,-187 281.19,-187 281.19,-151 390.81,-151 390.81,-187"/>
<text text-anchor="middle" x="336" y="-164.8" font-family="Times,serif" font-size="14.00">PaystackModule</text>
</g>
<!-- ProductVariantsModule&#45;&gt;PaystackModule -->
<g id="edge1" class="edge">
<title>ProductVariantsModule&#45;&gt;PaystackModule</title>
<path fill="none" stroke="black" d="M336,-122.11C336,-122.11 336,-140.99 336,-140.99"/>
<polygon fill="black" stroke="black" points="332.5,-140.99 336,-150.99 339.5,-140.99 332.5,-140.99"/>
</g>
<!-- ProductsModule -->
<g id="node2" class="node">
<title>ProductsModule</title>
<polygon fill="#8dd3c7" stroke="black" points="242.04,-122 239.04,-126 218.04,-126 215.04,-122 133.96,-122 133.96,-86 242.04,-86 242.04,-122"/>
<text text-anchor="middle" x="188" y="-99.8" font-family="Times,serif" font-size="14.00">ProductsModule</text>
</g>
<!-- ProductsModule&#45;&gt;PaystackModule -->
<g id="edge2" class="edge">
<title>ProductsModule&#45;&gt;PaystackModule</title>
<path fill="none" stroke="black" d="M188,-122.02C188,-139.37 188,-163 188,-163 188,-163 271.31,-163 271.31,-163"/>
<polygon fill="black" stroke="black" points="271.31,-166.5 281.31,-163 271.31,-159.5 271.31,-166.5"/>
</g>
<!-- UsersModule -->
<g id="node3" class="node">
<title>UsersModule</title>
<polygon fill="#8dd3c7" stroke="black" points="115.92,-122 112.92,-126 91.92,-126 88.92,-122 24.08,-122 24.08,-86 115.92,-86 115.92,-122"/>
<text text-anchor="middle" x="70" y="-99.8" font-family="Times,serif" font-size="14.00">UsersModule</text>
</g>
<!-- UsersModule&#45;&gt;PaystackModule -->
<g id="edge3" class="edge">
<title>UsersModule&#45;&gt;PaystackModule</title>
<path fill="none" stroke="black" d="M70,-122.28C70,-143.32 70,-175 70,-175 70,-175 271.21,-175 271.21,-175"/>
<polygon fill="black" stroke="black" points="271.21,-178.5 281.21,-175 271.21,-171.5 271.21,-178.5"/>
</g>
<!-- InitiatePaymentProvider -->
<g id="node5" class="node">
<title>InitiatePaymentProvider</title>
<ellipse fill="#fdb462" stroke="black" cx="707" cy="-104" rx="105.37" ry="18"/>
<text text-anchor="middle" x="707" y="-99.8" font-family="Times,serif" font-size="14.00">InitiatePaymentProvider</text>
</g>
<!-- InitiatePaymentProvider&#45;&gt;PaystackModule -->
<g id="edge4" class="edge">
<title>InitiatePaymentProvider&#45;&gt;PaystackModule</title>
<path fill="none" stroke="black" d="M707,-122.28C707,-143.32 707,-175 707,-175 707,-175 400.74,-175 400.74,-175"/>
<polygon fill="black" stroke="black" points="400.74,-171.5 390.74,-175 400.74,-178.5 400.74,-171.5"/>
</g>
<!-- PaystackService -->
<g id="node6" class="node">
<title>PaystackService</title>
<ellipse fill="#fdb462" stroke="black" cx="509" cy="-104" rx="74.13" ry="18"/>
<text text-anchor="middle" x="509" y="-99.8" font-family="Times,serif" font-size="14.00">PaystackService</text>
</g>
<!-- PaystackService&#45;&gt;PaystackModule -->
<g id="edge5" class="edge">
<title>PaystackService&#45;&gt;PaystackModule</title>
<path fill="none" stroke="black" d="M509,-122.02C509,-139.37 509,-163 509,-163 509,-163 400.74,-163 400.74,-163"/>
<polygon fill="black" stroke="black" points="400.74,-159.5 390.74,-163 400.74,-166.5 400.74,-159.5"/>
</g>
</g>
</svg>
