<?xml version="1.0" encoding="UTF-8" standalone="no"?>
<!DOCTYPE svg PUBLIC "-//W3C//DTD SVG 1.1//EN"
 "http://www.w3.org/Graphics/SVG/1.1/DTD/svg11.dtd">
<!-- Generated by graphviz version 2.47.0 (20210316.0004)
 -->
<!-- Title: dependencies Pages: 1 -->
<svg width="597pt" height="211pt"
 viewBox="0.00 0.00 597.00 211.00" xmlns="http://www.w3.org/2000/svg" xmlns:xlink="http://www.w3.org/1999/xlink">
<g id="graph0" class="graph" transform="scale(1 1) rotate(0) translate(4 207)">
<title>dependencies</title>
<polygon fill="white" stroke="transparent" points="-4,4 -4,-207 593,-207 593,4 -4,4"/>
<text text-anchor="start" x="273.51" y="-42.4" font-family="Times-12" font-weight="bold" font-size="14.00">Legend</text>
<polygon fill="#ffffb3" stroke="transparent" points="60.5,-10 60.5,-30 80.5,-30 80.5,-10 60.5,-10"/>
<text text-anchor="start" x="84.13" y="-15.4" font-family="Times-12" font-size="14.00"> &#160;Declarations</text>
<polygon fill="#8dd3c7" stroke="transparent" points="173.5,-10 173.5,-30 193.5,-30 193.5,-10 173.5,-10"/>
<text text-anchor="start" x="197.23" y="-15.4" font-family="Times-12" font-size="14.00"> &#160;Module</text>
<polygon fill="#80b1d3" stroke="transparent" points="259.5,-10 259.5,-30 279.5,-30 279.5,-10 259.5,-10"/>
<text text-anchor="start" x="283.28" y="-15.4" font-family="Times-12" font-size="14.00"> &#160;Bootstrap</text>
<polygon fill="#fdb462" stroke="transparent" points="356.5,-10 356.5,-30 376.5,-30 376.5,-10 356.5,-10"/>
<text text-anchor="start" x="380.17" y="-15.4" font-family="Times-12" font-size="14.00"> &#160;Providers</text>
<polygon fill="#fb8072" stroke="transparent" points="452.5,-10 452.5,-30 472.5,-30 472.5,-10 452.5,-10"/>
<text text-anchor="start" x="476.23" y="-15.4" font-family="Times-12" font-size="14.00"> &#160;Exports</text>
<g id="clust1" class="cluster">
<title>cluster_PaymentsModule</title>
<polygon fill="none" stroke="black" stroke-dasharray="1,5" points="8,-70 8,-195 581,-195 581,-70 8,-70"/>
</g>
<g id="clust3" class="cluster">
<title>cluster_PaymentsModule_imports</title>
<polygon fill="none" stroke="black" points="437,-78 437,-130 573,-130 573,-78 437,-78"/>
</g>
<g id="clust6" class="cluster">
<title>cluster_PaymentsModule_providers</title>
<polygon fill="none" stroke="black" points="16,-78 16,-130 429,-130 429,-78 16,-78"/>
</g>
<!-- PaginationModule -->
<g id="node1" class="node">
<title>PaginationModule</title>
<polygon fill="#8dd3c7" stroke="black" points="564.93,-122 561.93,-126 540.93,-126 537.93,-122 445.07,-122 445.07,-86 564.93,-86 564.93,-122"/>
<text text-anchor="middle" x="505" y="-99.8" font-family="Times,serif" font-size="14.00">PaginationModule</text>
</g>
<!-- PaymentsModule -->
<g id="node2" class="node">
<title>PaymentsModule</title>
<polygon fill="#8dd3c7" stroke="black" points="365.99,-187 362.99,-191 341.99,-191 338.99,-187 252.01,-187 252.01,-151 365.99,-151 365.99,-187"/>
<text text-anchor="middle" x="309" y="-164.8" font-family="Times,serif" font-size="14.00">PaymentsModule</text>
</g>
<!-- PaginationModule&#45;&gt;PaymentsModule -->
<g id="edge1" class="edge">
<title>PaginationModule&#45;&gt;PaymentsModule</title>
<path fill="none" stroke="black" d="M505,-122.11C505,-141.34 505,-169 505,-169 505,-169 376.22,-169 376.22,-169"/>
<polygon fill="black" stroke="black" points="376.22,-165.5 366.22,-169 376.22,-172.5 376.22,-165.5"/>
</g>
<!-- FindAllPaymentsProvider -->
<g id="node3" class="node">
<title>FindAllPaymentsProvider</title>
<ellipse fill="#fdb462" stroke="black" cx="309" cy="-104" rx="111.78" ry="18"/>
<text text-anchor="middle" x="309" y="-99.8" font-family="Times,serif" font-size="14.00">FindAllPaymentsProvider</text>
</g>
<!-- FindAllPaymentsProvider&#45;&gt;PaymentsModule -->
<g id="edge2" class="edge">
<title>FindAllPaymentsProvider&#45;&gt;PaymentsModule</title>
<path fill="none" stroke="black" d="M309,-122.11C309,-122.11 309,-140.99 309,-140.99"/>
<polygon fill="black" stroke="black" points="305.5,-140.99 309,-150.99 312.5,-140.99 305.5,-140.99"/>
</g>
<!-- PaymentsService -->
<g id="node4" class="node">
<title>PaymentsService</title>
<ellipse fill="#fdb462" stroke="black" cx="102" cy="-104" rx="77.58" ry="18"/>
<text text-anchor="middle" x="102" y="-99.8" font-family="Times,serif" font-size="14.00">PaymentsService</text>
</g>
<!-- PaymentsService&#45;&gt;PaymentsModule -->
<g id="edge3" class="edge">
<title>PaymentsService&#45;&gt;PaymentsModule</title>
<path fill="none" stroke="black" d="M102,-122.11C102,-141.34 102,-169 102,-169 102,-169 241.89,-169 241.89,-169"/>
<polygon fill="black" stroke="black" points="241.89,-172.5 251.89,-169 241.89,-165.5 241.89,-172.5"/>
</g>
</g>
</svg>
