<?xml version="1.0" encoding="UTF-8" standalone="no"?>
<!DOCTYPE svg PUBLIC "-//W3C//DTD SVG 1.1//EN"
 "http://www.w3.org/Graphics/SVG/1.1/DTD/svg11.dtd">
<!-- Generated by graphviz version 2.47.0 (20210316.0004)
 -->
<!-- Title: dependencies Pages: 1 -->
<svg width="1314pt" height="284pt"
 viewBox="0.00 0.00 1314.00 284.00" xmlns="http://www.w3.org/2000/svg" xmlns:xlink="http://www.w3.org/1999/xlink">
<g id="graph0" class="graph" transform="scale(1 1) rotate(0) translate(4 280)">
<title>dependencies</title>
<polygon fill="white" stroke="transparent" points="-4,4 -4,-280 1310,-280 1310,4 -4,4"/>
<text text-anchor="start" x="632.01" y="-42.4" font-family="Times-12" font-weight="bold" font-size="14.00">Legend</text>
<polygon fill="#ffffb3" stroke="transparent" points="419,-10 419,-30 439,-30 439,-10 419,-10"/>
<text text-anchor="start" x="442.63" y="-15.4" font-family="Times-12" font-size="14.00"> &#160;Declarations</text>
<polygon fill="#8dd3c7" stroke="transparent" points="532,-10 532,-30 552,-30 552,-10 532,-10"/>
<text text-anchor="start" x="555.73" y="-15.4" font-family="Times-12" font-size="14.00"> &#160;Module</text>
<polygon fill="#80b1d3" stroke="transparent" points="618,-10 618,-30 638,-30 638,-10 618,-10"/>
<text text-anchor="start" x="641.78" y="-15.4" font-family="Times-12" font-size="14.00"> &#160;Bootstrap</text>
<polygon fill="#fdb462" stroke="transparent" points="715,-10 715,-30 735,-30 735,-10 715,-10"/>
<text text-anchor="start" x="738.67" y="-15.4" font-family="Times-12" font-size="14.00"> &#160;Providers</text>
<polygon fill="#fb8072" stroke="transparent" points="811,-10 811,-30 831,-30 831,-10 811,-10"/>
<text text-anchor="start" x="834.73" y="-15.4" font-family="Times-12" font-size="14.00"> &#160;Exports</text>
<g id="clust1" class="cluster">
<title>cluster_ProductsModule</title>
<polygon fill="none" stroke="black" stroke-dasharray="1,5" points="8,-70 8,-268 1298,-268 1298,-70 8,-70"/>
</g>
<g id="clust3" class="cluster">
<title>cluster_ProductsModule_imports</title>
<polygon fill="none" stroke="black" points="862,-78 862,-130 1290,-130 1290,-78 862,-78"/>
</g>
<g id="clust4" class="cluster">
<title>cluster_ProductsModule_exports</title>
<polygon fill="none" stroke="black" points="683,-208 683,-260 809,-260 809,-208 683,-208"/>
</g>
<g id="clust6" class="cluster">
<title>cluster_ProductsModule_providers</title>
<polygon fill="none" stroke="black" points="16,-78 16,-130 854,-130 854,-78 16,-78"/>
</g>
<!-- PaginationModule -->
<g id="node1" class="node">
<title>PaginationModule</title>
<polygon fill="#8dd3c7" stroke="black" points="1281.93,-122 1278.93,-126 1257.93,-126 1254.93,-122 1162.07,-122 1162.07,-86 1281.93,-86 1281.93,-122"/>
<text text-anchor="middle" x="1222" y="-99.8" font-family="Times,serif" font-size="14.00">PaginationModule</text>
</g>
<!-- ProductsModule -->
<g id="node4" class="node">
<title>ProductsModule</title>
<polygon fill="#8dd3c7" stroke="black" points="800.04,-187 797.04,-191 776.04,-191 773.04,-187 691.96,-187 691.96,-151 800.04,-151 800.04,-187"/>
<text text-anchor="middle" x="746" y="-164.8" font-family="Times,serif" font-size="14.00">ProductsModule</text>
</g>
<!-- PaginationModule&#45;&gt;ProductsModule -->
<g id="edge1" class="edge">
<title>PaginationModule&#45;&gt;ProductsModule</title>
<path fill="none" stroke="black" d="M1222,-122.29C1222,-144.21 1222,-178 1222,-178 1222,-178 810.14,-178 810.14,-178"/>
<polygon fill="black" stroke="black" points="810.14,-174.5 800.14,-178 810.14,-181.5 810.14,-174.5"/>
</g>
<!-- ProductVariantsModule -->
<g id="node2" class="node">
<title>ProductVariantsModule</title>
<polygon fill="#8dd3c7" stroke="black" points="1144.02,-122 1141.02,-126 1120.02,-126 1117.02,-122 993.98,-122 993.98,-86 1144.02,-86 1144.02,-122"/>
<text text-anchor="middle" x="1069" y="-99.8" font-family="Times,serif" font-size="14.00">ProductVariantsModule</text>
</g>
<!-- ProductVariantsModule&#45;&gt;ProductsModule -->
<g id="edge2" class="edge">
<title>ProductVariantsModule&#45;&gt;ProductsModule</title>
<path fill="none" stroke="black" d="M1069,-122.11C1069,-141.34 1069,-169 1069,-169 1069,-169 810.06,-169 810.06,-169"/>
<polygon fill="black" stroke="black" points="810.06,-165.5 800.06,-169 810.06,-172.5 810.06,-165.5"/>
</g>
<!-- UploadsModule -->
<g id="node3" class="node">
<title>UploadsModule</title>
<polygon fill="#8dd3c7" stroke="black" points="976.21,-122 973.21,-126 952.21,-126 949.21,-122 869.79,-122 869.79,-86 976.21,-86 976.21,-122"/>
<text text-anchor="middle" x="923" y="-99.8" font-family="Times,serif" font-size="14.00">UploadsModule</text>
</g>
<!-- UploadsModule&#45;&gt;ProductsModule -->
<g id="edge3" class="edge">
<title>UploadsModule&#45;&gt;ProductsModule</title>
<path fill="none" stroke="black" d="M923,-122.03C923,-138.4 923,-160 923,-160 923,-160 810.07,-160 810.07,-160"/>
<polygon fill="black" stroke="black" points="810.07,-156.5 800.07,-160 810.07,-163.5 810.07,-156.5"/>
</g>
<!-- ProductsService  -->
<g id="node5" class="node">
<title>ProductsService </title>
<polygon fill="#fb8072" stroke="black" points="801.47,-252 690.53,-252 690.53,-216 801.47,-216 801.47,-252"/>
<text text-anchor="middle" x="746" y="-229.8" font-family="Times,serif" font-size="14.00">ProductsService </text>
</g>
<!-- ProductsModule&#45;&gt;ProductsService  -->
<g id="edge4" class="edge">
<title>ProductsModule&#45;&gt;ProductsService </title>
<path fill="none" stroke="black" stroke-dasharray="5,2" d="M746,-187.11C746,-187.11 746,-205.99 746,-205.99"/>
<polygon fill="black" stroke="black" points="742.5,-205.99 746,-215.99 749.5,-205.99 742.5,-205.99"/>
</g>
<!-- CreateProductProvider -->
<g id="node6" class="node">
<title>CreateProductProvider</title>
<ellipse fill="#fdb462" stroke="black" cx="746" cy="-104" rx="99.56" ry="18"/>
<text text-anchor="middle" x="746" y="-99.8" font-family="Times,serif" font-size="14.00">CreateProductProvider</text>
</g>
<!-- CreateProductProvider&#45;&gt;ProductsModule -->
<g id="edge5" class="edge">
<title>CreateProductProvider&#45;&gt;ProductsModule</title>
<path fill="none" stroke="black" d="M746,-122.11C746,-122.11 746,-140.99 746,-140.99"/>
<polygon fill="black" stroke="black" points="742.5,-140.99 746,-150.99 749.5,-140.99 742.5,-140.99"/>
</g>
<!-- FindAllProductsProvider -->
<g id="node7" class="node">
<title>FindAllProductsProvider</title>
<ellipse fill="#fdb462" stroke="black" cx="520" cy="-104" rx="108.26" ry="18"/>
<text text-anchor="middle" x="520" y="-99.8" font-family="Times,serif" font-size="14.00">FindAllProductsProvider</text>
</g>
<!-- FindAllProductsProvider&#45;&gt;ProductsModule -->
<g id="edge6" class="edge">
<title>FindAllProductsProvider&#45;&gt;ProductsModule</title>
<path fill="none" stroke="black" d="M520,-122.03C520,-138.4 520,-160 520,-160 520,-160 681.87,-160 681.87,-160"/>
<polygon fill="black" stroke="black" points="681.87,-163.5 691.87,-160 681.87,-156.5 681.87,-163.5"/>
</g>
<!-- ProductsService -->
<g id="node8" class="node">
<title>ProductsService</title>
<ellipse fill="#fdb462" stroke="black" cx="320" cy="-104" rx="73.57" ry="18"/>
<text text-anchor="middle" x="320" y="-99.8" font-family="Times,serif" font-size="14.00">ProductsService</text>
</g>
<!-- ProductsService&#45;&gt;ProductsModule -->
<g id="edge7" class="edge">
<title>ProductsService&#45;&gt;ProductsModule</title>
<path fill="none" stroke="black" d="M320,-122.11C320,-141.34 320,-169 320,-169 320,-169 681.61,-169 681.61,-169"/>
<polygon fill="black" stroke="black" points="681.61,-172.5 691.61,-169 681.61,-165.5 681.61,-172.5"/>
</g>
<!-- UpdateProductProvider -->
<g id="node9" class="node">
<title>UpdateProductProvider</title>
<ellipse fill="#fdb462" stroke="black" cx="126" cy="-104" rx="102.43" ry="18"/>
<text text-anchor="middle" x="126" y="-99.8" font-family="Times,serif" font-size="14.00">UpdateProductProvider</text>
</g>
<!-- UpdateProductProvider&#45;&gt;ProductsModule -->
<g id="edge8" class="edge">
<title>UpdateProductProvider&#45;&gt;ProductsModule</title>
<path fill="none" stroke="black" d="M126,-122.29C126,-144.21 126,-178 126,-178 126,-178 681.79,-178 681.79,-178"/>
<polygon fill="black" stroke="black" points="681.79,-181.5 691.79,-178 681.79,-174.5 681.79,-181.5"/>
</g>
</g>
</svg>
