<?xml version="1.0" encoding="UTF-8" standalone="no"?>
<!DOCTYPE svg PUBLIC "-//W3C//DTD SVG 1.1//EN"
 "http://www.w3.org/Graphics/SVG/1.1/DTD/svg11.dtd">
<!-- Generated by graphviz version 2.47.0 (20210316.0004)
 -->
<!-- Title: dependencies Pages: 1 -->
<svg width="866pt" height="211pt"
 viewBox="0.00 0.00 866.00 211.00" xmlns="http://www.w3.org/2000/svg" xmlns:xlink="http://www.w3.org/1999/xlink">
<g id="graph0" class="graph" transform="scale(1 1) rotate(0) translate(4 207)">
<title>dependencies</title>
<polygon fill="white" stroke="transparent" points="-4,4 -4,-207 862,-207 862,4 -4,4"/>
<text text-anchor="start" x="408.01" y="-42.4" font-family="Times-12" font-weight="bold" font-size="14.00">Legend</text>
<polygon fill="#ffffb3" stroke="transparent" points="195,-10 195,-30 215,-30 215,-10 195,-10"/>
<text text-anchor="start" x="218.63" y="-15.4" font-family="Times-12" font-size="14.00"> &#160;Declarations</text>
<polygon fill="#8dd3c7" stroke="transparent" points="308,-10 308,-30 328,-30 328,-10 308,-10"/>
<text text-anchor="start" x="331.73" y="-15.4" font-family="Times-12" font-size="14.00"> &#160;Module</text>
<polygon fill="#80b1d3" stroke="transparent" points="394,-10 394,-30 414,-30 414,-10 394,-10"/>
<text text-anchor="start" x="417.78" y="-15.4" font-family="Times-12" font-size="14.00"> &#160;Bootstrap</text>
<polygon fill="#fdb462" stroke="transparent" points="491,-10 491,-30 511,-30 511,-10 491,-10"/>
<text text-anchor="start" x="514.67" y="-15.4" font-family="Times-12" font-size="14.00"> &#160;Providers</text>
<polygon fill="#fb8072" stroke="transparent" points="587,-10 587,-30 607,-30 607,-10 587,-10"/>
<text text-anchor="start" x="610.73" y="-15.4" font-family="Times-12" font-size="14.00"> &#160;Exports</text>
<g id="clust1" class="cluster">
<title>cluster_DiscountsModule</title>
<polygon fill="none" stroke="black" stroke-dasharray="1,5" points="8,-70 8,-195 850,-195 850,-70 8,-70"/>
</g>
<g id="clust3" class="cluster">
<title>cluster_DiscountsModule_imports</title>
<polygon fill="none" stroke="black" points="676,-78 676,-130 842,-130 842,-78 676,-78"/>
</g>
<g id="clust6" class="cluster">
<title>cluster_DiscountsModule_providers</title>
<polygon fill="none" stroke="black" points="16,-78 16,-130 668,-130 668,-78 16,-78"/>
</g>
<!-- DiscountsUsageModule -->
<g id="node1" class="node">
<title>DiscountsUsageModule</title>
<polygon fill="#8dd3c7" stroke="black" points="834.02,-122 831.02,-126 810.02,-126 807.02,-122 683.98,-122 683.98,-86 834.02,-86 834.02,-122"/>
<text text-anchor="middle" x="759" y="-99.8" font-family="Times,serif" font-size="14.00">DiscountsUsageModule</text>
</g>
<!-- DiscountsModule -->
<g id="node2" class="node">
<title>DiscountsModule</title>
<polygon fill="#8dd3c7" stroke="black" points="480.54,-187 477.54,-191 456.54,-191 453.54,-187 365.46,-187 365.46,-151 480.54,-151 480.54,-187"/>
<text text-anchor="middle" x="423" y="-164.8" font-family="Times,serif" font-size="14.00">DiscountsModule</text>
</g>
<!-- DiscountsUsageModule&#45;&gt;DiscountsModule -->
<g id="edge1" class="edge">
<title>DiscountsUsageModule&#45;&gt;DiscountsModule</title>
<path fill="none" stroke="black" d="M759,-122.11C759,-141.34 759,-169 759,-169 759,-169 490.76,-169 490.76,-169"/>
<polygon fill="black" stroke="black" points="490.76,-165.5 480.76,-169 490.76,-172.5 490.76,-165.5"/>
</g>
<!-- ApplyForDiscountProvider -->
<g id="node3" class="node">
<title>ApplyForDiscountProvider</title>
<ellipse fill="#fdb462" stroke="black" cx="543" cy="-104" rx="116.92" ry="18"/>
<text text-anchor="middle" x="543" y="-99.8" font-family="Times,serif" font-size="14.00">ApplyForDiscountProvider</text>
</g>
<!-- ApplyForDiscountProvider&#45;&gt;DiscountsModule -->
<g id="edge2" class="edge">
<title>ApplyForDiscountProvider&#45;&gt;DiscountsModule</title>
<path fill="none" stroke="black" d="M453.53,-115.62C453.53,-115.62 453.53,-140.85 453.53,-140.85"/>
<polygon fill="black" stroke="black" points="450.03,-140.85 453.53,-150.85 457.03,-140.85 450.03,-140.85"/>
</g>
<!-- CreateDiscountProvider -->
<g id="node4" class="node">
<title>CreateDiscountProvider</title>
<ellipse fill="#fdb462" stroke="black" cx="304" cy="-104" rx="104.21" ry="18"/>
<text text-anchor="middle" x="304" y="-99.8" font-family="Times,serif" font-size="14.00">CreateDiscountProvider</text>
</g>
<!-- CreateDiscountProvider&#45;&gt;DiscountsModule -->
<g id="edge3" class="edge">
<title>CreateDiscountProvider&#45;&gt;DiscountsModule</title>
<path fill="none" stroke="black" d="M386.79,-115.03C386.79,-115.03 386.79,-140.78 386.79,-140.78"/>
<polygon fill="black" stroke="black" points="383.29,-140.78 386.79,-150.78 390.29,-140.78 383.29,-140.78"/>
</g>
<!-- DiscountsService -->
<g id="node5" class="node">
<title>DiscountsService</title>
<ellipse fill="#fdb462" stroke="black" cx="103" cy="-104" rx="78.73" ry="18"/>
<text text-anchor="middle" x="103" y="-99.8" font-family="Times,serif" font-size="14.00">DiscountsService</text>
</g>
<!-- DiscountsService&#45;&gt;DiscountsModule -->
<g id="edge4" class="edge">
<title>DiscountsService&#45;&gt;DiscountsModule</title>
<path fill="none" stroke="black" d="M103,-122.11C103,-141.34 103,-169 103,-169 103,-169 355.42,-169 355.42,-169"/>
<polygon fill="black" stroke="black" points="355.42,-172.5 365.42,-169 355.42,-165.5 355.42,-172.5"/>
</g>
</g>
</svg>
