<?xml version="1.0" encoding="UTF-8" standalone="no"?>
<!DOCTYPE svg PUBLIC "-//W3C//DTD SVG 1.1//EN"
 "http://www.w3.org/Graphics/SVG/1.1/DTD/svg11.dtd">
<!-- Generated by graphviz version 2.47.0 (20210316.0004)
 -->
<!-- Title: dependencies Pages: 1 -->
<svg width="866pt" height="211pt"
 viewBox="0.00 0.00 866.00 211.00" xmlns="http://www.w3.org/2000/svg" xmlns:xlink="http://www.w3.org/1999/xlink">
<g id="graph0" class="graph" transform="scale(1 1) rotate(0) translate(4 207)">
<title>dependencies</title>
<polygon fill="white" stroke="transparent" points="-4,4 -4,-207 862,-207 862,4 -4,4"/>
<text text-anchor="start" x="408.01" y="-42.4" font-family="Times-12" font-weight="bold" font-size="14.00">Legend</text>
<polygon fill="#ffffb3" stroke="transparent" points="195,-10 195,-30 215,-30 215,-10 195,-10"/>
<text text-anchor="start" x="218.63" y="-15.4" font-family="Times-12" font-size="14.00"> &#160;Declarations</text>
<polygon fill="#8dd3c7" stroke="transparent" points="308,-10 308,-30 328,-30 328,-10 308,-10"/>
<text text-anchor="start" x="331.73" y="-15.4" font-family="Times-12" font-size="14.00"> &#160;Module</text>
<polygon fill="#80b1d3" stroke="transparent" points="394,-10 394,-30 414,-30 414,-10 394,-10"/>
<text text-anchor="start" x="417.78" y="-15.4" font-family="Times-12" font-size="14.00"> &#160;Bootstrap</text>
<polygon fill="#fdb462" stroke="transparent" points="491,-10 491,-30 511,-30 511,-10 491,-10"/>
<text text-anchor="start" x="514.67" y="-15.4" font-family="Times-12" font-size="14.00"> &#160;Providers</text>
<polygon fill="#fb8072" stroke="transparent" points="587,-10 587,-30 607,-30 607,-10 587,-10"/>
<text text-anchor="start" x="610.73" y="-15.4" font-family="Times-12" font-size="14.00"> &#160;Exports</text>
<g id="clust1" class="cluster">
<title>cluster_DiscountsModule</title>
<polygon fill="none" stroke="black" stroke-dasharray="1,5" points="8,-70 8,-195 850,-195 850,-70 8,-70"/>
</g>
<g id="clust6" class="cluster">
<title>cluster_DiscountsModule_providers</title>
<polygon fill="none" stroke="black" points="190,-78 190,-130 842,-130 842,-78 190,-78"/>
</g>
<g id="clust3" class="cluster">
<title>cluster_DiscountsModule_imports</title>
<polygon fill="none" stroke="black" points="16,-78 16,-130 182,-130 182,-78 16,-78"/>
</g>
<!-- DiscountsUsageModule -->
<g id="node1" class="node">
<title>DiscountsUsageModule</title>
<polygon fill="#8dd3c7" stroke="black" points="174.02,-122 171.02,-126 150.02,-126 147.02,-122 23.98,-122 23.98,-86 174.02,-86 174.02,-122"/>
<text text-anchor="middle" x="99" y="-99.8" font-family="Times,serif" font-size="14.00">DiscountsUsageModule</text>
</g>
<!-- DiscountsModule -->
<g id="node2" class="node">
<title>DiscountsModule</title>
<polygon fill="#8dd3c7" stroke="black" points="434.54,-187 431.54,-191 410.54,-191 407.54,-187 319.46,-187 319.46,-151 434.54,-151 434.54,-187"/>
<text text-anchor="middle" x="377" y="-164.8" font-family="Times,serif" font-size="14.00">DiscountsModule</text>
</g>
<!-- DiscountsUsageModule&#45;&gt;DiscountsModule -->
<g id="edge1" class="edge">
<title>DiscountsUsageModule&#45;&gt;DiscountsModule</title>
<path fill="none" stroke="black" d="M99,-122.11C99,-141.34 99,-169 99,-169 99,-169 309.4,-169 309.4,-169"/>
<polygon fill="black" stroke="black" points="309.4,-172.5 319.4,-169 309.4,-165.5 309.4,-172.5"/>
</g>
<!-- ApplyForDiscountProvider -->
<g id="node3" class="node">
<title>ApplyForDiscountProvider</title>
<ellipse fill="#fdb462" stroke="black" cx="717" cy="-104" rx="116.92" ry="18"/>
<text text-anchor="middle" x="717" y="-99.8" font-family="Times,serif" font-size="14.00">ApplyForDiscountProvider</text>
</g>
<!-- ApplyForDiscountProvider&#45;&gt;DiscountsModule -->
<g id="edge2" class="edge">
<title>ApplyForDiscountProvider&#45;&gt;DiscountsModule</title>
<path fill="none" stroke="black" d="M717,-122.11C717,-141.34 717,-169 717,-169 717,-169 444.68,-169 444.68,-169"/>
<polygon fill="black" stroke="black" points="444.68,-165.5 434.68,-169 444.68,-172.5 444.68,-165.5"/>
</g>
<!-- CreateDiscountProvider -->
<g id="node4" class="node">
<title>CreateDiscountProvider</title>
<ellipse fill="#fdb462" stroke="black" cx="478" cy="-104" rx="104.21" ry="18"/>
<text text-anchor="middle" x="478" y="-99.8" font-family="Times,serif" font-size="14.00">CreateDiscountProvider</text>
</g>
<!-- CreateDiscountProvider&#45;&gt;DiscountsModule -->
<g id="edge3" class="edge">
<title>CreateDiscountProvider&#45;&gt;DiscountsModule</title>
<path fill="none" stroke="black" d="M404.21,-116.84C404.21,-116.84 404.21,-140.52 404.21,-140.52"/>
<polygon fill="black" stroke="black" points="400.71,-140.52 404.21,-150.52 407.71,-140.52 400.71,-140.52"/>
</g>
<!-- DiscountsService -->
<g id="node5" class="node">
<title>DiscountsService</title>
<ellipse fill="#fdb462" stroke="black" cx="277" cy="-104" rx="78.73" ry="18"/>
<text text-anchor="middle" x="277" y="-99.8" font-family="Times,serif" font-size="14.00">DiscountsService</text>
</g>
<!-- DiscountsService&#45;&gt;DiscountsModule -->
<g id="edge4" class="edge">
<title>DiscountsService&#45;&gt;DiscountsModule</title>
<path fill="none" stroke="black" d="M337.42,-115.62C337.42,-115.62 337.42,-140.85 337.42,-140.85"/>
<polygon fill="black" stroke="black" points="333.92,-140.85 337.42,-150.85 340.92,-140.85 333.92,-140.85"/>
</g>
</g>
</svg>
