<?xml version="1.0" encoding="UTF-8" standalone="no"?>
<!DOCTYPE svg PUBLIC "-//W3C//DTD SVG 1.1//EN"
 "http://www.w3.org/Graphics/SVG/1.1/DTD/svg11.dtd">
<!-- Generated by graphviz version 2.47.0 (20210316.0004)
 -->
<!-- Title: dependencies Pages: 1 -->
<svg width="2050pt" height="211pt"
 viewBox="0.00 0.00 2050.00 211.00" xmlns="http://www.w3.org/2000/svg" xmlns:xlink="http://www.w3.org/1999/xlink">
<g id="graph0" class="graph" transform="scale(1 1) rotate(0) translate(4 207)">
<title>dependencies</title>
<polygon fill="white" stroke="transparent" points="-4,4 -4,-207 2046,-207 2046,4 -4,4"/>
<text text-anchor="start" x="1000.01" y="-42.4" font-family="Times-12" font-weight="bold" font-size="14.00">Legend</text>
<polygon fill="#ffffb3" stroke="transparent" points="787,-10 787,-30 807,-30 807,-10 787,-10"/>
<text text-anchor="start" x="810.63" y="-15.4" font-family="Times-12" font-size="14.00"> &#160;Declarations</text>
<polygon fill="#8dd3c7" stroke="transparent" points="900,-10 900,-30 920,-30 920,-10 900,-10"/>
<text text-anchor="start" x="923.73" y="-15.4" font-family="Times-12" font-size="14.00"> &#160;Module</text>
<polygon fill="#80b1d3" stroke="transparent" points="986,-10 986,-30 1006,-30 1006,-10 986,-10"/>
<text text-anchor="start" x="1009.78" y="-15.4" font-family="Times-12" font-size="14.00"> &#160;Bootstrap</text>
<polygon fill="#fdb462" stroke="transparent" points="1083,-10 1083,-30 1103,-30 1103,-10 1083,-10"/>
<text text-anchor="start" x="1106.67" y="-15.4" font-family="Times-12" font-size="14.00"> &#160;Providers</text>
<polygon fill="#fb8072" stroke="transparent" points="1179,-10 1179,-30 1199,-30 1199,-10 1179,-10"/>
<text text-anchor="start" x="1202.73" y="-15.4" font-family="Times-12" font-size="14.00"> &#160;Exports</text>
<g id="clust1" class="cluster">
<title>cluster_AppModule</title>
<polygon fill="none" stroke="black" stroke-dasharray="1,5" points="8,-70 8,-195 2034,-195 2034,-70 8,-70"/>
</g>
<g id="clust3" class="cluster">
<title>cluster_AppModule_imports</title>
<polygon fill="none" stroke="black" points="154,-78 154,-130 2026,-130 2026,-78 154,-78"/>
</g>
<g id="clust6" class="cluster">
<title>cluster_AppModule_providers</title>
<polygon fill="none" stroke="black" points="16,-78 16,-130 146,-130 146,-78 16,-78"/>
</g>
<!-- AuthModule -->
<g id="node1" class="node">
<title>AuthModule</title>
<polygon fill="#8dd3c7" stroke="black" points="2017.55,-122 2014.55,-126 1993.55,-126 1990.55,-122 1930.45,-122 1930.45,-86 2017.55,-86 2017.55,-122"/>
<text text-anchor="middle" x="1974" y="-99.8" font-family="Times,serif" font-size="14.00">AuthModule</text>
</g>
<!-- AppModule -->
<g id="node15" class="node">
<title>AppModule</title>
<polygon fill="#8dd3c7" stroke="black" points="1073.66,-187 1070.66,-191 1049.66,-191 1046.66,-187 990.34,-187 990.34,-151 1073.66,-151 1073.66,-187"/>
<text text-anchor="middle" x="1032" y="-164.8" font-family="Times,serif" font-size="14.00">AppModule</text>
</g>
<!-- AuthModule&#45;&gt;AppModule -->
<g id="edge1" class="edge">
<title>AuthModule&#45;&gt;AppModule</title>
<path fill="none" stroke="black" d="M1974,-122.32C1974,-145.66 1974,-183 1974,-183 1974,-183 1083.69,-183 1083.69,-183"/>
<polygon fill="black" stroke="black" points="1083.69,-179.5 1073.69,-183 1083.69,-186.5 1083.69,-179.5"/>
</g>
<!-- DeliveryStatesModule -->
<g id="node2" class="node">
<title>DeliveryStatesModule</title>
<polygon fill="#8dd3c7" stroke="black" points="1911.97,-122 1908.97,-126 1887.97,-126 1884.97,-122 1770.03,-122 1770.03,-86 1911.97,-86 1911.97,-122"/>
<text text-anchor="middle" x="1841" y="-99.8" font-family="Times,serif" font-size="14.00">DeliveryStatesModule</text>
</g>
<!-- DeliveryStatesModule&#45;&gt;AppModule -->
<g id="edge2" class="edge">
<title>DeliveryStatesModule&#45;&gt;AppModule</title>
<path fill="none" stroke="black" d="M1841,-122.29C1841,-144.21 1841,-178 1841,-178 1841,-178 1083.79,-178 1083.79,-178"/>
<polygon fill="black" stroke="black" points="1083.79,-174.5 1073.79,-178 1083.79,-181.5 1083.79,-174.5"/>
</g>
<!-- DiscountsModule -->
<g id="node3" class="node">
<title>DiscountsModule</title>
<polygon fill="#8dd3c7" stroke="black" points="1751.54,-122 1748.54,-126 1727.54,-126 1724.54,-122 1636.46,-122 1636.46,-86 1751.54,-86 1751.54,-122"/>
<text text-anchor="middle" x="1694" y="-99.8" font-family="Times,serif" font-size="14.00">DiscountsModule</text>
</g>
<!-- DiscountsModule&#45;&gt;AppModule -->
<g id="edge3" class="edge">
<title>DiscountsModule&#45;&gt;AppModule</title>
<path fill="none" stroke="black" d="M1694,-122.03C1694,-142.77 1694,-174 1694,-174 1694,-174 1083.66,-174 1083.66,-174"/>
<polygon fill="black" stroke="black" points="1083.66,-170.5 1073.66,-174 1083.66,-177.5 1083.66,-170.5"/>
</g>
<!-- DiscountsUsageModule -->
<g id="node4" class="node">
<title>DiscountsUsageModule</title>
<polygon fill="#8dd3c7" stroke="black" points="1618.02,-122 1615.02,-126 1594.02,-126 1591.02,-122 1467.98,-122 1467.98,-86 1618.02,-86 1618.02,-122"/>
<text text-anchor="middle" x="1543" y="-99.8" font-family="Times,serif" font-size="14.00">DiscountsUsageModule</text>
</g>
<!-- DiscountsUsageModule&#45;&gt;AppModule -->
<g id="edge4" class="edge">
<title>DiscountsUsageModule&#45;&gt;AppModule</title>
<path fill="none" stroke="black" d="M1543,-122.11C1543,-141.34 1543,-169 1543,-169 1543,-169 1083.82,-169 1083.82,-169"/>
<polygon fill="black" stroke="black" points="1083.82,-165.5 1073.82,-169 1083.82,-172.5 1083.82,-165.5"/>
</g>
<!-- MailModule -->
<g id="node5" class="node">
<title>MailModule</title>
<polygon fill="#8dd3c7" stroke="black" points="1449.99,-122 1446.99,-126 1425.99,-126 1422.99,-122 1364.01,-122 1364.01,-86 1449.99,-86 1449.99,-122"/>
<text text-anchor="middle" x="1407" y="-99.8" font-family="Times,serif" font-size="14.00">MailModule</text>
</g>
<!-- MailModule&#45;&gt;AppModule -->
<g id="edge5" class="edge">
<title>MailModule&#45;&gt;AppModule</title>
<path fill="none" stroke="black" d="M1407,-122.3C1407,-140.27 1407,-165 1407,-165 1407,-165 1083.93,-165 1083.93,-165"/>
<polygon fill="black" stroke="black" points="1083.93,-161.5 1073.93,-165 1083.93,-168.5 1083.93,-161.5"/>
</g>
<!-- OrdersModule -->
<g id="node6" class="node">
<title>OrdersModule</title>
<polygon fill="#8dd3c7" stroke="black" points="1345.64,-122 1342.64,-126 1321.64,-126 1318.64,-122 1248.36,-122 1248.36,-86 1345.64,-86 1345.64,-122"/>
<text text-anchor="middle" x="1297" y="-99.8" font-family="Times,serif" font-size="14.00">OrdersModule</text>
</g>
<!-- OrdersModule&#45;&gt;AppModule -->
<g id="edge6" class="edge">
<title>OrdersModule&#45;&gt;AppModule</title>
<path fill="none" stroke="black" d="M1297,-122.03C1297,-138.4 1297,-160 1297,-160 1297,-160 1083.7,-160 1083.7,-160"/>
<polygon fill="black" stroke="black" points="1083.7,-156.5 1073.7,-160 1083.7,-163.5 1083.7,-156.5"/>
</g>
<!-- PaystackModule -->
<g id="node7" class="node">
<title>PaystackModule</title>
<polygon fill="#8dd3c7" stroke="black" points="1230.81,-122 1227.81,-126 1206.81,-126 1203.81,-122 1121.19,-122 1121.19,-86 1230.81,-86 1230.81,-122"/>
<text text-anchor="middle" x="1176" y="-99.8" font-family="Times,serif" font-size="14.00">PaystackModule</text>
</g>
<!-- PaystackModule&#45;&gt;AppModule -->
<g id="edge7" class="edge">
<title>PaystackModule&#45;&gt;AppModule</title>
<path fill="none" stroke="black" d="M1176,-122.19C1176,-137.18 1176,-156 1176,-156 1176,-156 1084.04,-156 1084.04,-156"/>
<polygon fill="black" stroke="black" points="1084.04,-152.5 1074.04,-156 1084.04,-159.5 1084.04,-152.5"/>
</g>
<!-- ProductImagesModule -->
<g id="node8" class="node">
<title>ProductImagesModule</title>
<polygon fill="#8dd3c7" stroke="black" points="1103.52,-122 1100.52,-126 1079.52,-126 1076.52,-122 960.48,-122 960.48,-86 1103.52,-86 1103.52,-122"/>
<text text-anchor="middle" x="1032" y="-99.8" font-family="Times,serif" font-size="14.00">ProductImagesModule</text>
</g>
<!-- ProductImagesModule&#45;&gt;AppModule -->
<g id="edge8" class="edge">
<title>ProductImagesModule&#45;&gt;AppModule</title>
<path fill="none" stroke="black" d="M1032,-122.11C1032,-122.11 1032,-140.99 1032,-140.99"/>
<polygon fill="black" stroke="black" points="1028.5,-140.99 1032,-150.99 1035.5,-140.99 1028.5,-140.99"/>
</g>
<!-- ProductVariantsModule -->
<g id="node9" class="node">
<title>ProductVariantsModule</title>
<polygon fill="#8dd3c7" stroke="black" points="942.02,-122 939.02,-126 918.02,-126 915.02,-122 791.98,-122 791.98,-86 942.02,-86 942.02,-122"/>
<text text-anchor="middle" x="867" y="-99.8" font-family="Times,serif" font-size="14.00">ProductVariantsModule</text>
</g>
<!-- ProductVariantsModule&#45;&gt;AppModule -->
<g id="edge9" class="edge">
<title>ProductVariantsModule&#45;&gt;AppModule</title>
<path fill="none" stroke="black" d="M867,-122.19C867,-137.18 867,-156 867,-156 867,-156 979.94,-156 979.94,-156"/>
<polygon fill="black" stroke="black" points="979.94,-159.5 989.94,-156 979.94,-152.5 979.94,-159.5"/>
</g>
<!-- ProductsModule -->
<g id="node10" class="node">
<title>ProductsModule</title>
<polygon fill="#8dd3c7" stroke="black" points="773.04,-122 770.04,-126 749.04,-126 746.04,-122 664.96,-122 664.96,-86 773.04,-86 773.04,-122"/>
<text text-anchor="middle" x="719" y="-99.8" font-family="Times,serif" font-size="14.00">ProductsModule</text>
</g>
<!-- ProductsModule&#45;&gt;AppModule -->
<g id="edge10" class="edge">
<title>ProductsModule&#45;&gt;AppModule</title>
<path fill="none" stroke="black" d="M719,-122.03C719,-138.4 719,-160 719,-160 719,-160 980.11,-160 980.11,-160"/>
<polygon fill="black" stroke="black" points="980.11,-163.5 990.11,-160 980.11,-156.5 980.11,-163.5"/>
</g>
<!-- ReviewsModule -->
<g id="node11" class="node">
<title>ReviewsModule</title>
<polygon fill="#8dd3c7" stroke="black" points="646.76,-122 643.76,-126 622.76,-126 619.76,-122 539.24,-122 539.24,-86 646.76,-86 646.76,-122"/>
<text text-anchor="middle" x="593" y="-99.8" font-family="Times,serif" font-size="14.00">ReviewsModule</text>
</g>
<!-- ReviewsModule&#45;&gt;AppModule -->
<g id="edge11" class="edge">
<title>ReviewsModule&#45;&gt;AppModule</title>
<path fill="none" stroke="black" d="M593,-122.3C593,-140.27 593,-165 593,-165 593,-165 980.3,-165 980.3,-165"/>
<polygon fill="black" stroke="black" points="980.3,-168.5 990.3,-165 980.3,-161.5 980.3,-168.5"/>
</g>
<!-- SubscribersModule -->
<g id="node12" class="node">
<title>SubscribersModule</title>
<polygon fill="#8dd3c7" stroke="black" points="521.36,-122 518.36,-126 497.36,-126 494.36,-122 396.64,-122 396.64,-86 521.36,-86 521.36,-122"/>
<text text-anchor="middle" x="459" y="-99.8" font-family="Times,serif" font-size="14.00">SubscribersModule</text>
</g>
<!-- SubscribersModule&#45;&gt;AppModule -->
<g id="edge12" class="edge">
<title>SubscribersModule&#45;&gt;AppModule</title>
<path fill="none" stroke="black" d="M459,-122.11C459,-141.34 459,-169 459,-169 459,-169 980.33,-169 980.33,-169"/>
<polygon fill="black" stroke="black" points="980.33,-172.5 990.33,-169 980.33,-165.5 980.33,-172.5"/>
</g>
<!-- UploadsModule -->
<g id="node13" class="node">
<title>UploadsModule</title>
<polygon fill="#8dd3c7" stroke="black" points="378.21,-122 375.21,-126 354.21,-126 351.21,-122 271.79,-122 271.79,-86 378.21,-86 378.21,-122"/>
<text text-anchor="middle" x="325" y="-99.8" font-family="Times,serif" font-size="14.00">UploadsModule</text>
</g>
<!-- UploadsModule&#45;&gt;AppModule -->
<g id="edge13" class="edge">
<title>UploadsModule&#45;&gt;AppModule</title>
<path fill="none" stroke="black" d="M325,-122.03C325,-142.77 325,-174 325,-174 325,-174 980.15,-174 980.15,-174"/>
<polygon fill="black" stroke="black" points="980.15,-177.5 990.15,-174 980.15,-170.5 980.15,-177.5"/>
</g>
<!-- UsersModule -->
<g id="node14" class="node">
<title>UsersModule</title>
<polygon fill="#8dd3c7" stroke="black" points="253.92,-122 250.92,-126 229.92,-126 226.92,-122 162.08,-122 162.08,-86 253.92,-86 253.92,-122"/>
<text text-anchor="middle" x="208" y="-99.8" font-family="Times,serif" font-size="14.00">UsersModule</text>
</g>
<!-- UsersModule&#45;&gt;AppModule -->
<g id="edge14" class="edge">
<title>UsersModule&#45;&gt;AppModule</title>
<path fill="none" stroke="black" d="M208,-122.29C208,-144.21 208,-178 208,-178 208,-178 980.29,-178 980.29,-178"/>
<polygon fill="black" stroke="black" points="980.29,-181.5 990.29,-178 980.29,-174.5 980.29,-181.5"/>
</g>
<!-- AppService -->
<g id="node16" class="node">
<title>AppService</title>
<ellipse fill="#fdb462" stroke="black" cx="81" cy="-104" rx="56.74" ry="18"/>
<text text-anchor="middle" x="81" y="-99.8" font-family="Times,serif" font-size="14.00">AppService</text>
</g>
<!-- AppService&#45;&gt;AppModule -->
<g id="edge15" class="edge">
<title>AppService&#45;&gt;AppModule</title>
<path fill="none" stroke="black" d="M81,-122.32C81,-145.66 81,-183 81,-183 81,-183 980.22,-183 980.22,-183"/>
<polygon fill="black" stroke="black" points="980.22,-186.5 990.22,-183 980.22,-179.5 980.22,-186.5"/>
</g>
</g>
</svg>
