<?xml version="1.0" encoding="UTF-8" standalone="no"?>
<!DOCTYPE svg PUBLIC "-//W3C//DTD SVG 1.1//EN"
 "http://www.w3.org/Graphics/SVG/1.1/DTD/svg11.dtd">
<!-- Generated by graphviz version 2.47.0 (20210316.0004)
 -->
<!-- Title: dependencies Pages: 1 -->
<svg width="2343pt" height="211pt"
 viewBox="0.00 0.00 2343.00 211.00" xmlns="http://www.w3.org/2000/svg" xmlns:xlink="http://www.w3.org/1999/xlink">
<g id="graph0" class="graph" transform="scale(1 1) rotate(0) translate(4 207)">
<title>dependencies</title>
<polygon fill="white" stroke="transparent" points="-4,4 -4,-207 2339,-207 2339,4 -4,4"/>
<text text-anchor="start" x="1146.51" y="-42.4" font-family="Times-12" font-weight="bold" font-size="14.00">Legend</text>
<polygon fill="#ffffb3" stroke="transparent" points="933.5,-10 933.5,-30 953.5,-30 953.5,-10 933.5,-10"/>
<text text-anchor="start" x="957.13" y="-15.4" font-family="Times-12" font-size="14.00"> &#160;Declarations</text>
<polygon fill="#8dd3c7" stroke="transparent" points="1046.5,-10 1046.5,-30 1066.5,-30 1066.5,-10 1046.5,-10"/>
<text text-anchor="start" x="1070.23" y="-15.4" font-family="Times-12" font-size="14.00"> &#160;Module</text>
<polygon fill="#80b1d3" stroke="transparent" points="1132.5,-10 1132.5,-30 1152.5,-30 1152.5,-10 1132.5,-10"/>
<text text-anchor="start" x="1156.28" y="-15.4" font-family="Times-12" font-size="14.00"> &#160;Bootstrap</text>
<polygon fill="#fdb462" stroke="transparent" points="1229.5,-10 1229.5,-30 1249.5,-30 1249.5,-10 1229.5,-10"/>
<text text-anchor="start" x="1253.17" y="-15.4" font-family="Times-12" font-size="14.00"> &#160;Providers</text>
<polygon fill="#fb8072" stroke="transparent" points="1325.5,-10 1325.5,-30 1345.5,-30 1345.5,-10 1325.5,-10"/>
<text text-anchor="start" x="1349.23" y="-15.4" font-family="Times-12" font-size="14.00"> &#160;Exports</text>
<g id="clust1" class="cluster">
<title>cluster_AppModule</title>
<polygon fill="none" stroke="black" stroke-dasharray="1,5" points="8,-70 8,-195 2327,-195 2327,-70 8,-70"/>
</g>
<g id="clust3" class="cluster">
<title>cluster_AppModule_imports</title>
<polygon fill="none" stroke="black" points="154,-78 154,-130 2319,-130 2319,-78 154,-78"/>
</g>
<g id="clust6" class="cluster">
<title>cluster_AppModule_providers</title>
<polygon fill="none" stroke="black" points="16,-78 16,-130 146,-130 146,-78 16,-78"/>
</g>
<!-- AuthModule -->
<g id="node1" class="node">
<title>AuthModule</title>
<polygon fill="#8dd3c7" stroke="black" points="2310.55,-122 2307.55,-126 2286.55,-126 2283.55,-122 2223.45,-122 2223.45,-86 2310.55,-86 2310.55,-122"/>
<text text-anchor="middle" x="2267" y="-99.8" font-family="Times,serif" font-size="14.00">AuthModule</text>
</g>
<!-- AppModule -->
<g id="node17" class="node">
<title>AppModule</title>
<polygon fill="#8dd3c7" stroke="black" points="1217.66,-187 1214.66,-191 1193.66,-191 1190.66,-187 1134.34,-187 1134.34,-151 1217.66,-151 1217.66,-187"/>
<text text-anchor="middle" x="1176" y="-164.8" font-family="Times,serif" font-size="14.00">AppModule</text>
</g>
<!-- AuthModule&#45;&gt;AppModule -->
<g id="edge1" class="edge">
<title>AuthModule&#45;&gt;AppModule</title>
<path fill="none" stroke="black" d="M2267,-122.32C2267,-145.66 2267,-183 2267,-183 2267,-183 1227.77,-183 1227.77,-183"/>
<polygon fill="black" stroke="black" points="1227.77,-179.5 1217.77,-183 1227.77,-186.5 1227.77,-179.5"/>
</g>
<!-- BankTransfersModule -->
<g id="node2" class="node">
<title>BankTransfersModule</title>
<polygon fill="#8dd3c7" stroke="black" points="2204.95,-122 2201.95,-126 2180.95,-126 2177.95,-122 2063.05,-122 2063.05,-86 2204.95,-86 2204.95,-122"/>
<text text-anchor="middle" x="2134" y="-99.8" font-family="Times,serif" font-size="14.00">BankTransfersModule</text>
</g>
<!-- BankTransfersModule&#45;&gt;AppModule -->
<g id="edge2" class="edge">
<title>BankTransfersModule&#45;&gt;AppModule</title>
<path fill="none" stroke="black" d="M2134,-122.16C2134,-144.35 2134,-179 2134,-179 2134,-179 1227.78,-179 1227.78,-179"/>
<polygon fill="black" stroke="black" points="1227.78,-175.5 1217.78,-179 1227.78,-182.5 1227.78,-175.5"/>
</g>
<!-- DeliveryStatesModule -->
<g id="node3" class="node">
<title>DeliveryStatesModule</title>
<polygon fill="#8dd3c7" stroke="black" points="2044.97,-122 2041.97,-126 2020.97,-126 2017.97,-122 1903.03,-122 1903.03,-86 2044.97,-86 2044.97,-122"/>
<text text-anchor="middle" x="1974" y="-99.8" font-family="Times,serif" font-size="14.00">DeliveryStatesModule</text>
</g>
<!-- DeliveryStatesModule&#45;&gt;AppModule -->
<g id="edge3" class="edge">
<title>DeliveryStatesModule&#45;&gt;AppModule</title>
<path fill="none" stroke="black" d="M1974,-122.28C1974,-143.32 1974,-175 1974,-175 1974,-175 1227.78,-175 1227.78,-175"/>
<polygon fill="black" stroke="black" points="1227.78,-171.5 1217.78,-175 1227.78,-178.5 1227.78,-171.5"/>
</g>
<!-- DiscountsModule -->
<g id="node4" class="node">
<title>DiscountsModule</title>
<polygon fill="#8dd3c7" stroke="black" points="1884.54,-122 1881.54,-126 1860.54,-126 1857.54,-122 1769.46,-122 1769.46,-86 1884.54,-86 1884.54,-122"/>
<text text-anchor="middle" x="1827" y="-99.8" font-family="Times,serif" font-size="14.00">DiscountsModule</text>
</g>
<!-- DiscountsModule&#45;&gt;AppModule -->
<g id="edge4" class="edge">
<title>DiscountsModule&#45;&gt;AppModule</title>
<path fill="none" stroke="black" d="M1827,-122.31C1827,-142.15 1827,-171 1827,-171 1827,-171 1227.71,-171 1227.71,-171"/>
<polygon fill="black" stroke="black" points="1227.71,-167.5 1217.71,-171 1227.71,-174.5 1227.71,-167.5"/>
</g>
<!-- DiscountsUsageModule -->
<g id="node5" class="node">
<title>DiscountsUsageModule</title>
<polygon fill="#8dd3c7" stroke="black" points="1751.02,-122 1748.02,-126 1727.02,-126 1724.02,-122 1600.98,-122 1600.98,-86 1751.02,-86 1751.02,-122"/>
<text text-anchor="middle" x="1676" y="-99.8" font-family="Times,serif" font-size="14.00">DiscountsUsageModule</text>
</g>
<!-- DiscountsUsageModule&#45;&gt;AppModule -->
<g id="edge5" class="edge">
<title>DiscountsUsageModule&#45;&gt;AppModule</title>
<path fill="none" stroke="black" d="M1676,-122.22C1676,-140.83 1676,-167 1676,-167 1676,-167 1227.77,-167 1227.77,-167"/>
<polygon fill="black" stroke="black" points="1227.77,-163.5 1217.77,-167 1227.77,-170.5 1227.77,-163.5"/>
</g>
<!-- MailModule -->
<g id="node6" class="node">
<title>MailModule</title>
<polygon fill="#8dd3c7" stroke="black" points="1582.99,-122 1579.99,-126 1558.99,-126 1555.99,-122 1497.01,-122 1497.01,-86 1582.99,-86 1582.99,-122"/>
<text text-anchor="middle" x="1540" y="-99.8" font-family="Times,serif" font-size="14.00">MailModule</text>
</g>
<!-- MailModule&#45;&gt;AppModule -->
<g id="edge6" class="edge">
<title>MailModule&#45;&gt;AppModule</title>
<path fill="none" stroke="black" d="M1540,-122.02C1540,-139.37 1540,-163 1540,-163 1540,-163 1227.76,-163 1227.76,-163"/>
<polygon fill="black" stroke="black" points="1227.76,-159.5 1217.76,-163 1227.76,-166.5 1227.76,-159.5"/>
</g>
<!-- OrdersModule -->
<g id="node7" class="node">
<title>OrdersModule</title>
<polygon fill="#8dd3c7" stroke="black" points="1478.64,-122 1475.64,-126 1454.64,-126 1451.64,-122 1381.36,-122 1381.36,-86 1478.64,-86 1478.64,-122"/>
<text text-anchor="middle" x="1430" y="-99.8" font-family="Times,serif" font-size="14.00">OrdersModule</text>
</g>
<!-- OrdersModule&#45;&gt;AppModule -->
<g id="edge7" class="edge">
<title>OrdersModule&#45;&gt;AppModule</title>
<path fill="none" stroke="black" d="M1430,-122.01C1430,-138.05 1430,-159 1430,-159 1430,-159 1227.66,-159 1227.66,-159"/>
<polygon fill="black" stroke="black" points="1227.66,-155.5 1217.66,-159 1227.66,-162.5 1227.66,-155.5"/>
</g>
<!-- PaymentsModule -->
<g id="node8" class="node">
<title>PaymentsModule</title>
<polygon fill="#8dd3c7" stroke="black" points="1362.99,-122 1359.99,-126 1338.99,-126 1335.99,-122 1249.01,-122 1249.01,-86 1362.99,-86 1362.99,-122"/>
<text text-anchor="middle" x="1306" y="-99.8" font-family="Times,serif" font-size="14.00">PaymentsModule</text>
</g>
<!-- PaymentsModule&#45;&gt;AppModule -->
<g id="edge8" class="edge">
<title>PaymentsModule&#45;&gt;AppModule</title>
<path fill="none" stroke="black" d="M1306,-122.12C1306,-136.78 1306,-155 1306,-155 1306,-155 1227.85,-155 1227.85,-155"/>
<polygon fill="black" stroke="black" points="1227.85,-151.5 1217.85,-155 1227.85,-158.5 1227.85,-151.5"/>
</g>
<!-- PaystackModule -->
<g id="node9" class="node">
<title>PaystackModule</title>
<polygon fill="#8dd3c7" stroke="black" points="1230.81,-122 1227.81,-126 1206.81,-126 1203.81,-122 1121.19,-122 1121.19,-86 1230.81,-86 1230.81,-122"/>
<text text-anchor="middle" x="1176" y="-99.8" font-family="Times,serif" font-size="14.00">PaystackModule</text>
</g>
<!-- PaystackModule&#45;&gt;AppModule -->
<g id="edge9" class="edge">
<title>PaystackModule&#45;&gt;AppModule</title>
<path fill="none" stroke="black" d="M1176,-122.11C1176,-122.11 1176,-140.99 1176,-140.99"/>
<polygon fill="black" stroke="black" points="1172.5,-140.99 1176,-150.99 1179.5,-140.99 1172.5,-140.99"/>
</g>
<!-- ProductImagesModule -->
<g id="node10" class="node">
<title>ProductImagesModule</title>
<polygon fill="#8dd3c7" stroke="black" points="1103.52,-122 1100.52,-126 1079.52,-126 1076.52,-122 960.48,-122 960.48,-86 1103.52,-86 1103.52,-122"/>
<text text-anchor="middle" x="1032" y="-99.8" font-family="Times,serif" font-size="14.00">ProductImagesModule</text>
</g>
<!-- ProductImagesModule&#45;&gt;AppModule -->
<g id="edge10" class="edge">
<title>ProductImagesModule&#45;&gt;AppModule</title>
<path fill="none" stroke="black" d="M1032,-122.12C1032,-136.78 1032,-155 1032,-155 1032,-155 1123.96,-155 1123.96,-155"/>
<polygon fill="black" stroke="black" points="1123.96,-158.5 1133.96,-155 1123.96,-151.5 1123.96,-158.5"/>
</g>
<!-- ProductVariantsModule -->
<g id="node11" class="node">
<title>ProductVariantsModule</title>
<polygon fill="#8dd3c7" stroke="black" points="942.02,-122 939.02,-126 918.02,-126 915.02,-122 791.98,-122 791.98,-86 942.02,-86 942.02,-122"/>
<text text-anchor="middle" x="867" y="-99.8" font-family="Times,serif" font-size="14.00">ProductVariantsModule</text>
</g>
<!-- ProductVariantsModule&#45;&gt;AppModule -->
<g id="edge11" class="edge">
<title>ProductVariantsModule&#45;&gt;AppModule</title>
<path fill="none" stroke="black" d="M867,-122.01C867,-138.05 867,-159 867,-159 867,-159 1124.33,-159 1124.33,-159"/>
<polygon fill="black" stroke="black" points="1124.33,-162.5 1134.33,-159 1124.33,-155.5 1124.33,-162.5"/>
</g>
<!-- ProductsModule -->
<g id="node12" class="node">
<title>ProductsModule</title>
<polygon fill="#8dd3c7" stroke="black" points="773.04,-122 770.04,-126 749.04,-126 746.04,-122 664.96,-122 664.96,-86 773.04,-86 773.04,-122"/>
<text text-anchor="middle" x="719" y="-99.8" font-family="Times,serif" font-size="14.00">ProductsModule</text>
</g>
<!-- ProductsModule&#45;&gt;AppModule -->
<g id="edge12" class="edge">
<title>ProductsModule&#45;&gt;AppModule</title>
<path fill="none" stroke="black" d="M719,-122.02C719,-139.37 719,-163 719,-163 719,-163 1124.23,-163 1124.23,-163"/>
<polygon fill="black" stroke="black" points="1124.23,-166.5 1134.23,-163 1124.23,-159.5 1124.23,-166.5"/>
</g>
<!-- ReviewsModule -->
<g id="node13" class="node">
<title>ReviewsModule</title>
<polygon fill="#8dd3c7" stroke="black" points="646.76,-122 643.76,-126 622.76,-126 619.76,-122 539.24,-122 539.24,-86 646.76,-86 646.76,-122"/>
<text text-anchor="middle" x="593" y="-99.8" font-family="Times,serif" font-size="14.00">ReviewsModule</text>
</g>
<!-- ReviewsModule&#45;&gt;AppModule -->
<g id="edge13" class="edge">
<title>ReviewsModule&#45;&gt;AppModule</title>
<path fill="none" stroke="black" d="M593,-122.22C593,-140.83 593,-167 593,-167 593,-167 1124.07,-167 1124.07,-167"/>
<polygon fill="black" stroke="black" points="1124.07,-170.5 1134.07,-167 1124.07,-163.5 1124.07,-170.5"/>
</g>
<!-- SubscribersModule -->
<g id="node14" class="node">
<title>SubscribersModule</title>
<polygon fill="#8dd3c7" stroke="black" points="521.36,-122 518.36,-126 497.36,-126 494.36,-122 396.64,-122 396.64,-86 521.36,-86 521.36,-122"/>
<text text-anchor="middle" x="459" y="-99.8" font-family="Times,serif" font-size="14.00">SubscribersModule</text>
</g>
<!-- SubscribersModule&#45;&gt;AppModule -->
<g id="edge14" class="edge">
<title>SubscribersModule&#45;&gt;AppModule</title>
<path fill="none" stroke="black" d="M459,-122.31C459,-142.15 459,-171 459,-171 459,-171 1124.09,-171 1124.09,-171"/>
<polygon fill="black" stroke="black" points="1124.09,-174.5 1134.09,-171 1124.09,-167.5 1124.09,-174.5"/>
</g>
<!-- UploadsModule -->
<g id="node15" class="node">
<title>UploadsModule</title>
<polygon fill="#8dd3c7" stroke="black" points="378.21,-122 375.21,-126 354.21,-126 351.21,-122 271.79,-122 271.79,-86 378.21,-86 378.21,-122"/>
<text text-anchor="middle" x="325" y="-99.8" font-family="Times,serif" font-size="14.00">UploadsModule</text>
</g>
<!-- UploadsModule&#45;&gt;AppModule -->
<g id="edge15" class="edge">
<title>UploadsModule&#45;&gt;AppModule</title>
<path fill="none" stroke="black" d="M325,-122.28C325,-143.32 325,-175 325,-175 325,-175 1124.09,-175 1124.09,-175"/>
<polygon fill="black" stroke="black" points="1124.09,-178.5 1134.09,-175 1124.09,-171.5 1124.09,-178.5"/>
</g>
<!-- UsersModule -->
<g id="node16" class="node">
<title>UsersModule</title>
<polygon fill="#8dd3c7" stroke="black" points="253.92,-122 250.92,-126 229.92,-126 226.92,-122 162.08,-122 162.08,-86 253.92,-86 253.92,-122"/>
<text text-anchor="middle" x="208" y="-99.8" font-family="Times,serif" font-size="14.00">UsersModule</text>
</g>
<!-- UsersModule&#45;&gt;AppModule -->
<g id="edge16" class="edge">
<title>UsersModule&#45;&gt;AppModule</title>
<path fill="none" stroke="black" d="M208,-122.16C208,-144.35 208,-179 208,-179 208,-179 1124.1,-179 1124.1,-179"/>
<polygon fill="black" stroke="black" points="1124.1,-182.5 1134.1,-179 1124.1,-175.5 1124.1,-182.5"/>
</g>
<!-- AppService -->
<g id="node18" class="node">
<title>AppService</title>
<ellipse fill="#fdb462" stroke="black" cx="81" cy="-104" rx="56.74" ry="18"/>
<text text-anchor="middle" x="81" y="-99.8" font-family="Times,serif" font-size="14.00">AppService</text>
</g>
<!-- AppService&#45;&gt;AppModule -->
<g id="edge17" class="edge">
<title>AppService&#45;&gt;AppModule</title>
<path fill="none" stroke="black" d="M81,-122.32C81,-145.66 81,-183 81,-183 81,-183 1124.08,-183 1124.08,-183"/>
<polygon fill="black" stroke="black" points="1124.08,-186.5 1134.08,-183 1124.08,-179.5 1124.08,-186.5"/>
</g>
</g>
</svg>
