<?xml version="1.0" encoding="UTF-8" standalone="no"?>
<!DOCTYPE svg PUBLIC "-//W3C//DTD SVG 1.1//EN"
 "http://www.w3.org/Graphics/SVG/1.1/DTD/svg11.dtd">
<!-- Generated by graphviz version 2.47.0 (20210316.0004)
 -->
<!-- Title: dependencies Pages: 1 -->
<svg width="2177pt" height="211pt"
 viewBox="0.00 0.00 2177.00 211.00" xmlns="http://www.w3.org/2000/svg" xmlns:xlink="http://www.w3.org/1999/xlink">
<g id="graph0" class="graph" transform="scale(1 1) rotate(0) translate(4 207)">
<title>dependencies</title>
<polygon fill="white" stroke="transparent" points="-4,4 -4,-207 2173,-207 2173,4 -4,4"/>
<text text-anchor="start" x="1063.51" y="-42.4" font-family="Times-12" font-weight="bold" font-size="14.00">Legend</text>
<polygon fill="#ffffb3" stroke="transparent" points="850.5,-10 850.5,-30 870.5,-30 870.5,-10 850.5,-10"/>
<text text-anchor="start" x="874.13" y="-15.4" font-family="Times-12" font-size="14.00"> &#160;Declarations</text>
<polygon fill="#8dd3c7" stroke="transparent" points="963.5,-10 963.5,-30 983.5,-30 983.5,-10 963.5,-10"/>
<text text-anchor="start" x="987.23" y="-15.4" font-family="Times-12" font-size="14.00"> &#160;Module</text>
<polygon fill="#80b1d3" stroke="transparent" points="1049.5,-10 1049.5,-30 1069.5,-30 1069.5,-10 1049.5,-10"/>
<text text-anchor="start" x="1073.28" y="-15.4" font-family="Times-12" font-size="14.00"> &#160;Bootstrap</text>
<polygon fill="#fdb462" stroke="transparent" points="1146.5,-10 1146.5,-30 1166.5,-30 1166.5,-10 1146.5,-10"/>
<text text-anchor="start" x="1170.17" y="-15.4" font-family="Times-12" font-size="14.00"> &#160;Providers</text>
<polygon fill="#fb8072" stroke="transparent" points="1242.5,-10 1242.5,-30 1262.5,-30 1262.5,-10 1242.5,-10"/>
<text text-anchor="start" x="1266.23" y="-15.4" font-family="Times-12" font-size="14.00"> &#160;Exports</text>
<g id="clust1" class="cluster">
<title>cluster_AppModule</title>
<polygon fill="none" stroke="black" stroke-dasharray="1,5" points="8,-70 8,-195 2161,-195 2161,-70 8,-70"/>
</g>
<g id="clust6" class="cluster">
<title>cluster_AppModule_providers</title>
<polygon fill="none" stroke="black" points="2023,-78 2023,-130 2153,-130 2153,-78 2023,-78"/>
</g>
<g id="clust3" class="cluster">
<title>cluster_AppModule_imports</title>
<polygon fill="none" stroke="black" points="16,-78 16,-130 2015,-130 2015,-78 16,-78"/>
</g>
<!-- AuthModule -->
<g id="node1" class="node">
<title>AuthModule</title>
<polygon fill="#8dd3c7" stroke="black" points="2006.55,-122 2003.55,-126 1982.55,-126 1979.55,-122 1919.45,-122 1919.45,-86 2006.55,-86 2006.55,-122"/>
<text text-anchor="middle" x="1963" y="-99.8" font-family="Times,serif" font-size="14.00">AuthModule</text>
</g>
<!-- AppModule -->
<g id="node16" class="node">
<title>AppModule</title>
<polygon fill="#8dd3c7" stroke="black" points="1142.66,-187 1139.66,-191 1118.66,-191 1115.66,-187 1059.34,-187 1059.34,-151 1142.66,-151 1142.66,-187"/>
<text text-anchor="middle" x="1101" y="-164.8" font-family="Times,serif" font-size="14.00">AppModule</text>
</g>
<!-- AuthModule&#45;&gt;AppModule -->
<g id="edge1" class="edge">
<title>AuthModule&#45;&gt;AppModule</title>
<path fill="none" stroke="black" d="M1963,-122.29C1963,-144.21 1963,-178 1963,-178 1963,-178 1152.87,-178 1152.87,-178"/>
<polygon fill="black" stroke="black" points="1152.87,-174.5 1142.87,-178 1152.87,-181.5 1152.87,-174.5"/>
</g>
<!-- DeliveryStatesModule -->
<g id="node2" class="node">
<title>DeliveryStatesModule</title>
<polygon fill="#8dd3c7" stroke="black" points="1900.97,-122 1897.97,-126 1876.97,-126 1873.97,-122 1759.03,-122 1759.03,-86 1900.97,-86 1900.97,-122"/>
<text text-anchor="middle" x="1830" y="-99.8" font-family="Times,serif" font-size="14.00">DeliveryStatesModule</text>
</g>
<!-- DeliveryStatesModule&#45;&gt;AppModule -->
<g id="edge2" class="edge">
<title>DeliveryStatesModule&#45;&gt;AppModule</title>
<path fill="none" stroke="black" d="M1830,-122.03C1830,-142.77 1830,-174 1830,-174 1830,-174 1152.81,-174 1152.81,-174"/>
<polygon fill="black" stroke="black" points="1152.81,-170.5 1142.81,-174 1152.81,-177.5 1152.81,-170.5"/>
</g>
<!-- DiscountsModule -->
<g id="node3" class="node">
<title>DiscountsModule</title>
<polygon fill="#8dd3c7" stroke="black" points="1740.54,-122 1737.54,-126 1716.54,-126 1713.54,-122 1625.46,-122 1625.46,-86 1740.54,-86 1740.54,-122"/>
<text text-anchor="middle" x="1683" y="-99.8" font-family="Times,serif" font-size="14.00">DiscountsModule</text>
</g>
<!-- DiscountsModule&#45;&gt;AppModule -->
<g id="edge3" class="edge">
<title>DiscountsModule&#45;&gt;AppModule</title>
<path fill="none" stroke="black" d="M1683,-122.11C1683,-141.34 1683,-169 1683,-169 1683,-169 1152.86,-169 1152.86,-169"/>
<polygon fill="black" stroke="black" points="1152.86,-165.5 1142.86,-169 1152.86,-172.5 1152.86,-165.5"/>
</g>
<!-- DiscountsUsageModule -->
<g id="node4" class="node">
<title>DiscountsUsageModule</title>
<polygon fill="#8dd3c7" stroke="black" points="1607.02,-122 1604.02,-126 1583.02,-126 1580.02,-122 1456.98,-122 1456.98,-86 1607.02,-86 1607.02,-122"/>
<text text-anchor="middle" x="1532" y="-99.8" font-family="Times,serif" font-size="14.00">DiscountsUsageModule</text>
</g>
<!-- DiscountsUsageModule&#45;&gt;AppModule -->
<g id="edge4" class="edge">
<title>DiscountsUsageModule&#45;&gt;AppModule</title>
<path fill="none" stroke="black" d="M1532,-122.3C1532,-140.27 1532,-165 1532,-165 1532,-165 1152.72,-165 1152.72,-165"/>
<polygon fill="black" stroke="black" points="1152.72,-161.5 1142.72,-165 1152.72,-168.5 1152.72,-161.5"/>
</g>
<!-- MailModule -->
<g id="node5" class="node">
<title>MailModule</title>
<polygon fill="#8dd3c7" stroke="black" points="1438.99,-122 1435.99,-126 1414.99,-126 1411.99,-122 1353.01,-122 1353.01,-86 1438.99,-86 1438.99,-122"/>
<text text-anchor="middle" x="1396" y="-99.8" font-family="Times,serif" font-size="14.00">MailModule</text>
</g>
<!-- MailModule&#45;&gt;AppModule -->
<g id="edge5" class="edge">
<title>MailModule&#45;&gt;AppModule</title>
<path fill="none" stroke="black" d="M1396,-122.03C1396,-138.4 1396,-160 1396,-160 1396,-160 1152.95,-160 1152.95,-160"/>
<polygon fill="black" stroke="black" points="1152.95,-156.5 1142.95,-160 1152.95,-163.5 1152.95,-156.5"/>
</g>
<!-- OrdersModule -->
<g id="node6" class="node">
<title>OrdersModule</title>
<polygon fill="#8dd3c7" stroke="black" points="1334.64,-122 1331.64,-126 1310.64,-126 1307.64,-122 1237.36,-122 1237.36,-86 1334.64,-86 1334.64,-122"/>
<text text-anchor="middle" x="1286" y="-99.8" font-family="Times,serif" font-size="14.00">OrdersModule</text>
</g>
<!-- OrdersModule&#45;&gt;AppModule -->
<g id="edge6" class="edge">
<title>OrdersModule&#45;&gt;AppModule</title>
<path fill="none" stroke="black" d="M1286,-122.19C1286,-137.18 1286,-156 1286,-156 1286,-156 1152.98,-156 1152.98,-156"/>
<polygon fill="black" stroke="black" points="1152.98,-152.5 1142.98,-156 1152.98,-159.5 1152.98,-152.5"/>
</g>
<!-- PaymentModule -->
<g id="node7" class="node">
<title>PaymentModule</title>
<polygon fill="#8dd3c7" stroke="black" points="1219.04,-122 1216.04,-126 1195.04,-126 1192.04,-122 1110.96,-122 1110.96,-86 1219.04,-86 1219.04,-122"/>
<text text-anchor="middle" x="1165" y="-99.8" font-family="Times,serif" font-size="14.00">PaymentModule</text>
</g>
<!-- PaymentModule&#45;&gt;AppModule -->
<g id="edge7" class="edge">
<title>PaymentModule&#45;&gt;AppModule</title>
<path fill="none" stroke="black" d="M1126.78,-122.11C1126.78,-122.11 1126.78,-140.99 1126.78,-140.99"/>
<polygon fill="black" stroke="black" points="1123.28,-140.99 1126.78,-150.99 1130.28,-140.99 1123.28,-140.99"/>
</g>
<!-- PaystackModule -->
<g id="node8" class="node">
<title>PaystackModule</title>
<polygon fill="#8dd3c7" stroke="black" points="1092.81,-122 1089.81,-126 1068.81,-126 1065.81,-122 983.19,-122 983.19,-86 1092.81,-86 1092.81,-122"/>
<text text-anchor="middle" x="1038" y="-99.8" font-family="Times,serif" font-size="14.00">PaystackModule</text>
</g>
<!-- PaystackModule&#45;&gt;AppModule -->
<g id="edge8" class="edge">
<title>PaystackModule&#45;&gt;AppModule</title>
<path fill="none" stroke="black" d="M1075.91,-122.11C1075.91,-122.11 1075.91,-140.99 1075.91,-140.99"/>
<polygon fill="black" stroke="black" points="1072.41,-140.99 1075.91,-150.99 1079.41,-140.99 1072.41,-140.99"/>
</g>
<!-- ProductImagesModule -->
<g id="node9" class="node">
<title>ProductImagesModule</title>
<polygon fill="#8dd3c7" stroke="black" points="965.52,-122 962.52,-126 941.52,-126 938.52,-122 822.48,-122 822.48,-86 965.52,-86 965.52,-122"/>
<text text-anchor="middle" x="894" y="-99.8" font-family="Times,serif" font-size="14.00">ProductImagesModule</text>
</g>
<!-- ProductImagesModule&#45;&gt;AppModule -->
<g id="edge9" class="edge">
<title>ProductImagesModule&#45;&gt;AppModule</title>
<path fill="none" stroke="black" d="M894,-122.19C894,-137.18 894,-156 894,-156 894,-156 1049.11,-156 1049.11,-156"/>
<polygon fill="black" stroke="black" points="1049.11,-159.5 1059.11,-156 1049.11,-152.5 1049.11,-159.5"/>
</g>
<!-- ProductVariantsModule -->
<g id="node10" class="node">
<title>ProductVariantsModule</title>
<polygon fill="#8dd3c7" stroke="black" points="804.02,-122 801.02,-126 780.02,-126 777.02,-122 653.98,-122 653.98,-86 804.02,-86 804.02,-122"/>
<text text-anchor="middle" x="729" y="-99.8" font-family="Times,serif" font-size="14.00">ProductVariantsModule</text>
</g>
<!-- ProductVariantsModule&#45;&gt;AppModule -->
<g id="edge10" class="edge">
<title>ProductVariantsModule&#45;&gt;AppModule</title>
<path fill="none" stroke="black" d="M729,-122.03C729,-138.4 729,-160 729,-160 729,-160 1049.05,-160 1049.05,-160"/>
<polygon fill="black" stroke="black" points="1049.05,-163.5 1059.05,-160 1049.05,-156.5 1049.05,-163.5"/>
</g>
<!-- ProductsModule -->
<g id="node11" class="node">
<title>ProductsModule</title>
<polygon fill="#8dd3c7" stroke="black" points="635.04,-122 632.04,-126 611.04,-126 608.04,-122 526.96,-122 526.96,-86 635.04,-86 635.04,-122"/>
<text text-anchor="middle" x="581" y="-99.8" font-family="Times,serif" font-size="14.00">ProductsModule</text>
</g>
<!-- ProductsModule&#45;&gt;AppModule -->
<g id="edge11" class="edge">
<title>ProductsModule&#45;&gt;AppModule</title>
<path fill="none" stroke="black" d="M581,-122.3C581,-140.27 581,-165 581,-165 581,-165 1049.33,-165 1049.33,-165"/>
<polygon fill="black" stroke="black" points="1049.33,-168.5 1059.33,-165 1049.33,-161.5 1049.33,-168.5"/>
</g>
<!-- ReviewsModule -->
<g id="node12" class="node">
<title>ReviewsModule</title>
<polygon fill="#8dd3c7" stroke="black" points="508.76,-122 505.76,-126 484.76,-126 481.76,-122 401.24,-122 401.24,-86 508.76,-86 508.76,-122"/>
<text text-anchor="middle" x="455" y="-99.8" font-family="Times,serif" font-size="14.00">ReviewsModule</text>
</g>
<!-- ReviewsModule&#45;&gt;AppModule -->
<g id="edge12" class="edge">
<title>ReviewsModule&#45;&gt;AppModule</title>
<path fill="none" stroke="black" d="M455,-122.11C455,-141.34 455,-169 455,-169 455,-169 1049.11,-169 1049.11,-169"/>
<polygon fill="black" stroke="black" points="1049.11,-172.5 1059.11,-169 1049.11,-165.5 1049.11,-172.5"/>
</g>
<!-- SubscribersModule -->
<g id="node13" class="node">
<title>SubscribersModule</title>
<polygon fill="#8dd3c7" stroke="black" points="383.36,-122 380.36,-126 359.36,-126 356.36,-122 258.64,-122 258.64,-86 383.36,-86 383.36,-122"/>
<text text-anchor="middle" x="321" y="-99.8" font-family="Times,serif" font-size="14.00">SubscribersModule</text>
</g>
<!-- SubscribersModule&#45;&gt;AppModule -->
<g id="edge13" class="edge">
<title>SubscribersModule&#45;&gt;AppModule</title>
<path fill="none" stroke="black" d="M321,-122.03C321,-142.77 321,-174 321,-174 321,-174 1049.34,-174 1049.34,-174"/>
<polygon fill="black" stroke="black" points="1049.34,-177.5 1059.34,-174 1049.34,-170.5 1049.34,-177.5"/>
</g>
<!-- UploadsModule -->
<g id="node14" class="node">
<title>UploadsModule</title>
<polygon fill="#8dd3c7" stroke="black" points="240.21,-122 237.21,-126 216.21,-126 213.21,-122 133.79,-122 133.79,-86 240.21,-86 240.21,-122"/>
<text text-anchor="middle" x="187" y="-99.8" font-family="Times,serif" font-size="14.00">UploadsModule</text>
</g>
<!-- UploadsModule&#45;&gt;AppModule -->
<g id="edge14" class="edge">
<title>UploadsModule&#45;&gt;AppModule</title>
<path fill="none" stroke="black" d="M187,-122.29C187,-144.21 187,-178 187,-178 187,-178 1049.05,-178 1049.05,-178"/>
<polygon fill="black" stroke="black" points="1049.05,-181.5 1059.05,-178 1049.05,-174.5 1049.05,-181.5"/>
</g>
<!-- UsersModule -->
<g id="node15" class="node">
<title>UsersModule</title>
<polygon fill="#8dd3c7" stroke="black" points="115.92,-122 112.92,-126 91.92,-126 88.92,-122 24.08,-122 24.08,-86 115.92,-86 115.92,-122"/>
<text text-anchor="middle" x="70" y="-99.8" font-family="Times,serif" font-size="14.00">UsersModule</text>
</g>
<!-- UsersModule&#45;&gt;AppModule -->
<g id="edge15" class="edge">
<title>UsersModule&#45;&gt;AppModule</title>
<path fill="none" stroke="black" d="M70,-122.32C70,-145.66 70,-183 70,-183 70,-183 1049.31,-183 1049.31,-183"/>
<polygon fill="black" stroke="black" points="1049.31,-186.5 1059.31,-183 1049.31,-179.5 1049.31,-186.5"/>
</g>
<!-- AppService -->
<g id="node17" class="node">
<title>AppService</title>
<ellipse fill="#fdb462" stroke="black" cx="2088" cy="-104" rx="56.74" ry="18"/>
<text text-anchor="middle" x="2088" y="-99.8" font-family="Times,serif" font-size="14.00">AppService</text>
</g>
<!-- AppService&#45;&gt;AppModule -->
<g id="edge16" class="edge">
<title>AppService&#45;&gt;AppModule</title>
<path fill="none" stroke="black" d="M2088,-122.32C2088,-145.66 2088,-183 2088,-183 2088,-183 1152.78,-183 1152.78,-183"/>
<polygon fill="black" stroke="black" points="1152.78,-179.5 1142.78,-183 1152.78,-186.5 1152.78,-179.5"/>
</g>
</g>
</svg>
