<?xml version="1.0" encoding="UTF-8" standalone="no"?>
<!DOCTYPE svg PUBLIC "-//W3C//DTD SVG 1.1//EN"
 "http://www.w3.org/Graphics/SVG/1.1/DTD/svg11.dtd">
<!-- Generated by graphviz version 2.47.0 (20210316.0004)
 -->
<!-- Title: dependencies Pages: 1 -->
<svg width="2061pt" height="211pt"
 viewBox="0.00 0.00 2061.00 211.00" xmlns="http://www.w3.org/2000/svg" xmlns:xlink="http://www.w3.org/1999/xlink">
<g id="graph0" class="graph" transform="scale(1 1) rotate(0) translate(4 207)">
<title>dependencies</title>
<polygon fill="white" stroke="transparent" points="-4,4 -4,-207 2057,-207 2057,4 -4,4"/>
<text text-anchor="start" x="1005.51" y="-42.4" font-family="Times-12" font-weight="bold" font-size="14.00">Legend</text>
<polygon fill="#ffffb3" stroke="transparent" points="792.5,-10 792.5,-30 812.5,-30 812.5,-10 792.5,-10"/>
<text text-anchor="start" x="816.13" y="-15.4" font-family="Times-12" font-size="14.00"> &#160;Declarations</text>
<polygon fill="#8dd3c7" stroke="transparent" points="905.5,-10 905.5,-30 925.5,-30 925.5,-10 905.5,-10"/>
<text text-anchor="start" x="929.23" y="-15.4" font-family="Times-12" font-size="14.00"> &#160;Module</text>
<polygon fill="#80b1d3" stroke="transparent" points="991.5,-10 991.5,-30 1011.5,-30 1011.5,-10 991.5,-10"/>
<text text-anchor="start" x="1015.28" y="-15.4" font-family="Times-12" font-size="14.00"> &#160;Bootstrap</text>
<polygon fill="#fdb462" stroke="transparent" points="1088.5,-10 1088.5,-30 1108.5,-30 1108.5,-10 1088.5,-10"/>
<text text-anchor="start" x="1112.17" y="-15.4" font-family="Times-12" font-size="14.00"> &#160;Providers</text>
<polygon fill="#fb8072" stroke="transparent" points="1184.5,-10 1184.5,-30 1204.5,-30 1204.5,-10 1184.5,-10"/>
<text text-anchor="start" x="1208.23" y="-15.4" font-family="Times-12" font-size="14.00"> &#160;Exports</text>
<g id="clust1" class="cluster">
<title>cluster_AppModule</title>
<polygon fill="none" stroke="black" stroke-dasharray="1,5" points="8,-70 8,-195 2045,-195 2045,-70 8,-70"/>
</g>
<g id="clust6" class="cluster">
<title>cluster_AppModule_providers</title>
<polygon fill="none" stroke="black" points="1907,-78 1907,-130 2037,-130 2037,-78 1907,-78"/>
</g>
<g id="clust3" class="cluster">
<title>cluster_AppModule_imports</title>
<polygon fill="none" stroke="black" points="16,-78 16,-130 1899,-130 1899,-78 16,-78"/>
</g>
<!-- AuthModule -->
<g id="node1" class="node">
<title>AuthModule</title>
<polygon fill="#8dd3c7" stroke="black" points="1890.55,-122 1887.55,-126 1866.55,-126 1863.55,-122 1803.45,-122 1803.45,-86 1890.55,-86 1890.55,-122"/>
<text text-anchor="middle" x="1847" y="-99.8" font-family="Times,serif" font-size="14.00">AuthModule</text>
</g>
<!-- AppModule -->
<g id="node15" class="node">
<title>AppModule</title>
<polygon fill="#8dd3c7" stroke="black" points="1079.66,-187 1076.66,-191 1055.66,-191 1052.66,-187 996.34,-187 996.34,-151 1079.66,-151 1079.66,-187"/>
<text text-anchor="middle" x="1038" y="-164.8" font-family="Times,serif" font-size="14.00">AppModule</text>
</g>
<!-- AuthModule&#45;&gt;AppModule -->
<g id="edge1" class="edge">
<title>AuthModule&#45;&gt;AppModule</title>
<path fill="none" stroke="black" d="M1847,-122.29C1847,-144.21 1847,-178 1847,-178 1847,-178 1089.79,-178 1089.79,-178"/>
<polygon fill="black" stroke="black" points="1089.79,-174.5 1079.79,-178 1089.79,-181.5 1089.79,-174.5"/>
</g>
<!-- DeliveryStatesModule -->
<g id="node2" class="node">
<title>DeliveryStatesModule</title>
<polygon fill="#8dd3c7" stroke="black" points="1784.97,-122 1781.97,-126 1760.97,-126 1757.97,-122 1643.03,-122 1643.03,-86 1784.97,-86 1784.97,-122"/>
<text text-anchor="middle" x="1714" y="-99.8" font-family="Times,serif" font-size="14.00">DeliveryStatesModule</text>
</g>
<!-- DeliveryStatesModule&#45;&gt;AppModule -->
<g id="edge2" class="edge">
<title>DeliveryStatesModule&#45;&gt;AppModule</title>
<path fill="none" stroke="black" d="M1714,-122.03C1714,-142.77 1714,-174 1714,-174 1714,-174 1089.78,-174 1089.78,-174"/>
<polygon fill="black" stroke="black" points="1089.78,-170.5 1079.78,-174 1089.78,-177.5 1089.78,-170.5"/>
</g>
<!-- DiscountsModule -->
<g id="node3" class="node">
<title>DiscountsModule</title>
<polygon fill="#8dd3c7" stroke="black" points="1624.54,-122 1621.54,-126 1600.54,-126 1597.54,-122 1509.46,-122 1509.46,-86 1624.54,-86 1624.54,-122"/>
<text text-anchor="middle" x="1567" y="-99.8" font-family="Times,serif" font-size="14.00">DiscountsModule</text>
</g>
<!-- DiscountsModule&#45;&gt;AppModule -->
<g id="edge3" class="edge">
<title>DiscountsModule&#45;&gt;AppModule</title>
<path fill="none" stroke="black" d="M1567,-122.11C1567,-141.34 1567,-169 1567,-169 1567,-169 1089.95,-169 1089.95,-169"/>
<polygon fill="black" stroke="black" points="1089.95,-165.5 1079.95,-169 1089.95,-172.5 1089.95,-165.5"/>
</g>
<!-- DiscountsUsageModule -->
<g id="node4" class="node">
<title>DiscountsUsageModule</title>
<polygon fill="#8dd3c7" stroke="black" points="1491.02,-122 1488.02,-126 1467.02,-126 1464.02,-122 1340.98,-122 1340.98,-86 1491.02,-86 1491.02,-122"/>
<text text-anchor="middle" x="1416" y="-99.8" font-family="Times,serif" font-size="14.00">DiscountsUsageModule</text>
</g>
<!-- DiscountsUsageModule&#45;&gt;AppModule -->
<g id="edge4" class="edge">
<title>DiscountsUsageModule&#45;&gt;AppModule</title>
<path fill="none" stroke="black" d="M1416,-122.3C1416,-140.27 1416,-165 1416,-165 1416,-165 1089.9,-165 1089.9,-165"/>
<polygon fill="black" stroke="black" points="1089.9,-161.5 1079.9,-165 1089.9,-168.5 1089.9,-161.5"/>
</g>
<!-- MailModule -->
<g id="node5" class="node">
<title>MailModule</title>
<polygon fill="#8dd3c7" stroke="black" points="1322.99,-122 1319.99,-126 1298.99,-126 1295.99,-122 1237.01,-122 1237.01,-86 1322.99,-86 1322.99,-122"/>
<text text-anchor="middle" x="1280" y="-99.8" font-family="Times,serif" font-size="14.00">MailModule</text>
</g>
<!-- MailModule&#45;&gt;AppModule -->
<g id="edge5" class="edge">
<title>MailModule&#45;&gt;AppModule</title>
<path fill="none" stroke="black" d="M1280,-122.03C1280,-138.4 1280,-160 1280,-160 1280,-160 1089.88,-160 1089.88,-160"/>
<polygon fill="black" stroke="black" points="1089.88,-156.5 1079.88,-160 1089.88,-163.5 1089.88,-156.5"/>
</g>
<!-- PaymentModule -->
<g id="node6" class="node">
<title>PaymentModule</title>
<polygon fill="#8dd3c7" stroke="black" points="1219.04,-122 1216.04,-126 1195.04,-126 1192.04,-122 1110.96,-122 1110.96,-86 1219.04,-86 1219.04,-122"/>
<text text-anchor="middle" x="1165" y="-99.8" font-family="Times,serif" font-size="14.00">PaymentModule</text>
</g>
<!-- PaymentModule&#45;&gt;AppModule -->
<g id="edge6" class="edge">
<title>PaymentModule&#45;&gt;AppModule</title>
<path fill="none" stroke="black" d="M1165,-122.19C1165,-137.18 1165,-156 1165,-156 1165,-156 1089.94,-156 1089.94,-156"/>
<polygon fill="black" stroke="black" points="1089.94,-152.5 1079.94,-156 1089.94,-159.5 1089.94,-152.5"/>
</g>
<!-- PaystackModule -->
<g id="node7" class="node">
<title>PaystackModule</title>
<polygon fill="#8dd3c7" stroke="black" points="1092.81,-122 1089.81,-126 1068.81,-126 1065.81,-122 983.19,-122 983.19,-86 1092.81,-86 1092.81,-122"/>
<text text-anchor="middle" x="1038" y="-99.8" font-family="Times,serif" font-size="14.00">PaystackModule</text>
</g>
<!-- PaystackModule&#45;&gt;AppModule -->
<g id="edge7" class="edge">
<title>PaystackModule&#45;&gt;AppModule</title>
<path fill="none" stroke="black" d="M1038,-122.11C1038,-122.11 1038,-140.99 1038,-140.99"/>
<polygon fill="black" stroke="black" points="1034.5,-140.99 1038,-150.99 1041.5,-140.99 1034.5,-140.99"/>
</g>
<!-- ProductImagesModule -->
<g id="node8" class="node">
<title>ProductImagesModule</title>
<polygon fill="#8dd3c7" stroke="black" points="965.52,-122 962.52,-126 941.52,-126 938.52,-122 822.48,-122 822.48,-86 965.52,-86 965.52,-122"/>
<text text-anchor="middle" x="894" y="-99.8" font-family="Times,serif" font-size="14.00">ProductImagesModule</text>
</g>
<!-- ProductImagesModule&#45;&gt;AppModule -->
<g id="edge8" class="edge">
<title>ProductImagesModule&#45;&gt;AppModule</title>
<path fill="none" stroke="black" d="M894,-122.19C894,-137.18 894,-156 894,-156 894,-156 985.96,-156 985.96,-156"/>
<polygon fill="black" stroke="black" points="985.96,-159.5 995.96,-156 985.96,-152.5 985.96,-159.5"/>
</g>
<!-- ProductVariantsModule -->
<g id="node9" class="node">
<title>ProductVariantsModule</title>
<polygon fill="#8dd3c7" stroke="black" points="804.02,-122 801.02,-126 780.02,-126 777.02,-122 653.98,-122 653.98,-86 804.02,-86 804.02,-122"/>
<text text-anchor="middle" x="729" y="-99.8" font-family="Times,serif" font-size="14.00">ProductVariantsModule</text>
</g>
<!-- ProductVariantsModule&#45;&gt;AppModule -->
<g id="edge9" class="edge">
<title>ProductVariantsModule&#45;&gt;AppModule</title>
<path fill="none" stroke="black" d="M729,-122.03C729,-138.4 729,-160 729,-160 729,-160 986.33,-160 986.33,-160"/>
<polygon fill="black" stroke="black" points="986.33,-163.5 996.33,-160 986.33,-156.5 986.33,-163.5"/>
</g>
<!-- ProductsModule -->
<g id="node10" class="node">
<title>ProductsModule</title>
<polygon fill="#8dd3c7" stroke="black" points="635.04,-122 632.04,-126 611.04,-126 608.04,-122 526.96,-122 526.96,-86 635.04,-86 635.04,-122"/>
<text text-anchor="middle" x="581" y="-99.8" font-family="Times,serif" font-size="14.00">ProductsModule</text>
</g>
<!-- ProductsModule&#45;&gt;AppModule -->
<g id="edge10" class="edge">
<title>ProductsModule&#45;&gt;AppModule</title>
<path fill="none" stroke="black" d="M581,-122.3C581,-140.27 581,-165 581,-165 581,-165 986.23,-165 986.23,-165"/>
<polygon fill="black" stroke="black" points="986.23,-168.5 996.23,-165 986.23,-161.5 986.23,-168.5"/>
</g>
<!-- ReviewsModule -->
<g id="node11" class="node">
<title>ReviewsModule</title>
<polygon fill="#8dd3c7" stroke="black" points="508.76,-122 505.76,-126 484.76,-126 481.76,-122 401.24,-122 401.24,-86 508.76,-86 508.76,-122"/>
<text text-anchor="middle" x="455" y="-99.8" font-family="Times,serif" font-size="14.00">ReviewsModule</text>
</g>
<!-- ReviewsModule&#45;&gt;AppModule -->
<g id="edge11" class="edge">
<title>ReviewsModule&#45;&gt;AppModule</title>
<path fill="none" stroke="black" d="M455,-122.11C455,-141.34 455,-169 455,-169 455,-169 986.07,-169 986.07,-169"/>
<polygon fill="black" stroke="black" points="986.07,-172.5 996.07,-169 986.07,-165.5 986.07,-172.5"/>
</g>
<!-- SubscribersModule -->
<g id="node12" class="node">
<title>SubscribersModule</title>
<polygon fill="#8dd3c7" stroke="black" points="383.36,-122 380.36,-126 359.36,-126 356.36,-122 258.64,-122 258.64,-86 383.36,-86 383.36,-122"/>
<text text-anchor="middle" x="321" y="-99.8" font-family="Times,serif" font-size="14.00">SubscribersModule</text>
</g>
<!-- SubscribersModule&#45;&gt;AppModule -->
<g id="edge12" class="edge">
<title>SubscribersModule&#45;&gt;AppModule</title>
<path fill="none" stroke="black" d="M321,-122.03C321,-142.77 321,-174 321,-174 321,-174 986.09,-174 986.09,-174"/>
<polygon fill="black" stroke="black" points="986.09,-177.5 996.09,-174 986.09,-170.5 986.09,-177.5"/>
</g>
<!-- UploadsModule -->
<g id="node13" class="node">
<title>UploadsModule</title>
<polygon fill="#8dd3c7" stroke="black" points="240.21,-122 237.21,-126 216.21,-126 213.21,-122 133.79,-122 133.79,-86 240.21,-86 240.21,-122"/>
<text text-anchor="middle" x="187" y="-99.8" font-family="Times,serif" font-size="14.00">UploadsModule</text>
</g>
<!-- UploadsModule&#45;&gt;AppModule -->
<g id="edge13" class="edge">
<title>UploadsModule&#45;&gt;AppModule</title>
<path fill="none" stroke="black" d="M187,-122.29C187,-144.21 187,-178 187,-178 187,-178 986.09,-178 986.09,-178"/>
<polygon fill="black" stroke="black" points="986.09,-181.5 996.09,-178 986.09,-174.5 986.09,-181.5"/>
</g>
<!-- UsersModule -->
<g id="node14" class="node">
<title>UsersModule</title>
<polygon fill="#8dd3c7" stroke="black" points="115.92,-122 112.92,-126 91.92,-126 88.92,-122 24.08,-122 24.08,-86 115.92,-86 115.92,-122"/>
<text text-anchor="middle" x="70" y="-99.8" font-family="Times,serif" font-size="14.00">UsersModule</text>
</g>
<!-- UsersModule&#45;&gt;AppModule -->
<g id="edge14" class="edge">
<title>UsersModule&#45;&gt;AppModule</title>
<path fill="none" stroke="black" d="M70,-122.32C70,-145.66 70,-183 70,-183 70,-183 986.1,-183 986.1,-183"/>
<polygon fill="black" stroke="black" points="986.1,-186.5 996.1,-183 986.1,-179.5 986.1,-186.5"/>
</g>
<!-- AppService -->
<g id="node16" class="node">
<title>AppService</title>
<ellipse fill="#fdb462" stroke="black" cx="1972" cy="-104" rx="56.74" ry="18"/>
<text text-anchor="middle" x="1972" y="-99.8" font-family="Times,serif" font-size="14.00">AppService</text>
</g>
<!-- AppService&#45;&gt;AppModule -->
<g id="edge15" class="edge">
<title>AppService&#45;&gt;AppModule</title>
<path fill="none" stroke="black" d="M1972,-122.32C1972,-145.66 1972,-183 1972,-183 1972,-183 1089.95,-183 1089.95,-183"/>
<polygon fill="black" stroke="black" points="1089.95,-179.5 1079.95,-183 1089.95,-186.5 1089.95,-179.5"/>
</g>
</g>
</svg>
