<?xml version="1.0" encoding="UTF-8" standalone="no"?>
<!DOCTYPE svg PUBLIC "-//W3C//DTD SVG 1.1//EN"
 "http://www.w3.org/Graphics/SVG/1.1/DTD/svg11.dtd">
<!-- Generated by graphviz version 2.47.0 (20210316.0004)
 -->
<!-- Title: dependencies Pages: 1 -->
<svg width="1346pt" height="211pt"
 viewBox="0.00 0.00 1346.00 211.00" xmlns="http://www.w3.org/2000/svg" xmlns:xlink="http://www.w3.org/1999/xlink">
<g id="graph0" class="graph" transform="scale(1 1) rotate(0) translate(4 207)">
<title>dependencies</title>
<polygon fill="white" stroke="transparent" points="-4,4 -4,-207 1342,-207 1342,4 -4,4"/>
<text text-anchor="start" x="648.01" y="-42.4" font-family="Times-12" font-weight="bold" font-size="14.00">Legend</text>
<polygon fill="#ffffb3" stroke="transparent" points="435,-10 435,-30 455,-30 455,-10 435,-10"/>
<text text-anchor="start" x="458.63" y="-15.4" font-family="Times-12" font-size="14.00"> &#160;Declarations</text>
<polygon fill="#8dd3c7" stroke="transparent" points="548,-10 548,-30 568,-30 568,-10 548,-10"/>
<text text-anchor="start" x="571.73" y="-15.4" font-family="Times-12" font-size="14.00"> &#160;Module</text>
<polygon fill="#80b1d3" stroke="transparent" points="634,-10 634,-30 654,-30 654,-10 634,-10"/>
<text text-anchor="start" x="657.78" y="-15.4" font-family="Times-12" font-size="14.00"> &#160;Bootstrap</text>
<polygon fill="#fdb462" stroke="transparent" points="731,-10 731,-30 751,-30 751,-10 731,-10"/>
<text text-anchor="start" x="754.67" y="-15.4" font-family="Times-12" font-size="14.00"> &#160;Providers</text>
<polygon fill="#fb8072" stroke="transparent" points="827,-10 827,-30 847,-30 847,-10 827,-10"/>
<text text-anchor="start" x="850.73" y="-15.4" font-family="Times-12" font-size="14.00"> &#160;Exports</text>
<g id="clust1" class="cluster">
<title>cluster_AppModule</title>
<polygon fill="none" stroke="black" stroke-dasharray="1,5" points="8,-70 8,-195 1330,-195 1330,-70 8,-70"/>
</g>
<g id="clust3" class="cluster">
<title>cluster_AppModule_imports</title>
<polygon fill="none" stroke="black" points="154,-78 154,-130 1322,-130 1322,-78 154,-78"/>
</g>
<g id="clust6" class="cluster">
<title>cluster_AppModule_providers</title>
<polygon fill="none" stroke="black" points="16,-78 16,-130 146,-130 146,-78 16,-78"/>
</g>
<!-- AuthModule -->
<g id="node1" class="node">
<title>AuthModule</title>
<polygon fill="#8dd3c7" stroke="black" points="1313.55,-122 1310.55,-126 1289.55,-126 1286.55,-122 1226.45,-122 1226.45,-86 1313.55,-86 1313.55,-122"/>
<text text-anchor="middle" x="1270" y="-99.8" font-family="Times,serif" font-size="14.00">AuthModule</text>
</g>
<!-- AppModule -->
<g id="node10" class="node">
<title>AppModule</title>
<polygon fill="#8dd3c7" stroke="black" points="697.66,-187 694.66,-191 673.66,-191 670.66,-187 614.34,-187 614.34,-151 697.66,-151 697.66,-187"/>
<text text-anchor="middle" x="656" y="-164.8" font-family="Times,serif" font-size="14.00">AppModule</text>
</g>
<!-- AuthModule&#45;&gt;AppModule -->
<g id="edge1" class="edge">
<title>AuthModule&#45;&gt;AppModule</title>
<path fill="none" stroke="black" d="M1270,-122.01C1270,-144.49 1270,-180 1270,-180 1270,-180 707.72,-180 707.72,-180"/>
<polygon fill="black" stroke="black" points="707.72,-176.5 697.72,-180 707.72,-183.5 707.72,-176.5"/>
</g>
<!-- MailModule -->
<g id="node2" class="node">
<title>MailModule</title>
<polygon fill="#8dd3c7" stroke="black" points="1207.99,-122 1204.99,-126 1183.99,-126 1180.99,-122 1122.01,-122 1122.01,-86 1207.99,-86 1207.99,-122"/>
<text text-anchor="middle" x="1165" y="-99.8" font-family="Times,serif" font-size="14.00">MailModule</text>
</g>
<!-- MailModule&#45;&gt;AppModule -->
<g id="edge2" class="edge">
<title>MailModule&#45;&gt;AppModule</title>
<path fill="none" stroke="black" d="M1165,-122.13C1165,-142.57 1165,-173 1165,-173 1165,-173 708.09,-173 708.09,-173"/>
<polygon fill="black" stroke="black" points="708.09,-169.5 698.09,-173 708.09,-176.5 708.09,-169.5"/>
</g>
<!-- ProductImagesModule -->
<g id="node3" class="node">
<title>ProductImagesModule</title>
<polygon fill="#8dd3c7" stroke="black" points="1103.52,-122 1100.52,-126 1079.52,-126 1076.52,-122 960.48,-122 960.48,-86 1103.52,-86 1103.52,-122"/>
<text text-anchor="middle" x="1032" y="-99.8" font-family="Times,serif" font-size="14.00">ProductImagesModule</text>
</g>
<!-- ProductImagesModule&#45;&gt;AppModule -->
<g id="edge3" class="edge">
<title>ProductImagesModule&#45;&gt;AppModule</title>
<path fill="none" stroke="black" d="M1032,-122.27C1032,-140.56 1032,-166 1032,-166 1032,-166 707.68,-166 707.68,-166"/>
<polygon fill="black" stroke="black" points="707.68,-162.5 697.68,-166 707.68,-169.5 707.68,-162.5"/>
</g>
<!-- ProductVariantsModule -->
<g id="node4" class="node">
<title>ProductVariantsModule</title>
<polygon fill="#8dd3c7" stroke="black" points="942.02,-122 939.02,-126 918.02,-126 915.02,-122 791.98,-122 791.98,-86 942.02,-86 942.02,-122"/>
<text text-anchor="middle" x="867" y="-99.8" font-family="Times,serif" font-size="14.00">ProductVariantsModule</text>
</g>
<!-- ProductVariantsModule&#45;&gt;AppModule -->
<g id="edge4" class="edge">
<title>ProductVariantsModule&#45;&gt;AppModule</title>
<path fill="none" stroke="black" d="M867,-122.01C867,-138.05 867,-159 867,-159 867,-159 707.69,-159 707.69,-159"/>
<polygon fill="black" stroke="black" points="707.69,-155.5 697.69,-159 707.69,-162.5 707.69,-155.5"/>
</g>
<!-- ProductsModule -->
<g id="node5" class="node">
<title>ProductsModule</title>
<polygon fill="#8dd3c7" stroke="black" points="773.04,-122 770.04,-126 749.04,-126 746.04,-122 664.96,-122 664.96,-86 773.04,-86 773.04,-122"/>
<text text-anchor="middle" x="719" y="-99.8" font-family="Times,serif" font-size="14.00">ProductsModule</text>
</g>
<!-- ProductsModule&#45;&gt;AppModule -->
<g id="edge5" class="edge">
<title>ProductsModule&#45;&gt;AppModule</title>
<path fill="none" stroke="black" d="M681.28,-122.11C681.28,-122.11 681.28,-140.99 681.28,-140.99"/>
<polygon fill="black" stroke="black" points="677.78,-140.99 681.28,-150.99 684.78,-140.99 677.78,-140.99"/>
</g>
<!-- ReviewsModule -->
<g id="node6" class="node">
<title>ReviewsModule</title>
<polygon fill="#8dd3c7" stroke="black" points="646.76,-122 643.76,-126 622.76,-126 619.76,-122 539.24,-122 539.24,-86 646.76,-86 646.76,-122"/>
<text text-anchor="middle" x="593" y="-99.8" font-family="Times,serif" font-size="14.00">ReviewsModule</text>
</g>
<!-- ReviewsModule&#45;&gt;AppModule -->
<g id="edge6" class="edge">
<title>ReviewsModule&#45;&gt;AppModule</title>
<path fill="none" stroke="black" d="M630.53,-122.11C630.53,-122.11 630.53,-140.99 630.53,-140.99"/>
<polygon fill="black" stroke="black" points="627.03,-140.99 630.53,-150.99 634.03,-140.99 627.03,-140.99"/>
</g>
<!-- SubscribersModule -->
<g id="node7" class="node">
<title>SubscribersModule</title>
<polygon fill="#8dd3c7" stroke="black" points="521.36,-122 518.36,-126 497.36,-126 494.36,-122 396.64,-122 396.64,-86 521.36,-86 521.36,-122"/>
<text text-anchor="middle" x="459" y="-99.8" font-family="Times,serif" font-size="14.00">SubscribersModule</text>
</g>
<!-- SubscribersModule&#45;&gt;AppModule -->
<g id="edge7" class="edge">
<title>SubscribersModule&#45;&gt;AppModule</title>
<path fill="none" stroke="black" d="M459,-122.01C459,-138.05 459,-159 459,-159 459,-159 604.22,-159 604.22,-159"/>
<polygon fill="black" stroke="black" points="604.22,-162.5 614.22,-159 604.22,-155.5 604.22,-162.5"/>
</g>
<!-- UploadsModule -->
<g id="node8" class="node">
<title>UploadsModule</title>
<polygon fill="#8dd3c7" stroke="black" points="378.21,-122 375.21,-126 354.21,-126 351.21,-122 271.79,-122 271.79,-86 378.21,-86 378.21,-122"/>
<text text-anchor="middle" x="325" y="-99.8" font-family="Times,serif" font-size="14.00">UploadsModule</text>
</g>
<!-- UploadsModule&#45;&gt;AppModule -->
<g id="edge8" class="edge">
<title>UploadsModule&#45;&gt;AppModule</title>
<path fill="none" stroke="black" d="M325,-122.27C325,-140.56 325,-166 325,-166 325,-166 604.08,-166 604.08,-166"/>
<polygon fill="black" stroke="black" points="604.08,-169.5 614.08,-166 604.08,-162.5 604.08,-169.5"/>
</g>
<!-- UsersModule -->
<g id="node9" class="node">
<title>UsersModule</title>
<polygon fill="#8dd3c7" stroke="black" points="253.92,-122 250.92,-126 229.92,-126 226.92,-122 162.08,-122 162.08,-86 253.92,-86 253.92,-122"/>
<text text-anchor="middle" x="208" y="-99.8" font-family="Times,serif" font-size="14.00">UsersModule</text>
</g>
<!-- UsersModule&#45;&gt;AppModule -->
<g id="edge9" class="edge">
<title>UsersModule&#45;&gt;AppModule</title>
<path fill="none" stroke="black" d="M208,-122.13C208,-142.57 208,-173 208,-173 208,-173 604.26,-173 604.26,-173"/>
<polygon fill="black" stroke="black" points="604.26,-176.5 614.26,-173 604.26,-169.5 604.26,-176.5"/>
</g>
<!-- AppService -->
<g id="node11" class="node">
<title>AppService</title>
<ellipse fill="#fdb462" stroke="black" cx="81" cy="-104" rx="56.74" ry="18"/>
<text text-anchor="middle" x="81" y="-99.8" font-family="Times,serif" font-size="14.00">AppService</text>
</g>
<!-- AppService&#45;&gt;AppModule -->
<g id="edge10" class="edge">
<title>AppService&#45;&gt;AppModule</title>
<path fill="none" stroke="black" d="M81,-122.01C81,-144.49 81,-180 81,-180 81,-180 604.18,-180 604.18,-180"/>
<polygon fill="black" stroke="black" points="604.18,-183.5 614.18,-180 604.18,-176.5 604.18,-183.5"/>
</g>
</g>
</svg>
