<?xml version="1.0" encoding="UTF-8" standalone="no"?>
<!DOCTYPE svg PUBLIC "-//W3C//DTD SVG 1.1//EN"
 "http://www.w3.org/Graphics/SVG/1.1/DTD/svg11.dtd">
<!-- Generated by graphviz version 2.47.0 (20210316.0004)
 -->
<!-- Title: dependencies Pages: 1 -->
<svg width="2061pt" height="211pt"
 viewBox="0.00 0.00 2061.00 211.00" xmlns="http://www.w3.org/2000/svg" xmlns:xlink="http://www.w3.org/1999/xlink">
<g id="graph0" class="graph" transform="scale(1 1) rotate(0) translate(4 207)">
<title>dependencies</title>
<polygon fill="white" stroke="transparent" points="-4,4 -4,-207 2057,-207 2057,4 -4,4"/>
<text text-anchor="start" x="1005.51" y="-42.4" font-family="Times-12" font-weight="bold" font-size="14.00">Legend</text>
<polygon fill="#ffffb3" stroke="transparent" points="792.5,-10 792.5,-30 812.5,-30 812.5,-10 792.5,-10"/>
<text text-anchor="start" x="816.13" y="-15.4" font-family="Times-12" font-size="14.00"> &#160;Declarations</text>
<polygon fill="#8dd3c7" stroke="transparent" points="905.5,-10 905.5,-30 925.5,-30 925.5,-10 905.5,-10"/>
<text text-anchor="start" x="929.23" y="-15.4" font-family="Times-12" font-size="14.00"> &#160;Module</text>
<polygon fill="#80b1d3" stroke="transparent" points="991.5,-10 991.5,-30 1011.5,-30 1011.5,-10 991.5,-10"/>
<text text-anchor="start" x="1015.28" y="-15.4" font-family="Times-12" font-size="14.00"> &#160;Bootstrap</text>
<polygon fill="#fdb462" stroke="transparent" points="1088.5,-10 1088.5,-30 1108.5,-30 1108.5,-10 1088.5,-10"/>
<text text-anchor="start" x="1112.17" y="-15.4" font-family="Times-12" font-size="14.00"> &#160;Providers</text>
<polygon fill="#fb8072" stroke="transparent" points="1184.5,-10 1184.5,-30 1204.5,-30 1204.5,-10 1184.5,-10"/>
<text text-anchor="start" x="1208.23" y="-15.4" font-family="Times-12" font-size="14.00"> &#160;Exports</text>
<g id="clust1" class="cluster">
<title>cluster_AppModule</title>
<polygon fill="none" stroke="black" stroke-dasharray="1,5" points="8,-70 8,-195 2045,-195 2045,-70 8,-70"/>
</g>
<g id="clust3" class="cluster">
<title>cluster_AppModule_imports</title>
<polygon fill="none" stroke="black" points="154,-78 154,-130 2037,-130 2037,-78 154,-78"/>
</g>
<g id="clust6" class="cluster">
<title>cluster_AppModule_providers</title>
<polygon fill="none" stroke="black" points="16,-78 16,-130 146,-130 146,-78 16,-78"/>
</g>
<!-- AuthModule -->
<g id="node1" class="node">
<title>AuthModule</title>
<polygon fill="#8dd3c7" stroke="black" points="2028.55,-122 2025.55,-126 2004.55,-126 2001.55,-122 1941.45,-122 1941.45,-86 2028.55,-86 2028.55,-122"/>
<text text-anchor="middle" x="1985" y="-99.8" font-family="Times,serif" font-size="14.00">AuthModule</text>
</g>
<!-- AppModule -->
<g id="node15" class="node">
<title>AppModule</title>
<polygon fill="#8dd3c7" stroke="black" points="1073.66,-187 1070.66,-191 1049.66,-191 1046.66,-187 990.34,-187 990.34,-151 1073.66,-151 1073.66,-187"/>
<text text-anchor="middle" x="1032" y="-164.8" font-family="Times,serif" font-size="14.00">AppModule</text>
</g>
<!-- AuthModule&#45;&gt;AppModule -->
<g id="edge1" class="edge">
<title>AuthModule&#45;&gt;AppModule</title>
<path fill="none" stroke="black" d="M1985,-122.32C1985,-145.66 1985,-183 1985,-183 1985,-183 1083.87,-183 1083.87,-183"/>
<polygon fill="black" stroke="black" points="1083.87,-179.5 1073.87,-183 1083.87,-186.5 1083.87,-179.5"/>
</g>
<!-- DeliveryStatesModule -->
<g id="node2" class="node">
<title>DeliveryStatesModule</title>
<polygon fill="#8dd3c7" stroke="black" points="1922.97,-122 1919.97,-126 1898.97,-126 1895.97,-122 1781.03,-122 1781.03,-86 1922.97,-86 1922.97,-122"/>
<text text-anchor="middle" x="1852" y="-99.8" font-family="Times,serif" font-size="14.00">DeliveryStatesModule</text>
</g>
<!-- DeliveryStatesModule&#45;&gt;AppModule -->
<g id="edge2" class="edge">
<title>DeliveryStatesModule&#45;&gt;AppModule</title>
<path fill="none" stroke="black" d="M1852,-122.29C1852,-144.21 1852,-178 1852,-178 1852,-178 1083.79,-178 1083.79,-178"/>
<polygon fill="black" stroke="black" points="1083.79,-174.5 1073.79,-178 1083.79,-181.5 1083.79,-174.5"/>
</g>
<!-- DiscountsModule -->
<g id="node3" class="node">
<title>DiscountsModule</title>
<polygon fill="#8dd3c7" stroke="black" points="1762.54,-122 1759.54,-126 1738.54,-126 1735.54,-122 1647.46,-122 1647.46,-86 1762.54,-86 1762.54,-122"/>
<text text-anchor="middle" x="1705" y="-99.8" font-family="Times,serif" font-size="14.00">DiscountsModule</text>
</g>
<!-- DiscountsModule&#45;&gt;AppModule -->
<g id="edge3" class="edge">
<title>DiscountsModule&#45;&gt;AppModule</title>
<path fill="none" stroke="black" d="M1705,-122.03C1705,-142.77 1705,-174 1705,-174 1705,-174 1083.84,-174 1083.84,-174"/>
<polygon fill="black" stroke="black" points="1083.84,-170.5 1073.84,-174 1083.84,-177.5 1083.84,-170.5"/>
</g>
<!-- DiscountsUsageModule -->
<g id="node4" class="node">
<title>DiscountsUsageModule</title>
<polygon fill="#8dd3c7" stroke="black" points="1629.02,-122 1626.02,-126 1605.02,-126 1602.02,-122 1478.98,-122 1478.98,-86 1629.02,-86 1629.02,-122"/>
<text text-anchor="middle" x="1554" y="-99.8" font-family="Times,serif" font-size="14.00">DiscountsUsageModule</text>
</g>
<!-- DiscountsUsageModule&#45;&gt;AppModule -->
<g id="edge4" class="edge">
<title>DiscountsUsageModule&#45;&gt;AppModule</title>
<path fill="none" stroke="black" d="M1554,-122.11C1554,-141.34 1554,-169 1554,-169 1554,-169 1083.84,-169 1083.84,-169"/>
<polygon fill="black" stroke="black" points="1083.84,-165.5 1073.84,-169 1083.84,-172.5 1083.84,-165.5"/>
</g>
<!-- MailModule -->
<g id="node5" class="node">
<title>MailModule</title>
<polygon fill="#8dd3c7" stroke="black" points="1460.99,-122 1457.99,-126 1436.99,-126 1433.99,-122 1375.01,-122 1375.01,-86 1460.99,-86 1460.99,-122"/>
<text text-anchor="middle" x="1418" y="-99.8" font-family="Times,serif" font-size="14.00">MailModule</text>
</g>
<!-- MailModule&#45;&gt;AppModule -->
<g id="edge5" class="edge">
<title>MailModule&#45;&gt;AppModule</title>
<path fill="none" stroke="black" d="M1418,-122.3C1418,-140.27 1418,-165 1418,-165 1418,-165 1083.68,-165 1083.68,-165"/>
<polygon fill="black" stroke="black" points="1083.68,-161.5 1073.68,-165 1083.68,-168.5 1083.68,-161.5"/>
</g>
<!-- PaymentModule -->
<g id="node6" class="node">
<title>PaymentModule</title>
<polygon fill="#8dd3c7" stroke="black" points="1357.04,-122 1354.04,-126 1333.04,-126 1330.04,-122 1248.96,-122 1248.96,-86 1357.04,-86 1357.04,-122"/>
<text text-anchor="middle" x="1303" y="-99.8" font-family="Times,serif" font-size="14.00">PaymentModule</text>
</g>
<!-- PaymentModule&#45;&gt;AppModule -->
<g id="edge6" class="edge">
<title>PaymentModule&#45;&gt;AppModule</title>
<path fill="none" stroke="black" d="M1303,-122.03C1303,-138.4 1303,-160 1303,-160 1303,-160 1083.75,-160 1083.75,-160"/>
<polygon fill="black" stroke="black" points="1083.75,-156.5 1073.75,-160 1083.75,-163.5 1083.75,-156.5"/>
</g>
<!-- PaystackModule -->
<g id="node7" class="node">
<title>PaystackModule</title>
<polygon fill="#8dd3c7" stroke="black" points="1230.81,-122 1227.81,-126 1206.81,-126 1203.81,-122 1121.19,-122 1121.19,-86 1230.81,-86 1230.81,-122"/>
<text text-anchor="middle" x="1176" y="-99.8" font-family="Times,serif" font-size="14.00">PaystackModule</text>
</g>
<!-- PaystackModule&#45;&gt;AppModule -->
<g id="edge7" class="edge">
<title>PaystackModule&#45;&gt;AppModule</title>
<path fill="none" stroke="black" d="M1176,-122.19C1176,-137.18 1176,-156 1176,-156 1176,-156 1084.04,-156 1084.04,-156"/>
<polygon fill="black" stroke="black" points="1084.04,-152.5 1074.04,-156 1084.04,-159.5 1084.04,-152.5"/>
</g>
<!-- ProductImagesModule -->
<g id="node8" class="node">
<title>ProductImagesModule</title>
<polygon fill="#8dd3c7" stroke="black" points="1103.52,-122 1100.52,-126 1079.52,-126 1076.52,-122 960.48,-122 960.48,-86 1103.52,-86 1103.52,-122"/>
<text text-anchor="middle" x="1032" y="-99.8" font-family="Times,serif" font-size="14.00">ProductImagesModule</text>
</g>
<!-- ProductImagesModule&#45;&gt;AppModule -->
<g id="edge8" class="edge">
<title>ProductImagesModule&#45;&gt;AppModule</title>
<path fill="none" stroke="black" d="M1032,-122.11C1032,-122.11 1032,-140.99 1032,-140.99"/>
<polygon fill="black" stroke="black" points="1028.5,-140.99 1032,-150.99 1035.5,-140.99 1028.5,-140.99"/>
</g>
<!-- ProductVariantsModule -->
<g id="node9" class="node">
<title>ProductVariantsModule</title>
<polygon fill="#8dd3c7" stroke="black" points="942.02,-122 939.02,-126 918.02,-126 915.02,-122 791.98,-122 791.98,-86 942.02,-86 942.02,-122"/>
<text text-anchor="middle" x="867" y="-99.8" font-family="Times,serif" font-size="14.00">ProductVariantsModule</text>
</g>
<!-- ProductVariantsModule&#45;&gt;AppModule -->
<g id="edge9" class="edge">
<title>ProductVariantsModule&#45;&gt;AppModule</title>
<path fill="none" stroke="black" d="M867,-122.19C867,-137.18 867,-156 867,-156 867,-156 979.94,-156 979.94,-156"/>
<polygon fill="black" stroke="black" points="979.94,-159.5 989.94,-156 979.94,-152.5 979.94,-159.5"/>
</g>
<!-- ProductsModule -->
<g id="node10" class="node">
<title>ProductsModule</title>
<polygon fill="#8dd3c7" stroke="black" points="773.04,-122 770.04,-126 749.04,-126 746.04,-122 664.96,-122 664.96,-86 773.04,-86 773.04,-122"/>
<text text-anchor="middle" x="719" y="-99.8" font-family="Times,serif" font-size="14.00">ProductsModule</text>
</g>
<!-- ProductsModule&#45;&gt;AppModule -->
<g id="edge10" class="edge">
<title>ProductsModule&#45;&gt;AppModule</title>
<path fill="none" stroke="black" d="M719,-122.03C719,-138.4 719,-160 719,-160 719,-160 980.11,-160 980.11,-160"/>
<polygon fill="black" stroke="black" points="980.11,-163.5 990.11,-160 980.11,-156.5 980.11,-163.5"/>
</g>
<!-- ReviewsModule -->
<g id="node11" class="node">
<title>ReviewsModule</title>
<polygon fill="#8dd3c7" stroke="black" points="646.76,-122 643.76,-126 622.76,-126 619.76,-122 539.24,-122 539.24,-86 646.76,-86 646.76,-122"/>
<text text-anchor="middle" x="593" y="-99.8" font-family="Times,serif" font-size="14.00">ReviewsModule</text>
</g>
<!-- ReviewsModule&#45;&gt;AppModule -->
<g id="edge11" class="edge">
<title>ReviewsModule&#45;&gt;AppModule</title>
<path fill="none" stroke="black" d="M593,-122.3C593,-140.27 593,-165 593,-165 593,-165 980.3,-165 980.3,-165"/>
<polygon fill="black" stroke="black" points="980.3,-168.5 990.3,-165 980.3,-161.5 980.3,-168.5"/>
</g>
<!-- SubscribersModule -->
<g id="node12" class="node">
<title>SubscribersModule</title>
<polygon fill="#8dd3c7" stroke="black" points="521.36,-122 518.36,-126 497.36,-126 494.36,-122 396.64,-122 396.64,-86 521.36,-86 521.36,-122"/>
<text text-anchor="middle" x="459" y="-99.8" font-family="Times,serif" font-size="14.00">SubscribersModule</text>
</g>
<!-- SubscribersModule&#45;&gt;AppModule -->
<g id="edge12" class="edge">
<title>SubscribersModule&#45;&gt;AppModule</title>
<path fill="none" stroke="black" d="M459,-122.11C459,-141.34 459,-169 459,-169 459,-169 980.33,-169 980.33,-169"/>
<polygon fill="black" stroke="black" points="980.33,-172.5 990.33,-169 980.33,-165.5 980.33,-172.5"/>
</g>
<!-- UploadsModule -->
<g id="node13" class="node">
<title>UploadsModule</title>
<polygon fill="#8dd3c7" stroke="black" points="378.21,-122 375.21,-126 354.21,-126 351.21,-122 271.79,-122 271.79,-86 378.21,-86 378.21,-122"/>
<text text-anchor="middle" x="325" y="-99.8" font-family="Times,serif" font-size="14.00">UploadsModule</text>
</g>
<!-- UploadsModule&#45;&gt;AppModule -->
<g id="edge13" class="edge">
<title>UploadsModule&#45;&gt;AppModule</title>
<path fill="none" stroke="black" d="M325,-122.03C325,-142.77 325,-174 325,-174 325,-174 980.15,-174 980.15,-174"/>
<polygon fill="black" stroke="black" points="980.15,-177.5 990.15,-174 980.15,-170.5 980.15,-177.5"/>
</g>
<!-- UsersModule -->
<g id="node14" class="node">
<title>UsersModule</title>
<polygon fill="#8dd3c7" stroke="black" points="253.92,-122 250.92,-126 229.92,-126 226.92,-122 162.08,-122 162.08,-86 253.92,-86 253.92,-122"/>
<text text-anchor="middle" x="208" y="-99.8" font-family="Times,serif" font-size="14.00">UsersModule</text>
</g>
<!-- UsersModule&#45;&gt;AppModule -->
<g id="edge14" class="edge">
<title>UsersModule&#45;&gt;AppModule</title>
<path fill="none" stroke="black" d="M208,-122.29C208,-144.21 208,-178 208,-178 208,-178 980.29,-178 980.29,-178"/>
<polygon fill="black" stroke="black" points="980.29,-181.5 990.29,-178 980.29,-174.5 980.29,-181.5"/>
</g>
<!-- AppService -->
<g id="node16" class="node">
<title>AppService</title>
<ellipse fill="#fdb462" stroke="black" cx="81" cy="-104" rx="56.74" ry="18"/>
<text text-anchor="middle" x="81" y="-99.8" font-family="Times,serif" font-size="14.00">AppService</text>
</g>
<!-- AppService&#45;&gt;AppModule -->
<g id="edge15" class="edge">
<title>AppService&#45;&gt;AppModule</title>
<path fill="none" stroke="black" d="M81,-122.32C81,-145.66 81,-183 81,-183 81,-183 980.22,-183 980.22,-183"/>
<polygon fill="black" stroke="black" points="980.22,-186.5 990.22,-183 980.22,-179.5 980.22,-186.5"/>
</g>
</g>
</svg>
