<?xml version="1.0" encoding="UTF-8" standalone="no"?>
<!DOCTYPE svg PUBLIC "-//W3C//DTD SVG 1.1//EN"
 "http://www.w3.org/Graphics/SVG/1.1/DTD/svg11.dtd">
<!-- Generated by graphviz version 2.47.0 (20210316.0004)
 -->
<!-- Title: dependencies Pages: 1 -->
<svg width="1346pt" height="211pt"
 viewBox="0.00 0.00 1346.00 211.00" xmlns="http://www.w3.org/2000/svg" xmlns:xlink="http://www.w3.org/1999/xlink">
<g id="graph0" class="graph" transform="scale(1 1) rotate(0) translate(4 207)">
<title>dependencies</title>
<polygon fill="white" stroke="transparent" points="-4,4 -4,-207 1342,-207 1342,4 -4,4"/>
<text text-anchor="start" x="648.01" y="-42.4" font-family="Times-12" font-weight="bold" font-size="14.00">Legend</text>
<polygon fill="#ffffb3" stroke="transparent" points="435,-10 435,-30 455,-30 455,-10 435,-10"/>
<text text-anchor="start" x="458.63" y="-15.4" font-family="Times-12" font-size="14.00"> &#160;Declarations</text>
<polygon fill="#8dd3c7" stroke="transparent" points="548,-10 548,-30 568,-30 568,-10 548,-10"/>
<text text-anchor="start" x="571.73" y="-15.4" font-family="Times-12" font-size="14.00"> &#160;Module</text>
<polygon fill="#80b1d3" stroke="transparent" points="634,-10 634,-30 654,-30 654,-10 634,-10"/>
<text text-anchor="start" x="657.78" y="-15.4" font-family="Times-12" font-size="14.00"> &#160;Bootstrap</text>
<polygon fill="#fdb462" stroke="transparent" points="731,-10 731,-30 751,-30 751,-10 731,-10"/>
<text text-anchor="start" x="754.67" y="-15.4" font-family="Times-12" font-size="14.00"> &#160;Providers</text>
<polygon fill="#fb8072" stroke="transparent" points="827,-10 827,-30 847,-30 847,-10 827,-10"/>
<text text-anchor="start" x="850.73" y="-15.4" font-family="Times-12" font-size="14.00"> &#160;Exports</text>
<g id="clust1" class="cluster">
<title>cluster_AppModule</title>
<polygon fill="none" stroke="black" stroke-dasharray="1,5" points="8,-70 8,-195 1330,-195 1330,-70 8,-70"/>
</g>
<g id="clust6" class="cluster">
<title>cluster_AppModule_providers</title>
<polygon fill="none" stroke="black" points="1192,-78 1192,-130 1322,-130 1322,-78 1192,-78"/>
</g>
<g id="clust3" class="cluster">
<title>cluster_AppModule_imports</title>
<polygon fill="none" stroke="black" points="16,-78 16,-130 1184,-130 1184,-78 16,-78"/>
</g>
<!-- AuthModule -->
<g id="node1" class="node">
<title>AuthModule</title>
<polygon fill="#8dd3c7" stroke="black" points="1175.55,-122 1172.55,-126 1151.55,-126 1148.55,-122 1088.45,-122 1088.45,-86 1175.55,-86 1175.55,-122"/>
<text text-anchor="middle" x="1132" y="-99.8" font-family="Times,serif" font-size="14.00">AuthModule</text>
</g>
<!-- AppModule -->
<g id="node10" class="node">
<title>AppModule</title>
<polygon fill="#8dd3c7" stroke="black" points="696.66,-187 693.66,-191 672.66,-191 669.66,-187 613.34,-187 613.34,-151 696.66,-151 696.66,-187"/>
<text text-anchor="middle" x="655" y="-164.8" font-family="Times,serif" font-size="14.00">AppModule</text>
</g>
<!-- AuthModule&#45;&gt;AppModule -->
<g id="edge1" class="edge">
<title>AuthModule&#45;&gt;AppModule</title>
<path fill="none" stroke="black" d="M1132,-122.13C1132,-142.57 1132,-173 1132,-173 1132,-173 706.91,-173 706.91,-173"/>
<polygon fill="black" stroke="black" points="706.91,-169.5 696.91,-173 706.91,-176.5 706.91,-169.5"/>
</g>
<!-- MailModule -->
<g id="node2" class="node">
<title>MailModule</title>
<polygon fill="#8dd3c7" stroke="black" points="1069.99,-122 1066.99,-126 1045.99,-126 1042.99,-122 984.01,-122 984.01,-86 1069.99,-86 1069.99,-122"/>
<text text-anchor="middle" x="1027" y="-99.8" font-family="Times,serif" font-size="14.00">MailModule</text>
</g>
<!-- MailModule&#45;&gt;AppModule -->
<g id="edge2" class="edge">
<title>MailModule&#45;&gt;AppModule</title>
<path fill="none" stroke="black" d="M1027,-122.27C1027,-140.56 1027,-166 1027,-166 1027,-166 706.95,-166 706.95,-166"/>
<polygon fill="black" stroke="black" points="706.95,-162.5 696.95,-166 706.95,-169.5 706.95,-162.5"/>
</g>
<!-- ProductImagesModule -->
<g id="node3" class="node">
<title>ProductImagesModule</title>
<polygon fill="#8dd3c7" stroke="black" points="965.52,-122 962.52,-126 941.52,-126 938.52,-122 822.48,-122 822.48,-86 965.52,-86 965.52,-122"/>
<text text-anchor="middle" x="894" y="-99.8" font-family="Times,serif" font-size="14.00">ProductImagesModule</text>
</g>
<!-- ProductImagesModule&#45;&gt;AppModule -->
<g id="edge3" class="edge">
<title>ProductImagesModule&#45;&gt;AppModule</title>
<path fill="none" stroke="black" d="M894,-122.01C894,-138.05 894,-159 894,-159 894,-159 706.9,-159 706.9,-159"/>
<polygon fill="black" stroke="black" points="706.9,-155.5 696.9,-159 706.9,-162.5 706.9,-155.5"/>
</g>
<!-- ProductVariantsModule -->
<g id="node4" class="node">
<title>ProductVariantsModule</title>
<polygon fill="#8dd3c7" stroke="black" points="804.02,-122 801.02,-126 780.02,-126 777.02,-122 653.98,-122 653.98,-86 804.02,-86 804.02,-122"/>
<text text-anchor="middle" x="729" y="-99.8" font-family="Times,serif" font-size="14.00">ProductVariantsModule</text>
</g>
<!-- ProductVariantsModule&#45;&gt;AppModule -->
<g id="edge4" class="edge">
<title>ProductVariantsModule&#45;&gt;AppModule</title>
<path fill="none" stroke="black" d="M675.28,-122.11C675.28,-122.11 675.28,-140.99 675.28,-140.99"/>
<polygon fill="black" stroke="black" points="671.78,-140.99 675.28,-150.99 678.78,-140.99 671.78,-140.99"/>
</g>
<!-- ProductsModule -->
<g id="node5" class="node">
<title>ProductsModule</title>
<polygon fill="#8dd3c7" stroke="black" points="635.04,-122 632.04,-126 611.04,-126 608.04,-122 526.96,-122 526.96,-86 635.04,-86 635.04,-122"/>
<text text-anchor="middle" x="581" y="-99.8" font-family="Times,serif" font-size="14.00">ProductsModule</text>
</g>
<!-- ProductsModule&#45;&gt;AppModule -->
<g id="edge5" class="edge">
<title>ProductsModule&#45;&gt;AppModule</title>
<path fill="none" stroke="black" d="M624.22,-122.11C624.22,-122.11 624.22,-140.99 624.22,-140.99"/>
<polygon fill="black" stroke="black" points="620.72,-140.99 624.22,-150.99 627.72,-140.99 620.72,-140.99"/>
</g>
<!-- ReviewsModule -->
<g id="node6" class="node">
<title>ReviewsModule</title>
<polygon fill="#8dd3c7" stroke="black" points="508.76,-122 505.76,-126 484.76,-126 481.76,-122 401.24,-122 401.24,-86 508.76,-86 508.76,-122"/>
<text text-anchor="middle" x="455" y="-99.8" font-family="Times,serif" font-size="14.00">ReviewsModule</text>
</g>
<!-- ReviewsModule&#45;&gt;AppModule -->
<g id="edge6" class="edge">
<title>ReviewsModule&#45;&gt;AppModule</title>
<path fill="none" stroke="black" d="M455,-122.01C455,-138.05 455,-159 455,-159 455,-159 603.07,-159 603.07,-159"/>
<polygon fill="black" stroke="black" points="603.07,-162.5 613.07,-159 603.07,-155.5 603.07,-162.5"/>
</g>
<!-- SubscribersModule -->
<g id="node7" class="node">
<title>SubscribersModule</title>
<polygon fill="#8dd3c7" stroke="black" points="383.36,-122 380.36,-126 359.36,-126 356.36,-122 258.64,-122 258.64,-86 383.36,-86 383.36,-122"/>
<text text-anchor="middle" x="321" y="-99.8" font-family="Times,serif" font-size="14.00">SubscribersModule</text>
</g>
<!-- SubscribersModule&#45;&gt;AppModule -->
<g id="edge7" class="edge">
<title>SubscribersModule&#45;&gt;AppModule</title>
<path fill="none" stroke="black" d="M321,-122.27C321,-140.56 321,-166 321,-166 321,-166 603.04,-166 603.04,-166"/>
<polygon fill="black" stroke="black" points="603.04,-169.5 613.04,-166 603.04,-162.5 603.04,-169.5"/>
</g>
<!-- UploadsModule -->
<g id="node8" class="node">
<title>UploadsModule</title>
<polygon fill="#8dd3c7" stroke="black" points="240.21,-122 237.21,-126 216.21,-126 213.21,-122 133.79,-122 133.79,-86 240.21,-86 240.21,-122"/>
<text text-anchor="middle" x="187" y="-99.8" font-family="Times,serif" font-size="14.00">UploadsModule</text>
</g>
<!-- UploadsModule&#45;&gt;AppModule -->
<g id="edge8" class="edge">
<title>UploadsModule&#45;&gt;AppModule</title>
<path fill="none" stroke="black" d="M187,-122.13C187,-142.57 187,-173 187,-173 187,-173 603.06,-173 603.06,-173"/>
<polygon fill="black" stroke="black" points="603.06,-176.5 613.06,-173 603.06,-169.5 603.06,-176.5"/>
</g>
<!-- UsersModule -->
<g id="node9" class="node">
<title>UsersModule</title>
<polygon fill="#8dd3c7" stroke="black" points="115.92,-122 112.92,-126 91.92,-126 88.92,-122 24.08,-122 24.08,-86 115.92,-86 115.92,-122"/>
<text text-anchor="middle" x="70" y="-99.8" font-family="Times,serif" font-size="14.00">UsersModule</text>
</g>
<!-- UsersModule&#45;&gt;AppModule -->
<g id="edge9" class="edge">
<title>UsersModule&#45;&gt;AppModule</title>
<path fill="none" stroke="black" d="M70,-122.01C70,-144.49 70,-180 70,-180 70,-180 602.93,-180 602.93,-180"/>
<polygon fill="black" stroke="black" points="602.93,-183.5 612.93,-180 602.93,-176.5 602.93,-183.5"/>
</g>
<!-- AppService -->
<g id="node11" class="node">
<title>AppService</title>
<ellipse fill="#fdb462" stroke="black" cx="1257" cy="-104" rx="56.74" ry="18"/>
<text text-anchor="middle" x="1257" y="-99.8" font-family="Times,serif" font-size="14.00">AppService</text>
</g>
<!-- AppService&#45;&gt;AppModule -->
<g id="edge10" class="edge">
<title>AppService&#45;&gt;AppModule</title>
<path fill="none" stroke="black" d="M1257,-122.01C1257,-144.49 1257,-180 1257,-180 1257,-180 706.85,-180 706.85,-180"/>
<polygon fill="black" stroke="black" points="706.85,-176.5 696.85,-180 706.85,-183.5 706.85,-176.5"/>
</g>
</g>
</svg>
