<?xml version="1.0" encoding="UTF-8" standalone="no"?>
<!DOCTYPE svg PUBLIC "-//W3C//DTD SVG 1.1//EN"
 "http://www.w3.org/Graphics/SVG/1.1/DTD/svg11.dtd">
<!-- Generated by graphviz version 2.47.0 (20210316.0004)
 -->
<!-- Title: dependencies Pages: 1 -->
<svg width="730pt" height="211pt"
 viewBox="0.00 0.00 730.00 211.00" xmlns="http://www.w3.org/2000/svg" xmlns:xlink="http://www.w3.org/1999/xlink">
<g id="graph0" class="graph" transform="scale(1 1) rotate(0) translate(4 207)">
<title>dependencies</title>
<polygon fill="white" stroke="transparent" points="-4,4 -4,-207 726,-207 726,4 -4,4"/>
<text text-anchor="start" x="340.01" y="-42.4" font-family="Times-12" font-weight="bold" font-size="14.00">Legend</text>
<polygon fill="#ffffb3" stroke="transparent" points="127,-10 127,-30 147,-30 147,-10 127,-10"/>
<text text-anchor="start" x="150.63" y="-15.4" font-family="Times-12" font-size="14.00"> &#160;Declarations</text>
<polygon fill="#8dd3c7" stroke="transparent" points="240,-10 240,-30 260,-30 260,-10 240,-10"/>
<text text-anchor="start" x="263.73" y="-15.4" font-family="Times-12" font-size="14.00"> &#160;Module</text>
<polygon fill="#80b1d3" stroke="transparent" points="326,-10 326,-30 346,-30 346,-10 326,-10"/>
<text text-anchor="start" x="349.78" y="-15.4" font-family="Times-12" font-size="14.00"> &#160;Bootstrap</text>
<polygon fill="#fdb462" stroke="transparent" points="423,-10 423,-30 443,-30 443,-10 423,-10"/>
<text text-anchor="start" x="446.67" y="-15.4" font-family="Times-12" font-size="14.00"> &#160;Providers</text>
<polygon fill="#fb8072" stroke="transparent" points="519,-10 519,-30 539,-30 539,-10 519,-10"/>
<text text-anchor="start" x="542.73" y="-15.4" font-family="Times-12" font-size="14.00"> &#160;Exports</text>
<g id="clust1" class="cluster">
<title>cluster_SubscribersModule</title>
<polygon fill="none" stroke="black" stroke-dasharray="1,5" points="8,-70 8,-195 714,-195 714,-70 8,-70"/>
</g>
<g id="clust3" class="cluster">
<title>cluster_SubscribersModule_imports</title>
<polygon fill="none" stroke="black" points="466,-78 466,-130 706,-130 706,-78 466,-78"/>
</g>
<g id="clust6" class="cluster">
<title>cluster_SubscribersModule_providers</title>
<polygon fill="none" stroke="black" points="16,-78 16,-130 458,-130 458,-78 16,-78"/>
</g>
<!-- MailModule -->
<g id="node1" class="node">
<title>MailModule</title>
<polygon fill="#8dd3c7" stroke="black" points="697.99,-122 694.99,-126 673.99,-126 670.99,-122 612.01,-122 612.01,-86 697.99,-86 697.99,-122"/>
<text text-anchor="middle" x="655" y="-99.8" font-family="Times,serif" font-size="14.00">MailModule</text>
</g>
<!-- SubscribersModule -->
<g id="node3" class="node">
<title>SubscribersModule</title>
<polygon fill="#8dd3c7" stroke="black" points="494.36,-187 491.36,-191 470.36,-191 467.36,-187 369.64,-187 369.64,-151 494.36,-151 494.36,-187"/>
<text text-anchor="middle" x="432" y="-164.8" font-family="Times,serif" font-size="14.00">SubscribersModule</text>
</g>
<!-- MailModule&#45;&gt;SubscribersModule -->
<g id="edge1" class="edge">
<title>MailModule&#45;&gt;SubscribersModule</title>
<path fill="none" stroke="black" d="M655,-122.11C655,-141.34 655,-169 655,-169 655,-169 504.41,-169 504.41,-169"/>
<polygon fill="black" stroke="black" points="504.41,-165.5 494.41,-169 504.41,-172.5 504.41,-165.5"/>
</g>
<!-- PaginationModule -->
<g id="node2" class="node">
<title>PaginationModule</title>
<polygon fill="#8dd3c7" stroke="black" points="593.93,-122 590.93,-126 569.93,-126 566.93,-122 474.07,-122 474.07,-86 593.93,-86 593.93,-122"/>
<text text-anchor="middle" x="534" y="-99.8" font-family="Times,serif" font-size="14.00">PaginationModule</text>
</g>
<!-- PaginationModule&#45;&gt;SubscribersModule -->
<g id="edge2" class="edge">
<title>PaginationModule&#45;&gt;SubscribersModule</title>
<path fill="none" stroke="black" d="M484.36,-122.11C484.36,-122.11 484.36,-140.99 484.36,-140.99"/>
<polygon fill="black" stroke="black" points="480.86,-140.99 484.36,-150.99 487.86,-140.99 480.86,-140.99"/>
</g>
<!-- FindAllSubscribersProvider -->
<g id="node4" class="node">
<title>FindAllSubscribersProvider</title>
<ellipse fill="#fdb462" stroke="black" cx="331" cy="-104" rx="119.28" ry="18"/>
<text text-anchor="middle" x="331" y="-99.8" font-family="Times,serif" font-size="14.00">FindAllSubscribersProvider</text>
</g>
<!-- FindAllSubscribersProvider&#45;&gt;SubscribersModule -->
<g id="edge3" class="edge">
<title>FindAllSubscribersProvider&#45;&gt;SubscribersModule</title>
<path fill="none" stroke="black" d="M409.98,-117.78C409.98,-117.78 409.98,-140.55 409.98,-140.55"/>
<polygon fill="black" stroke="black" points="406.48,-140.55 409.98,-150.55 413.48,-140.55 406.48,-140.55"/>
</g>
<!-- SubscribersService -->
<g id="node5" class="node">
<title>SubscribersService</title>
<ellipse fill="#fdb462" stroke="black" cx="109" cy="-104" rx="85.09" ry="18"/>
<text text-anchor="middle" x="109" y="-99.8" font-family="Times,serif" font-size="14.00">SubscribersService</text>
</g>
<!-- SubscribersService&#45;&gt;SubscribersModule -->
<g id="edge4" class="edge">
<title>SubscribersService&#45;&gt;SubscribersModule</title>
<path fill="none" stroke="black" d="M109,-122.11C109,-141.34 109,-169 109,-169 109,-169 359.34,-169 359.34,-169"/>
<polygon fill="black" stroke="black" points="359.34,-172.5 369.34,-169 359.34,-165.5 359.34,-172.5"/>
</g>
</g>
</svg>
