<?xml version="1.0" encoding="UTF-8" standalone="no"?>
<!DOCTYPE svg PUBLIC "-//W3C//DTD SVG 1.1//EN"
 "http://www.w3.org/Graphics/SVG/1.1/DTD/svg11.dtd">
<!-- Generated by graphviz version 2.47.0 (20210316.0004)
 -->
<!-- Title: dependencies Pages: 1 -->
<svg width="504pt" height="211pt"
 viewBox="0.00 0.00 504.00 211.00" xmlns="http://www.w3.org/2000/svg" xmlns:xlink="http://www.w3.org/1999/xlink">
<g id="graph0" class="graph" transform="scale(1 1) rotate(0) translate(4 207)">
<title>dependencies</title>
<polygon fill="white" stroke="transparent" points="-4,4 -4,-207 500,-207 500,4 -4,4"/>
<text text-anchor="start" x="227.01" y="-42.4" font-family="Times-12" font-weight="bold" font-size="14.00">Legend</text>
<polygon fill="#ffffb3" stroke="transparent" points="14,-10 14,-30 34,-30 34,-10 14,-10"/>
<text text-anchor="start" x="37.63" y="-15.4" font-family="Times-12" font-size="14.00"> &#160;Declarations</text>
<polygon fill="#8dd3c7" stroke="transparent" points="127,-10 127,-30 147,-30 147,-10 127,-10"/>
<text text-anchor="start" x="150.73" y="-15.4" font-family="Times-12" font-size="14.00"> &#160;Module</text>
<polygon fill="#80b1d3" stroke="transparent" points="213,-10 213,-30 233,-30 233,-10 213,-10"/>
<text text-anchor="start" x="236.78" y="-15.4" font-family="Times-12" font-size="14.00"> &#160;Bootstrap</text>
<polygon fill="#fdb462" stroke="transparent" points="310,-10 310,-30 330,-30 330,-10 310,-10"/>
<text text-anchor="start" x="333.67" y="-15.4" font-family="Times-12" font-size="14.00"> &#160;Providers</text>
<polygon fill="#fb8072" stroke="transparent" points="406,-10 406,-30 426,-30 426,-10 406,-10"/>
<text text-anchor="start" x="429.73" y="-15.4" font-family="Times-12" font-size="14.00"> &#160;Exports</text>
<g id="clust1" class="cluster">
<title>cluster_SubscribersModule</title>
<polygon fill="none" stroke="black" stroke-dasharray="1,5" points="23,-70 23,-195 473,-195 473,-70 23,-70"/>
</g>
<g id="clust6" class="cluster">
<title>cluster_SubscribersModule_providers</title>
<polygon fill="none" stroke="black" points="279,-78 279,-130 465,-130 465,-78 279,-78"/>
</g>
<g id="clust3" class="cluster">
<title>cluster_SubscribersModule_imports</title>
<polygon fill="none" stroke="black" points="31,-78 31,-130 271,-130 271,-78 31,-78"/>
</g>
<!-- MailModule -->
<g id="node1" class="node">
<title>MailModule</title>
<polygon fill="#8dd3c7" stroke="black" points="262.99,-122 259.99,-126 238.99,-126 235.99,-122 177.01,-122 177.01,-86 262.99,-86 262.99,-122"/>
<text text-anchor="middle" x="220" y="-99.8" font-family="Times,serif" font-size="14.00">MailModule</text>
</g>
<!-- SubscribersModule -->
<g id="node3" class="node">
<title>SubscribersModule</title>
<polygon fill="#8dd3c7" stroke="black" points="282.36,-187 279.36,-191 258.36,-191 255.36,-187 157.64,-187 157.64,-151 282.36,-151 282.36,-187"/>
<text text-anchor="middle" x="220" y="-164.8" font-family="Times,serif" font-size="14.00">SubscribersModule</text>
</g>
<!-- MailModule&#45;&gt;SubscribersModule -->
<g id="edge1" class="edge">
<title>MailModule&#45;&gt;SubscribersModule</title>
<path fill="none" stroke="black" d="M220,-122.11C220,-122.11 220,-140.99 220,-140.99"/>
<polygon fill="black" stroke="black" points="216.5,-140.99 220,-150.99 223.5,-140.99 216.5,-140.99"/>
</g>
<!-- PaginationModule -->
<g id="node2" class="node">
<title>PaginationModule</title>
<polygon fill="#8dd3c7" stroke="black" points="158.93,-122 155.93,-126 134.93,-126 131.93,-122 39.07,-122 39.07,-86 158.93,-86 158.93,-122"/>
<text text-anchor="middle" x="99" y="-99.8" font-family="Times,serif" font-size="14.00">PaginationModule</text>
</g>
<!-- PaginationModule&#45;&gt;SubscribersModule -->
<g id="edge2" class="edge">
<title>PaginationModule&#45;&gt;SubscribersModule</title>
<path fill="none" stroke="black" d="M158.86,-104C164.33,-104 167.86,-104 167.86,-104 167.86,-104 167.86,-140.89 167.86,-140.89"/>
<polygon fill="black" stroke="black" points="164.36,-140.89 167.86,-150.89 171.36,-140.89 164.36,-140.89"/>
</g>
<!-- SubscribersService -->
<g id="node4" class="node">
<title>SubscribersService</title>
<ellipse fill="#fdb462" stroke="black" cx="372" cy="-104" rx="85.09" ry="18"/>
<text text-anchor="middle" x="372" y="-99.8" font-family="Times,serif" font-size="14.00">SubscribersService</text>
</g>
<!-- SubscribersService&#45;&gt;SubscribersModule -->
<g id="edge3" class="edge">
<title>SubscribersService&#45;&gt;SubscribersModule</title>
<path fill="none" stroke="black" d="M286.94,-104C278.35,-104 272.71,-104 272.71,-104 272.71,-104 272.71,-140.89 272.71,-140.89"/>
<polygon fill="black" stroke="black" points="269.21,-140.89 272.71,-150.89 276.21,-140.89 269.21,-140.89"/>
</g>
</g>
</svg>
