<?xml version="1.0" encoding="UTF-8" standalone="no"?>
<!DOCTYPE svg PUBLIC "-//W3C//DTD SVG 1.1//EN"
 "http://www.w3.org/Graphics/SVG/1.1/DTD/svg11.dtd">
<!-- Generated by graphviz version 2.47.0 (20210316.0004)
 -->
<!-- Title: dependencies Pages: 1 -->
<svg width="550pt" height="211pt"
 viewBox="0.00 0.00 550.00 211.00" xmlns="http://www.w3.org/2000/svg" xmlns:xlink="http://www.w3.org/1999/xlink">
<g id="graph0" class="graph" transform="scale(1 1) rotate(0) translate(4 207)">
<title>dependencies</title>
<polygon fill="white" stroke="transparent" points="-4,4 -4,-207 546,-207 546,4 -4,4"/>
<text text-anchor="start" x="250.01" y="-42.4" font-family="Times-12" font-weight="bold" font-size="14.00">Legend</text>
<polygon fill="#ffffb3" stroke="transparent" points="37,-10 37,-30 57,-30 57,-10 37,-10"/>
<text text-anchor="start" x="60.63" y="-15.4" font-family="Times-12" font-size="14.00"> &#160;Declarations</text>
<polygon fill="#8dd3c7" stroke="transparent" points="150,-10 150,-30 170,-30 170,-10 150,-10"/>
<text text-anchor="start" x="173.73" y="-15.4" font-family="Times-12" font-size="14.00"> &#160;Module</text>
<polygon fill="#80b1d3" stroke="transparent" points="236,-10 236,-30 256,-30 256,-10 236,-10"/>
<text text-anchor="start" x="259.78" y="-15.4" font-family="Times-12" font-size="14.00"> &#160;Bootstrap</text>
<polygon fill="#fdb462" stroke="transparent" points="333,-10 333,-30 353,-30 353,-10 333,-10"/>
<text text-anchor="start" x="356.67" y="-15.4" font-family="Times-12" font-size="14.00"> &#160;Providers</text>
<polygon fill="#fb8072" stroke="transparent" points="429,-10 429,-30 449,-30 449,-10 429,-10"/>
<text text-anchor="start" x="452.73" y="-15.4" font-family="Times-12" font-size="14.00"> &#160;Exports</text>
<g id="clust1" class="cluster">
<title>cluster_ReviewsModule</title>
<polygon fill="none" stroke="black" stroke-dasharray="1,5" points="8,-70 8,-195 534,-195 534,-70 8,-70"/>
</g>
<g id="clust3" class="cluster">
<title>cluster_ReviewsModule_imports</title>
<polygon fill="none" stroke="black" points="402,-78 402,-130 526,-130 526,-78 402,-78"/>
</g>
<g id="clust6" class="cluster">
<title>cluster_ReviewsModule_providers</title>
<polygon fill="none" stroke="black" points="16,-78 16,-130 394,-130 394,-78 16,-78"/>
</g>
<!-- ProductsModule -->
<g id="node1" class="node">
<title>ProductsModule</title>
<polygon fill="#8dd3c7" stroke="black" points="518.04,-122 515.04,-126 494.04,-126 491.04,-122 409.96,-122 409.96,-86 518.04,-86 518.04,-122"/>
<text text-anchor="middle" x="464" y="-99.8" font-family="Times,serif" font-size="14.00">ProductsModule</text>
</g>
<!-- ReviewsModule -->
<g id="node2" class="node">
<title>ReviewsModule</title>
<polygon fill="#8dd3c7" stroke="black" points="340.76,-187 337.76,-191 316.76,-191 313.76,-187 233.24,-187 233.24,-151 340.76,-151 340.76,-187"/>
<text text-anchor="middle" x="287" y="-164.8" font-family="Times,serif" font-size="14.00">ReviewsModule</text>
</g>
<!-- ProductsModule&#45;&gt;ReviewsModule -->
<g id="edge1" class="edge">
<title>ProductsModule&#45;&gt;ReviewsModule</title>
<path fill="none" stroke="black" d="M464,-122.11C464,-141.34 464,-169 464,-169 464,-169 351.07,-169 351.07,-169"/>
<polygon fill="black" stroke="black" points="351.07,-165.5 341.07,-169 351.07,-172.5 351.07,-165.5"/>
</g>
<!-- CreateReviewProvider -->
<g id="node3" class="node">
<title>CreateReviewProvider</title>
<ellipse fill="#fdb462" stroke="black" cx="287" cy="-104" rx="98.97" ry="18"/>
<text text-anchor="middle" x="287" y="-99.8" font-family="Times,serif" font-size="14.00">CreateReviewProvider</text>
</g>
<!-- CreateReviewProvider&#45;&gt;ReviewsModule -->
<g id="edge2" class="edge">
<title>CreateReviewProvider&#45;&gt;ReviewsModule</title>
<path fill="none" stroke="black" d="M287,-122.11C287,-122.11 287,-140.99 287,-140.99"/>
<polygon fill="black" stroke="black" points="283.5,-140.99 287,-150.99 290.5,-140.99 283.5,-140.99"/>
</g>
<!-- ReviewsService -->
<g id="node4" class="node">
<title>ReviewsService</title>
<ellipse fill="#fdb462" stroke="black" cx="97" cy="-104" rx="73.49" ry="18"/>
<text text-anchor="middle" x="97" y="-99.8" font-family="Times,serif" font-size="14.00">ReviewsService</text>
</g>
<!-- ReviewsService&#45;&gt;ReviewsModule -->
<g id="edge3" class="edge">
<title>ReviewsService&#45;&gt;ReviewsModule</title>
<path fill="none" stroke="black" d="M97,-122.11C97,-141.34 97,-169 97,-169 97,-169 223.06,-169 223.06,-169"/>
<polygon fill="black" stroke="black" points="223.06,-172.5 233.06,-169 223.06,-165.5 223.06,-172.5"/>
</g>
</g>
</svg>
