<?xml version="1.0" encoding="UTF-8" standalone="no"?>
<!DOCTYPE svg PUBLIC "-//W3C//DTD SVG 1.1//EN"
 "http://www.w3.org/Graphics/SVG/1.1/DTD/svg11.dtd">
<!-- Generated by graphviz version 2.47.0 (20210316.0004)
 -->
<!-- Title: dependencies Pages: 1 -->
<svg width="4626pt" height="499pt"
 viewBox="0.00 0.00 4626.00 499.00" xmlns="http://www.w3.org/2000/svg" xmlns:xlink="http://www.w3.org/1999/xlink">
<g id="graph0" class="graph" transform="scale(1 1) rotate(0) translate(4 495)">
<title>dependencies</title>
<polygon fill="white" stroke="transparent" points="-4,4 -4,-495 4622,-495 4622,4 -4,4"/>
<text text-anchor="start" x="2288.01" y="-42.4" font-family="Times-12" font-weight="bold" font-size="14.00">Legend</text>
<polygon fill="#ffffb3" stroke="transparent" points="2075,-10 2075,-30 2095,-30 2095,-10 2075,-10"/>
<text text-anchor="start" x="2098.63" y="-15.4" font-family="Times-12" font-size="14.00"> &#160;Declarations</text>
<polygon fill="#8dd3c7" stroke="transparent" points="2188,-10 2188,-30 2208,-30 2208,-10 2188,-10"/>
<text text-anchor="start" x="2211.73" y="-15.4" font-family="Times-12" font-size="14.00"> &#160;Module</text>
<polygon fill="#80b1d3" stroke="transparent" points="2274,-10 2274,-30 2294,-30 2294,-10 2274,-10"/>
<text text-anchor="start" x="2297.78" y="-15.4" font-family="Times-12" font-size="14.00"> &#160;Bootstrap</text>
<polygon fill="#fdb462" stroke="transparent" points="2371,-10 2371,-30 2391,-30 2391,-10 2371,-10"/>
<text text-anchor="start" x="2394.67" y="-15.4" font-family="Times-12" font-size="14.00"> &#160;Providers</text>
<polygon fill="#fb8072" stroke="transparent" points="2467,-10 2467,-30 2487,-30 2487,-10 2467,-10"/>
<text text-anchor="start" x="2490.73" y="-15.4" font-family="Times-12" font-size="14.00"> &#160;Exports</text>
<g id="clust25" class="cluster">
<title>cluster_ProductImagesModule</title>
<polygon fill="none" stroke="black" stroke-dasharray="1,5" points="1863,-290 1863,-418 2091,-418 2091,-290 1863,-290"/>
</g>
<g id="clust30" class="cluster">
<title>cluster_ProductImagesModule_providers</title>
<polygon fill="none" stroke="black" points="1871,-298 1871,-350 2083,-350 2083,-298 1871,-298"/>
</g>
<g id="clust13" class="cluster">
<title>cluster_MailModule</title>
<polygon fill="none" stroke="black" stroke-dasharray="1,5" points="8,-70 8,-282 156,-282 156,-70 8,-70"/>
</g>
<g id="clust18" class="cluster">
<title>cluster_MailModule_providers</title>
<polygon fill="none" stroke="black" points="16,-78 16,-130 148,-130 148,-78 16,-78"/>
</g>
<g id="clust16" class="cluster">
<title>cluster_MailModule_exports</title>
<polygon fill="none" stroke="black" points="44,-222 44,-274 148,-274 148,-222 44,-222"/>
</g>
<g id="clust37" class="cluster">
<title>cluster_ProductVariantsModule</title>
<polygon fill="none" stroke="black" stroke-dasharray="1,5" points="3970,-138 3970,-358 4208,-358 4208,-138 3970,-138"/>
</g>
<g id="clust40" class="cluster">
<title>cluster_ProductVariantsModule_exports</title>
<polygon fill="none" stroke="black" points="4005,-298 4005,-350 4173,-350 4173,-298 4005,-298"/>
</g>
<g id="clust42" class="cluster">
<title>cluster_ProductVariantsModule_providers</title>
<polygon fill="none" stroke="black" points="3978,-146 3978,-198 4200,-198 4200,-146 3978,-146"/>
</g>
<g id="clust1" class="cluster">
<title>cluster_AppModule</title>
<polygon fill="none" stroke="black" stroke-dasharray="1,5" points="2099,-214 2099,-483 2733,-483 2733,-214 2099,-214"/>
</g>
<g id="clust3" class="cluster">
<title>cluster_AppModule_imports</title>
<polygon fill="none" stroke="black" points="2245,-222 2245,-418 2725,-418 2725,-222 2245,-222"/>
</g>
<g id="clust6" class="cluster">
<title>cluster_AppModule_providers</title>
<polygon fill="none" stroke="black" points="2107,-366 2107,-418 2237,-418 2237,-366 2107,-366"/>
</g>
<g id="clust19" class="cluster">
<title>cluster_PaginationModule</title>
<polygon fill="none" stroke="black" stroke-dasharray="1,5" points="3758,-70 3758,-282 3962,-282 3962,-70 3758,-70"/>
</g>
<g id="clust24" class="cluster">
<title>cluster_PaginationModule_providers</title>
<polygon fill="none" stroke="black" points="3766,-78 3766,-130 3954,-130 3954,-78 3766,-78"/>
</g>
<g id="clust22" class="cluster">
<title>cluster_PaginationModule_exports</title>
<polygon fill="none" stroke="black" points="3767,-222 3767,-274 3911,-274 3911,-222 3767,-222"/>
</g>
<g id="clust49" class="cluster">
<title>cluster_SubscribersModule</title>
<polygon fill="none" stroke="black" stroke-dasharray="1,5" points="164,-138 164,-206 366,-206 366,-138 164,-138"/>
</g>
<g id="clust54" class="cluster">
<title>cluster_SubscribersModule_providers</title>
<polygon fill="none" stroke="black" points="172,-146 172,-198 358,-198 358,-146 172,-146"/>
</g>
<g id="clust55" class="cluster">
<title>cluster_UploadsModule</title>
<polygon fill="none" stroke="black" stroke-dasharray="1,5" points="374,-138 374,-206 902,-206 902,-138 374,-138"/>
</g>
<g id="clust58" class="cluster">
<title>cluster_UploadsModule_exports</title>
<polygon fill="none" stroke="black" points="770,-146 770,-198 894,-198 894,-146 770,-146"/>
</g>
<g id="clust60" class="cluster">
<title>cluster_UploadsModule_providers</title>
<polygon fill="none" stroke="black" points="382,-146 382,-198 762,-198 762,-146 382,-146"/>
</g>
<g id="clust61" class="cluster">
<title>cluster_UsersModule</title>
<polygon fill="none" stroke="black" stroke-dasharray="1,5" points="910,-138 910,-206 2798,-206 2798,-138 910,-138"/>
</g>
<g id="clust64" class="cluster">
<title>cluster_UsersModule_exports</title>
<polygon fill="none" stroke="black" points="2680,-146 2680,-198 2790,-198 2790,-146 2680,-146"/>
</g>
<g id="clust66" class="cluster">
<title>cluster_UsersModule_providers</title>
<polygon fill="none" stroke="black" points="918,-146 918,-198 2672,-198 2672,-146 918,-146"/>
</g>
<g id="clust7" class="cluster">
<title>cluster_AuthModule</title>
<polygon fill="none" stroke="black" stroke-dasharray="1,5" points="2806,-138 2806,-206 3750,-206 3750,-138 2806,-138"/>
</g>
<g id="clust12" class="cluster">
<title>cluster_AuthModule_providers</title>
<polygon fill="none" stroke="black" points="2814,-146 2814,-198 3742,-198 3742,-146 2814,-146"/>
</g>
<g id="clust31" class="cluster">
<title>cluster_ProductsModule</title>
<polygon fill="none" stroke="black" stroke-dasharray="1,5" points="2741,-214 2741,-282 3729,-282 3729,-214 2741,-214"/>
</g>
<g id="clust34" class="cluster">
<title>cluster_ProductsModule_exports</title>
<polygon fill="none" stroke="black" points="3595,-222 3595,-274 3721,-274 3721,-222 3595,-222"/>
</g>
<g id="clust36" class="cluster">
<title>cluster_ProductsModule_providers</title>
<polygon fill="none" stroke="black" points="2749,-222 2749,-274 3587,-274 3587,-222 2749,-222"/>
</g>
<g id="clust43" class="cluster">
<title>cluster_ReviewsModule</title>
<polygon fill="none" stroke="black" stroke-dasharray="1,5" points="4216,-290 4216,-358 4610,-358 4610,-290 4216,-290"/>
</g>
<g id="clust48" class="cluster">
<title>cluster_ReviewsModule_providers</title>
<polygon fill="none" stroke="black" points="4224,-298 4224,-350 4602,-350 4602,-298 4224,-298"/>
</g>
<!-- AuthModule -->
<g id="node1" class="node">
<title>AuthModule</title>
<polygon fill="#8dd3c7" stroke="black" points="2716.55,-266 2713.55,-270 2692.55,-270 2689.55,-266 2629.45,-266 2629.45,-230 2716.55,-230 2716.55,-266"/>
<text text-anchor="middle" x="2673" y="-243.8" font-family="Times,serif" font-size="14.00">AuthModule</text>
</g>
<!-- AppModule -->
<g id="node10" class="node">
<title>AppModule</title>
<polygon fill="#8dd3c7" stroke="black" points="2515.66,-475 2512.66,-479 2491.66,-479 2488.66,-475 2432.34,-475 2432.34,-439 2515.66,-439 2515.66,-475"/>
<text text-anchor="middle" x="2474" y="-452.8" font-family="Times,serif" font-size="14.00">AppModule</text>
</g>
<!-- AuthModule&#45;&gt;AppModule -->
<g id="edge1" class="edge">
<title>AuthModule&#45;&gt;AppModule</title>
<path fill="none" stroke="black" d="M2673,-266.11C2673,-275.9 2673,-286 2673,-286 2673,-286 2507.59,-286 2507.59,-286 2507.59,-286 2507.59,-428.7 2507.59,-428.7"/>
<polygon fill="black" stroke="black" points="2504.09,-428.7 2507.59,-438.7 2511.09,-428.7 2504.09,-428.7"/>
</g>
<!-- MailModule -->
<g id="node2" class="node">
<title>MailModule</title>
<polygon fill="#8dd3c7" stroke="black" points="142.99,-190 139.99,-194 118.99,-194 115.99,-190 57.01,-190 57.01,-154 142.99,-154 142.99,-190"/>
<text text-anchor="middle" x="100" y="-167.8" font-family="Times,serif" font-size="14.00">MailModule</text>
</g>
<!-- SubscribersModule -->
<g id="node7" class="node">
<title>SubscribersModule</title>
<polygon fill="#8dd3c7" stroke="black" points="2377.36,-266 2374.36,-270 2353.36,-270 2350.36,-266 2252.64,-266 2252.64,-230 2377.36,-230 2377.36,-266"/>
<text text-anchor="middle" x="2315" y="-243.8" font-family="Times,serif" font-size="14.00">SubscribersModule</text>
</g>
<!-- MailModule&#45;&gt;SubscribersModule -->
<g id="edge34" class="edge">
<title>MailModule&#45;&gt;SubscribersModule</title>
<path fill="none" stroke="black" d="M143.22,-166C156.47,-166 167.64,-166 167.64,-166 167.64,-166 167.64,-254 167.64,-254 167.64,-254 2242.47,-254 2242.47,-254"/>
<polygon fill="black" stroke="black" points="2242.47,-257.5 2252.47,-254 2242.47,-250.5 2242.47,-257.5"/>
</g>
<!-- MailModule&#45;&gt;AppModule -->
<g id="edge2" class="edge">
<title>MailModule&#45;&gt;AppModule</title>
<path fill="none" stroke="black" d="M143.04,-178C150.18,-178 155.32,-178 155.32,-178 155.32,-178 155.32,-466 155.32,-466 155.32,-466 2422.27,-466 2422.27,-466"/>
<polygon fill="black" stroke="black" points="2422.27,-469.5 2432.27,-466 2422.27,-462.5 2422.27,-469.5"/>
</g>
<!-- MailService  -->
<g id="node17" class="node">
<title>MailService </title>
<polygon fill="#fb8072" stroke="black" points="139.92,-266 52.08,-266 52.08,-230 139.92,-230 139.92,-266"/>
<text text-anchor="middle" x="96" y="-243.8" font-family="Times,serif" font-size="14.00">MailService </text>
</g>
<!-- MailModule&#45;&gt;MailService  -->
<g id="edge16" class="edge">
<title>MailModule&#45;&gt;MailService </title>
<path fill="none" stroke="black" stroke-dasharray="5,2" d="M98.48,-190.01C98.48,-190.01 98.48,-219.85 98.48,-219.85"/>
<polygon fill="black" stroke="black" points="94.98,-219.85 98.48,-229.85 101.98,-219.85 94.98,-219.85"/>
</g>
<!-- ProductImagesModule -->
<g id="node3" class="node">
<title>ProductImagesModule</title>
<polygon fill="#8dd3c7" stroke="black" points="2065.52,-410 2062.52,-414 2041.52,-414 2038.52,-410 1922.48,-410 1922.48,-374 2065.52,-374 2065.52,-410"/>
<text text-anchor="middle" x="1994" y="-387.8" font-family="Times,serif" font-size="14.00">ProductImagesModule</text>
</g>
<!-- ProductImagesModule&#45;&gt;AppModule -->
<g id="edge3" class="edge">
<title>ProductImagesModule&#45;&gt;AppModule</title>
<path fill="none" stroke="black" d="M1994,-410.11C1994,-429.34 1994,-457 1994,-457 1994,-457 2422.24,-457 2422.24,-457"/>
<polygon fill="black" stroke="black" points="2422.24,-460.5 2432.24,-457 2422.24,-453.5 2422.24,-460.5"/>
</g>
<!-- ProductVariantsModule -->
<g id="node4" class="node">
<title>ProductVariantsModule</title>
<polygon fill="#8dd3c7" stroke="black" points="4164.02,-266 4161.02,-270 4140.02,-270 4137.02,-266 4013.98,-266 4013.98,-230 4164.02,-230 4164.02,-266"/>
<text text-anchor="middle" x="4089" y="-243.8" font-family="Times,serif" font-size="14.00">ProductVariantsModule</text>
</g>
<!-- ProductsModule -->
<g id="node5" class="node">
<title>ProductsModule</title>
<polygon fill="#8dd3c7" stroke="black" points="2717.04,-342 2714.04,-346 2693.04,-346 2690.04,-342 2608.96,-342 2608.96,-306 2717.04,-306 2717.04,-342"/>
<text text-anchor="middle" x="2663" y="-319.8" font-family="Times,serif" font-size="14.00">ProductsModule</text>
</g>
<!-- ProductVariantsModule&#45;&gt;ProductsModule -->
<g id="edge22" class="edge">
<title>ProductVariantsModule&#45;&gt;ProductsModule</title>
<path fill="none" stroke="black" d="M4013.65,-242C4002.73,-242 3995.1,-242 3995.1,-242 3995.1,-242 3995.1,-338 3995.1,-338 3995.1,-338 2727.29,-338 2727.29,-338"/>
<polygon fill="black" stroke="black" points="2727.29,-334.5 2717.29,-338 2727.29,-341.5 2727.29,-334.5"/>
</g>
<!-- ProductVariantsModule&#45;&gt;AppModule -->
<g id="edge4" class="edge">
<title>ProductVariantsModule&#45;&gt;AppModule</title>
<path fill="none" stroke="black" d="M4013.69,-254C4007.72,-254 4003.94,-254 4003.94,-254 4003.94,-254 4003.94,-457 4003.94,-457 4003.94,-457 2525.72,-457 2525.72,-457"/>
<polygon fill="black" stroke="black" points="2525.72,-453.5 2515.72,-457 2525.72,-460.5 2525.72,-453.5"/>
</g>
<!-- ProductVariantsService  -->
<g id="node28" class="node">
<title>ProductVariantsService </title>
<polygon fill="#fb8072" stroke="black" points="4165.45,-342 4012.55,-342 4012.55,-306 4165.45,-306 4165.45,-342"/>
<text text-anchor="middle" x="4089" y="-319.8" font-family="Times,serif" font-size="14.00">ProductVariantsService </text>
</g>
<!-- ProductVariantsModule&#45;&gt;ProductVariantsService  -->
<g id="edge29" class="edge">
<title>ProductVariantsModule&#45;&gt;ProductVariantsService </title>
<path fill="none" stroke="black" stroke-dasharray="5,2" d="M4089,-266.01C4089,-266.01 4089,-295.85 4089,-295.85"/>
<polygon fill="black" stroke="black" points="4085.5,-295.85 4089,-305.85 4092.5,-295.85 4085.5,-295.85"/>
</g>
<!-- ReviewsModule -->
<g id="node6" class="node">
<title>ReviewsModule</title>
<polygon fill="#8dd3c7" stroke="black" points="2716.76,-410 2713.76,-414 2692.76,-414 2689.76,-410 2609.24,-410 2609.24,-374 2716.76,-374 2716.76,-410"/>
<text text-anchor="middle" x="2663" y="-387.8" font-family="Times,serif" font-size="14.00">ReviewsModule</text>
</g>
<!-- ProductsModule&#45;&gt;ReviewsModule -->
<g id="edge31" class="edge">
<title>ProductsModule&#45;&gt;ReviewsModule</title>
<path fill="none" stroke="black" d="M2663,-342.22C2663,-342.22 2663,-363.73 2663,-363.73"/>
<polygon fill="black" stroke="black" points="2659.5,-363.73 2663,-373.73 2666.5,-363.73 2659.5,-363.73"/>
</g>
<!-- ProductsModule&#45;&gt;AppModule -->
<g id="edge5" class="edge">
<title>ProductsModule&#45;&gt;AppModule</title>
<path fill="none" stroke="black" d="M2608.75,-330C2564.87,-330 2510.34,-330 2510.34,-330 2510.34,-330 2510.34,-428.8 2510.34,-428.8"/>
<polygon fill="black" stroke="black" points="2506.84,-428.8 2510.34,-438.8 2513.84,-428.8 2506.84,-428.8"/>
</g>
<!-- ProductsService  -->
<g id="node23" class="node">
<title>ProductsService </title>
<polygon fill="#fb8072" stroke="black" points="3713.47,-266 3602.53,-266 3602.53,-230 3713.47,-230 3713.47,-266"/>
<text text-anchor="middle" x="3658" y="-243.8" font-family="Times,serif" font-size="14.00">ProductsService </text>
</g>
<!-- ProductsModule&#45;&gt;ProductsService  -->
<g id="edge24" class="edge">
<title>ProductsModule&#45;&gt;ProductsService </title>
<path fill="none" stroke="black" stroke-dasharray="5,2" d="M2717.2,-329C2924.84,-329 3658,-329 3658,-329 3658,-329 3658,-276.38 3658,-276.38"/>
<polygon fill="black" stroke="black" points="3661.5,-276.38 3658,-266.38 3654.5,-276.38 3661.5,-276.38"/>
</g>
<!-- ReviewsModule&#45;&gt;AppModule -->
<g id="edge6" class="edge">
<title>ReviewsModule&#45;&gt;AppModule</title>
<path fill="none" stroke="black" d="M2608.88,-398C2565.93,-398 2513.08,-398 2513.08,-398 2513.08,-398 2513.08,-428.98 2513.08,-428.98"/>
<polygon fill="black" stroke="black" points="2509.58,-428.98 2513.08,-438.98 2516.58,-428.98 2509.58,-428.98"/>
</g>
<!-- SubscribersModule&#45;&gt;AppModule -->
<g id="edge7" class="edge">
<title>SubscribersModule&#45;&gt;AppModule</title>
<path fill="none" stroke="black" d="M2315,-266.1C2315,-315.33 2315,-448 2315,-448 2315,-448 2422.22,-448 2422.22,-448"/>
<polygon fill="black" stroke="black" points="2422.22,-451.5 2432.22,-448 2422.22,-444.5 2422.22,-451.5"/>
</g>
<!-- UploadsModule -->
<g id="node8" class="node">
<title>UploadsModule</title>
<polygon fill="#8dd3c7" stroke="black" points="2502.21,-266 2499.21,-270 2478.21,-270 2475.21,-266 2395.79,-266 2395.79,-230 2502.21,-230 2502.21,-266"/>
<text text-anchor="middle" x="2449" y="-243.8" font-family="Times,serif" font-size="14.00">UploadsModule</text>
</g>
<!-- UploadsModule&#45;&gt;ProductsModule -->
<g id="edge23" class="edge">
<title>UploadsModule&#45;&gt;ProductsModule</title>
<path fill="none" stroke="black" d="M2484.62,-266.03C2484.62,-286.77 2484.62,-318 2484.62,-318 2484.62,-318 2598.51,-318 2598.51,-318"/>
<polygon fill="black" stroke="black" points="2598.51,-321.5 2608.51,-318 2598.51,-314.5 2598.51,-321.5"/>
</g>
<!-- UploadsModule&#45;&gt;AppModule -->
<g id="edge8" class="edge">
<title>UploadsModule&#45;&gt;AppModule</title>
<path fill="none" stroke="black" d="M2467.14,-266.18C2467.14,-266.18 2467.14,-428.71 2467.14,-428.71"/>
<polygon fill="black" stroke="black" points="2463.64,-428.71 2467.14,-438.71 2470.64,-428.71 2463.64,-428.71"/>
</g>
<!-- UploadsService  -->
<g id="node33" class="node">
<title>UploadsService </title>
<polygon fill="#fb8072" stroke="black" points="886.13,-190 777.87,-190 777.87,-154 886.13,-154 886.13,-190"/>
<text text-anchor="middle" x="832" y="-167.8" font-family="Times,serif" font-size="14.00">UploadsService </text>
</g>
<!-- UploadsModule&#45;&gt;UploadsService  -->
<g id="edge36" class="edge">
<title>UploadsModule&#45;&gt;UploadsService </title>
<path fill="none" stroke="black" stroke-dasharray="5,2" d="M2429.35,-229.9C2429.35,-218.91 2429.35,-207 2429.35,-207 2429.35,-207 832,-207 832,-207 832,-207 832,-200.32 832,-200.32"/>
<polygon fill="black" stroke="black" points="835.5,-200.32 832,-190.32 828.5,-200.32 835.5,-200.32"/>
</g>
<!-- UsersModule -->
<g id="node9" class="node">
<title>UsersModule</title>
<polygon fill="#8dd3c7" stroke="black" points="2611.92,-266 2608.92,-270 2587.92,-270 2584.92,-266 2520.08,-266 2520.08,-230 2611.92,-230 2611.92,-266"/>
<text text-anchor="middle" x="2566" y="-243.8" font-family="Times,serif" font-size="14.00">UsersModule</text>
</g>
<!-- UsersModule&#45;&gt;AppModule -->
<g id="edge9" class="edge">
<title>UsersModule&#45;&gt;AppModule</title>
<path fill="none" stroke="black" d="M2520.28,-248C2511.43,-248 2504.85,-248 2504.85,-248 2504.85,-248 2504.85,-428.82 2504.85,-428.82"/>
<polygon fill="black" stroke="black" points="2501.35,-428.82 2504.85,-438.82 2508.35,-428.82 2501.35,-428.82"/>
</g>
<!-- UsersService  -->
<g id="node36" class="node">
<title>UsersService </title>
<polygon fill="#fb8072" stroke="black" points="2781.85,-190 2688.15,-190 2688.15,-154 2781.85,-154 2781.85,-190"/>
<text text-anchor="middle" x="2735" y="-167.8" font-family="Times,serif" font-size="14.00">UsersService </text>
</g>
<!-- UsersModule&#45;&gt;UsersService  -->
<g id="edge40" class="edge">
<title>UsersModule&#45;&gt;UsersService </title>
<path fill="none" stroke="black" stroke-dasharray="5,2" d="M2602.57,-229.81C2602.57,-221.72 2602.57,-214 2602.57,-214 2602.57,-214 2692.39,-214 2692.39,-214 2692.39,-214 2692.39,-200.06 2692.39,-200.06"/>
<polygon fill="black" stroke="black" points="2695.89,-200.06 2692.39,-190.06 2688.89,-200.06 2695.89,-200.06"/>
</g>
<!-- AppService -->
<g id="node11" class="node">
<title>AppService</title>
<ellipse fill="#fdb462" stroke="black" cx="2172" cy="-392" rx="56.74" ry="18"/>
<text text-anchor="middle" x="2172" y="-387.8" font-family="Times,serif" font-size="14.00">AppService</text>
</g>
<!-- AppService&#45;&gt;AppModule -->
<g id="edge10" class="edge">
<title>AppService&#45;&gt;AppModule</title>
<path fill="none" stroke="black" d="M2225.53,-386C2306.22,-386 2449.65,-386 2449.65,-386 2449.65,-386 2449.65,-428.72 2449.65,-428.72"/>
<polygon fill="black" stroke="black" points="2446.15,-428.72 2449.65,-438.72 2453.15,-428.72 2446.15,-428.72"/>
</g>
<!-- AuthService -->
<g id="node12" class="node">
<title>AuthService</title>
<ellipse fill="#fdb462" stroke="black" cx="3675" cy="-172" rx="59.11" ry="18"/>
<text text-anchor="middle" x="3675" y="-167.8" font-family="Times,serif" font-size="14.00">AuthService</text>
</g>
<!-- AuthService&#45;&gt;AuthModule -->
<g id="edge11" class="edge">
<title>AuthService&#45;&gt;AuthModule</title>
<path fill="none" stroke="black" d="M3664.47,-189.72C3664.47,-206.12 3664.47,-228 3664.47,-228 3664.47,-228 2712.71,-228 2712.71,-228 2712.71,-228 2712.71,-228.18 2712.71,-228.18"/>
<polygon fill="black" stroke="black" points="2709.21,-219.85 2712.71,-229.85 2716.21,-219.85 2709.21,-219.85"/>
</g>
<!-- GenerateTokensProvider -->
<g id="node13" class="node">
<title>GenerateTokensProvider</title>
<ellipse fill="#fdb462" stroke="black" cx="3490" cy="-172" rx="107.63" ry="18"/>
<text text-anchor="middle" x="3490" y="-167.8" font-family="Times,serif" font-size="14.00">GenerateTokensProvider</text>
</g>
<!-- GenerateTokensProvider&#45;&gt;AuthModule -->
<g id="edge12" class="edge">
<title>GenerateTokensProvider&#45;&gt;AuthModule</title>
<path fill="none" stroke="black" d="M3480.48,-189.98C3480.48,-205.69 3480.48,-226 3480.48,-226 3480.48,-226 2708.65,-226 2708.65,-226 2708.65,-226 2708.65,-226.38 2708.65,-226.38"/>
<polygon fill="black" stroke="black" points="2705.15,-219.83 2708.65,-229.83 2712.15,-219.83 2705.15,-219.83"/>
</g>
<!-- OtpSigninProvider -->
<g id="node14" class="node">
<title>OtpSigninProvider</title>
<ellipse fill="#fdb462" stroke="black" cx="3280" cy="-172" rx="83.99" ry="18"/>
<text text-anchor="middle" x="3280" y="-167.8" font-family="Times,serif" font-size="14.00">OtpSigninProvider</text>
</g>
<!-- OtpSigninProvider&#45;&gt;AuthModule -->
<g id="edge13" class="edge">
<title>OtpSigninProvider&#45;&gt;AuthModule</title>
<path fill="none" stroke="black" d="M3278.57,-190.12C3278.57,-204.78 3278.57,-223 3278.57,-223 3278.57,-223 2704.58,-223 2704.58,-223 2704.58,-223 2704.58,-223.68 2704.58,-223.68"/>
<polygon fill="black" stroke="black" points="2701.08,-219.83 2704.58,-229.83 2708.08,-219.83 2701.08,-219.83"/>
</g>
<!-- RefreshTokenProvider -->
<g id="node15" class="node">
<title>RefreshTokenProvider</title>
<ellipse fill="#fdb462" stroke="black" cx="3079" cy="-172" rx="98.98" ry="18"/>
<text text-anchor="middle" x="3079" y="-167.8" font-family="Times,serif" font-size="14.00">RefreshTokenProvider</text>
</g>
<!-- RefreshTokenProvider&#45;&gt;AuthModule -->
<g id="edge14" class="edge">
<title>RefreshTokenProvider&#45;&gt;AuthModule</title>
<path fill="none" stroke="black" d="M3053.4,-189.41C3053.4,-203.5 3053.4,-221 3053.4,-221 3053.4,-221 2700.52,-221 2700.52,-221 2700.52,-221 2700.52,-221.88 2700.52,-221.88"/>
<polygon fill="black" stroke="black" points="2697.02,-219.84 2700.52,-229.84 2704.02,-219.84 2697.02,-219.84"/>
</g>
<!-- SignInProvider -->
<g id="node16" class="node">
<title>SignInProvider</title>
<ellipse fill="#fdb462" stroke="black" cx="2892" cy="-172" rx="70.08" ry="18"/>
<text text-anchor="middle" x="2892" y="-167.8" font-family="Times,serif" font-size="14.00">SignInProvider</text>
</g>
<!-- SignInProvider&#45;&gt;AuthModule -->
<g id="edge15" class="edge">
<title>SignInProvider&#45;&gt;AuthModule</title>
<path fill="none" stroke="black" d="M2891.59,-190.04C2891.59,-203.29 2891.59,-219 2891.59,-219 2891.59,-219 2696.45,-219 2696.45,-219 2696.45,-219 2696.45,-220.08 2696.45,-220.08"/>
<polygon fill="black" stroke="black" points="2692.95,-219.8 2696.45,-229.8 2699.95,-219.8 2692.95,-219.8"/>
</g>
<!-- MailService -->
<g id="node18" class="node">
<title>MailService</title>
<ellipse fill="#fdb462" stroke="black" cx="82" cy="-104" rx="58.46" ry="18"/>
<text text-anchor="middle" x="82" y="-99.8" font-family="Times,serif" font-size="14.00">MailService</text>
</g>
<!-- MailService&#45;&gt;MailModule -->
<g id="edge17" class="edge">
<title>MailService&#45;&gt;MailModule</title>
<path fill="none" stroke="black" d="M98.62,-121.51C98.62,-121.51 98.62,-143.84 98.62,-143.84"/>
<polygon fill="black" stroke="black" points="95.12,-143.84 98.62,-153.84 102.12,-143.84 95.12,-143.84"/>
</g>
<!-- PaginationProvider  -->
<g id="node19" class="node">
<title>PaginationProvider </title>
<polygon fill="#fb8072" stroke="black" points="3902.59,-266 3775.41,-266 3775.41,-230 3902.59,-230 3902.59,-266"/>
<text text-anchor="middle" x="3839" y="-243.8" font-family="Times,serif" font-size="14.00">PaginationProvider </text>
</g>
<!-- PaginationModule -->
<g id="node20" class="node">
<title>PaginationModule</title>
<polygon fill="#8dd3c7" stroke="black" points="3892.93,-190 3889.93,-194 3868.93,-194 3865.93,-190 3773.07,-190 3773.07,-154 3892.93,-154 3892.93,-190"/>
<text text-anchor="middle" x="3833" y="-167.8" font-family="Times,serif" font-size="14.00">PaginationModule</text>
</g>
<!-- PaginationModule&#45;&gt;ProductsModule -->
<g id="edge21" class="edge">
<title>PaginationModule&#45;&gt;ProductsModule</title>
<path fill="none" stroke="black" d="M3772.97,-172C3761.92,-172 3753.79,-172 3753.79,-172 3753.79,-172 3753.79,-333 3753.79,-333 3753.79,-333 2727.09,-333 2727.09,-333"/>
<polygon fill="black" stroke="black" points="2727.09,-329.5 2717.09,-333 2727.09,-336.5 2727.09,-329.5"/>
</g>
<!-- PaginationModule&#45;&gt;UsersModule -->
<g id="edge39" class="edge">
<title>PaginationModule&#45;&gt;UsersModule</title>
<path fill="none" stroke="black" d="M3814.37,-190.15C3814.37,-202.27 3814.37,-216 3814.37,-216 3814.37,-216 2593.43,-216 2593.43,-216 2593.43,-216 2593.43,-219.76 2593.43,-219.76"/>
<polygon fill="black" stroke="black" points="2589.93,-219.76 2593.43,-229.76 2596.93,-219.76 2589.93,-219.76"/>
</g>
<!-- PaginationModule&#45;&gt;PaginationProvider  -->
<g id="edge18" class="edge">
<title>PaginationModule&#45;&gt;PaginationProvider </title>
<path fill="none" stroke="black" stroke-dasharray="5,2" d="M3853.55,-190.01C3853.55,-190.01 3853.55,-219.85 3853.55,-219.85"/>
<polygon fill="black" stroke="black" points="3850.05,-219.85 3853.55,-229.85 3857.05,-219.85 3850.05,-219.85"/>
</g>
<!-- PaginationProvider -->
<g id="node21" class="node">
<title>PaginationProvider</title>
<ellipse fill="#fdb462" stroke="black" cx="3860" cy="-104" rx="85.69" ry="18"/>
<text text-anchor="middle" x="3860" y="-99.8" font-family="Times,serif" font-size="14.00">PaginationProvider</text>
</g>
<!-- PaginationProvider&#45;&gt;PaginationModule -->
<g id="edge19" class="edge">
<title>PaginationProvider&#45;&gt;PaginationModule</title>
<path fill="none" stroke="black" d="M3833.56,-121.16C3833.56,-121.16 3833.56,-143.65 3833.56,-143.65"/>
<polygon fill="black" stroke="black" points="3830.06,-143.65 3833.56,-153.65 3837.06,-143.65 3830.06,-143.65"/>
</g>
<!-- ProductImagesService -->
<g id="node22" class="node">
<title>ProductImagesService</title>
<ellipse fill="#fdb462" stroke="black" cx="1977" cy="-324" rx="97.83" ry="18"/>
<text text-anchor="middle" x="1977" y="-319.8" font-family="Times,serif" font-size="14.00">ProductImagesService</text>
</g>
<!-- ProductImagesService&#45;&gt;ProductImagesModule -->
<g id="edge20" class="edge">
<title>ProductImagesService&#45;&gt;ProductImagesModule</title>
<path fill="none" stroke="black" d="M1994,-341.87C1994,-341.87 1994,-363.54 1994,-363.54"/>
<polygon fill="black" stroke="black" points="1990.5,-363.54 1994,-373.54 1997.5,-363.54 1990.5,-363.54"/>
</g>
<!-- CreateProductProvider -->
<g id="node24" class="node">
<title>CreateProductProvider</title>
<ellipse fill="#fdb462" stroke="black" cx="3479" cy="-248" rx="99.56" ry="18"/>
<text text-anchor="middle" x="3479" y="-243.8" font-family="Times,serif" font-size="14.00">CreateProductProvider</text>
</g>
<!-- CreateProductProvider&#45;&gt;ProductsModule -->
<g id="edge25" class="edge">
<title>CreateProductProvider&#45;&gt;ProductsModule</title>
<path fill="none" stroke="black" d="M3479,-266.01C3479,-288.49 3479,-324 3479,-324 3479,-324 2727.17,-324 2727.17,-324"/>
<polygon fill="black" stroke="black" points="2727.17,-320.5 2717.17,-324 2727.17,-327.5 2727.17,-320.5"/>
</g>
<!-- FindAllProductsProvider -->
<g id="node25" class="node">
<title>FindAllProductsProvider</title>
<ellipse fill="#fdb462" stroke="black" cx="3253" cy="-248" rx="108.26" ry="18"/>
<text text-anchor="middle" x="3253" y="-243.8" font-family="Times,serif" font-size="14.00">FindAllProductsProvider</text>
</g>
<!-- FindAllProductsProvider&#45;&gt;ProductsModule -->
<g id="edge26" class="edge">
<title>FindAllProductsProvider&#45;&gt;ProductsModule</title>
<path fill="none" stroke="black" d="M3253,-266.17C3253,-287.5 3253,-320 3253,-320 3253,-320 2727.19,-320 2727.19,-320"/>
<polygon fill="black" stroke="black" points="2727.19,-316.5 2717.19,-320 2727.19,-323.5 2727.19,-316.5"/>
</g>
<!-- ProductsService -->
<g id="node26" class="node">
<title>ProductsService</title>
<ellipse fill="#fdb462" stroke="black" cx="3053" cy="-248" rx="73.57" ry="18"/>
<text text-anchor="middle" x="3053" y="-243.8" font-family="Times,serif" font-size="14.00">ProductsService</text>
</g>
<!-- ProductsService&#45;&gt;ProductsModule -->
<g id="edge27" class="edge">
<title>ProductsService&#45;&gt;ProductsModule</title>
<path fill="none" stroke="black" d="M3053,-266.31C3053,-286.15 3053,-315 3053,-315 3053,-315 2727.23,-315 2727.23,-315"/>
<polygon fill="black" stroke="black" points="2727.23,-311.5 2717.23,-315 2727.23,-318.5 2727.23,-311.5"/>
</g>
<!-- UpdateProductProvider -->
<g id="node27" class="node">
<title>UpdateProductProvider</title>
<ellipse fill="#fdb462" stroke="black" cx="2859" cy="-248" rx="102.43" ry="18"/>
<text text-anchor="middle" x="2859" y="-243.8" font-family="Times,serif" font-size="14.00">UpdateProductProvider</text>
</g>
<!-- UpdateProductProvider&#45;&gt;ProductsModule -->
<g id="edge28" class="edge">
<title>UpdateProductProvider&#45;&gt;ProductsModule</title>
<path fill="none" stroke="black" d="M2859,-266.22C2859,-284.83 2859,-311 2859,-311 2859,-311 2727.08,-311 2727.08,-311"/>
<polygon fill="black" stroke="black" points="2727.08,-307.5 2717.08,-311 2727.08,-314.5 2727.08,-307.5"/>
</g>
<!-- ProductVariantsService -->
<g id="node29" class="node">
<title>ProductVariantsService</title>
<ellipse fill="#fdb462" stroke="black" cx="4089" cy="-172" rx="102.98" ry="18"/>
<text text-anchor="middle" x="4089" y="-167.8" font-family="Times,serif" font-size="14.00">ProductVariantsService</text>
</g>
<!-- ProductVariantsService&#45;&gt;ProductVariantsModule -->
<g id="edge30" class="edge">
<title>ProductVariantsService&#45;&gt;ProductVariantsModule</title>
<path fill="none" stroke="black" d="M4089,-190.01C4089,-190.01 4089,-219.85 4089,-219.85"/>
<polygon fill="black" stroke="black" points="4085.5,-219.85 4089,-229.85 4092.5,-219.85 4085.5,-219.85"/>
</g>
<!-- CreateReviewProvider -->
<g id="node30" class="node">
<title>CreateReviewProvider</title>
<ellipse fill="#fdb462" stroke="black" cx="4495" cy="-324" rx="98.97" ry="18"/>
<text text-anchor="middle" x="4495" y="-319.8" font-family="Times,serif" font-size="14.00">CreateReviewProvider</text>
</g>
<!-- CreateReviewProvider&#45;&gt;ReviewsModule -->
<g id="edge32" class="edge">
<title>CreateReviewProvider&#45;&gt;ReviewsModule</title>
<path fill="none" stroke="black" d="M4495,-342.29C4495,-364.21 4495,-398 4495,-398 4495,-398 2726.84,-398 2726.84,-398"/>
<polygon fill="black" stroke="black" points="2726.84,-394.5 2716.84,-398 2726.84,-401.5 2726.84,-394.5"/>
</g>
<!-- ReviewsService -->
<g id="node31" class="node">
<title>ReviewsService</title>
<ellipse fill="#fdb462" stroke="black" cx="4305" cy="-324" rx="73.49" ry="18"/>
<text text-anchor="middle" x="4305" y="-319.8" font-family="Times,serif" font-size="14.00">ReviewsService</text>
</g>
<!-- ReviewsService&#45;&gt;ReviewsModule -->
<g id="edge33" class="edge">
<title>ReviewsService&#45;&gt;ReviewsModule</title>
<path fill="none" stroke="black" d="M4305,-342.27C4305,-360.56 4305,-386 4305,-386 4305,-386 2727.16,-386 2727.16,-386"/>
<polygon fill="black" stroke="black" points="2727.16,-382.5 2717.16,-386 2727.16,-389.5 2727.16,-382.5"/>
</g>
<!-- SubscribersService -->
<g id="node32" class="node">
<title>SubscribersService</title>
<ellipse fill="#fdb462" stroke="black" cx="265" cy="-172" rx="85.09" ry="18"/>
<text text-anchor="middle" x="265" y="-167.8" font-family="Times,serif" font-size="14.00">SubscribersService</text>
</g>
<!-- SubscribersService&#45;&gt;SubscribersModule -->
<g id="edge35" class="edge">
<title>SubscribersService&#45;&gt;SubscribersModule</title>
<path fill="none" stroke="black" d="M265,-190.03C265,-210.77 265,-242 265,-242 265,-242 2242.53,-242 2242.53,-242"/>
<polygon fill="black" stroke="black" points="2242.53,-245.5 2252.53,-242 2242.53,-238.5 2242.53,-245.5"/>
</g>
<!-- UploadToAwsProvider -->
<g id="node34" class="node">
<title>UploadToAwsProvider</title>
<ellipse fill="#fdb462" stroke="black" cx="653" cy="-172" rx="101.29" ry="18"/>
<text text-anchor="middle" x="653" y="-167.8" font-family="Times,serif" font-size="14.00">UploadToAwsProvider</text>
</g>
<!-- UploadToAwsProvider&#45;&gt;UploadsModule -->
<g id="edge37" class="edge">
<title>UploadToAwsProvider&#45;&gt;UploadsModule</title>
<path fill="none" stroke="black" d="M653,-190.07C653,-199.46 653,-209 653,-209 653,-209 2418.2,-209 2418.2,-209 2418.2,-209 2418.2,-219.87 2418.2,-219.87"/>
<polygon fill="black" stroke="black" points="2414.7,-219.87 2418.2,-229.87 2421.7,-219.87 2414.7,-219.87"/>
</g>
<!-- UploadsService -->
<g id="node35" class="node">
<title>UploadsService</title>
<ellipse fill="#fdb462" stroke="black" cx="462" cy="-172" rx="72.35" ry="18"/>
<text text-anchor="middle" x="462" y="-167.8" font-family="Times,serif" font-size="14.00">UploadsService</text>
</g>
<!-- UploadsService&#45;&gt;UploadsModule -->
<g id="edge38" class="edge">
<title>UploadsService&#45;&gt;UploadsModule</title>
<path fill="none" stroke="black" d="M462,-190.13C462,-200.71 462,-212 462,-212 462,-212 2407.05,-212 2407.05,-212 2407.05,-212 2407.05,-219.58 2407.05,-219.58"/>
<polygon fill="black" stroke="black" points="2403.55,-219.58 2407.05,-229.58 2410.55,-219.58 2403.55,-219.58"/>
</g>
<!-- ClearOtpAndExpiryTimeProvider -->
<g id="node37" class="node">
<title>ClearOtpAndExpiryTimeProvider</title>
<ellipse fill="#fdb462" stroke="black" cx="1269" cy="-172" rx="142.96" ry="18"/>
<text text-anchor="middle" x="1269" y="-167.8" font-family="Times,serif" font-size="14.00">ClearOtpAndExpiryTimeProvider</text>
</g>
<!-- ClearOtpAndExpiryTimeProvider&#45;&gt;UsersModule -->
<g id="edge41" class="edge">
<title>ClearOtpAndExpiryTimeProvider&#45;&gt;UsersModule</title>
<path fill="none" stroke="black" d="M1269,-190.14C1269,-196.46 1269,-202 1269,-202 1269,-202 2538.57,-202 2538.57,-202 2538.57,-202 2538.57,-219.82 2538.57,-219.82"/>
<polygon fill="black" stroke="black" points="2535.07,-219.82 2538.57,-229.82 2542.07,-219.82 2535.07,-219.82"/>
</g>
<!-- CreateUsersProvider -->
<g id="node38" class="node">
<title>CreateUsersProvider</title>
<ellipse fill="#fdb462" stroke="black" cx="1017" cy="-172" rx="91.45" ry="18"/>
<text text-anchor="middle" x="1017" y="-167.8" font-family="Times,serif" font-size="14.00">CreateUsersProvider</text>
</g>
<!-- CreateUsersProvider&#45;&gt;UsersModule -->
<g id="edge42" class="edge">
<title>CreateUsersProvider&#45;&gt;UsersModule</title>
<path fill="none" stroke="black" d="M1017,-190.04C1017,-197.75 1017,-205 1017,-205 1017,-205 2529.43,-205 2529.43,-205 2529.43,-205 2529.43,-219.51 2529.43,-219.51"/>
<polygon fill="black" stroke="black" points="2525.93,-219.51 2529.43,-229.51 2532.93,-219.51 2525.93,-219.51"/>
</g>
<!-- FindOneByIdProvider -->
<g id="node39" class="node">
<title>FindOneByIdProvider</title>
<ellipse fill="#fdb462" stroke="black" cx="2567" cy="-172" rx="97.3" ry="18"/>
<text text-anchor="middle" x="2567" y="-167.8" font-family="Times,serif" font-size="14.00">FindOneByIdProvider</text>
</g>
<!-- FindOneByIdProvider&#45;&gt;UsersModule -->
<g id="edge43" class="edge">
<title>FindOneByIdProvider&#45;&gt;UsersModule</title>
<path fill="none" stroke="black" d="M2584.28,-190.01C2584.28,-190.01 2584.28,-219.85 2584.28,-219.85"/>
<polygon fill="black" stroke="black" points="2580.78,-219.85 2584.28,-229.85 2587.78,-219.85 2580.78,-219.85"/>
</g>
<!-- FindOneUserByEmailProvider -->
<g id="node40" class="node">
<title>FindOneUserByEmailProvider</title>
<ellipse fill="#fdb462" stroke="black" cx="2321" cy="-172" rx="130.8" ry="18"/>
<text text-anchor="middle" x="2321" y="-167.8" font-family="Times,serif" font-size="14.00">FindOneUserByEmailProvider</text>
</g>
<!-- FindOneUserByEmailProvider&#45;&gt;UsersModule -->
<g id="edge44" class="edge">
<title>FindOneUserByEmailProvider&#45;&gt;UsersModule</title>
<path fill="none" stroke="black" d="M2440.5,-179.58C2440.5,-185.6 2440.5,-193 2440.5,-193 2440.5,-193 2575.14,-193 2575.14,-193 2575.14,-193 2575.14,-219.99 2575.14,-219.99"/>
<polygon fill="black" stroke="black" points="2571.64,-219.99 2575.14,-229.99 2578.64,-219.99 2571.64,-219.99"/>
</g>
<!-- FindUserByOtpAndExpiryTimeProvider -->
<g id="node41" class="node">
<title>FindUserByOtpAndExpiryTimeProvider</title>
<ellipse fill="#fdb462" stroke="black" cx="2003" cy="-172" rx="169.05" ry="18"/>
<text text-anchor="middle" x="2003" y="-167.8" font-family="Times,serif" font-size="14.00">FindUserByOtpAndExpiryTimeProvider</text>
</g>
<!-- FindUserByOtpAndExpiryTimeProvider&#45;&gt;UsersModule -->
<g id="edge45" class="edge">
<title>FindUserByOtpAndExpiryTimeProvider&#45;&gt;UsersModule</title>
<path fill="none" stroke="black" d="M2143.83,-182.16C2143.83,-188.32 2143.83,-195 2143.83,-195 2143.83,-195 2566,-195 2566,-195 2566,-195 2566,-219.76 2566,-219.76"/>
<polygon fill="black" stroke="black" points="2562.5,-219.76 2566,-229.76 2569.5,-219.76 2562.5,-219.76"/>
</g>
<!-- StoreOtpAndExpireProvider -->
<g id="node42" class="node">
<title>StoreOtpAndExpireProvider</title>
<ellipse fill="#fdb462" stroke="black" cx="1694" cy="-172" rx="121.55" ry="18"/>
<text text-anchor="middle" x="1694" y="-167.8" font-family="Times,serif" font-size="14.00">StoreOtpAndExpireProvider</text>
</g>
<!-- StoreOtpAndExpireProvider&#45;&gt;UsersModule -->
<g id="edge46" class="edge">
<title>StoreOtpAndExpireProvider&#45;&gt;UsersModule</title>
<path fill="none" stroke="black" d="M1694,-190.06C1694,-194.49 1694,-198 1694,-198 1694,-198 2556.86,-198 2556.86,-198 2556.86,-198 2556.86,-219.95 2556.86,-219.95"/>
<polygon fill="black" stroke="black" points="2553.36,-219.95 2556.86,-229.95 2560.36,-219.95 2553.36,-219.95"/>
</g>
<!-- UsersService -->
<g id="node43" class="node">
<title>UsersService</title>
<ellipse fill="#fdb462" stroke="black" cx="1492" cy="-172" rx="61.95" ry="18"/>
<text text-anchor="middle" x="1492" y="-167.8" font-family="Times,serif" font-size="14.00">UsersService</text>
</g>
<!-- UsersService&#45;&gt;UsersModule -->
<g id="edge47" class="edge">
<title>UsersService&#45;&gt;UsersModule</title>
<path fill="none" stroke="black" d="M1492,-190.21C1492,-195.55 1492,-200 1492,-200 1492,-200 2547.72,-200 2547.72,-200 2547.72,-200 2547.72,-219.85 2547.72,-219.85"/>
<polygon fill="black" stroke="black" points="2544.22,-219.85 2547.72,-229.85 2551.22,-219.85 2544.22,-219.85"/>
</g>
</g>
</svg>
