<?xml version="1.0" encoding="UTF-8" standalone="no"?>
<!DOCTYPE svg PUBLIC "-//W3C//DTD SVG 1.1//EN"
 "http://www.w3.org/Graphics/SVG/1.1/DTD/svg11.dtd">
<!-- Generated by graphviz version 2.47.0 (20210316.0004)
 -->
<!-- Title: dependencies Pages: 1 -->
<svg width="5749pt" height="431pt"
 viewBox="0.00 0.00 5749.00 431.00" xmlns="http://www.w3.org/2000/svg" xmlns:xlink="http://www.w3.org/1999/xlink">
<g id="graph0" class="graph" transform="scale(1 1) rotate(0) translate(4 427)">
<title>dependencies</title>
<polygon fill="white" stroke="transparent" points="-4,4 -4,-427 5745,-427 5745,4 -4,4"/>
<text text-anchor="start" x="2849.51" y="-42.4" font-family="Times-12" font-weight="bold" font-size="14.00">Legend</text>
<polygon fill="#ffffb3" stroke="transparent" points="2636.5,-10 2636.5,-30 2656.5,-30 2656.5,-10 2636.5,-10"/>
<text text-anchor="start" x="2660.13" y="-15.4" font-family="Times-12" font-size="14.00"> &#160;Declarations</text>
<polygon fill="#8dd3c7" stroke="transparent" points="2749.5,-10 2749.5,-30 2769.5,-30 2769.5,-10 2749.5,-10"/>
<text text-anchor="start" x="2773.23" y="-15.4" font-family="Times-12" font-size="14.00"> &#160;Module</text>
<polygon fill="#80b1d3" stroke="transparent" points="2835.5,-10 2835.5,-30 2855.5,-30 2855.5,-10 2835.5,-10"/>
<text text-anchor="start" x="2859.28" y="-15.4" font-family="Times-12" font-size="14.00"> &#160;Bootstrap</text>
<polygon fill="#fdb462" stroke="transparent" points="2932.5,-10 2932.5,-30 2952.5,-30 2952.5,-10 2932.5,-10"/>
<text text-anchor="start" x="2956.17" y="-15.4" font-family="Times-12" font-size="14.00"> &#160;Providers</text>
<polygon fill="#fb8072" stroke="transparent" points="3028.5,-10 3028.5,-30 3048.5,-30 3048.5,-10 3028.5,-10"/>
<text text-anchor="start" x="3052.23" y="-15.4" font-family="Times-12" font-size="14.00"> &#160;Exports</text>
<g id="clust55" class="cluster">
<title>cluster_UploadsModule</title>
<polygon fill="none" stroke="black" stroke-dasharray="1,5" points="5101,-70 5101,-282 5497,-282 5497,-70 5101,-70"/>
</g>
<g id="clust58" class="cluster">
<title>cluster_UploadsModule_exports</title>
<polygon fill="none" stroke="black" points="5109,-222 5109,-274 5233,-274 5233,-222 5109,-222"/>
</g>
<g id="clust60" class="cluster">
<title>cluster_UploadsModule_providers</title>
<polygon fill="none" stroke="black" points="5109,-78 5109,-130 5489,-130 5489,-78 5109,-78"/>
</g>
<g id="clust31" class="cluster">
<title>cluster_ProductsModule</title>
<polygon fill="none" stroke="black" stroke-dasharray="1,5" points="3927,-138 3927,-358 5093,-358 5093,-138 3927,-138"/>
</g>
<g id="clust36" class="cluster">
<title>cluster_ProductsModule_providers</title>
<polygon fill="none" stroke="black" points="4247,-146 4247,-198 5085,-198 5085,-146 4247,-146"/>
</g>
<g id="clust34" class="cluster">
<title>cluster_ProductsModule_exports</title>
<polygon fill="none" stroke="black" points="4300,-298 4300,-350 4426,-350 4426,-298 4300,-298"/>
</g>
<g id="clust33" class="cluster">
<title>cluster_ProductsModule_imports</title>
<polygon fill="none" stroke="black" points="3935,-146 3935,-198 4239,-198 4239,-146 3935,-146"/>
</g>
<g id="clust43" class="cluster">
<title>cluster_ReviewsModule</title>
<polygon fill="none" stroke="black" stroke-dasharray="1,5" points="2739,-214 2739,-350 3133,-350 3133,-214 2739,-214"/>
</g>
<g id="clust48" class="cluster">
<title>cluster_ReviewsModule_providers</title>
<polygon fill="none" stroke="black" points="2747,-222 2747,-274 3125,-274 3125,-222 2747,-222"/>
</g>
<g id="clust25" class="cluster">
<title>cluster_ProductImagesModule</title>
<polygon fill="none" stroke="black" stroke-dasharray="1,5" points="5505,-214 5505,-350 5733,-350 5733,-214 5505,-214"/>
</g>
<g id="clust30" class="cluster">
<title>cluster_ProductImagesModule_providers</title>
<polygon fill="none" stroke="black" points="5513,-222 5513,-274 5725,-274 5725,-222 5513,-222"/>
</g>
<g id="clust61" class="cluster">
<title>cluster_UsersModule</title>
<polygon fill="none" stroke="black" stroke-dasharray="1,5" points="960,-138 960,-358 2731,-358 2731,-138 960,-138"/>
</g>
<g id="clust64" class="cluster">
<title>cluster_UsersModule_exports</title>
<polygon fill="none" stroke="black" points="1682,-298 1682,-350 1792,-350 1792,-298 1682,-298"/>
</g>
<g id="clust66" class="cluster">
<title>cluster_UsersModule_providers</title>
<polygon fill="none" stroke="black" points="968,-146 968,-198 2723,-198 2723,-146 968,-146"/>
</g>
<g id="clust19" class="cluster">
<title>cluster_PaginationModule</title>
<polygon fill="none" stroke="black" stroke-dasharray="1,5" points="3563,-214 3563,-282 3919,-282 3919,-214 3563,-214"/>
</g>
<g id="clust24" class="cluster">
<title>cluster_PaginationModule_providers</title>
<polygon fill="none" stroke="black" points="3723,-222 3723,-274 3911,-274 3911,-222 3723,-222"/>
</g>
<g id="clust22" class="cluster">
<title>cluster_PaginationModule_exports</title>
<polygon fill="none" stroke="black" points="3571,-222 3571,-274 3715,-274 3715,-222 3571,-222"/>
</g>
<g id="clust1" class="cluster">
<title>cluster_AppModule</title>
<polygon fill="none" stroke="black" stroke-dasharray="1,5" points="352,-214 352,-415 714,-415 714,-214 352,-214"/>
</g>
<g id="clust3" class="cluster">
<title>cluster_AppModule_imports</title>
<polygon fill="none" stroke="black" points="498,-222 498,-350 706,-350 706,-222 498,-222"/>
</g>
<g id="clust6" class="cluster">
<title>cluster_AppModule_providers</title>
<polygon fill="none" stroke="black" points="360,-298 360,-350 490,-350 490,-298 360,-298"/>
</g>
<g id="clust7" class="cluster">
<title>cluster_AuthModule</title>
<polygon fill="none" stroke="black" stroke-dasharray="1,5" points="8,-138 8,-206 952,-206 952,-138 8,-138"/>
</g>
<g id="clust12" class="cluster">
<title>cluster_AuthModule_providers</title>
<polygon fill="none" stroke="black" points="16,-146 16,-198 944,-198 944,-146 16,-146"/>
</g>
<g id="clust13" class="cluster">
<title>cluster_MailModule</title>
<polygon fill="none" stroke="black" stroke-dasharray="1,5" points="84,-290 84,-358 344,-358 344,-290 84,-290"/>
</g>
<g id="clust18" class="cluster">
<title>cluster_MailModule_providers</title>
<polygon fill="none" stroke="black" points="204,-298 204,-350 336,-350 336,-298 204,-298"/>
</g>
<g id="clust16" class="cluster">
<title>cluster_MailModule_exports</title>
<polygon fill="none" stroke="black" points="92,-298 92,-350 196,-350 196,-298 92,-298"/>
</g>
<g id="clust37" class="cluster">
<title>cluster_ProductVariantsModule</title>
<polygon fill="none" stroke="black" stroke-dasharray="1,5" points="3141,-214 3141,-282 3555,-282 3555,-214 3141,-214"/>
</g>
<g id="clust40" class="cluster">
<title>cluster_ProductVariantsModule_exports</title>
<polygon fill="none" stroke="black" points="3379,-222 3379,-274 3547,-274 3547,-222 3379,-222"/>
</g>
<g id="clust42" class="cluster">
<title>cluster_ProductVariantsModule_providers</title>
<polygon fill="none" stroke="black" points="3149,-222 3149,-274 3371,-274 3371,-222 3149,-222"/>
</g>
<g id="clust49" class="cluster">
<title>cluster_SubscribersModule</title>
<polygon fill="none" stroke="black" stroke-dasharray="1,5" points="722,-214 722,-282 924,-282 924,-214 722,-214"/>
</g>
<g id="clust54" class="cluster">
<title>cluster_SubscribersModule_providers</title>
<polygon fill="none" stroke="black" points="730,-222 730,-274 916,-274 916,-222 730,-222"/>
</g>
<!-- AuthModule -->
<g id="node1" class="node">
<title>AuthModule</title>
<polygon fill="#8dd3c7" stroke="black" points="697.55,-266 694.55,-270 673.55,-270 670.55,-266 610.45,-266 610.45,-230 697.55,-230 697.55,-266"/>
<text text-anchor="middle" x="654" y="-243.8" font-family="Times,serif" font-size="14.00">AuthModule</text>
</g>
<!-- AppModule -->
<g id="node10" class="node">
<title>AppModule</title>
<polygon fill="#8dd3c7" stroke="black" points="705.66,-407 702.66,-411 681.66,-411 678.66,-407 622.34,-407 622.34,-371 705.66,-371 705.66,-407"/>
<text text-anchor="middle" x="664" y="-384.8" font-family="Times,serif" font-size="14.00">AppModule</text>
</g>
<!-- AuthModule&#45;&gt;AppModule -->
<g id="edge1" class="edge">
<title>AuthModule&#45;&gt;AppModule</title>
<path fill="none" stroke="black" d="M697.69,-248C700.44,-248 702.13,-248 702.13,-248 702.13,-248 702.13,-360.86 702.13,-360.86"/>
<polygon fill="black" stroke="black" points="698.63,-360.86 702.13,-370.86 705.63,-360.86 698.63,-360.86"/>
</g>
<!-- MailModule -->
<g id="node2" class="node">
<title>MailModule</title>
<polygon fill="#8dd3c7" stroke="black" points="591.99,-266 588.99,-270 567.99,-270 564.99,-266 506.01,-266 506.01,-230 591.99,-230 591.99,-266"/>
<text text-anchor="middle" x="549" y="-243.8" font-family="Times,serif" font-size="14.00">MailModule</text>
</g>
<!-- SubscribersModule -->
<g id="node7" class="node">
<title>SubscribersModule</title>
<polygon fill="#8dd3c7" stroke="black" points="698.36,-342 695.36,-346 674.36,-346 671.36,-342 573.64,-342 573.64,-306 698.36,-306 698.36,-342"/>
<text text-anchor="middle" x="636" y="-319.8" font-family="Times,serif" font-size="14.00">SubscribersModule</text>
</g>
<!-- MailModule&#45;&gt;SubscribersModule -->
<g id="edge34" class="edge">
<title>MailModule&#45;&gt;SubscribersModule</title>
<path fill="none" stroke="black" d="M582.78,-266.01C582.78,-266.01 582.78,-295.85 582.78,-295.85"/>
<polygon fill="black" stroke="black" points="579.28,-295.85 582.78,-305.85 586.28,-295.85 579.28,-295.85"/>
</g>
<!-- MailModule&#45;&gt;AppModule -->
<g id="edge2" class="edge">
<title>MailModule&#45;&gt;AppModule</title>
<path fill="none" stroke="black" d="M539.79,-266.21C539.79,-303.06 539.79,-383 539.79,-383 539.79,-383 612.29,-383 612.29,-383"/>
<polygon fill="black" stroke="black" points="612.29,-386.5 622.29,-383 612.29,-379.5 612.29,-386.5"/>
</g>
<!-- MailService  -->
<g id="node17" class="node">
<title>MailService </title>
<polygon fill="#fb8072" stroke="black" points="187.92,-342 100.08,-342 100.08,-306 187.92,-306 187.92,-342"/>
<text text-anchor="middle" x="144" y="-319.8" font-family="Times,serif" font-size="14.00">MailService </text>
</g>
<!-- MailModule&#45;&gt;MailService  -->
<g id="edge16" class="edge">
<title>MailModule&#45;&gt;MailService </title>
<path fill="none" stroke="black" stroke-dasharray="5,2" d="M505.66,-242C401.18,-242 144,-242 144,-242 144,-242 144,-295.8 144,-295.8"/>
<polygon fill="black" stroke="black" points="140.5,-295.8 144,-305.8 147.5,-295.8 140.5,-295.8"/>
</g>
<!-- ProductImagesModule -->
<g id="node3" class="node">
<title>ProductImagesModule</title>
<polygon fill="#8dd3c7" stroke="black" points="5673.52,-342 5670.52,-346 5649.52,-346 5646.52,-342 5530.48,-342 5530.48,-306 5673.52,-306 5673.52,-342"/>
<text text-anchor="middle" x="5602" y="-319.8" font-family="Times,serif" font-size="14.00">ProductImagesModule</text>
</g>
<!-- ProductImagesModule&#45;&gt;AppModule -->
<g id="edge3" class="edge">
<title>ProductImagesModule&#45;&gt;AppModule</title>
<path fill="none" stroke="black" d="M5602,-342.09C5602,-365.13 5602,-402 5602,-402 5602,-402 715.94,-402 715.94,-402"/>
<polygon fill="black" stroke="black" points="715.94,-398.5 705.94,-402 715.94,-405.5 715.94,-398.5"/>
</g>
<!-- ProductVariantsModule -->
<g id="node4" class="node">
<title>ProductVariantsModule</title>
<polygon fill="#8dd3c7" stroke="black" points="4093.02,-190 4090.02,-194 4069.02,-194 4066.02,-190 3942.98,-190 3942.98,-154 4093.02,-154 4093.02,-190"/>
<text text-anchor="middle" x="4018" y="-167.8" font-family="Times,serif" font-size="14.00">ProductVariantsModule</text>
</g>
<!-- ProductsModule -->
<g id="node5" class="node">
<title>ProductsModule</title>
<polygon fill="#8dd3c7" stroke="black" points="4417.04,-266 4414.04,-270 4393.04,-270 4390.04,-266 4308.96,-266 4308.96,-230 4417.04,-230 4417.04,-266"/>
<text text-anchor="middle" x="4363" y="-243.8" font-family="Times,serif" font-size="14.00">ProductsModule</text>
</g>
<!-- ProductVariantsModule&#45;&gt;ProductsModule -->
<g id="edge22" class="edge">
<title>ProductVariantsModule&#45;&gt;ProductsModule</title>
<path fill="none" stroke="black" d="M4043.09,-190.01C4043.09,-212.49 4043.09,-248 4043.09,-248 4043.09,-248 4298.73,-248 4298.73,-248"/>
<polygon fill="black" stroke="black" points="4298.73,-251.5 4308.73,-248 4298.73,-244.5 4298.73,-251.5"/>
</g>
<!-- ProductVariantsModule&#45;&gt;AppModule -->
<g id="edge4" class="edge">
<title>ProductVariantsModule&#45;&gt;AppModule</title>
<path fill="none" stroke="black" d="M3992.91,-190.33C3992.91,-242.32 3992.91,-387 3992.91,-387 3992.91,-387 715.79,-387 715.79,-387"/>
<polygon fill="black" stroke="black" points="715.79,-383.5 705.79,-387 715.79,-390.5 715.79,-383.5"/>
</g>
<!-- ProductVariantsService  -->
<g id="node28" class="node">
<title>ProductVariantsService </title>
<polygon fill="#fb8072" stroke="black" points="3539.45,-266 3386.55,-266 3386.55,-230 3539.45,-230 3539.45,-266"/>
<text text-anchor="middle" x="3463" y="-243.8" font-family="Times,serif" font-size="14.00">ProductVariantsService </text>
</g>
<!-- ProductVariantsModule&#45;&gt;ProductVariantsService  -->
<g id="edge29" class="edge">
<title>ProductVariantsModule&#45;&gt;ProductVariantsService </title>
<path fill="none" stroke="black" stroke-dasharray="5,2" d="M3942.86,-178C3791.24,-178 3463,-178 3463,-178 3463,-178 3463,-219.97 3463,-219.97"/>
<polygon fill="black" stroke="black" points="3459.5,-219.97 3463,-229.97 3466.5,-219.97 3459.5,-219.97"/>
</g>
<!-- ReviewsModule -->
<g id="node6" class="node">
<title>ReviewsModule</title>
<polygon fill="#8dd3c7" stroke="black" points="2976.76,-342 2973.76,-346 2952.76,-346 2949.76,-342 2869.24,-342 2869.24,-306 2976.76,-306 2976.76,-342"/>
<text text-anchor="middle" x="2923" y="-319.8" font-family="Times,serif" font-size="14.00">ReviewsModule</text>
</g>
<!-- ProductsModule&#45;&gt;ReviewsModule -->
<g id="edge31" class="edge">
<title>ProductsModule&#45;&gt;ReviewsModule</title>
<path fill="none" stroke="black" d="M4308.95,-254C4254.83,-254 4179.53,-254 4179.53,-254 4179.53,-254 4179.53,-324 4179.53,-324 4179.53,-324 2986.99,-324 2986.99,-324"/>
<polygon fill="black" stroke="black" points="2986.99,-320.5 2976.99,-324 2986.99,-327.5 2986.99,-320.5"/>
</g>
<!-- ProductsModule&#45;&gt;AppModule -->
<g id="edge5" class="edge">
<title>ProductsModule&#45;&gt;AppModule</title>
<path fill="none" stroke="black" d="M4308.51,-260C4259.98,-260 4196.59,-260 4196.59,-260 4196.59,-260 4196.59,-392 4196.59,-392 4196.59,-392 715.82,-392 715.82,-392"/>
<polygon fill="black" stroke="black" points="715.82,-388.5 705.82,-392 715.82,-395.5 715.82,-388.5"/>
</g>
<!-- ProductsService  -->
<g id="node23" class="node">
<title>ProductsService </title>
<polygon fill="#fb8072" stroke="black" points="4418.47,-342 4307.53,-342 4307.53,-306 4418.47,-306 4418.47,-342"/>
<text text-anchor="middle" x="4363" y="-319.8" font-family="Times,serif" font-size="14.00">ProductsService </text>
</g>
<!-- ProductsModule&#45;&gt;ProductsService  -->
<g id="edge24" class="edge">
<title>ProductsModule&#45;&gt;ProductsService </title>
<path fill="none" stroke="black" stroke-dasharray="5,2" d="M4363,-266.01C4363,-266.01 4363,-295.85 4363,-295.85"/>
<polygon fill="black" stroke="black" points="4359.5,-295.85 4363,-305.85 4366.5,-295.85 4359.5,-295.85"/>
</g>
<!-- ReviewsModule&#45;&gt;AppModule -->
<g id="edge6" class="edge">
<title>ReviewsModule&#45;&gt;AppModule</title>
<path fill="none" stroke="black" d="M2923,-342.03C2923,-359.06 2923,-382 2923,-382 2923,-382 716.12,-382 716.12,-382"/>
<polygon fill="black" stroke="black" points="716.12,-378.5 706.12,-382 716.12,-385.5 716.12,-378.5"/>
</g>
<!-- SubscribersModule&#45;&gt;AppModule -->
<g id="edge7" class="edge">
<title>SubscribersModule&#45;&gt;AppModule</title>
<path fill="none" stroke="black" d="M660.3,-342.11C660.3,-342.11 660.3,-360.99 660.3,-360.99"/>
<polygon fill="black" stroke="black" points="656.8,-360.99 660.3,-370.99 663.8,-360.99 656.8,-360.99"/>
</g>
<!-- UploadsModule -->
<g id="node8" class="node">
<title>UploadsModule</title>
<polygon fill="#8dd3c7" stroke="black" points="5242.21,-190 5239.21,-194 5218.21,-194 5215.21,-190 5135.79,-190 5135.79,-154 5242.21,-154 5242.21,-190"/>
<text text-anchor="middle" x="5189" y="-167.8" font-family="Times,serif" font-size="14.00">UploadsModule</text>
</g>
<!-- UploadsModule&#45;&gt;ProductsModule -->
<g id="edge23" class="edge">
<title>UploadsModule&#45;&gt;ProductsModule</title>
<path fill="none" stroke="black" d="M5135.64,-172C5115.25,-172 5096.81,-172 5096.81,-172 5096.81,-172 5096.81,-259 5096.81,-259 5096.81,-259 4427.26,-259 4427.26,-259"/>
<polygon fill="black" stroke="black" points="4427.26,-255.5 4417.26,-259 4427.26,-262.5 4427.26,-255.5"/>
</g>
<!-- UploadsModule&#45;&gt;AppModule -->
<g id="edge8" class="edge">
<title>UploadsModule&#45;&gt;AppModule</title>
<path fill="none" stroke="black" d="M5233.59,-190.03C5233.59,-243.42 5233.59,-397 5233.59,-397 5233.59,-397 715.96,-397 715.96,-397"/>
<polygon fill="black" stroke="black" points="715.96,-393.5 705.96,-397 715.96,-400.5 715.96,-393.5"/>
</g>
<!-- UploadsService  -->
<g id="node33" class="node">
<title>UploadsService </title>
<polygon fill="#fb8072" stroke="black" points="5225.13,-266 5116.87,-266 5116.87,-230 5225.13,-230 5225.13,-266"/>
<text text-anchor="middle" x="5171" y="-243.8" font-family="Times,serif" font-size="14.00">UploadsService </text>
</g>
<!-- UploadsModule&#45;&gt;UploadsService  -->
<g id="edge36" class="edge">
<title>UploadsModule&#45;&gt;UploadsService </title>
<path fill="none" stroke="black" stroke-dasharray="5,2" d="M5180.48,-190.01C5180.48,-190.01 5180.48,-219.85 5180.48,-219.85"/>
<polygon fill="black" stroke="black" points="5176.98,-219.85 5180.48,-229.85 5183.98,-219.85 5176.98,-219.85"/>
</g>
<!-- UsersModule -->
<g id="node9" class="node">
<title>UsersModule</title>
<polygon fill="#8dd3c7" stroke="black" points="1857.92,-266 1854.92,-270 1833.92,-270 1830.92,-266 1766.08,-266 1766.08,-230 1857.92,-230 1857.92,-266"/>
<text text-anchor="middle" x="1812" y="-243.8" font-family="Times,serif" font-size="14.00">UsersModule</text>
</g>
<!-- UsersModule&#45;&gt;AppModule -->
<g id="edge9" class="edge">
<title>UsersModule&#45;&gt;AppModule</title>
<path fill="none" stroke="black" d="M1820.69,-266.21C1820.69,-301.77 1820.69,-377 1820.69,-377 1820.69,-377 715.85,-377 715.85,-377"/>
<polygon fill="black" stroke="black" points="715.85,-373.5 705.85,-377 715.85,-380.5 715.85,-373.5"/>
</g>
<!-- UsersService  -->
<g id="node36" class="node">
<title>UsersService </title>
<polygon fill="#fb8072" stroke="black" points="1783.85,-342 1690.15,-342 1690.15,-306 1783.85,-306 1783.85,-342"/>
<text text-anchor="middle" x="1737" y="-319.8" font-family="Times,serif" font-size="14.00">UsersService </text>
</g>
<!-- UsersModule&#45;&gt;UsersService  -->
<g id="edge40" class="edge">
<title>UsersModule&#45;&gt;UsersService </title>
<path fill="none" stroke="black" stroke-dasharray="5,2" d="M1774.98,-266.01C1774.98,-266.01 1774.98,-295.85 1774.98,-295.85"/>
<polygon fill="black" stroke="black" points="1771.48,-295.85 1774.98,-305.85 1778.48,-295.85 1771.48,-295.85"/>
</g>
<!-- AppService -->
<g id="node11" class="node">
<title>AppService</title>
<ellipse fill="#fdb462" stroke="black" cx="425" cy="-324" rx="56.74" ry="18"/>
<text text-anchor="middle" x="425" y="-319.8" font-family="Times,serif" font-size="14.00">AppService</text>
</g>
<!-- AppService&#45;&gt;AppModule -->
<g id="edge10" class="edge">
<title>AppService&#45;&gt;AppModule</title>
<path fill="none" stroke="black" d="M425,-342.28C425,-363.32 425,-395 425,-395 425,-395 612.1,-395 612.1,-395"/>
<polygon fill="black" stroke="black" points="612.1,-398.5 622.1,-395 612.1,-391.5 612.1,-398.5"/>
</g>
<!-- AuthService -->
<g id="node12" class="node">
<title>AuthService</title>
<ellipse fill="#fdb462" stroke="black" cx="317" cy="-172" rx="59.11" ry="18"/>
<text text-anchor="middle" x="317" y="-167.8" font-family="Times,serif" font-size="14.00">AuthService</text>
</g>
<!-- AuthService&#45;&gt;AuthModule -->
<g id="edge11" class="edge">
<title>AuthService&#45;&gt;AuthModule</title>
<path fill="none" stroke="black" d="M372.34,-178.54C372.34,-191.45 372.34,-219 372.34,-219 372.34,-219 639.41,-219 639.41,-219 639.41,-219 639.41,-220.08 639.41,-220.08"/>
<polygon fill="black" stroke="black" points="635.91,-219.8 639.41,-229.8 642.91,-219.8 635.91,-219.8"/>
</g>
<!-- GenerateTokensProvider -->
<g id="node13" class="node">
<title>GenerateTokensProvider</title>
<ellipse fill="#fdb462" stroke="black" cx="132" cy="-172" rx="107.63" ry="18"/>
<text text-anchor="middle" x="132" y="-167.8" font-family="Times,serif" font-size="14.00">GenerateTokensProvider</text>
</g>
<!-- GenerateTokensProvider&#45;&gt;AuthModule -->
<g id="edge12" class="edge">
<title>GenerateTokensProvider&#45;&gt;AuthModule</title>
<path fill="none" stroke="black" d="M225.67,-181.23C225.67,-196.42 225.67,-225 225.67,-225 225.67,-225 624.82,-225 624.82,-225 624.82,-225 624.82,-225.49 624.82,-225.49"/>
<polygon fill="black" stroke="black" points="621.32,-219.88 624.82,-229.88 628.32,-219.88 621.32,-219.88"/>
</g>
<!-- OtpSigninProvider -->
<g id="node14" class="node">
<title>OtpSigninProvider</title>
<ellipse fill="#fdb462" stroke="black" cx="852" cy="-172" rx="83.99" ry="18"/>
<text text-anchor="middle" x="852" y="-167.8" font-family="Times,serif" font-size="14.00">OtpSigninProvider</text>
</g>
<!-- OtpSigninProvider&#45;&gt;AuthModule -->
<g id="edge13" class="edge">
<title>OtpSigninProvider&#45;&gt;AuthModule</title>
<path fill="none" stroke="black" d="M838.02,-190C838.02,-199 838.02,-208 838.02,-208 838.02,-208 683.18,-208 683.18,-208 683.18,-208 683.18,-219.87 683.18,-219.87"/>
<polygon fill="black" stroke="black" points="679.68,-219.87 683.18,-229.87 686.68,-219.87 679.68,-219.87"/>
</g>
<!-- RefreshTokenProvider -->
<g id="node15" class="node">
<title>RefreshTokenProvider</title>
<ellipse fill="#fdb462" stroke="black" cx="651" cy="-172" rx="98.98" ry="18"/>
<text text-anchor="middle" x="651" y="-167.8" font-family="Times,serif" font-size="14.00">RefreshTokenProvider</text>
</g>
<!-- RefreshTokenProvider&#45;&gt;AuthModule -->
<g id="edge14" class="edge">
<title>RefreshTokenProvider&#45;&gt;AuthModule</title>
<path fill="none" stroke="black" d="M668.59,-190.01C668.59,-190.01 668.59,-219.85 668.59,-219.85"/>
<polygon fill="black" stroke="black" points="665.09,-219.85 668.59,-229.85 672.09,-219.85 665.09,-219.85"/>
</g>
<!-- SignInProvider -->
<g id="node16" class="node">
<title>SignInProvider</title>
<ellipse fill="#fdb462" stroke="black" cx="464" cy="-172" rx="70.08" ry="18"/>
<text text-anchor="middle" x="464" y="-167.8" font-family="Times,serif" font-size="14.00">SignInProvider</text>
</g>
<!-- SignInProvider&#45;&gt;AuthModule -->
<g id="edge15" class="edge">
<title>SignInProvider&#45;&gt;AuthModule</title>
<path fill="none" stroke="black" d="M520.02,-183.2C520.02,-195.34 520.02,-213 520.02,-213 520.02,-213 654,-213 654,-213 654,-213 654,-219.68 654,-219.68"/>
<polygon fill="black" stroke="black" points="650.5,-219.68 654,-229.68 657.5,-219.68 650.5,-219.68"/>
</g>
<!-- MailService -->
<g id="node18" class="node">
<title>MailService</title>
<ellipse fill="#fdb462" stroke="black" cx="270" cy="-324" rx="58.46" ry="18"/>
<text text-anchor="middle" x="270" y="-319.8" font-family="Times,serif" font-size="14.00">MailService</text>
</g>
<!-- MailService&#45;&gt;MailModule -->
<g id="edge17" class="edge">
<title>MailService&#45;&gt;MailModule</title>
<path fill="none" stroke="black" d="M292.96,-307.41C292.96,-286.71 292.96,-254 292.96,-254 292.96,-254 495.86,-254 495.86,-254"/>
<polygon fill="black" stroke="black" points="495.86,-257.5 505.86,-254 495.86,-250.5 495.86,-257.5"/>
</g>
<!-- PaginationProvider  -->
<g id="node19" class="node">
<title>PaginationProvider </title>
<polygon fill="#fb8072" stroke="black" points="3706.59,-266 3579.41,-266 3579.41,-230 3706.59,-230 3706.59,-266"/>
<text text-anchor="middle" x="3643" y="-243.8" font-family="Times,serif" font-size="14.00">PaginationProvider </text>
</g>
<!-- PaginationModule -->
<g id="node20" class="node">
<title>PaginationModule</title>
<polygon fill="#8dd3c7" stroke="black" points="4230.93,-190 4227.93,-194 4206.93,-194 4203.93,-190 4111.07,-190 4111.07,-154 4230.93,-154 4230.93,-190"/>
<text text-anchor="middle" x="4171" y="-167.8" font-family="Times,serif" font-size="14.00">PaginationModule</text>
</g>
<!-- PaginationModule&#45;&gt;ProductsModule -->
<g id="edge21" class="edge">
<title>PaginationModule&#45;&gt;ProductsModule</title>
<path fill="none" stroke="black" d="M4213.65,-190.03C4213.65,-210.77 4213.65,-242 4213.65,-242 4213.65,-242 4298.66,-242 4298.66,-242"/>
<polygon fill="black" stroke="black" points="4298.66,-245.5 4308.66,-242 4298.66,-238.5 4298.66,-245.5"/>
</g>
<!-- PaginationModule&#45;&gt;UsersModule -->
<g id="edge39" class="edge">
<title>PaginationModule&#45;&gt;UsersModule</title>
<path fill="none" stroke="black" d="M4128.35,-190.19C4128.35,-193.54 4128.35,-196 4128.35,-196 4128.35,-196 1827.24,-196 1827.24,-196 1827.24,-196 1827.24,-219.81 1827.24,-219.81"/>
<polygon fill="black" stroke="black" points="1823.74,-219.81 1827.24,-229.81 1830.74,-219.81 1823.74,-219.81"/>
</g>
<!-- PaginationModule&#45;&gt;PaginationProvider  -->
<g id="edge18" class="edge">
<title>PaginationModule&#45;&gt;PaginationProvider </title>
<path fill="none" stroke="black" stroke-dasharray="5,2" d="M4145.41,-190.14C4145.41,-196.46 4145.41,-202 4145.41,-202 4145.41,-202 3643,-202 3643,-202 3643,-202 3643,-219.82 3643,-219.82"/>
<polygon fill="black" stroke="black" points="3639.5,-219.82 3643,-229.82 3646.5,-219.82 3639.5,-219.82"/>
</g>
<!-- PaginationProvider -->
<g id="node21" class="node">
<title>PaginationProvider</title>
<ellipse fill="#fdb462" stroke="black" cx="3817" cy="-248" rx="85.69" ry="18"/>
<text text-anchor="middle" x="3817" y="-243.8" font-family="Times,serif" font-size="14.00">PaginationProvider</text>
</g>
<!-- PaginationProvider&#45;&gt;PaginationModule -->
<g id="edge19" class="edge">
<title>PaginationProvider&#45;&gt;PaginationModule</title>
<path fill="none" stroke="black" d="M3881.17,-236C3981.08,-236 4162.47,-236 4162.47,-236 4162.47,-236 4162.47,-200.17 4162.47,-200.17"/>
<polygon fill="black" stroke="black" points="4165.97,-200.17 4162.47,-190.17 4158.97,-200.17 4165.97,-200.17"/>
</g>
<!-- ProductImagesService -->
<g id="node22" class="node">
<title>ProductImagesService</title>
<ellipse fill="#fdb462" stroke="black" cx="5619" cy="-248" rx="97.83" ry="18"/>
<text text-anchor="middle" x="5619" y="-243.8" font-family="Times,serif" font-size="14.00">ProductImagesService</text>
</g>
<!-- ProductImagesService&#45;&gt;ProductImagesModule -->
<g id="edge20" class="edge">
<title>ProductImagesService&#45;&gt;ProductImagesModule</title>
<path fill="none" stroke="black" d="M5602,-266.01C5602,-266.01 5602,-295.85 5602,-295.85"/>
<polygon fill="black" stroke="black" points="5598.5,-295.85 5602,-305.85 5605.5,-295.85 5598.5,-295.85"/>
</g>
<!-- CreateProductProvider -->
<g id="node24" class="node">
<title>CreateProductProvider</title>
<ellipse fill="#fdb462" stroke="black" cx="4589" cy="-172" rx="99.56" ry="18"/>
<text text-anchor="middle" x="4589" y="-167.8" font-family="Times,serif" font-size="14.00">CreateProductProvider</text>
</g>
<!-- CreateProductProvider&#45;&gt;ProductsModule -->
<g id="edge25" class="edge">
<title>CreateProductProvider&#45;&gt;ProductsModule</title>
<path fill="none" stroke="black" d="M4589,-190.03C4589,-209.58 4589,-238 4589,-238 4589,-238 4427.13,-238 4427.13,-238"/>
<polygon fill="black" stroke="black" points="4427.13,-234.5 4417.13,-238 4427.13,-241.5 4427.13,-234.5"/>
</g>
<!-- FindAllProductsProvider -->
<g id="node25" class="node">
<title>FindAllProductsProvider</title>
<ellipse fill="#fdb462" stroke="black" cx="4363" cy="-172" rx="108.26" ry="18"/>
<text text-anchor="middle" x="4363" y="-167.8" font-family="Times,serif" font-size="14.00">FindAllProductsProvider</text>
</g>
<!-- FindAllProductsProvider&#45;&gt;ProductsModule -->
<g id="edge26" class="edge">
<title>FindAllProductsProvider&#45;&gt;ProductsModule</title>
<path fill="none" stroke="black" d="M4363,-190.01C4363,-190.01 4363,-219.85 4363,-219.85"/>
<polygon fill="black" stroke="black" points="4359.5,-219.85 4363,-229.85 4366.5,-219.85 4359.5,-219.85"/>
</g>
<!-- ProductsService -->
<g id="node26" class="node">
<title>ProductsService</title>
<ellipse fill="#fdb462" stroke="black" cx="5003" cy="-172" rx="73.57" ry="18"/>
<text text-anchor="middle" x="5003" y="-167.8" font-family="Times,serif" font-size="14.00">ProductsService</text>
</g>
<!-- ProductsService&#45;&gt;ProductsModule -->
<g id="edge27" class="edge">
<title>ProductsService&#45;&gt;ProductsModule</title>
<path fill="none" stroke="black" d="M5003,-190.15C5003,-213.76 5003,-252 5003,-252 5003,-252 4427.29,-252 4427.29,-252"/>
<polygon fill="black" stroke="black" points="4427.29,-248.5 4417.29,-252 4427.29,-255.5 4427.29,-248.5"/>
</g>
<!-- UpdateProductProvider -->
<g id="node27" class="node">
<title>UpdateProductProvider</title>
<ellipse fill="#fdb462" stroke="black" cx="4809" cy="-172" rx="102.43" ry="18"/>
<text text-anchor="middle" x="4809" y="-167.8" font-family="Times,serif" font-size="14.00">UpdateProductProvider</text>
</g>
<!-- UpdateProductProvider&#45;&gt;ProductsModule -->
<g id="edge28" class="edge">
<title>UpdateProductProvider&#45;&gt;ProductsModule</title>
<path fill="none" stroke="black" d="M4809,-190.04C4809,-211.66 4809,-245 4809,-245 4809,-245 4427.24,-245 4427.24,-245"/>
<polygon fill="black" stroke="black" points="4427.24,-241.5 4417.24,-245 4427.24,-248.5 4427.24,-241.5"/>
</g>
<!-- ProductVariantsService -->
<g id="node29" class="node">
<title>ProductVariantsService</title>
<ellipse fill="#fdb462" stroke="black" cx="3260" cy="-248" rx="102.98" ry="18"/>
<text text-anchor="middle" x="3260" y="-243.8" font-family="Times,serif" font-size="14.00">ProductVariantsService</text>
</g>
<!-- ProductVariantsService&#45;&gt;ProductVariantsModule -->
<g id="edge30" class="edge">
<title>ProductVariantsService&#45;&gt;ProductVariantsModule</title>
<path fill="none" stroke="black" d="M3260,-229.8C3260,-205.64 3260,-166 3260,-166 3260,-166 3932.9,-166 3932.9,-166"/>
<polygon fill="black" stroke="black" points="3932.9,-169.5 3942.9,-166 3932.9,-162.5 3932.9,-169.5"/>
</g>
<!-- CreateReviewProvider -->
<g id="node30" class="node">
<title>CreateReviewProvider</title>
<ellipse fill="#fdb462" stroke="black" cx="3018" cy="-248" rx="98.97" ry="18"/>
<text text-anchor="middle" x="3018" y="-243.8" font-family="Times,serif" font-size="14.00">CreateReviewProvider</text>
</g>
<!-- CreateReviewProvider&#45;&gt;ReviewsModule -->
<g id="edge32" class="edge">
<title>CreateReviewProvider&#45;&gt;ReviewsModule</title>
<path fill="none" stroke="black" d="M2947.95,-260.89C2947.95,-260.89 2947.95,-295.91 2947.95,-295.91"/>
<polygon fill="black" stroke="black" points="2944.45,-295.91 2947.95,-305.91 2951.45,-295.91 2944.45,-295.91"/>
</g>
<!-- ReviewsService -->
<g id="node31" class="node">
<title>ReviewsService</title>
<ellipse fill="#fdb462" stroke="black" cx="2828" cy="-248" rx="73.49" ry="18"/>
<text text-anchor="middle" x="2828" y="-243.8" font-family="Times,serif" font-size="14.00">ReviewsService</text>
</g>
<!-- ReviewsService&#45;&gt;ReviewsModule -->
<g id="edge33" class="edge">
<title>ReviewsService&#45;&gt;ReviewsModule</title>
<path fill="none" stroke="black" d="M2885.18,-259.54C2885.18,-259.54 2885.18,-295.83 2885.18,-295.83"/>
<polygon fill="black" stroke="black" points="2881.68,-295.83 2885.18,-305.83 2888.68,-295.83 2881.68,-295.83"/>
</g>
<!-- SubscribersService -->
<g id="node32" class="node">
<title>SubscribersService</title>
<ellipse fill="#fdb462" stroke="black" cx="823" cy="-248" rx="85.09" ry="18"/>
<text text-anchor="middle" x="823" y="-243.8" font-family="Times,serif" font-size="14.00">SubscribersService</text>
</g>
<!-- SubscribersService&#45;&gt;SubscribersModule -->
<g id="edge35" class="edge">
<title>SubscribersService&#45;&gt;SubscribersModule</title>
<path fill="none" stroke="black" d="M823,-266.01C823,-288.49 823,-324 823,-324 823,-324 708.53,-324 708.53,-324"/>
<polygon fill="black" stroke="black" points="708.53,-320.5 698.53,-324 708.53,-327.5 708.53,-320.5"/>
</g>
<!-- UploadToAwsProvider -->
<g id="node34" class="node">
<title>UploadToAwsProvider</title>
<ellipse fill="#fdb462" stroke="black" cx="5380" cy="-104" rx="101.29" ry="18"/>
<text text-anchor="middle" x="5380" y="-99.8" font-family="Times,serif" font-size="14.00">UploadToAwsProvider</text>
</g>
<!-- UploadToAwsProvider&#45;&gt;UploadsModule -->
<g id="edge37" class="edge">
<title>UploadToAwsProvider&#45;&gt;UploadsModule</title>
<path fill="none" stroke="black" d="M5380,-122.22C5380,-142.37 5380,-172 5380,-172 5380,-172 5252.2,-172 5252.2,-172"/>
<polygon fill="black" stroke="black" points="5252.2,-168.5 5242.2,-172 5252.2,-175.5 5252.2,-168.5"/>
</g>
<!-- UploadsService -->
<g id="node35" class="node">
<title>UploadsService</title>
<ellipse fill="#fdb462" stroke="black" cx="5189" cy="-104" rx="72.35" ry="18"/>
<text text-anchor="middle" x="5189" y="-99.8" font-family="Times,serif" font-size="14.00">UploadsService</text>
</g>
<!-- UploadsService&#45;&gt;UploadsModule -->
<g id="edge38" class="edge">
<title>UploadsService&#45;&gt;UploadsModule</title>
<path fill="none" stroke="black" d="M5189,-122.22C5189,-122.22 5189,-143.73 5189,-143.73"/>
<polygon fill="black" stroke="black" points="5185.5,-143.73 5189,-153.73 5192.5,-143.73 5185.5,-143.73"/>
</g>
<!-- ClearOtpAndExpiryTimeProvider -->
<g id="node37" class="node">
<title>ClearOtpAndExpiryTimeProvider</title>
<ellipse fill="#fdb462" stroke="black" cx="1812" cy="-172" rx="142.96" ry="18"/>
<text text-anchor="middle" x="1812" y="-167.8" font-family="Times,serif" font-size="14.00">ClearOtpAndExpiryTimeProvider</text>
</g>
<!-- ClearOtpAndExpiryTimeProvider&#45;&gt;UsersModule -->
<g id="edge41" class="edge">
<title>ClearOtpAndExpiryTimeProvider&#45;&gt;UsersModule</title>
<path fill="none" stroke="black" d="M1796.76,-190.01C1796.76,-190.01 1796.76,-219.85 1796.76,-219.85"/>
<polygon fill="black" stroke="black" points="1793.26,-219.85 1796.76,-229.85 1800.26,-219.85 1793.26,-219.85"/>
</g>
<!-- CreateUsersProvider -->
<g id="node38" class="node">
<title>CreateUsersProvider</title>
<ellipse fill="#fdb462" stroke="black" cx="1560" cy="-172" rx="91.45" ry="18"/>
<text text-anchor="middle" x="1560" y="-167.8" font-family="Times,serif" font-size="14.00">CreateUsersProvider</text>
</g>
<!-- CreateUsersProvider&#45;&gt;UsersModule -->
<g id="edge42" class="edge">
<title>CreateUsersProvider&#45;&gt;UsersModule</title>
<path fill="none" stroke="black" d="M1560,-190.31C1560,-210.15 1560,-239 1560,-239 1560,-239 1756.07,-239 1756.07,-239"/>
<polygon fill="black" stroke="black" points="1756.07,-242.5 1766.07,-239 1756.07,-235.5 1756.07,-242.5"/>
</g>
<!-- FindOneByIdProvider -->
<g id="node39" class="node">
<title>FindOneByIdProvider</title>
<ellipse fill="#fdb462" stroke="black" cx="1353" cy="-172" rx="97.3" ry="18"/>
<text text-anchor="middle" x="1353" y="-167.8" font-family="Times,serif" font-size="14.00">FindOneByIdProvider</text>
</g>
<!-- FindOneByIdProvider&#45;&gt;UsersModule -->
<g id="edge43" class="edge">
<title>FindOneByIdProvider&#45;&gt;UsersModule</title>
<path fill="none" stroke="black" d="M1353,-190.01C1353,-212.49 1353,-248 1353,-248 1353,-248 1755.89,-248 1755.89,-248"/>
<polygon fill="black" stroke="black" points="1755.89,-251.5 1765.89,-248 1755.89,-244.5 1755.89,-251.5"/>
</g>
<!-- FindOneUserByEmailProvider -->
<g id="node40" class="node">
<title>FindOneUserByEmailProvider</title>
<ellipse fill="#fdb462" stroke="black" cx="1107" cy="-172" rx="130.8" ry="18"/>
<text text-anchor="middle" x="1107" y="-167.8" font-family="Times,serif" font-size="14.00">FindOneUserByEmailProvider</text>
</g>
<!-- FindOneUserByEmailProvider&#45;&gt;UsersModule -->
<g id="edge44" class="edge">
<title>FindOneUserByEmailProvider&#45;&gt;UsersModule</title>
<path fill="none" stroke="black" d="M1107,-190.03C1107,-214.98 1107,-257 1107,-257 1107,-257 1756.29,-257 1756.29,-257"/>
<polygon fill="black" stroke="black" points="1756.29,-260.5 1766.29,-257 1756.29,-253.5 1756.29,-260.5"/>
</g>
<!-- FindUserByOtpAndExpiryTimeProvider -->
<g id="node41" class="node">
<title>FindUserByOtpAndExpiryTimeProvider</title>
<ellipse fill="#fdb462" stroke="black" cx="2546" cy="-172" rx="169.05" ry="18"/>
<text text-anchor="middle" x="2546" y="-167.8" font-family="Times,serif" font-size="14.00">FindUserByOtpAndExpiryTimeProvider</text>
</g>
<!-- FindUserByOtpAndExpiryTimeProvider&#45;&gt;UsersModule -->
<g id="edge45" class="edge">
<title>FindUserByOtpAndExpiryTimeProvider&#45;&gt;UsersModule</title>
<path fill="none" stroke="black" d="M2546,-190.03C2546,-214.98 2546,-257 2546,-257 2546,-257 1867.91,-257 1867.91,-257"/>
<polygon fill="black" stroke="black" points="1867.92,-253.5 1857.91,-257 1867.91,-260.5 1867.92,-253.5"/>
</g>
<!-- StoreOtpAndExpireProvider -->
<g id="node42" class="node">
<title>StoreOtpAndExpireProvider</title>
<ellipse fill="#fdb462" stroke="black" cx="2237" cy="-172" rx="121.55" ry="18"/>
<text text-anchor="middle" x="2237" y="-167.8" font-family="Times,serif" font-size="14.00">StoreOtpAndExpireProvider</text>
</g>
<!-- StoreOtpAndExpireProvider&#45;&gt;UsersModule -->
<g id="edge46" class="edge">
<title>StoreOtpAndExpireProvider&#45;&gt;UsersModule</title>
<path fill="none" stroke="black" d="M2237,-190.01C2237,-212.49 2237,-248 2237,-248 2237,-248 1867.89,-248 1867.89,-248"/>
<polygon fill="black" stroke="black" points="1867.89,-244.5 1857.89,-248 1867.89,-251.5 1867.89,-244.5"/>
</g>
<!-- UsersService -->
<g id="node43" class="node">
<title>UsersService</title>
<ellipse fill="#fdb462" stroke="black" cx="2035" cy="-172" rx="61.95" ry="18"/>
<text text-anchor="middle" x="2035" y="-167.8" font-family="Times,serif" font-size="14.00">UsersService</text>
</g>
<!-- UsersService&#45;&gt;UsersModule -->
<g id="edge47" class="edge">
<title>UsersService&#45;&gt;UsersModule</title>
<path fill="none" stroke="black" d="M2035,-190.31C2035,-210.15 2035,-239 2035,-239 2035,-239 1867.94,-239 1867.94,-239"/>
<polygon fill="black" stroke="black" points="1867.94,-235.5 1857.94,-239 1867.94,-242.5 1867.94,-235.5"/>
</g>
</g>
</svg>
