<?xml version="1.0" encoding="UTF-8" standalone="no"?>
<!DOCTYPE svg PUBLIC "-//W3C//DTD SVG 1.1//EN"
 "http://www.w3.org/Graphics/SVG/1.1/DTD/svg11.dtd">
<!-- Generated by graphviz version 2.47.0 (20210316.0004)
 -->
<!-- Title: dependencies Pages: 1 -->
<svg width="4001pt" height="431pt"
 viewBox="0.00 0.00 4001.00 431.00" xmlns="http://www.w3.org/2000/svg" xmlns:xlink="http://www.w3.org/1999/xlink">
<g id="graph0" class="graph" transform="scale(1 1) rotate(0) translate(4 427)">
<title>dependencies</title>
<polygon fill="white" stroke="transparent" points="-4,4 -4,-427 3997,-427 3997,4 -4,4"/>
<text text-anchor="start" x="1975.51" y="-42.4" font-family="Times-12" font-weight="bold" font-size="14.00">Legend</text>
<polygon fill="#ffffb3" stroke="transparent" points="1762.5,-10 1762.5,-30 1782.5,-30 1782.5,-10 1762.5,-10"/>
<text text-anchor="start" x="1786.13" y="-15.4" font-family="Times-12" font-size="14.00"> &#160;Declarations</text>
<polygon fill="#8dd3c7" stroke="transparent" points="1875.5,-10 1875.5,-30 1895.5,-30 1895.5,-10 1875.5,-10"/>
<text text-anchor="start" x="1899.23" y="-15.4" font-family="Times-12" font-size="14.00"> &#160;Module</text>
<polygon fill="#80b1d3" stroke="transparent" points="1961.5,-10 1961.5,-30 1981.5,-30 1981.5,-10 1961.5,-10"/>
<text text-anchor="start" x="1985.28" y="-15.4" font-family="Times-12" font-size="14.00"> &#160;Bootstrap</text>
<polygon fill="#fdb462" stroke="transparent" points="2058.5,-10 2058.5,-30 2078.5,-30 2078.5,-10 2058.5,-10"/>
<text text-anchor="start" x="2082.17" y="-15.4" font-family="Times-12" font-size="14.00"> &#160;Providers</text>
<polygon fill="#fb8072" stroke="transparent" points="2154.5,-10 2154.5,-30 2174.5,-30 2174.5,-10 2154.5,-10"/>
<text text-anchor="start" x="2178.23" y="-15.4" font-family="Times-12" font-size="14.00"> &#160;Exports</text>
<g id="clust1" class="cluster">
<title>cluster_AppModule</title>
<polygon fill="none" stroke="black" stroke-dasharray="1,5" points="1536,-146 1536,-415 2461,-415 2461,-146 1536,-146"/>
</g>
<g id="clust3" class="cluster">
<title>cluster_AppModule_imports</title>
<polygon fill="none" stroke="black" points="1682,-154 1682,-350 2453,-350 2453,-154 1682,-154"/>
</g>
<g id="clust6" class="cluster">
<title>cluster_AppModule_providers</title>
<polygon fill="none" stroke="black" points="1544,-298 1544,-350 1674,-350 1674,-298 1544,-298"/>
</g>
<g id="clust43" class="cluster">
<title>cluster_ReviewsModule</title>
<polygon fill="none" stroke="black" stroke-dasharray="1,5" points="444,-222 444,-290 838,-290 838,-222 444,-222"/>
</g>
<g id="clust48" class="cluster">
<title>cluster_ReviewsModule_providers</title>
<polygon fill="none" stroke="black" points="452,-230 452,-282 830,-282 830,-230 452,-230"/>
</g>
<g id="clust37" class="cluster">
<title>cluster_ProductVariantsModule</title>
<polygon fill="none" stroke="black" stroke-dasharray="1,5" points="1114,-222 1114,-290 1528,-290 1528,-222 1114,-222"/>
</g>
<g id="clust40" class="cluster">
<title>cluster_ProductVariantsModule_exports</title>
<polygon fill="none" stroke="black" points="1352,-230 1352,-282 1520,-282 1520,-230 1352,-230"/>
</g>
<g id="clust42" class="cluster">
<title>cluster_ProductVariantsModule_providers</title>
<polygon fill="none" stroke="black" points="1122,-230 1122,-282 1344,-282 1344,-230 1122,-230"/>
</g>
<g id="clust31" class="cluster">
<title>cluster_ProductsModule</title>
<polygon fill="none" stroke="black" stroke-dasharray="1,5" points="2469,-146 2469,-214 3601,-214 3601,-146 2469,-146"/>
</g>
<g id="clust33" class="cluster">
<title>cluster_ProductsModule_imports</title>
<polygon fill="none" stroke="black" points="3457,-154 3457,-206 3593,-206 3593,-154 3457,-154"/>
</g>
<g id="clust34" class="cluster">
<title>cluster_ProductsModule_exports</title>
<polygon fill="none" stroke="black" points="3323,-154 3323,-206 3449,-206 3449,-154 3323,-154"/>
</g>
<g id="clust36" class="cluster">
<title>cluster_ProductsModule_providers</title>
<polygon fill="none" stroke="black" points="2477,-154 2477,-206 3315,-206 3315,-154 2477,-154"/>
</g>
<g id="clust13" class="cluster">
<title>cluster_MailModule</title>
<polygon fill="none" stroke="black" stroke-dasharray="1,5" points="846,-222 846,-290 1106,-290 1106,-222 846,-222"/>
</g>
<g id="clust16" class="cluster">
<title>cluster_MailModule_exports</title>
<polygon fill="none" stroke="black" points="994,-230 994,-282 1098,-282 1098,-230 994,-230"/>
</g>
<g id="clust18" class="cluster">
<title>cluster_MailModule_providers</title>
<polygon fill="none" stroke="black" points="854,-230 854,-282 986,-282 986,-230 854,-230"/>
</g>
<g id="clust25" class="cluster">
<title>cluster_ProductImagesModule</title>
<polygon fill="none" stroke="black" stroke-dasharray="1,5" points="3393,-70 3393,-138 3621,-138 3621,-70 3393,-70"/>
</g>
<g id="clust30" class="cluster">
<title>cluster_ProductImagesModule_providers</title>
<polygon fill="none" stroke="black" points="3401,-78 3401,-130 3613,-130 3613,-78 3401,-78"/>
</g>
<g id="clust49" class="cluster">
<title>cluster_SubscribersModule</title>
<polygon fill="none" stroke="black" stroke-dasharray="1,5" points="3609,-146 3609,-214 3811,-214 3811,-146 3609,-146"/>
</g>
<g id="clust54" class="cluster">
<title>cluster_SubscribersModule_providers</title>
<polygon fill="none" stroke="black" points="3617,-154 3617,-206 3803,-206 3803,-154 3617,-154"/>
</g>
<g id="clust55" class="cluster">
<title>cluster_UploadsModule</title>
<polygon fill="none" stroke="black" stroke-dasharray="1,5" points="8,-70 8,-138 536,-138 536,-70 8,-70"/>
</g>
<g id="clust58" class="cluster">
<title>cluster_UploadsModule_exports</title>
<polygon fill="none" stroke="black" points="404,-78 404,-130 528,-130 528,-78 404,-78"/>
</g>
<g id="clust60" class="cluster">
<title>cluster_UploadsModule_providers</title>
<polygon fill="none" stroke="black" points="16,-78 16,-130 396,-130 396,-78 16,-78"/>
</g>
<g id="clust61" class="cluster">
<title>cluster_UsersModule</title>
<polygon fill="none" stroke="black" stroke-dasharray="1,5" points="544,-70 544,-138 2433,-138 2433,-70 544,-70"/>
</g>
<g id="clust66" class="cluster">
<title>cluster_UsersModule_providers</title>
<polygon fill="none" stroke="black" points="670,-78 670,-130 2425,-130 2425,-78 670,-78"/>
</g>
<g id="clust64" class="cluster">
<title>cluster_UsersModule_exports</title>
<polygon fill="none" stroke="black" points="552,-78 552,-130 662,-130 662,-78 552,-78"/>
</g>
<g id="clust19" class="cluster">
<title>cluster_PaginationModule</title>
<polygon fill="none" stroke="black" stroke-dasharray="1,5" points="3629,-70 3629,-138 3985,-138 3985,-70 3629,-70"/>
</g>
<g id="clust24" class="cluster">
<title>cluster_PaginationModule_providers</title>
<polygon fill="none" stroke="black" points="3789,-78 3789,-130 3977,-130 3977,-78 3789,-78"/>
</g>
<g id="clust22" class="cluster">
<title>cluster_PaginationModule_exports</title>
<polygon fill="none" stroke="black" points="3637,-78 3637,-130 3781,-130 3781,-78 3637,-78"/>
</g>
<g id="clust7" class="cluster">
<title>cluster_AuthModule</title>
<polygon fill="none" stroke="black" stroke-dasharray="1,5" points="2441,-70 2441,-138 3385,-138 3385,-70 2441,-70"/>
</g>
<g id="clust12" class="cluster">
<title>cluster_AuthModule_providers</title>
<polygon fill="none" stroke="black" points="2449,-78 2449,-130 3377,-130 3377,-78 2449,-78"/>
</g>
<!-- AuthModule -->
<g id="node1" class="node">
<title>AuthModule</title>
<polygon fill="#8dd3c7" stroke="black" points="2282.55,-198 2279.55,-202 2258.55,-202 2255.55,-198 2195.45,-198 2195.45,-162 2282.55,-162 2282.55,-198"/>
<text text-anchor="middle" x="2239" y="-175.8" font-family="Times,serif" font-size="14.00">AuthModule</text>
</g>
<!-- AppModule -->
<g id="node10" class="node">
<title>AppModule</title>
<polygon fill="#8dd3c7" stroke="black" points="2086.66,-407 2083.66,-411 2062.66,-411 2059.66,-407 2003.34,-407 2003.34,-371 2086.66,-371 2086.66,-407"/>
<text text-anchor="middle" x="2045" y="-384.8" font-family="Times,serif" font-size="14.00">AppModule</text>
</g>
<!-- AuthModule&#45;&gt;AppModule -->
<g id="edge1" class="edge">
<title>AuthModule&#45;&gt;AppModule</title>
<path fill="none" stroke="black" d="M2264.42,-198.1C2264.42,-247.33 2264.42,-380 2264.42,-380 2264.42,-380 2096.79,-380 2096.79,-380"/>
<polygon fill="black" stroke="black" points="2096.79,-376.5 2086.79,-380 2096.79,-383.5 2096.79,-376.5"/>
</g>
<!-- MailModule -->
<g id="node2" class="node">
<title>MailModule</title>
<polygon fill="#8dd3c7" stroke="black" points="1775.99,-198 1772.99,-202 1751.99,-202 1748.99,-198 1690.01,-198 1690.01,-162 1775.99,-162 1775.99,-198"/>
<text text-anchor="middle" x="1733" y="-175.8" font-family="Times,serif" font-size="14.00">MailModule</text>
</g>
<!-- SubscribersModule -->
<g id="node7" class="node">
<title>SubscribersModule</title>
<polygon fill="#8dd3c7" stroke="black" points="2398.36,-274 2395.36,-278 2374.36,-278 2371.36,-274 2273.64,-274 2273.64,-238 2398.36,-238 2398.36,-274"/>
<text text-anchor="middle" x="2336" y="-251.8" font-family="Times,serif" font-size="14.00">SubscribersModule</text>
</g>
<!-- MailModule&#45;&gt;SubscribersModule -->
<g id="edge34" class="edge">
<title>MailModule&#45;&gt;SubscribersModule</title>
<path fill="none" stroke="black" d="M1718.67,-198.2C1718.67,-204.03 1718.67,-209 1718.67,-209 1718.67,-209 2278.17,-209 2278.17,-209 2278.17,-209 2278.17,-227.96 2278.17,-227.96"/>
<polygon fill="black" stroke="black" points="2274.67,-227.96 2278.17,-237.96 2281.67,-227.96 2274.67,-227.96"/>
</g>
<!-- MailModule&#45;&gt;AppModule -->
<g id="edge2" class="edge">
<title>MailModule&#45;&gt;AppModule</title>
<path fill="none" stroke="black" d="M1747.33,-198.33C1747.33,-250.32 1747.33,-395 1747.33,-395 1747.33,-395 1993.3,-395 1993.3,-395"/>
<polygon fill="black" stroke="black" points="1993.3,-398.5 2003.3,-395 1993.3,-391.5 1993.3,-398.5"/>
</g>
<!-- MailService  -->
<g id="node17" class="node">
<title>MailService </title>
<polygon fill="#fb8072" stroke="black" points="1089.92,-274 1002.08,-274 1002.08,-238 1089.92,-238 1089.92,-274"/>
<text text-anchor="middle" x="1046" y="-251.8" font-family="Times,serif" font-size="14.00">MailService </text>
</g>
<!-- MailModule&#45;&gt;MailService  -->
<g id="edge16" class="edge">
<title>MailModule&#45;&gt;MailService </title>
<path fill="none" stroke="black" stroke-dasharray="5,2" d="M1689.76,-186C1539.06,-186 1046,-186 1046,-186 1046,-186 1046,-227.97 1046,-227.97"/>
<polygon fill="black" stroke="black" points="1042.5,-227.97 1046,-237.97 1049.5,-227.97 1042.5,-227.97"/>
</g>
<!-- ProductImagesModule -->
<g id="node3" class="node">
<title>ProductImagesModule</title>
<polygon fill="#8dd3c7" stroke="black" points="2444.52,-198 2441.52,-202 2420.52,-202 2417.52,-198 2301.48,-198 2301.48,-162 2444.52,-162 2444.52,-198"/>
<text text-anchor="middle" x="2373" y="-175.8" font-family="Times,serif" font-size="14.00">ProductImagesModule</text>
</g>
<!-- ProductImagesModule&#45;&gt;AppModule -->
<g id="edge3" class="edge">
<title>ProductImagesModule&#45;&gt;AppModule</title>
<path fill="none" stroke="black" d="M2421.6,-198.21C2421.6,-250.61 2421.6,-398 2421.6,-398 2421.6,-398 2096.74,-398 2096.74,-398"/>
<polygon fill="black" stroke="black" points="2096.74,-394.5 2086.74,-398 2096.74,-401.5 2096.74,-394.5"/>
</g>
<!-- ProductVariantsModule -->
<g id="node4" class="node">
<title>ProductVariantsModule</title>
<polygon fill="#8dd3c7" stroke="black" points="1944.02,-198 1941.02,-202 1920.02,-202 1917.02,-198 1793.98,-198 1793.98,-162 1944.02,-162 1944.02,-198"/>
<text text-anchor="middle" x="1869" y="-175.8" font-family="Times,serif" font-size="14.00">ProductVariantsModule</text>
</g>
<!-- ProductsModule -->
<g id="node5" class="node">
<title>ProductsModule</title>
<polygon fill="#8dd3c7" stroke="black" points="2255.04,-274 2252.04,-278 2231.04,-278 2228.04,-274 2146.96,-274 2146.96,-238 2255.04,-238 2255.04,-274"/>
<text text-anchor="middle" x="2201" y="-251.8" font-family="Times,serif" font-size="14.00">ProductsModule</text>
</g>
<!-- ProductVariantsModule&#45;&gt;ProductsModule -->
<g id="edge22" class="edge">
<title>ProductVariantsModule&#45;&gt;ProductsModule</title>
<path fill="none" stroke="black" d="M1914.16,-198.15C1914.16,-221.76 1914.16,-260 1914.16,-260 1914.16,-260 2136.71,-260 2136.71,-260"/>
<polygon fill="black" stroke="black" points="2136.71,-263.5 2146.71,-260 2136.71,-256.5 2136.71,-263.5"/>
</g>
<!-- ProductVariantsModule&#45;&gt;AppModule -->
<g id="edge4" class="edge">
<title>ProductVariantsModule&#45;&gt;AppModule</title>
<path fill="none" stroke="black" d="M1884.05,-198.01C1884.05,-247.7 1884.05,-383 1884.05,-383 1884.05,-383 1993.13,-383 1993.13,-383"/>
<polygon fill="black" stroke="black" points="1993.13,-386.5 2003.13,-383 1993.13,-379.5 1993.13,-386.5"/>
</g>
<!-- ProductVariantsService  -->
<g id="node28" class="node">
<title>ProductVariantsService </title>
<polygon fill="#fb8072" stroke="black" points="1512.45,-274 1359.55,-274 1359.55,-238 1512.45,-238 1512.45,-274"/>
<text text-anchor="middle" x="1436" y="-251.8" font-family="Times,serif" font-size="14.00">ProductVariantsService </text>
</g>
<!-- ProductVariantsModule&#45;&gt;ProductVariantsService  -->
<g id="edge29" class="edge">
<title>ProductVariantsModule&#45;&gt;ProductVariantsService </title>
<path fill="none" stroke="black" stroke-dasharray="5,2" d="M1853.95,-198.03C1853.95,-217.58 1853.95,-246 1853.95,-246 1853.95,-246 1522.66,-246 1522.66,-246"/>
<polygon fill="black" stroke="black" points="1522.66,-242.5 1512.66,-246 1522.66,-249.5 1522.66,-242.5"/>
</g>
<!-- ReviewsModule -->
<g id="node6" class="node">
<title>ReviewsModule</title>
<polygon fill="#8dd3c7" stroke="black" points="2181.76,-342 2178.76,-346 2157.76,-346 2154.76,-342 2074.24,-342 2074.24,-306 2181.76,-306 2181.76,-342"/>
<text text-anchor="middle" x="2128" y="-319.8" font-family="Times,serif" font-size="14.00">ReviewsModule</text>
</g>
<!-- ProductsModule&#45;&gt;ReviewsModule -->
<g id="edge31" class="edge">
<title>ProductsModule&#45;&gt;ReviewsModule</title>
<path fill="none" stroke="black" d="M2164.3,-274.22C2164.3,-274.22 2164.3,-295.73 2164.3,-295.73"/>
<polygon fill="black" stroke="black" points="2160.8,-295.73 2164.3,-305.73 2167.8,-295.73 2160.8,-295.73"/>
</g>
<!-- ProductsModule&#45;&gt;AppModule -->
<g id="edge5" class="edge">
<title>ProductsModule&#45;&gt;AppModule</title>
<path fill="none" stroke="black" d="M2146.95,-267C2102.38,-267 2046.46,-267 2046.46,-267 2046.46,-267 2046.46,-361 2046.46,-361"/>
<polygon fill="black" stroke="black" points="2042.96,-361 2046.46,-371 2049.96,-361 2042.96,-361"/>
</g>
<!-- ProductsService  -->
<g id="node23" class="node">
<title>ProductsService </title>
<polygon fill="#fb8072" stroke="black" points="3441.47,-198 3330.53,-198 3330.53,-162 3441.47,-162 3441.47,-198"/>
<text text-anchor="middle" x="3386" y="-175.8" font-family="Times,serif" font-size="14.00">ProductsService </text>
</g>
<!-- ProductsModule&#45;&gt;ProductsService  -->
<g id="edge24" class="edge">
<title>ProductsModule&#45;&gt;ProductsService </title>
<path fill="none" stroke="black" stroke-dasharray="5,2" d="M2203.8,-237.79C2203.8,-232.45 2203.8,-228 2203.8,-228 2203.8,-228 3386,-228 3386,-228 3386,-228 3386,-208.15 3386,-208.15"/>
<polygon fill="black" stroke="black" points="3389.5,-208.15 3386,-198.15 3382.5,-208.15 3389.5,-208.15"/>
</g>
<!-- ReviewsModule&#45;&gt;AppModule -->
<g id="edge6" class="edge">
<title>ReviewsModule&#45;&gt;AppModule</title>
<path fill="none" stroke="black" d="M2080.47,-342.11C2080.47,-342.11 2080.47,-360.99 2080.47,-360.99"/>
<polygon fill="black" stroke="black" points="2076.97,-360.99 2080.47,-370.99 2083.97,-360.99 2076.97,-360.99"/>
</g>
<!-- SubscribersModule&#45;&gt;AppModule -->
<g id="edge7" class="edge">
<title>SubscribersModule&#45;&gt;AppModule</title>
<path fill="none" stroke="black" d="M2336,-274.21C2336,-310.64 2336,-389 2336,-389 2336,-389 2096.69,-389 2096.69,-389"/>
<polygon fill="black" stroke="black" points="2096.69,-385.5 2086.69,-389 2096.69,-392.5 2096.69,-385.5"/>
</g>
<!-- UploadsModule -->
<g id="node8" class="node">
<title>UploadsModule</title>
<polygon fill="#8dd3c7" stroke="black" points="2068.21,-198 2065.21,-202 2044.21,-202 2041.21,-198 1961.79,-198 1961.79,-162 2068.21,-162 2068.21,-198"/>
<text text-anchor="middle" x="2015" y="-175.8" font-family="Times,serif" font-size="14.00">UploadsModule</text>
</g>
<!-- UploadsModule&#45;&gt;ProductsModule -->
<g id="edge23" class="edge">
<title>UploadsModule&#45;&gt;ProductsModule</title>
<path fill="none" stroke="black" d="M2057.28,-198.04C2057.28,-219.66 2057.28,-253 2057.28,-253 2057.28,-253 2136.67,-253 2136.67,-253"/>
<polygon fill="black" stroke="black" points="2136.67,-256.5 2146.67,-253 2136.67,-249.5 2136.67,-256.5"/>
</g>
<!-- UploadsModule&#45;&gt;AppModule -->
<g id="edge8" class="edge">
<title>UploadsModule&#45;&gt;AppModule</title>
<path fill="none" stroke="black" d="M2024.82,-198.18C2024.82,-198.18 2024.82,-360.71 2024.82,-360.71"/>
<polygon fill="black" stroke="black" points="2021.32,-360.71 2024.82,-370.71 2028.32,-360.71 2021.32,-360.71"/>
</g>
<!-- UploadsService  -->
<g id="node33" class="node">
<title>UploadsService </title>
<polygon fill="#fb8072" stroke="black" points="520.13,-122 411.87,-122 411.87,-86 520.13,-86 520.13,-122"/>
<text text-anchor="middle" x="466" y="-99.8" font-family="Times,serif" font-size="14.00">UploadsService </text>
</g>
<!-- UploadsModule&#45;&gt;UploadsService  -->
<g id="edge36" class="edge">
<title>UploadsModule&#45;&gt;UploadsService </title>
<path fill="none" stroke="black" stroke-dasharray="5,2" d="M1983.17,-161.89C1983.17,-152.1 1983.17,-142 1983.17,-142 1983.17,-142 489.91,-142 489.91,-142 489.91,-142 489.91,-132.11 489.91,-132.11"/>
<polygon fill="black" stroke="black" points="493.41,-132.11 489.91,-122.11 486.41,-132.11 493.41,-132.11"/>
</g>
<!-- UsersModule -->
<g id="node9" class="node">
<title>UsersModule</title>
<polygon fill="#8dd3c7" stroke="black" points="2177.92,-198 2174.92,-202 2153.92,-202 2150.92,-198 2086.08,-198 2086.08,-162 2177.92,-162 2177.92,-198"/>
<text text-anchor="middle" x="2132" y="-175.8" font-family="Times,serif" font-size="14.00">UsersModule</text>
</g>
<!-- UsersModule&#45;&gt;AppModule -->
<g id="edge9" class="edge">
<title>UsersModule&#45;&gt;AppModule</title>
<path fill="none" stroke="black" d="M2116.51,-198.01C2116.51,-214.05 2116.51,-235 2116.51,-235 2116.51,-235 2035.64,-235 2035.64,-235 2035.64,-235 2035.64,-360.73 2035.64,-360.73"/>
<polygon fill="black" stroke="black" points="2032.14,-360.73 2035.64,-370.73 2039.14,-360.73 2032.14,-360.73"/>
</g>
<!-- UsersService  -->
<g id="node36" class="node">
<title>UsersService </title>
<polygon fill="#fb8072" stroke="black" points="653.85,-122 560.15,-122 560.15,-86 653.85,-86 653.85,-122"/>
<text text-anchor="middle" x="607" y="-99.8" font-family="Times,serif" font-size="14.00">UsersService </text>
</g>
<!-- UsersModule&#45;&gt;UsersService  -->
<g id="edge40" class="edge">
<title>UsersModule&#45;&gt;UsersService </title>
<path fill="none" stroke="black" stroke-dasharray="5,2" d="M2096.45,-161.94C2096.45,-150.56 2096.45,-138 2096.45,-138 2096.45,-138 638.84,-138 638.84,-138 638.84,-138 638.84,-132.19 638.84,-132.19"/>
<polygon fill="black" stroke="black" points="642.34,-132.19 638.84,-122.19 635.34,-132.19 642.34,-132.19"/>
</g>
<!-- AppService -->
<g id="node11" class="node">
<title>AppService</title>
<ellipse fill="#fdb462" stroke="black" cx="1609" cy="-324" rx="56.74" ry="18"/>
<text text-anchor="middle" x="1609" y="-319.8" font-family="Times,serif" font-size="14.00">AppService</text>
</g>
<!-- AppService&#45;&gt;AppModule -->
<g id="edge10" class="edge">
<title>AppService&#45;&gt;AppModule</title>
<path fill="none" stroke="black" d="M1665.74,-324C1777.2,-324 2013.99,-324 2013.99,-324 2013.99,-324 2013.99,-360.89 2013.99,-360.89"/>
<polygon fill="black" stroke="black" points="2010.49,-360.89 2013.99,-370.89 2017.49,-360.89 2010.49,-360.89"/>
</g>
<!-- AuthService -->
<g id="node12" class="node">
<title>AuthService</title>
<ellipse fill="#fdb462" stroke="black" cx="2936" cy="-104" rx="59.11" ry="18"/>
<text text-anchor="middle" x="2936" y="-99.8" font-family="Times,serif" font-size="14.00">AuthService</text>
</g>
<!-- AuthService&#45;&gt;AuthModule -->
<g id="edge11" class="edge">
<title>AuthService&#45;&gt;AuthModule</title>
<path fill="none" stroke="black" d="M2891.96,-116.3C2891.96,-129.62 2891.96,-149 2891.96,-149 2891.96,-149 2215.16,-149 2215.16,-149 2215.16,-149 2215.16,-151.97 2215.16,-151.97"/>
<polygon fill="black" stroke="black" points="2211.66,-151.97 2215.16,-161.97 2218.66,-151.97 2211.66,-151.97"/>
</g>
<!-- GenerateTokensProvider -->
<g id="node13" class="node">
<title>GenerateTokensProvider</title>
<ellipse fill="#fdb462" stroke="black" cx="2751" cy="-104" rx="107.63" ry="18"/>
<text text-anchor="middle" x="2751" y="-99.8" font-family="Times,serif" font-size="14.00">GenerateTokensProvider</text>
</g>
<!-- GenerateTokensProvider&#45;&gt;AuthModule -->
<g id="edge12" class="edge">
<title>GenerateTokensProvider&#45;&gt;AuthModule</title>
<path fill="none" stroke="black" d="M2663.98,-114.67C2663.98,-130.41 2663.98,-158 2663.98,-158 2663.98,-158 2280.18,-158 2280.18,-158 2280.18,-158 2280.18,-158.38 2280.18,-158.38"/>
<polygon fill="black" stroke="black" points="2276.68,-151.83 2280.18,-161.83 2283.68,-151.83 2276.68,-151.83"/>
</g>
<!-- OtpSigninProvider -->
<g id="node14" class="node">
<title>OtpSigninProvider</title>
<ellipse fill="#fdb462" stroke="black" cx="2541" cy="-104" rx="83.99" ry="18"/>
<text text-anchor="middle" x="2541" y="-99.8" font-family="Times,serif" font-size="14.00">OtpSigninProvider</text>
</g>
<!-- OtpSigninProvider&#45;&gt;AuthModule -->
<g id="edge13" class="edge">
<title>OtpSigninProvider&#45;&gt;AuthModule</title>
<path fill="none" stroke="black" d="M2471.24,-114.03C2471.24,-129.14 2471.24,-156 2471.24,-156 2471.24,-156 2277.58,-156 2277.58,-156 2277.58,-156 2277.58,-156.58 2277.58,-156.58"/>
<polygon fill="black" stroke="black" points="2274.08,-151.81 2277.58,-161.81 2281.08,-151.81 2274.08,-151.81"/>
</g>
<!-- RefreshTokenProvider -->
<g id="node15" class="node">
<title>RefreshTokenProvider</title>
<ellipse fill="#fdb462" stroke="black" cx="3270" cy="-104" rx="98.98" ry="18"/>
<text text-anchor="middle" x="3270" y="-99.8" font-family="Times,serif" font-size="14.00">RefreshTokenProvider</text>
</g>
<!-- RefreshTokenProvider&#45;&gt;AuthModule -->
<g id="edge14" class="edge">
<title>RefreshTokenProvider&#45;&gt;AuthModule</title>
<path fill="none" stroke="black" d="M3239.07,-121.21C3239.07,-135.67 3239.07,-154 3239.07,-154 3239.07,-154 2255.04,-154 2255.04,-154 2255.04,-154 2255.04,-154.79 2255.04,-154.79"/>
<polygon fill="black" stroke="black" points="2251.54,-151.94 2255.04,-161.94 2258.54,-151.94 2251.54,-151.94"/>
</g>
<!-- SignInProvider -->
<g id="node16" class="node">
<title>SignInProvider</title>
<ellipse fill="#fdb462" stroke="black" cx="3083" cy="-104" rx="70.08" ry="18"/>
<text text-anchor="middle" x="3083" y="-99.8" font-family="Times,serif" font-size="14.00">SignInProvider</text>
</g>
<!-- SignInProvider&#45;&gt;AuthModule -->
<g id="edge15" class="edge">
<title>SignInProvider&#45;&gt;AuthModule</title>
<path fill="none" stroke="black" d="M3042.87,-118.87C3042.87,-132.64 3042.87,-151 3042.87,-151 3042.87,-151 2235.1,-151 2235.1,-151 2235.1,-151 2235.1,-152.08 2235.1,-152.08"/>
<polygon fill="black" stroke="black" points="2231.6,-151.8 2235.1,-161.8 2238.6,-151.8 2231.6,-151.8"/>
</g>
<!-- MailService -->
<g id="node18" class="node">
<title>MailService</title>
<ellipse fill="#fdb462" stroke="black" cx="920" cy="-256" rx="58.46" ry="18"/>
<text text-anchor="middle" x="920" y="-251.8" font-family="Times,serif" font-size="14.00">MailService</text>
</g>
<!-- MailService&#45;&gt;MailModule -->
<g id="edge17" class="edge">
<title>MailService&#45;&gt;MailModule</title>
<path fill="none" stroke="black" d="M958.98,-242.46C958.98,-219.17 958.98,-174 958.98,-174 958.98,-174 1680.01,-174 1680.01,-174"/>
<polygon fill="black" stroke="black" points="1680.01,-177.5 1690.01,-174 1680.01,-170.5 1680.01,-177.5"/>
</g>
<!-- PaginationProvider  -->
<g id="node19" class="node">
<title>PaginationProvider </title>
<polygon fill="#fb8072" stroke="black" points="3772.59,-122 3645.41,-122 3645.41,-86 3772.59,-86 3772.59,-122"/>
<text text-anchor="middle" x="3709" y="-99.8" font-family="Times,serif" font-size="14.00">PaginationProvider </text>
</g>
<!-- PaginationModule -->
<g id="node20" class="node">
<title>PaginationModule</title>
<polygon fill="#8dd3c7" stroke="black" points="3584.93,-198 3581.93,-202 3560.93,-202 3557.93,-198 3465.07,-198 3465.07,-162 3584.93,-162 3584.93,-198"/>
<text text-anchor="middle" x="3525" y="-175.8" font-family="Times,serif" font-size="14.00">PaginationModule</text>
</g>
<!-- PaginationModule&#45;&gt;ProductsModule -->
<g id="edge21" class="edge">
<title>PaginationModule&#45;&gt;ProductsModule</title>
<path fill="none" stroke="black" d="M3544.91,-198.12C3544.91,-212.78 3544.91,-231 3544.91,-231 3544.91,-231 2246.69,-231 2246.69,-231 2246.69,-231 2246.69,-231.68 2246.69,-231.68"/>
<polygon fill="black" stroke="black" points="2243.19,-227.83 2246.69,-237.83 2250.19,-227.83 2243.19,-227.83"/>
</g>
<!-- PaginationModule&#45;&gt;UsersModule -->
<g id="edge39" class="edge">
<title>PaginationModule&#45;&gt;UsersModule</title>
<path fill="none" stroke="black" d="M3505.09,-198.17C3505.09,-200.45 3505.09,-202 3505.09,-202 3505.09,-202 2162.22,-202 2162.22,-202 2162.22,-202 2162.22,-201.62 2162.22,-201.62"/>
<polygon fill="black" stroke="black" points="2165.72,-208.17 2162.22,-198.17 2158.72,-208.17 2165.72,-208.17"/>
</g>
<!-- PaginationModule&#45;&gt;PaginationProvider  -->
<g id="edge18" class="edge">
<title>PaginationModule&#45;&gt;PaginationProvider </title>
<path fill="none" stroke="black" stroke-dasharray="5,2" d="M3584.99,-180C3601.49,-180 3614.94,-180 3614.94,-180 3614.94,-180 3614.94,-104 3614.94,-104 3614.94,-104 3635.22,-104 3635.22,-104"/>
<polygon fill="black" stroke="black" points="3635.22,-107.5 3645.22,-104 3635.22,-100.5 3635.22,-107.5"/>
</g>
<!-- PaginationProvider -->
<g id="node21" class="node">
<title>PaginationProvider</title>
<ellipse fill="#fdb462" stroke="black" cx="3883" cy="-104" rx="85.69" ry="18"/>
<text text-anchor="middle" x="3883" y="-99.8" font-family="Times,serif" font-size="14.00">PaginationProvider</text>
</g>
<!-- PaginationProvider&#45;&gt;PaginationModule -->
<g id="edge19" class="edge">
<title>PaginationProvider&#45;&gt;PaginationModule</title>
<path fill="none" stroke="black" d="M3883,-122.08C3883,-123.85 3883,-125 3883,-125 3883,-125 3525,-125 3525,-125 3525,-125 3525,-151.99 3525,-151.99"/>
<polygon fill="black" stroke="black" points="3521.5,-151.99 3525,-161.99 3528.5,-151.99 3521.5,-151.99"/>
</g>
<!-- ProductImagesService -->
<g id="node22" class="node">
<title>ProductImagesService</title>
<ellipse fill="#fdb462" stroke="black" cx="3507" cy="-104" rx="97.83" ry="18"/>
<text text-anchor="middle" x="3507" y="-99.8" font-family="Times,serif" font-size="14.00">ProductImagesService</text>
</g>
<!-- ProductImagesService&#45;&gt;ProductImagesModule -->
<g id="edge20" class="edge">
<title>ProductImagesService&#45;&gt;ProductImagesModule</title>
<path fill="none" stroke="black" d="M3425.16,-114.01C3425.16,-130.12 3425.16,-160 3425.16,-160 3425.16,-160 2430.87,-160 2430.87,-160 2430.87,-160 2430.87,-160.18 2430.87,-160.18"/>
<polygon fill="black" stroke="black" points="2427.37,-151.85 2430.87,-161.85 2434.37,-151.85 2427.37,-151.85"/>
</g>
<!-- CreateProductProvider -->
<g id="node24" class="node">
<title>CreateProductProvider</title>
<ellipse fill="#fdb462" stroke="black" cx="2585" cy="-180" rx="99.56" ry="18"/>
<text text-anchor="middle" x="2585" y="-175.8" font-family="Times,serif" font-size="14.00">CreateProductProvider</text>
</g>
<!-- CreateProductProvider&#45;&gt;ProductsModule -->
<g id="edge25" class="edge">
<title>CreateProductProvider&#45;&gt;ProductsModule</title>
<path fill="none" stroke="black" d="M2585,-198.04C2585,-205.75 2585,-213 2585,-213 2585,-213 2212.38,-213 2212.38,-213 2212.38,-213 2212.38,-227.51 2212.38,-227.51"/>
<polygon fill="black" stroke="black" points="2208.88,-227.51 2212.38,-237.51 2215.88,-227.51 2208.88,-227.51"/>
</g>
<!-- FindAllProductsProvider -->
<g id="node25" class="node">
<title>FindAllProductsProvider</title>
<ellipse fill="#fdb462" stroke="black" cx="3199" cy="-180" rx="108.26" ry="18"/>
<text text-anchor="middle" x="3199" y="-175.8" font-family="Times,serif" font-size="14.00">FindAllProductsProvider</text>
</g>
<!-- FindAllProductsProvider&#45;&gt;ProductsModule -->
<g id="edge26" class="edge">
<title>FindAllProductsProvider&#45;&gt;ProductsModule</title>
<path fill="none" stroke="black" d="M3199,-198.15C3199,-210.27 3199,-224 3199,-224 3199,-224 2238.12,-224 2238.12,-224 2238.12,-224 2238.12,-227.76 2238.12,-227.76"/>
<polygon fill="black" stroke="black" points="2234.62,-227.76 2238.12,-237.76 2241.62,-227.76 2234.62,-227.76"/>
</g>
<!-- ProductsService -->
<g id="node26" class="node">
<title>ProductsService</title>
<ellipse fill="#fdb462" stroke="black" cx="2999" cy="-180" rx="73.57" ry="18"/>
<text text-anchor="middle" x="2999" y="-175.8" font-family="Times,serif" font-size="14.00">ProductsService</text>
</g>
<!-- ProductsService&#45;&gt;ProductsModule -->
<g id="edge27" class="edge">
<title>ProductsService&#45;&gt;ProductsModule</title>
<path fill="none" stroke="black" d="M2999,-198.13C2999,-208.71 2999,-220 2999,-220 2999,-220 2229.54,-220 2229.54,-220 2229.54,-220 2229.54,-227.58 2229.54,-227.58"/>
<polygon fill="black" stroke="black" points="2226.04,-227.58 2229.54,-237.58 2233.04,-227.58 2226.04,-227.58"/>
</g>
<!-- UpdateProductProvider -->
<g id="node27" class="node">
<title>UpdateProductProvider</title>
<ellipse fill="#fdb462" stroke="black" cx="2805" cy="-180" rx="102.43" ry="18"/>
<text text-anchor="middle" x="2805" y="-175.8" font-family="Times,serif" font-size="14.00">UpdateProductProvider</text>
</g>
<!-- UpdateProductProvider&#45;&gt;ProductsModule -->
<g id="edge28" class="edge">
<title>UpdateProductProvider&#45;&gt;ProductsModule</title>
<path fill="none" stroke="black" d="M2805,-198.07C2805,-207.46 2805,-217 2805,-217 2805,-217 2220.96,-217 2220.96,-217 2220.96,-217 2220.96,-227.87 2220.96,-227.87"/>
<polygon fill="black" stroke="black" points="2217.46,-227.87 2220.96,-237.87 2224.46,-227.87 2217.46,-227.87"/>
</g>
<!-- ProductVariantsService -->
<g id="node29" class="node">
<title>ProductVariantsService</title>
<ellipse fill="#fdb462" stroke="black" cx="1233" cy="-256" rx="102.98" ry="18"/>
<text text-anchor="middle" x="1233" y="-251.8" font-family="Times,serif" font-size="14.00">ProductVariantsService</text>
</g>
<!-- ProductVariantsService&#45;&gt;ProductVariantsModule -->
<g id="edge30" class="edge">
<title>ProductVariantsService&#45;&gt;ProductVariantsModule</title>
<path fill="none" stroke="black" d="M1316.05,-245.4C1316.05,-230.72 1316.05,-206 1316.05,-206 1316.05,-206 1823.84,-206 1823.84,-206 1823.84,-206 1823.84,-205.21 1823.84,-205.21"/>
<polygon fill="black" stroke="black" points="1827.34,-208.06 1823.84,-198.06 1820.34,-208.06 1827.34,-208.06"/>
</g>
<!-- CreateReviewProvider -->
<g id="node30" class="node">
<title>CreateReviewProvider</title>
<ellipse fill="#fdb462" stroke="black" cx="723" cy="-256" rx="98.97" ry="18"/>
<text text-anchor="middle" x="723" y="-251.8" font-family="Times,serif" font-size="14.00">CreateReviewProvider</text>
</g>
<!-- CreateReviewProvider&#45;&gt;ReviewsModule -->
<g id="edge32" class="edge">
<title>CreateReviewProvider&#45;&gt;ReviewsModule</title>
<path fill="none" stroke="black" d="M723,-274.2C723,-280.03 723,-285 723,-285 723,-285 2082.23,-285 2082.23,-285 2082.23,-285 2082.23,-295.87 2082.23,-295.87"/>
<polygon fill="black" stroke="black" points="2078.73,-295.87 2082.23,-305.87 2085.73,-295.87 2078.73,-295.87"/>
</g>
<!-- ReviewsService -->
<g id="node31" class="node">
<title>ReviewsService</title>
<ellipse fill="#fdb462" stroke="black" cx="533" cy="-256" rx="73.49" ry="18"/>
<text text-anchor="middle" x="533" y="-251.8" font-family="Times,serif" font-size="14.00">ReviewsService</text>
</g>
<!-- ReviewsService&#45;&gt;ReviewsModule -->
<g id="edge33" class="edge">
<title>ReviewsService&#45;&gt;ReviewsModule</title>
<path fill="none" stroke="black" d="M533,-274.13C533,-284.71 533,-296 533,-296 533,-296 2078.18,-296 2078.18,-296 2078.18,-296 2078.18,-296.98 2078.18,-296.98"/>
<polygon fill="black" stroke="black" points="2074.68,-295.79 2078.18,-305.79 2081.68,-295.79 2074.68,-295.79"/>
</g>
<!-- SubscribersService -->
<g id="node32" class="node">
<title>SubscribersService</title>
<ellipse fill="#fdb462" stroke="black" cx="3710" cy="-180" rx="85.09" ry="18"/>
<text text-anchor="middle" x="3710" y="-175.8" font-family="Times,serif" font-size="14.00">SubscribersService</text>
</g>
<!-- SubscribersService&#45;&gt;SubscribersModule -->
<g id="edge35" class="edge">
<title>SubscribersService&#45;&gt;SubscribersModule</title>
<path fill="none" stroke="black" d="M3710,-198.01C3710,-220.49 3710,-256 3710,-256 3710,-256 2408.61,-256 2408.61,-256"/>
<polygon fill="black" stroke="black" points="2408.61,-252.5 2398.61,-256 2408.61,-259.5 2408.61,-252.5"/>
</g>
<!-- UploadToAwsProvider -->
<g id="node34" class="node">
<title>UploadToAwsProvider</title>
<ellipse fill="#fdb462" stroke="black" cx="125" cy="-104" rx="101.29" ry="18"/>
<text text-anchor="middle" x="125" y="-99.8" font-family="Times,serif" font-size="14.00">UploadToAwsProvider</text>
</g>
<!-- UploadToAwsProvider&#45;&gt;UploadsModule -->
<g id="edge37" class="edge">
<title>UploadToAwsProvider&#45;&gt;UploadsModule</title>
<path fill="none" stroke="black" d="M125,-122C125,-131 125,-140 125,-140 125,-140 2028.56,-140 2028.56,-140 2028.56,-140 2028.56,-151.87 2028.56,-151.87"/>
<polygon fill="black" stroke="black" points="2025.06,-151.87 2028.56,-161.87 2032.06,-151.87 2025.06,-151.87"/>
</g>
<!-- UploadsService -->
<g id="node35" class="node">
<title>UploadsService</title>
<ellipse fill="#fdb462" stroke="black" cx="316" cy="-104" rx="72.35" ry="18"/>
<text text-anchor="middle" x="316" y="-99.8" font-family="Times,serif" font-size="14.00">UploadsService</text>
</g>
<!-- UploadsService&#45;&gt;UploadsModule -->
<g id="edge38" class="edge">
<title>UploadsService&#45;&gt;UploadsModule</title>
<path fill="none" stroke="black" d="M316,-122.1C316,-133.09 316,-145 316,-145 316,-145 1977.32,-145 1977.32,-145 1977.32,-145 1977.32,-151.68 1977.32,-151.68"/>
<polygon fill="black" stroke="black" points="1973.82,-151.68 1977.32,-161.68 1980.82,-151.68 1973.82,-151.68"/>
</g>
<!-- ClearOtpAndExpiryTimeProvider -->
<g id="node37" class="node">
<title>ClearOtpAndExpiryTimeProvider</title>
<ellipse fill="#fdb462" stroke="black" cx="2132" cy="-104" rx="142.96" ry="18"/>
<text text-anchor="middle" x="2132" y="-99.8" font-family="Times,serif" font-size="14.00">ClearOtpAndExpiryTimeProvider</text>
</g>
<!-- ClearOtpAndExpiryTimeProvider&#45;&gt;UsersModule -->
<g id="edge41" class="edge">
<title>ClearOtpAndExpiryTimeProvider&#45;&gt;UsersModule</title>
<path fill="none" stroke="black" d="M2157.39,-122.01C2157.39,-122.01 2157.39,-151.85 2157.39,-151.85"/>
<polygon fill="black" stroke="black" points="2153.89,-151.85 2157.39,-161.85 2160.89,-151.85 2153.89,-151.85"/>
</g>
<!-- CreateUsersProvider -->
<g id="node38" class="node">
<title>CreateUsersProvider</title>
<ellipse fill="#fdb462" stroke="black" cx="1880" cy="-104" rx="91.45" ry="18"/>
<text text-anchor="middle" x="1880" y="-99.8" font-family="Times,serif" font-size="14.00">CreateUsersProvider</text>
</g>
<!-- CreateUsersProvider&#45;&gt;UsersModule -->
<g id="edge42" class="edge">
<title>CreateUsersProvider&#45;&gt;UsersModule</title>
<path fill="none" stroke="black" d="M1966.68,-109.8C1966.68,-116.62 1966.68,-127 1966.68,-127 1966.68,-127 2147.24,-127 2147.24,-127 2147.24,-127 2147.24,-151.76 2147.24,-151.76"/>
<polygon fill="black" stroke="black" points="2143.74,-151.76 2147.24,-161.76 2150.74,-151.76 2143.74,-151.76"/>
</g>
<!-- FindOneByIdProvider -->
<g id="node39" class="node">
<title>FindOneByIdProvider</title>
<ellipse fill="#fdb462" stroke="black" cx="1673" cy="-104" rx="97.3" ry="18"/>
<text text-anchor="middle" x="1673" y="-99.8" font-family="Times,serif" font-size="14.00">FindOneByIdProvider</text>
</g>
<!-- FindOneByIdProvider&#45;&gt;UsersModule -->
<g id="edge43" class="edge">
<title>FindOneByIdProvider&#45;&gt;UsersModule</title>
<path fill="none" stroke="black" d="M1730.2,-118.83C1730.2,-124.21 1730.2,-129 1730.2,-129 1730.2,-129 2137.08,-129 2137.08,-129 2137.08,-129 2137.08,-151.88 2137.08,-151.88"/>
<polygon fill="black" stroke="black" points="2133.58,-151.88 2137.08,-161.88 2140.58,-151.88 2133.58,-151.88"/>
</g>
<!-- FindOneUserByEmailProvider -->
<g id="node40" class="node">
<title>FindOneUserByEmailProvider</title>
<ellipse fill="#fdb462" stroke="black" cx="1427" cy="-104" rx="130.8" ry="18"/>
<text text-anchor="middle" x="1427" y="-99.8" font-family="Times,serif" font-size="14.00">FindOneUserByEmailProvider</text>
</g>
<!-- FindOneUserByEmailProvider&#45;&gt;UsersModule -->
<g id="edge44" class="edge">
<title>FindOneUserByEmailProvider&#45;&gt;UsersModule</title>
<path fill="none" stroke="black" d="M1532.3,-114.67C1532.3,-122.22 1532.3,-131 1532.3,-131 1532.3,-131 2126.92,-131 2126.92,-131 2126.92,-131 2126.92,-151.75 2126.92,-151.75"/>
<polygon fill="black" stroke="black" points="2123.42,-151.75 2126.92,-161.75 2130.42,-151.75 2123.42,-151.75"/>
</g>
<!-- FindUserByOtpAndExpiryTimeProvider -->
<g id="node41" class="node">
<title>FindUserByOtpAndExpiryTimeProvider</title>
<ellipse fill="#fdb462" stroke="black" cx="1109" cy="-104" rx="169.05" ry="18"/>
<text text-anchor="middle" x="1109" y="-99.8" font-family="Times,serif" font-size="14.00">FindUserByOtpAndExpiryTimeProvider</text>
</g>
<!-- FindUserByOtpAndExpiryTimeProvider&#45;&gt;UsersModule -->
<g id="edge45" class="edge">
<title>FindUserByOtpAndExpiryTimeProvider&#45;&gt;UsersModule</title>
<path fill="none" stroke="black" d="M1204.27,-119C1204.27,-126.5 1204.27,-134 1204.27,-134 1204.27,-134 2116.76,-134 2116.76,-134 2116.76,-134 2116.76,-151.82 2116.76,-151.82"/>
<polygon fill="black" stroke="black" points="2113.26,-151.82 2116.76,-161.82 2120.26,-151.82 2113.26,-151.82"/>
</g>
<!-- StoreOtpAndExpireProvider -->
<g id="node42" class="node">
<title>StoreOtpAndExpireProvider</title>
<ellipse fill="#fdb462" stroke="black" cx="800" cy="-104" rx="121.55" ry="18"/>
<text text-anchor="middle" x="800" y="-99.8" font-family="Times,serif" font-size="14.00">StoreOtpAndExpireProvider</text>
</g>
<!-- StoreOtpAndExpireProvider&#45;&gt;UsersModule -->
<g id="edge46" class="edge">
<title>StoreOtpAndExpireProvider&#45;&gt;UsersModule</title>
<path fill="none" stroke="black" d="M891.65,-115.92C891.65,-125.01 891.65,-136 891.65,-136 891.65,-136 2106.61,-136 2106.61,-136 2106.61,-136 2106.61,-151.85 2106.61,-151.85"/>
<polygon fill="black" stroke="black" points="2103.11,-151.85 2106.61,-161.85 2110.11,-151.85 2103.11,-151.85"/>
</g>
<!-- UsersService -->
<g id="node43" class="node">
<title>UsersService</title>
<ellipse fill="#fdb462" stroke="black" cx="2355" cy="-104" rx="61.95" ry="18"/>
<text text-anchor="middle" x="2355" y="-99.8" font-family="Times,serif" font-size="14.00">UsersService</text>
</g>
<!-- UsersService&#45;&gt;UsersModule -->
<g id="edge47" class="edge">
<title>UsersService&#45;&gt;UsersModule</title>
<path fill="none" stroke="black" d="M2297.13,-110.72C2297.13,-122.81 2297.13,-147 2297.13,-147 2297.13,-147 2167.55,-147 2167.55,-147 2167.55,-147 2167.55,-151.96 2167.55,-151.96"/>
<polygon fill="black" stroke="black" points="2164.05,-151.96 2167.55,-161.96 2171.05,-151.96 2164.05,-151.96"/>
</g>
</g>
</svg>
