<?xml version="1.0" encoding="UTF-8" standalone="no"?>
<!DOCTYPE svg PUBLIC "-//W3C//DTD SVG 1.1//EN"
 "http://www.w3.org/Graphics/SVG/1.1/DTD/svg11.dtd">
<!-- Generated by graphviz version 2.47.0 (20210316.0004)
 -->
<!-- Title: dependencies Pages: 1 -->
<svg width="6055pt" height="431pt"
 viewBox="0.00 0.00 6055.00 431.00" xmlns="http://www.w3.org/2000/svg" xmlns:xlink="http://www.w3.org/1999/xlink">
<g id="graph0" class="graph" transform="scale(1 1) rotate(0) translate(4 427)">
<title>dependencies</title>
<polygon fill="white" stroke="transparent" points="-4,4 -4,-427 6051,-427 6051,4 -4,4"/>
<text text-anchor="start" x="3002.51" y="-42.4" font-family="Times-12" font-weight="bold" font-size="14.00">Legend</text>
<polygon fill="#ffffb3" stroke="transparent" points="2789.5,-10 2789.5,-30 2809.5,-30 2809.5,-10 2789.5,-10"/>
<text text-anchor="start" x="2813.13" y="-15.4" font-family="Times-12" font-size="14.00"> &#160;Declarations</text>
<polygon fill="#8dd3c7" stroke="transparent" points="2902.5,-10 2902.5,-30 2922.5,-30 2922.5,-10 2902.5,-10"/>
<text text-anchor="start" x="2926.23" y="-15.4" font-family="Times-12" font-size="14.00"> &#160;Module</text>
<polygon fill="#80b1d3" stroke="transparent" points="2988.5,-10 2988.5,-30 3008.5,-30 3008.5,-10 2988.5,-10"/>
<text text-anchor="start" x="3012.28" y="-15.4" font-family="Times-12" font-size="14.00"> &#160;Bootstrap</text>
<polygon fill="#fdb462" stroke="transparent" points="3085.5,-10 3085.5,-30 3105.5,-30 3105.5,-10 3085.5,-10"/>
<text text-anchor="start" x="3109.17" y="-15.4" font-family="Times-12" font-size="14.00"> &#160;Providers</text>
<polygon fill="#fb8072" stroke="transparent" points="3181.5,-10 3181.5,-30 3201.5,-30 3201.5,-10 3181.5,-10"/>
<text text-anchor="start" x="3205.23" y="-15.4" font-family="Times-12" font-size="14.00"> &#160;Exports</text>
<g id="clust31" class="cluster">
<title>cluster_ProductsModule</title>
<polygon fill="none" stroke="black" stroke-dasharray="1,5" points="2945,-146 2945,-358 4235,-358 4235,-146 2945,-146"/>
</g>
<g id="clust33" class="cluster">
<title>cluster_ProductsModule_imports</title>
<polygon fill="none" stroke="black" points="3799,-154 3799,-206 4227,-206 4227,-154 3799,-154"/>
</g>
<g id="clust34" class="cluster">
<title>cluster_ProductsModule_exports</title>
<polygon fill="none" stroke="black" points="3452,-298 3452,-350 3578,-350 3578,-298 3452,-298"/>
</g>
<g id="clust36" class="cluster">
<title>cluster_ProductsModule_providers</title>
<polygon fill="none" stroke="black" points="2953,-154 2953,-206 3791,-206 3791,-154 2953,-154"/>
</g>
<g id="clust13" class="cluster">
<title>cluster_MailModule</title>
<polygon fill="none" stroke="black" stroke-dasharray="1,5" points="372,-146 372,-358 520,-358 520,-146 372,-146"/>
</g>
<g id="clust18" class="cluster">
<title>cluster_MailModule_providers</title>
<polygon fill="none" stroke="black" points="380,-154 380,-206 512,-206 512,-154 380,-154"/>
</g>
<g id="clust16" class="cluster">
<title>cluster_MailModule_exports</title>
<polygon fill="none" stroke="black" points="402,-298 402,-350 506,-350 506,-298 402,-298"/>
</g>
<g id="clust19" class="cluster">
<title>cluster_PaginationModule</title>
<polygon fill="none" stroke="black" stroke-dasharray="1,5" points="4665,-214 4665,-282 5021,-282 5021,-214 4665,-214"/>
</g>
<g id="clust22" class="cluster">
<title>cluster_PaginationModule_exports</title>
<polygon fill="none" stroke="black" points="4869,-222 4869,-274 5013,-274 5013,-222 4869,-222"/>
</g>
<g id="clust24" class="cluster">
<title>cluster_PaginationModule_providers</title>
<polygon fill="none" stroke="black" points="4673,-222 4673,-274 4861,-274 4861,-222 4673,-222"/>
</g>
<g id="clust25" class="cluster">
<title>cluster_ProductImagesModule</title>
<polygon fill="none" stroke="black" stroke-dasharray="1,5" points="528,-214 528,-350 756,-350 756,-214 528,-214"/>
</g>
<g id="clust30" class="cluster">
<title>cluster_ProductImagesModule_providers</title>
<polygon fill="none" stroke="black" points="536,-222 536,-274 748,-274 748,-222 536,-222"/>
</g>
<g id="clust43" class="cluster">
<title>cluster_ReviewsModule</title>
<polygon fill="none" stroke="black" stroke-dasharray="1,5" points="2543,-214 2543,-350 2937,-350 2937,-214 2543,-214"/>
</g>
<g id="clust48" class="cluster">
<title>cluster_ReviewsModule_providers</title>
<polygon fill="none" stroke="black" points="2551,-222 2551,-274 2929,-274 2929,-222 2551,-222"/>
</g>
<g id="clust49" class="cluster">
<title>cluster_SubscribersModule</title>
<polygon fill="none" stroke="black" stroke-dasharray="1,5" points="162,-214 162,-350 364,-350 364,-214 162,-214"/>
</g>
<g id="clust54" class="cluster">
<title>cluster_SubscribersModule_providers</title>
<polygon fill="none" stroke="black" points="170,-222 170,-274 356,-274 356,-222 170,-222"/>
</g>
<g id="clust37" class="cluster">
<title>cluster_ProductVariantsModule</title>
<polygon fill="none" stroke="black" stroke-dasharray="1,5" points="4243,-214 4243,-282 4657,-282 4657,-214 4243,-214"/>
</g>
<g id="clust40" class="cluster">
<title>cluster_ProductVariantsModule_exports</title>
<polygon fill="none" stroke="black" points="4481,-222 4481,-274 4649,-274 4649,-222 4481,-222"/>
</g>
<g id="clust42" class="cluster">
<title>cluster_ProductVariantsModule_providers</title>
<polygon fill="none" stroke="black" points="4251,-222 4251,-274 4473,-274 4473,-222 4251,-222"/>
</g>
<g id="clust55" class="cluster">
<title>cluster_UploadsModule</title>
<polygon fill="none" stroke="black" stroke-dasharray="1,5" points="3719,-70 3719,-138 4247,-138 4247,-70 3719,-70"/>
</g>
<g id="clust58" class="cluster">
<title>cluster_UploadsModule_exports</title>
<polygon fill="none" stroke="black" points="4115,-78 4115,-130 4239,-130 4239,-78 4115,-78"/>
</g>
<g id="clust60" class="cluster">
<title>cluster_UploadsModule_providers</title>
<polygon fill="none" stroke="black" points="3727,-78 3727,-130 4107,-130 4107,-78 3727,-78"/>
</g>
<g id="clust61" class="cluster">
<title>cluster_UsersModule</title>
<polygon fill="none" stroke="black" stroke-dasharray="1,5" points="764,-146 764,-358 2535,-358 2535,-146 764,-146"/>
</g>
<g id="clust64" class="cluster">
<title>cluster_UsersModule_exports</title>
<polygon fill="none" stroke="black" points="1590,-298 1590,-350 1700,-350 1700,-298 1590,-298"/>
</g>
<g id="clust66" class="cluster">
<title>cluster_UsersModule_providers</title>
<polygon fill="none" stroke="black" points="772,-154 772,-206 2527,-206 2527,-154 772,-154"/>
</g>
<g id="clust7" class="cluster">
<title>cluster_AuthModule</title>
<polygon fill="none" stroke="black" stroke-dasharray="1,5" points="5095,-214 5095,-350 6039,-350 6039,-214 5095,-214"/>
</g>
<g id="clust12" class="cluster">
<title>cluster_AuthModule_providers</title>
<polygon fill="none" stroke="black" points="5103,-222 5103,-274 6031,-274 6031,-222 5103,-222"/>
</g>
<g id="clust1" class="cluster">
<title>cluster_AppModule</title>
<polygon fill="none" stroke="black" stroke-dasharray="1,5" points="8,-290 8,-415 154,-415 154,-290 8,-290"/>
</g>
<g id="clust6" class="cluster">
<title>cluster_AppModule_providers</title>
<polygon fill="none" stroke="black" points="16,-298 16,-350 146,-350 146,-298 16,-298"/>
</g>
<!-- AuthModule -->
<g id="node1" class="node">
<title>AuthModule</title>
<polygon fill="#8dd3c7" stroke="black" points="5559.55,-342 5556.55,-346 5535.55,-346 5532.55,-342 5472.45,-342 5472.45,-306 5559.55,-306 5559.55,-342"/>
<text text-anchor="middle" x="5516" y="-319.8" font-family="Times,serif" font-size="14.00">AuthModule</text>
</g>
<!-- AppModule -->
<g id="node10" class="node">
<title>AppModule</title>
<polygon fill="#8dd3c7" stroke="black" points="145.66,-407 142.66,-411 121.66,-411 118.66,-407 62.34,-407 62.34,-371 145.66,-371 145.66,-407"/>
<text text-anchor="middle" x="104" y="-384.8" font-family="Times,serif" font-size="14.00">AppModule</text>
</g>
<!-- AuthModule&#45;&gt;AppModule -->
<g id="edge1" class="edge">
<title>AuthModule&#45;&gt;AppModule</title>
<path fill="none" stroke="black" d="M5516,-342.32C5516,-365.66 5516,-403 5516,-403 5516,-403 155.99,-403 155.99,-403"/>
<polygon fill="black" stroke="black" points="155.99,-399.5 145.99,-403 155.99,-406.5 155.99,-399.5"/>
</g>
<!-- MailModule -->
<g id="node2" class="node">
<title>MailModule</title>
<polygon fill="#8dd3c7" stroke="black" points="476.99,-266 473.99,-270 452.99,-270 449.99,-266 391.01,-266 391.01,-230 476.99,-230 476.99,-266"/>
<text text-anchor="middle" x="434" y="-243.8" font-family="Times,serif" font-size="14.00">MailModule</text>
</g>
<!-- SubscribersModule -->
<g id="node7" class="node">
<title>SubscribersModule</title>
<polygon fill="#8dd3c7" stroke="black" points="325.36,-342 322.36,-346 301.36,-346 298.36,-342 200.64,-342 200.64,-306 325.36,-306 325.36,-342"/>
<text text-anchor="middle" x="263" y="-319.8" font-family="Times,serif" font-size="14.00">SubscribersModule</text>
</g>
<!-- MailModule&#45;&gt;SubscribersModule -->
<g id="edge34" class="edge">
<title>MailModule&#45;&gt;SubscribersModule</title>
<path fill="none" stroke="black" d="M397.35,-266.01C397.35,-288.49 397.35,-324 397.35,-324 397.35,-324 335.46,-324 335.46,-324"/>
<polygon fill="black" stroke="black" points="335.46,-320.5 325.46,-324 335.46,-327.5 335.46,-320.5"/>
</g>
<!-- MailModule&#45;&gt;AppModule -->
<g id="edge2" class="edge">
<title>MailModule&#45;&gt;AppModule</title>
<path fill="none" stroke="black" d="M403.7,-266.2C403.7,-301.31 403.7,-375 403.7,-375 403.7,-375 155.67,-375 155.67,-375"/>
<polygon fill="black" stroke="black" points="155.67,-371.5 145.67,-375 155.67,-378.5 155.67,-371.5"/>
</g>
<!-- MailService  -->
<g id="node17" class="node">
<title>MailService </title>
<polygon fill="#fb8072" stroke="black" points="497.92,-342 410.08,-342 410.08,-306 497.92,-306 497.92,-342"/>
<text text-anchor="middle" x="454" y="-319.8" font-family="Times,serif" font-size="14.00">MailService </text>
</g>
<!-- MailModule&#45;&gt;MailService  -->
<g id="edge16" class="edge">
<title>MailModule&#45;&gt;MailService </title>
<path fill="none" stroke="black" stroke-dasharray="5,2" d="M443.52,-266.01C443.52,-266.01 443.52,-295.85 443.52,-295.85"/>
<polygon fill="black" stroke="black" points="440.02,-295.85 443.52,-305.85 447.02,-295.85 440.02,-295.85"/>
</g>
<!-- ProductImagesModule -->
<g id="node3" class="node">
<title>ProductImagesModule</title>
<polygon fill="#8dd3c7" stroke="black" points="696.52,-342 693.52,-346 672.52,-346 669.52,-342 553.48,-342 553.48,-306 696.52,-306 696.52,-342"/>
<text text-anchor="middle" x="625" y="-319.8" font-family="Times,serif" font-size="14.00">ProductImagesModule</text>
</g>
<!-- ProductImagesModule&#45;&gt;AppModule -->
<g id="edge3" class="edge">
<title>ProductImagesModule&#45;&gt;AppModule</title>
<path fill="none" stroke="black" d="M625,-342.01C625,-358.05 625,-379 625,-379 625,-379 155.75,-379 155.75,-379"/>
<polygon fill="black" stroke="black" points="155.75,-375.5 145.75,-379 155.75,-382.5 155.75,-375.5"/>
</g>
<!-- ProductVariantsModule -->
<g id="node4" class="node">
<title>ProductVariantsModule</title>
<polygon fill="#8dd3c7" stroke="black" points="4219.02,-198 4216.02,-202 4195.02,-202 4192.02,-198 4068.98,-198 4068.98,-162 4219.02,-162 4219.02,-198"/>
<text text-anchor="middle" x="4144" y="-175.8" font-family="Times,serif" font-size="14.00">ProductVariantsModule</text>
</g>
<!-- ProductsModule -->
<g id="node5" class="node">
<title>ProductsModule</title>
<polygon fill="#8dd3c7" stroke="black" points="3569.04,-266 3566.04,-270 3545.04,-270 3542.04,-266 3460.96,-266 3460.96,-230 3569.04,-230 3569.04,-266"/>
<text text-anchor="middle" x="3515" y="-243.8" font-family="Times,serif" font-size="14.00">ProductsModule</text>
</g>
<!-- ProductVariantsModule&#45;&gt;ProductsModule -->
<g id="edge22" class="edge">
<title>ProductVariantsModule&#45;&gt;ProductsModule</title>
<path fill="none" stroke="black" d="M4106.37,-198.15C4106.37,-221.76 4106.37,-260 4106.37,-260 4106.37,-260 3579.05,-260 3579.05,-260"/>
<polygon fill="black" stroke="black" points="3579.05,-256.5 3569.05,-260 3579.05,-263.5 3579.05,-256.5"/>
</g>
<!-- ProductVariantsModule&#45;&gt;AppModule -->
<g id="edge4" class="edge">
<title>ProductVariantsModule&#45;&gt;AppModule</title>
<path fill="none" stroke="black" d="M4144,-198.3C4144,-250.93 4144,-399 4144,-399 4144,-399 155.97,-399 155.97,-399"/>
<polygon fill="black" stroke="black" points="155.97,-395.5 145.97,-399 155.97,-402.5 155.97,-395.5"/>
</g>
<!-- ProductVariantsService  -->
<g id="node28" class="node">
<title>ProductVariantsService </title>
<polygon fill="#fb8072" stroke="black" points="4641.45,-266 4488.55,-266 4488.55,-230 4641.45,-230 4641.45,-266"/>
<text text-anchor="middle" x="4565" y="-243.8" font-family="Times,serif" font-size="14.00">ProductVariantsService </text>
</g>
<!-- ProductVariantsModule&#45;&gt;ProductVariantsService  -->
<g id="edge29" class="edge">
<title>ProductVariantsModule&#45;&gt;ProductVariantsService </title>
<path fill="none" stroke="black" stroke-dasharray="5,2" d="M4219.27,-180C4340.36,-180 4565,-180 4565,-180 4565,-180 4565,-219.78 4565,-219.78"/>
<polygon fill="black" stroke="black" points="4561.5,-219.78 4565,-229.78 4568.5,-219.78 4561.5,-219.78"/>
</g>
<!-- ReviewsModule -->
<g id="node6" class="node">
<title>ReviewsModule</title>
<polygon fill="#8dd3c7" stroke="black" points="2780.76,-342 2777.76,-346 2756.76,-346 2753.76,-342 2673.24,-342 2673.24,-306 2780.76,-306 2780.76,-342"/>
<text text-anchor="middle" x="2727" y="-319.8" font-family="Times,serif" font-size="14.00">ReviewsModule</text>
</g>
<!-- ProductsModule&#45;&gt;ReviewsModule -->
<g id="edge31" class="edge">
<title>ProductsModule&#45;&gt;ReviewsModule</title>
<path fill="none" stroke="black" d="M3460.73,-252C3381.96,-252 3245.24,-252 3245.24,-252 3245.24,-252 3245.24,-324 3245.24,-324 3245.24,-324 2790.99,-324 2790.99,-324"/>
<polygon fill="black" stroke="black" points="2790.99,-320.5 2780.99,-324 2790.99,-327.5 2790.99,-320.5"/>
</g>
<!-- ProductsModule&#45;&gt;AppModule -->
<g id="edge5" class="edge">
<title>ProductsModule&#45;&gt;AppModule</title>
<path fill="none" stroke="black" d="M3460.9,-259C3395.76,-259 3295,-259 3295,-259 3295,-259 3295,-391 3295,-391 3295,-391 155.81,-391 155.81,-391"/>
<polygon fill="black" stroke="black" points="155.81,-387.5 145.81,-391 155.81,-394.5 155.81,-387.5"/>
</g>
<!-- ProductsService  -->
<g id="node23" class="node">
<title>ProductsService </title>
<polygon fill="#fb8072" stroke="black" points="3570.47,-342 3459.53,-342 3459.53,-306 3570.47,-306 3570.47,-342"/>
<text text-anchor="middle" x="3515" y="-319.8" font-family="Times,serif" font-size="14.00">ProductsService </text>
</g>
<!-- ProductsModule&#45;&gt;ProductsService  -->
<g id="edge24" class="edge">
<title>ProductsModule&#45;&gt;ProductsService </title>
<path fill="none" stroke="black" stroke-dasharray="5,2" d="M3515,-266.01C3515,-266.01 3515,-295.85 3515,-295.85"/>
<polygon fill="black" stroke="black" points="3511.5,-295.85 3515,-305.85 3518.5,-295.85 3511.5,-295.85"/>
</g>
<!-- ReviewsModule&#45;&gt;AppModule -->
<g id="edge6" class="edge">
<title>ReviewsModule&#45;&gt;AppModule</title>
<path fill="none" stroke="black" d="M2727,-342.22C2727,-360.83 2727,-387 2727,-387 2727,-387 155.73,-387 155.73,-387"/>
<polygon fill="black" stroke="black" points="155.73,-383.5 145.73,-387 155.73,-390.5 155.73,-383.5"/>
</g>
<!-- SubscribersModule&#45;&gt;AppModule -->
<g id="edge7" class="edge">
<title>SubscribersModule&#45;&gt;AppModule</title>
<path fill="none" stroke="black" d="M200.59,-324C170.87,-324 141.72,-324 141.72,-324 141.72,-324 141.72,-360.89 141.72,-360.89"/>
<polygon fill="black" stroke="black" points="138.22,-360.89 141.72,-370.89 145.22,-360.89 138.22,-360.89"/>
</g>
<!-- UploadsModule -->
<g id="node8" class="node">
<title>UploadsModule</title>
<polygon fill="#8dd3c7" stroke="black" points="4051.21,-198 4048.21,-202 4027.21,-202 4024.21,-198 3944.79,-198 3944.79,-162 4051.21,-162 4051.21,-198"/>
<text text-anchor="middle" x="3998" y="-175.8" font-family="Times,serif" font-size="14.00">UploadsModule</text>
</g>
<!-- UploadsModule&#45;&gt;ProductsModule -->
<g id="edge23" class="edge">
<title>UploadsModule&#45;&gt;ProductsModule</title>
<path fill="none" stroke="black" d="M3980.3,-198.29C3980.3,-220.21 3980.3,-254 3980.3,-254 3980.3,-254 3579.29,-254 3579.29,-254"/>
<polygon fill="black" stroke="black" points="3579.29,-250.5 3569.29,-254 3579.29,-257.5 3579.29,-250.5"/>
</g>
<!-- UploadsModule&#45;&gt;AppModule -->
<g id="edge8" class="edge">
<title>UploadsModule&#45;&gt;AppModule</title>
<path fill="none" stroke="black" d="M4015.7,-198.33C4015.7,-250.32 4015.7,-395 4015.7,-395 4015.7,-395 155.94,-395 155.94,-395"/>
<polygon fill="black" stroke="black" points="155.94,-391.5 145.94,-395 155.94,-398.5 155.94,-391.5"/>
</g>
<!-- UploadsService  -->
<g id="node33" class="node">
<title>UploadsService </title>
<polygon fill="#fb8072" stroke="black" points="4231.13,-122 4122.87,-122 4122.87,-86 4231.13,-86 4231.13,-122"/>
<text text-anchor="middle" x="4177" y="-99.8" font-family="Times,serif" font-size="14.00">UploadsService </text>
</g>
<!-- UploadsModule&#45;&gt;UploadsService  -->
<g id="edge36" class="edge">
<title>UploadsModule&#45;&gt;UploadsService </title>
<path fill="none" stroke="black" stroke-dasharray="5,2" d="M4024.55,-161.97C4024.55,-155.15 4024.55,-149 4024.55,-149 4024.55,-149 4171.1,-149 4171.1,-149 4171.1,-149 4171.1,-132.04 4171.1,-132.04"/>
<polygon fill="black" stroke="black" points="4174.6,-132.04 4171.1,-122.04 4167.6,-132.04 4174.6,-132.04"/>
</g>
<!-- UsersModule -->
<g id="node9" class="node">
<title>UsersModule</title>
<polygon fill="#8dd3c7" stroke="black" points="1765.92,-266 1762.92,-270 1741.92,-270 1738.92,-266 1674.08,-266 1674.08,-230 1765.92,-230 1765.92,-266"/>
<text text-anchor="middle" x="1720" y="-243.8" font-family="Times,serif" font-size="14.00">UsersModule</text>
</g>
<!-- UsersModule&#45;&gt;AppModule -->
<g id="edge9" class="edge">
<title>UsersModule&#45;&gt;AppModule</title>
<path fill="none" stroke="black" d="M1728.69,-266.21C1728.69,-303.06 1728.69,-383 1728.69,-383 1728.69,-383 155.79,-383 155.79,-383"/>
<polygon fill="black" stroke="black" points="155.79,-379.5 145.79,-383 155.79,-386.5 155.79,-379.5"/>
</g>
<!-- UsersService  -->
<g id="node36" class="node">
<title>UsersService </title>
<polygon fill="#fb8072" stroke="black" points="1691.85,-342 1598.15,-342 1598.15,-306 1691.85,-306 1691.85,-342"/>
<text text-anchor="middle" x="1645" y="-319.8" font-family="Times,serif" font-size="14.00">UsersService </text>
</g>
<!-- UsersModule&#45;&gt;UsersService  -->
<g id="edge40" class="edge">
<title>UsersModule&#45;&gt;UsersService </title>
<path fill="none" stroke="black" stroke-dasharray="5,2" d="M1682.98,-266.01C1682.98,-266.01 1682.98,-295.85 1682.98,-295.85"/>
<polygon fill="black" stroke="black" points="1679.48,-295.85 1682.98,-305.85 1686.48,-295.85 1679.48,-295.85"/>
</g>
<!-- AppService -->
<g id="node11" class="node">
<title>AppService</title>
<ellipse fill="#fdb462" stroke="black" cx="81" cy="-324" rx="56.74" ry="18"/>
<text text-anchor="middle" x="81" y="-319.8" font-family="Times,serif" font-size="14.00">AppService</text>
</g>
<!-- AppService&#45;&gt;AppModule -->
<g id="edge10" class="edge">
<title>AppService&#45;&gt;AppModule</title>
<path fill="none" stroke="black" d="M99.9,-341.08C99.9,-341.08 99.9,-360.9 99.9,-360.9"/>
<polygon fill="black" stroke="black" points="96.4,-360.9 99.9,-370.9 103.4,-360.9 96.4,-360.9"/>
</g>
<!-- AuthService -->
<g id="node12" class="node">
<title>AuthService</title>
<ellipse fill="#fdb462" stroke="black" cx="5806" cy="-248" rx="59.11" ry="18"/>
<text text-anchor="middle" x="5806" y="-243.8" font-family="Times,serif" font-size="14.00">AuthService</text>
</g>
<!-- AuthService&#45;&gt;AuthModule -->
<g id="edge11" class="edge">
<title>AuthService&#45;&gt;AuthModule</title>
<path fill="none" stroke="black" d="M5806,-266.03C5806,-286.77 5806,-318 5806,-318 5806,-318 5569.73,-318 5569.73,-318"/>
<polygon fill="black" stroke="black" points="5569.73,-314.5 5559.73,-318 5569.73,-321.5 5569.73,-314.5"/>
</g>
<!-- GenerateTokensProvider -->
<g id="node13" class="node">
<title>GenerateTokensProvider</title>
<ellipse fill="#fdb462" stroke="black" cx="5621" cy="-248" rx="107.63" ry="18"/>
<text text-anchor="middle" x="5621" y="-243.8" font-family="Times,serif" font-size="14.00">GenerateTokensProvider</text>
</g>
<!-- GenerateTokensProvider&#45;&gt;AuthModule -->
<g id="edge12" class="edge">
<title>GenerateTokensProvider&#45;&gt;AuthModule</title>
<path fill="none" stroke="black" d="M5536.61,-259.21C5536.61,-259.21 5536.61,-295.96 5536.61,-295.96"/>
<polygon fill="black" stroke="black" points="5533.11,-295.96 5536.61,-305.96 5540.11,-295.96 5533.11,-295.96"/>
</g>
<!-- OtpSigninProvider -->
<g id="node14" class="node">
<title>OtpSigninProvider</title>
<ellipse fill="#fdb462" stroke="black" cx="5411" cy="-248" rx="83.99" ry="18"/>
<text text-anchor="middle" x="5411" y="-243.8" font-family="Times,serif" font-size="14.00">OtpSigninProvider</text>
</g>
<!-- OtpSigninProvider&#45;&gt;AuthModule -->
<g id="edge13" class="edge">
<title>OtpSigninProvider&#45;&gt;AuthModule</title>
<path fill="none" stroke="black" d="M5483.61,-257.32C5483.61,-257.32 5483.61,-295.89 5483.61,-295.89"/>
<polygon fill="black" stroke="black" points="5480.11,-295.89 5483.61,-305.89 5487.11,-295.89 5480.11,-295.89"/>
</g>
<!-- RefreshTokenProvider -->
<g id="node15" class="node">
<title>RefreshTokenProvider</title>
<ellipse fill="#fdb462" stroke="black" cx="5210" cy="-248" rx="98.98" ry="18"/>
<text text-anchor="middle" x="5210" y="-243.8" font-family="Times,serif" font-size="14.00">RefreshTokenProvider</text>
</g>
<!-- RefreshTokenProvider&#45;&gt;AuthModule -->
<g id="edge14" class="edge">
<title>RefreshTokenProvider&#45;&gt;AuthModule</title>
<path fill="none" stroke="black" d="M5210,-266.01C5210,-288.49 5210,-324 5210,-324 5210,-324 5462.16,-324 5462.16,-324"/>
<polygon fill="black" stroke="black" points="5462.16,-327.5 5472.16,-324 5462.16,-320.5 5462.16,-327.5"/>
</g>
<!-- SignInProvider -->
<g id="node16" class="node">
<title>SignInProvider</title>
<ellipse fill="#fdb462" stroke="black" cx="5953" cy="-248" rx="70.08" ry="18"/>
<text text-anchor="middle" x="5953" y="-243.8" font-family="Times,serif" font-size="14.00">SignInProvider</text>
</g>
<!-- SignInProvider&#45;&gt;AuthModule -->
<g id="edge15" class="edge">
<title>SignInProvider&#45;&gt;AuthModule</title>
<path fill="none" stroke="black" d="M5953,-266.2C5953,-290.36 5953,-330 5953,-330 5953,-330 5569.9,-330 5569.9,-330"/>
<polygon fill="black" stroke="black" points="5569.9,-326.5 5559.9,-330 5569.9,-333.5 5569.9,-326.5"/>
</g>
<!-- MailService -->
<g id="node18" class="node">
<title>MailService</title>
<ellipse fill="#fdb462" stroke="black" cx="446" cy="-180" rx="58.46" ry="18"/>
<text text-anchor="middle" x="446" y="-175.8" font-family="Times,serif" font-size="14.00">MailService</text>
</g>
<!-- MailService&#45;&gt;MailModule -->
<g id="edge17" class="edge">
<title>MailService&#45;&gt;MailModule</title>
<path fill="none" stroke="black" d="M434,-197.87C434,-197.87 434,-219.54 434,-219.54"/>
<polygon fill="black" stroke="black" points="430.5,-219.54 434,-229.54 437.5,-219.54 430.5,-219.54"/>
</g>
<!-- PaginationProvider  -->
<g id="node19" class="node">
<title>PaginationProvider </title>
<polygon fill="#fb8072" stroke="black" points="5004.59,-266 4877.41,-266 4877.41,-230 5004.59,-230 5004.59,-266"/>
<text text-anchor="middle" x="4941" y="-243.8" font-family="Times,serif" font-size="14.00">PaginationProvider </text>
</g>
<!-- PaginationModule -->
<g id="node20" class="node">
<title>PaginationModule</title>
<polygon fill="#8dd3c7" stroke="black" points="3926.93,-198 3923.93,-202 3902.93,-202 3899.93,-198 3807.07,-198 3807.07,-162 3926.93,-162 3926.93,-198"/>
<text text-anchor="middle" x="3867" y="-175.8" font-family="Times,serif" font-size="14.00">PaginationModule</text>
</g>
<!-- PaginationModule&#45;&gt;ProductsModule -->
<g id="edge21" class="edge">
<title>PaginationModule&#45;&gt;ProductsModule</title>
<path fill="none" stroke="black" d="M3902.83,-198.22C3902.83,-218.37 3902.83,-248 3902.83,-248 3902.83,-248 3579.33,-248 3579.33,-248"/>
<polygon fill="black" stroke="black" points="3579.33,-244.5 3569.33,-248 3579.33,-251.5 3579.33,-244.5"/>
</g>
<!-- PaginationModule&#45;&gt;UsersModule -->
<g id="edge39" class="edge">
<title>PaginationModule&#45;&gt;UsersModule</title>
<path fill="none" stroke="black" d="M3831.17,-198.06C3831.17,-202.49 3831.17,-206 3831.17,-206 3831.17,-206 1735.24,-206 1735.24,-206 1735.24,-206 1735.24,-219.94 1735.24,-219.94"/>
<polygon fill="black" stroke="black" points="1731.74,-219.94 1735.24,-229.94 1738.74,-219.94 1731.74,-219.94"/>
</g>
<!-- PaginationModule&#45;&gt;PaginationProvider  -->
<g id="edge18" class="edge">
<title>PaginationModule&#45;&gt;PaginationProvider </title>
<path fill="none" stroke="black" stroke-dasharray="5,2" d="M3855.06,-198.19C3855.06,-206.28 3855.06,-214 3855.06,-214 3855.06,-214 4941,-214 4941,-214 4941,-214 4941,-219.81 4941,-219.81"/>
<polygon fill="black" stroke="black" points="4937.5,-219.81 4941,-229.81 4944.5,-219.81 4937.5,-219.81"/>
</g>
<!-- PaginationProvider -->
<g id="node21" class="node">
<title>PaginationProvider</title>
<ellipse fill="#fdb462" stroke="black" cx="4767" cy="-248" rx="85.69" ry="18"/>
<text text-anchor="middle" x="4767" y="-243.8" font-family="Times,serif" font-size="14.00">PaginationProvider</text>
</g>
<!-- PaginationProvider&#45;&gt;PaginationModule -->
<g id="edge19" class="edge">
<title>PaginationProvider&#45;&gt;PaginationModule</title>
<path fill="none" stroke="black" d="M4767,-229.94C4767,-225.51 4767,-222 4767,-222 4767,-222 3878.94,-222 3878.94,-222 3878.94,-222 3878.94,-208.06 3878.94,-208.06"/>
<polygon fill="black" stroke="black" points="3882.44,-208.06 3878.94,-198.06 3875.44,-208.06 3882.44,-208.06"/>
</g>
<!-- ProductImagesService -->
<g id="node22" class="node">
<title>ProductImagesService</title>
<ellipse fill="#fdb462" stroke="black" cx="642" cy="-248" rx="97.83" ry="18"/>
<text text-anchor="middle" x="642" y="-243.8" font-family="Times,serif" font-size="14.00">ProductImagesService</text>
</g>
<!-- ProductImagesService&#45;&gt;ProductImagesModule -->
<g id="edge20" class="edge">
<title>ProductImagesService&#45;&gt;ProductImagesModule</title>
<path fill="none" stroke="black" d="M625,-266.01C625,-266.01 625,-295.85 625,-295.85"/>
<polygon fill="black" stroke="black" points="621.5,-295.85 625,-305.85 628.5,-295.85 621.5,-295.85"/>
</g>
<!-- CreateProductProvider -->
<g id="node24" class="node">
<title>CreateProductProvider</title>
<ellipse fill="#fdb462" stroke="black" cx="3295" cy="-180" rx="99.56" ry="18"/>
<text text-anchor="middle" x="3295" y="-175.8" font-family="Times,serif" font-size="14.00">CreateProductProvider</text>
</g>
<!-- CreateProductProvider&#45;&gt;ProductsModule -->
<g id="edge25" class="edge">
<title>CreateProductProvider&#45;&gt;ProductsModule</title>
<path fill="none" stroke="black" d="M3344.76,-195.85C3344.76,-213.02 3344.76,-238 3344.76,-238 3344.76,-238 3450.67,-238 3450.67,-238"/>
<polygon fill="black" stroke="black" points="3450.67,-241.5 3460.67,-238 3450.67,-234.5 3450.67,-241.5"/>
</g>
<!-- FindAllProductsProvider -->
<g id="node25" class="node">
<title>FindAllProductsProvider</title>
<ellipse fill="#fdb462" stroke="black" cx="3069" cy="-180" rx="108.26" ry="18"/>
<text text-anchor="middle" x="3069" y="-175.8" font-family="Times,serif" font-size="14.00">FindAllProductsProvider</text>
</g>
<!-- FindAllProductsProvider&#45;&gt;ProductsModule -->
<g id="edge26" class="edge">
<title>FindAllProductsProvider&#45;&gt;ProductsModule</title>
<path fill="none" stroke="black" d="M3069,-198.11C3069,-217.34 3069,-245 3069,-245 3069,-245 3450.76,-245 3450.76,-245"/>
<polygon fill="black" stroke="black" points="3450.76,-248.5 3460.76,-245 3450.76,-241.5 3450.76,-248.5"/>
</g>
<!-- ProductsService -->
<g id="node26" class="node">
<title>ProductsService</title>
<ellipse fill="#fdb462" stroke="black" cx="3709" cy="-180" rx="73.57" ry="18"/>
<text text-anchor="middle" x="3709" y="-175.8" font-family="Times,serif" font-size="14.00">ProductsService</text>
</g>
<!-- ProductsService&#45;&gt;ProductsModule -->
<g id="edge27" class="edge">
<title>ProductsService&#45;&gt;ProductsModule</title>
<path fill="none" stroke="black" d="M3709,-198.27C3709,-216.56 3709,-242 3709,-242 3709,-242 3579.3,-242 3579.3,-242"/>
<polygon fill="black" stroke="black" points="3579.3,-238.5 3569.3,-242 3579.3,-245.5 3579.3,-238.5"/>
</g>
<!-- UpdateProductProvider -->
<g id="node27" class="node">
<title>UpdateProductProvider</title>
<ellipse fill="#fdb462" stroke="black" cx="3515" cy="-180" rx="102.43" ry="18"/>
<text text-anchor="middle" x="3515" y="-175.8" font-family="Times,serif" font-size="14.00">UpdateProductProvider</text>
</g>
<!-- UpdateProductProvider&#45;&gt;ProductsModule -->
<g id="edge28" class="edge">
<title>UpdateProductProvider&#45;&gt;ProductsModule</title>
<path fill="none" stroke="black" d="M3515,-198.22C3515,-198.22 3515,-219.73 3515,-219.73"/>
<polygon fill="black" stroke="black" points="3511.5,-219.73 3515,-229.73 3518.5,-219.73 3511.5,-219.73"/>
</g>
<!-- ProductVariantsService -->
<g id="node29" class="node">
<title>ProductVariantsService</title>
<ellipse fill="#fdb462" stroke="black" cx="4362" cy="-248" rx="102.98" ry="18"/>
<text text-anchor="middle" x="4362" y="-243.8" font-family="Times,serif" font-size="14.00">ProductVariantsService</text>
</g>
<!-- ProductVariantsService&#45;&gt;ProductVariantsModule -->
<g id="edge30" class="edge">
<title>ProductVariantsService&#45;&gt;ProductVariantsModule</title>
<path fill="none" stroke="black" d="M4285.25,-236C4236.15,-236 4181.63,-236 4181.63,-236 4181.63,-236 4181.63,-208.03 4181.63,-208.03"/>
<polygon fill="black" stroke="black" points="4185.13,-208.03 4181.63,-198.03 4178.13,-208.03 4185.13,-208.03"/>
</g>
<!-- CreateReviewProvider -->
<g id="node30" class="node">
<title>CreateReviewProvider</title>
<ellipse fill="#fdb462" stroke="black" cx="2822" cy="-248" rx="98.97" ry="18"/>
<text text-anchor="middle" x="2822" y="-243.8" font-family="Times,serif" font-size="14.00">CreateReviewProvider</text>
</g>
<!-- CreateReviewProvider&#45;&gt;ReviewsModule -->
<g id="edge32" class="edge">
<title>CreateReviewProvider&#45;&gt;ReviewsModule</title>
<path fill="none" stroke="black" d="M2751.95,-260.89C2751.95,-260.89 2751.95,-295.91 2751.95,-295.91"/>
<polygon fill="black" stroke="black" points="2748.45,-295.91 2751.95,-305.91 2755.45,-295.91 2748.45,-295.91"/>
</g>
<!-- ReviewsService -->
<g id="node31" class="node">
<title>ReviewsService</title>
<ellipse fill="#fdb462" stroke="black" cx="2632" cy="-248" rx="73.49" ry="18"/>
<text text-anchor="middle" x="2632" y="-243.8" font-family="Times,serif" font-size="14.00">ReviewsService</text>
</g>
<!-- ReviewsService&#45;&gt;ReviewsModule -->
<g id="edge33" class="edge">
<title>ReviewsService&#45;&gt;ReviewsModule</title>
<path fill="none" stroke="black" d="M2689.18,-259.54C2689.18,-259.54 2689.18,-295.83 2689.18,-295.83"/>
<polygon fill="black" stroke="black" points="2685.68,-295.83 2689.18,-305.83 2692.68,-295.83 2685.68,-295.83"/>
</g>
<!-- SubscribersService -->
<g id="node32" class="node">
<title>SubscribersService</title>
<ellipse fill="#fdb462" stroke="black" cx="263" cy="-248" rx="85.09" ry="18"/>
<text text-anchor="middle" x="263" y="-243.8" font-family="Times,serif" font-size="14.00">SubscribersService</text>
</g>
<!-- SubscribersService&#45;&gt;SubscribersModule -->
<g id="edge35" class="edge">
<title>SubscribersService&#45;&gt;SubscribersModule</title>
<path fill="none" stroke="black" d="M263,-266.01C263,-266.01 263,-295.85 263,-295.85"/>
<polygon fill="black" stroke="black" points="259.5,-295.85 263,-305.85 266.5,-295.85 259.5,-295.85"/>
</g>
<!-- UploadToAwsProvider -->
<g id="node34" class="node">
<title>UploadToAwsProvider</title>
<ellipse fill="#fdb462" stroke="black" cx="3998" cy="-104" rx="101.29" ry="18"/>
<text text-anchor="middle" x="3998" y="-99.8" font-family="Times,serif" font-size="14.00">UploadToAwsProvider</text>
</g>
<!-- UploadToAwsProvider&#45;&gt;UploadsModule -->
<g id="edge37" class="edge">
<title>UploadToAwsProvider&#45;&gt;UploadsModule</title>
<path fill="none" stroke="black" d="M3998,-122.01C3998,-122.01 3998,-151.85 3998,-151.85"/>
<polygon fill="black" stroke="black" points="3994.5,-151.85 3998,-161.85 4001.5,-151.85 3994.5,-151.85"/>
</g>
<!-- UploadsService -->
<g id="node35" class="node">
<title>UploadsService</title>
<ellipse fill="#fdb462" stroke="black" cx="3807" cy="-104" rx="72.35" ry="18"/>
<text text-anchor="middle" x="3807" y="-99.8" font-family="Times,serif" font-size="14.00">UploadsService</text>
</g>
<!-- UploadsService&#45;&gt;UploadsModule -->
<g id="edge38" class="edge">
<title>UploadsService&#45;&gt;UploadsModule</title>
<path fill="none" stroke="black" d="M3843.23,-119.63C3843.23,-127.75 3843.23,-136 3843.23,-136 3843.23,-136 3971.45,-136 3971.45,-136 3971.45,-136 3971.45,-151.85 3971.45,-151.85"/>
<polygon fill="black" stroke="black" points="3967.95,-151.85 3971.45,-161.85 3974.95,-151.85 3967.95,-151.85"/>
</g>
<!-- ClearOtpAndExpiryTimeProvider -->
<g id="node37" class="node">
<title>ClearOtpAndExpiryTimeProvider</title>
<ellipse fill="#fdb462" stroke="black" cx="1972" cy="-180" rx="142.96" ry="18"/>
<text text-anchor="middle" x="1972" y="-175.8" font-family="Times,serif" font-size="14.00">ClearOtpAndExpiryTimeProvider</text>
</g>
<!-- ClearOtpAndExpiryTimeProvider&#45;&gt;UsersModule -->
<g id="edge41" class="edge">
<title>ClearOtpAndExpiryTimeProvider&#45;&gt;UsersModule</title>
<path fill="none" stroke="black" d="M1972,-198.02C1972,-215.37 1972,-239 1972,-239 1972,-239 1775.93,-239 1775.93,-239"/>
<polygon fill="black" stroke="black" points="1775.93,-235.5 1765.93,-239 1775.93,-242.5 1775.93,-235.5"/>
</g>
<!-- CreateUsersProvider -->
<g id="node38" class="node">
<title>CreateUsersProvider</title>
<ellipse fill="#fdb462" stroke="black" cx="1720" cy="-180" rx="91.45" ry="18"/>
<text text-anchor="middle" x="1720" y="-175.8" font-family="Times,serif" font-size="14.00">CreateUsersProvider</text>
</g>
<!-- CreateUsersProvider&#45;&gt;UsersModule -->
<g id="edge42" class="edge">
<title>CreateUsersProvider&#45;&gt;UsersModule</title>
<path fill="none" stroke="black" d="M1704.76,-197.87C1704.76,-197.87 1704.76,-219.54 1704.76,-219.54"/>
<polygon fill="black" stroke="black" points="1701.26,-219.54 1704.76,-229.54 1708.26,-219.54 1701.26,-219.54"/>
</g>
<!-- FindOneByIdProvider -->
<g id="node39" class="node">
<title>FindOneByIdProvider</title>
<ellipse fill="#fdb462" stroke="black" cx="1513" cy="-180" rx="97.3" ry="18"/>
<text text-anchor="middle" x="1513" y="-175.8" font-family="Times,serif" font-size="14.00">FindOneByIdProvider</text>
</g>
<!-- FindOneByIdProvider&#45;&gt;UsersModule -->
<g id="edge43" class="edge">
<title>FindOneByIdProvider&#45;&gt;UsersModule</title>
<path fill="none" stroke="black" d="M1604.36,-186.31C1604.36,-201.53 1604.36,-239 1604.36,-239 1604.36,-239 1663.96,-239 1663.96,-239"/>
<polygon fill="black" stroke="black" points="1663.96,-242.5 1673.96,-239 1663.96,-235.5 1663.96,-242.5"/>
</g>
<!-- FindOneUserByEmailProvider -->
<g id="node40" class="node">
<title>FindOneUserByEmailProvider</title>
<ellipse fill="#fdb462" stroke="black" cx="1267" cy="-180" rx="130.8" ry="18"/>
<text text-anchor="middle" x="1267" y="-175.8" font-family="Times,serif" font-size="14.00">FindOneUserByEmailProvider</text>
</g>
<!-- FindOneUserByEmailProvider&#45;&gt;UsersModule -->
<g id="edge44" class="edge">
<title>FindOneUserByEmailProvider&#45;&gt;UsersModule</title>
<path fill="none" stroke="black" d="M1267,-198.22C1267,-218.37 1267,-248 1267,-248 1267,-248 1664.07,-248 1664.07,-248"/>
<polygon fill="black" stroke="black" points="1664.07,-251.5 1674.07,-248 1664.07,-244.5 1664.07,-251.5"/>
</g>
<!-- FindUserByOtpAndExpiryTimeProvider -->
<g id="node41" class="node">
<title>FindUserByOtpAndExpiryTimeProvider</title>
<ellipse fill="#fdb462" stroke="black" cx="949" cy="-180" rx="169.05" ry="18"/>
<text text-anchor="middle" x="949" y="-175.8" font-family="Times,serif" font-size="14.00">FindUserByOtpAndExpiryTimeProvider</text>
</g>
<!-- FindUserByOtpAndExpiryTimeProvider&#45;&gt;UsersModule -->
<g id="edge45" class="edge">
<title>FindUserByOtpAndExpiryTimeProvider&#45;&gt;UsersModule</title>
<path fill="none" stroke="black" d="M949,-198.25C949,-221.02 949,-257 949,-257 949,-257 1664.08,-257 1664.08,-257"/>
<polygon fill="black" stroke="black" points="1664.08,-260.5 1674.08,-257 1664.08,-253.5 1664.08,-260.5"/>
</g>
<!-- StoreOtpAndExpireProvider -->
<g id="node42" class="node">
<title>StoreOtpAndExpireProvider</title>
<ellipse fill="#fdb462" stroke="black" cx="2397" cy="-180" rx="121.55" ry="18"/>
<text text-anchor="middle" x="2397" y="-175.8" font-family="Times,serif" font-size="14.00">StoreOtpAndExpireProvider</text>
</g>
<!-- StoreOtpAndExpireProvider&#45;&gt;UsersModule -->
<g id="edge46" class="edge">
<title>StoreOtpAndExpireProvider&#45;&gt;UsersModule</title>
<path fill="none" stroke="black" d="M2397,-198.25C2397,-221.02 2397,-257 2397,-257 2397,-257 1775.74,-257 1775.74,-257"/>
<polygon fill="black" stroke="black" points="1775.74,-253.5 1765.74,-257 1775.74,-260.5 1775.74,-253.5"/>
</g>
<!-- UsersService -->
<g id="node43" class="node">
<title>UsersService</title>
<ellipse fill="#fdb462" stroke="black" cx="2195" cy="-180" rx="61.95" ry="18"/>
<text text-anchor="middle" x="2195" y="-175.8" font-family="Times,serif" font-size="14.00">UsersService</text>
</g>
<!-- UsersService&#45;&gt;UsersModule -->
<g id="edge47" class="edge">
<title>UsersService&#45;&gt;UsersModule</title>
<path fill="none" stroke="black" d="M2195,-198.22C2195,-218.37 2195,-248 2195,-248 2195,-248 1775.98,-248 1775.98,-248"/>
<polygon fill="black" stroke="black" points="1775.98,-244.5 1765.98,-248 1775.98,-251.5 1775.98,-244.5"/>
</g>
</g>
</svg>
